g Bone09
v 0.3827146 -0.007900001 0.0139
v 0.3827146 0.007900001 0.0139
v 0.3827146 -0.007900001 -0.0139
v 0.3827146 0.007900001 -0.0139
v 0.109 0.079 0.139
v 0.109 0.079 -0.139
v 0.3827146 0.007900001 0.0139
v 0.3827146 0.007900001 -0.0139
v 0.109 -0.079 0.139
v 0.109 0.079 0.139
v 0.3827146 -0.007900001 0.0139
v 0.3827146 0.007900001 0.0139
v 0.3827146 -0.007900001 -0.0139
v 0.3827146 0.007900001 -0.0139
v 0.109 -0.079 -0.139
v 0.109 0.079 -0.139
v 0.3827146 -0.007900001 0.0139
v 0.3827146 -0.007900001 -0.0139
v 0.109 -0.079 0.139
v 0.109 -0.079 -0.139
v 0 0 0
v 0.109 0.079 0.139
v 0.109 -0.079 0.139
v 0 0 0
v 0.109 0.079 -0.139
v 0.109 0.079 0.139
v 0 0 0
v 0.109 -0.079 -0.139
v 0.109 0.079 -0.139
v 0 0 0
v 0.109 -0.079 0.139
v 0.109 -0.079 -0.139
vt 0 0
vt 0 0
vt 0 0
vt 0 0
vt 0 0
vt 0 0
vt 0 0
vt 0 0
vt 0 0
vt 0 0
vt 0 0
vt 0 0
vt 0 0
vt 0 0
vt 0 0
vt 0 0
vt 0 0
vt 0 0
vt 0 0
vt 0 0
vt 0 0
vt 0 0
vt 0 0
vt 0 0
vt 0 0
vt 0 0
vt 0 0
vt 0 0
vt 0 0
vt 0 0
vt 0 0
vt 0 0
vn 1 0 0
vn 1 0 0
vn 1 0 0
vn 1 0 0
vn 0.2514159 0.9678791 0
vn 0.2514159 0.9678791 0
vn 0.2514159 0.9678791 0
vn 0.2514159 0.9678791 0
vn 0.4156864 0 0.9095079
vn 0.4156865 0 0.9095079
vn 0.4156865 0 0.9095079
vn 0.4156865 0 0.9095079
vn 0.4156865 0 -0.9095079
vn 0.4156865 0 -0.9095079
vn 0.4156865 0 -0.9095079
vn 0.4156864 0 -0.9095079
vn 0.2514159 -0.9678791 0
vn 0.2514159 -0.9678791 0
vn 0.2514159 -0.9678791 0
vn 0.2514159 -0.9678791 0
vn -0.7869073 0 0.6170713
vn -0.7869073 0 0.6170713
vn -0.7869073 0 0.6170713
vn -0.5868458 0.8096987 0
vn -0.5868459 0.8096987 0
vn -0.5868459 0.8096987 0
vn -0.7869073 0 -0.6170713
vn -0.7869073 0 -0.6170713
vn -0.7869073 0 -0.6170713
vn -0.5868458 -0.8096987 0
vn -0.5868459 -0.8096987 0
vn -0.5868459 -0.8096987 0
g Bone09_0
f 3/3/3 2/2/2 1/1/1
f 2/2/2 3/3/3 4/4/4
f 7/7/7 6/6/6 5/5/5
f 6/6/6 7/7/7 8/8/8
f 11/11/11 10/10/10 9/9/9
f 10/10/10 11/11/11 12/12/12
f 15/15/15 14/14/14 13/13/13
f 14/14/14 15/15/15 16/16/16
f 19/19/19 18/18/18 17/17/17
f 18/18/18 19/19/19 20/20/20
f 23/23/23 22/22/22 21/21/21
f 26/26/26 25/25/25 24/24/24
f 29/29/29 28/28/28 27/27/27
f 32/32/32 31/31/31 30/30/30
