g Bone03
v 0.1606611 -0.02180001 0.01965
v 0.1606611 0.02180001 0.01965
v 0.1606611 -0.02180001 -0.01965
v 0.1606611 0.02180001 -0.01965
v 0.20725 0.218 0.1965
v 0.20725 0.218 -0.1965
v 0.1606611 0.02180001 0.01965
v 0.1606611 0.02180001 -0.01965
v 0.20725 -0.218 0.1965
v 0.20725 0.218 0.1965
v 0.1606611 -0.02180001 0.01965
v 0.1606611 0.02180001 0.01965
v 0.1606611 -0.02180001 -0.01965
v 0.1606611 0.02180001 -0.01965
v 0.20725 -0.218 -0.1965
v 0.20725 0.218 -0.1965
v 0.1606611 -0.02180001 0.01965
v 0.1606611 -0.02180001 -0.01965
v 0.20725 -0.218 0.1965
v 0.20725 -0.218 -0.1965
v 0 0 0
v 0.20725 0.218 0.1965
v 0.20725 -0.218 0.1965
v 0 0 0
v 0.20725 0.218 -0.1965
v 0.20725 0.218 0.1965
v 0 0 0
v 0.20725 -0.218 -0.1965
v 0.20725 0.218 -0.1965
v 0 0 0
v 0.20725 -0.218 0.1965
v 0.20725 -0.218 -0.1965
vt 0 0
vt 0 0
vt 0 0
vt 0 0
vt 0 0
vt 0 0
vt 0 0
vt 0 0
vt 0 0
vt 0 0
vt 0 0
vt 0 0
vt 0 0
vt 0 0
vt 0 0
vt 0 0
vt 0 0
vt 0 0
vt 0 0
vt 0 0
vt 0 0
vt 0 0
vt 0 0
vt 0 0
vt 0 0
vt 0 0
vt 0 0
vt 0 0
vt 0 0
vt 0 0
vt 0 0
vt 0 0
vn 1 0 0
vn 1 0 0
vn 1 0 0
vn 1 0 0
vn 0.9729461 -0.2310322 0
vn 0.9729461 -0.2310322 0
vn 0.9729461 -0.2310321 0
vn 0.9729461 -0.2310321 0
vn 0.9670081 0 -0.2547461
vn 0.9670079 0 -0.2547461
vn 0.9670079 0 -0.2547461
vn 0.9670079 0 -0.2547461
vn 0.9670079 0 0.2547461
vn 0.9670079 0 0.2547461
vn 0.9670079 0 0.2547461
vn 0.9670081 0 0.2547461
vn 0.9729461 0.2310321 0
vn 0.9729461 0.2310321 0
vn 0.9729461 0.2310322 0
vn 0.9729461 0.2310322 0
vn -0.688036 0 0.7256767
vn -0.688036 0 0.7256766
vn -0.688036 0 0.7256766
vn -0.7247504 0.6890116 0
vn -0.7247504 0.6890116 0
vn -0.7247504 0.6890116 0
vn -0.688036 0 -0.7256767
vn -0.688036 0 -0.7256766
vn -0.688036 0 -0.7256766
vn -0.7247504 -0.6890116 0
vn -0.7247504 -0.6890116 0
vn -0.7247504 -0.6890116 0
g Bone03_0
f 3/3/3 2/2/2 1/1/1
f 2/2/2 3/3/3 4/4/4
f 7/7/7 6/6/6 5/5/5
f 6/6/6 7/7/7 8/8/8
f 11/11/11 10/10/10 9/9/9
f 10/10/10 11/11/11 12/12/12
f 15/15/15 14/14/14 13/13/13
f 14/14/14 15/15/15 16/16/16
f 19/19/19 18/18/18 17/17/17
f 18/18/18 19/19/19 20/20/20
f 23/23/23 22/22/22 21/21/21
f 26/26/26 25/25/25 24/24/24
f 29/29/29 28/28/28 27/27/27
f 32/32/32 31/31/31 30/30/30
