g Bone02
v 0.2799863 -0.03235001 0.03205001
v 0.2799863 0.03235001 0.03205001
v 0.2799863 -0.03235001 -0.03205001
v 0.2799863 0.03235001 -0.03205001
v 0.322 0.3235 0.3205
v 0.322 0.3235 -0.3205
v 0.2799863 0.03235001 0.03205001
v 0.2799863 0.03235001 -0.03205001
v 0.322 -0.3235 0.3205
v 0.322 0.3235 0.3205
v 0.2799863 -0.03235001 0.03205001
v 0.2799863 0.03235001 0.03205001
v 0.2799863 -0.03235001 -0.03205001
v 0.2799863 0.03235001 -0.03205001
v 0.322 -0.3235 -0.3205
v 0.322 0.3235 -0.3205
v 0.2799863 -0.03235001 0.03205001
v 0.2799863 -0.03235001 -0.03205001
v 0.322 -0.3235 0.3205
v 0.322 -0.3235 -0.3205
v 0 0 0
v 0.322 0.3235 0.3205
v 0.322 -0.3235 0.3205
v 0 0 0
v 0.322 0.3235 -0.3205
v 0.322 0.3235 0.3205
v 0 0 0
v 0.322 -0.3235 -0.3205
v 0.322 0.3235 -0.3205
v 0 0 0
v 0.322 -0.3235 0.3205
v 0.322 -0.3235 -0.3205
vt 0 0
vt 0 0
vt 0 0
vt 0 0
vt 0 0
vt 0 0
vt 0 0
vt 0 0
vt 0 0
vt 0 0
vt 0 0
vt 0 0
vt 0 0
vt 0 0
vt 0 0
vt 0 0
vt 0 0
vt 0 0
vt 0 0
vt 0 0
vt 0 0
vt 0 0
vt 0 0
vt 0 0
vt 0 0
vt 0 0
vt 0 0
vt 0 0
vt 0 0
vt 0 0
vt 0 0
vt 0 0
vn 1 0 0
vn 1 0 0
vn 1 0 0
vn 1 0 0
vn 0.9897482 -0.1428234 0
vn 0.9897482 -0.1428234 0
vn 0.9897482 -0.1428234 0
vn 0.9897482 -0.1428234 0
vn 0.9895583 0 -0.1441326
vn 0.9895583 0 -0.1441326
vn 0.9895583 0 -0.1441326
vn 0.9895583 0 -0.1441326
vn 0.9895583 0 0.1441326
vn 0.9895583 0 0.1441326
vn 0.9895583 0 0.1441326
vn 0.9895583 0 0.1441326
vn 0.9897482 0.1428234 0
vn 0.9897482 0.1428234 0
vn 0.9897482 0.1428234 0
vn 0.9897482 0.1428234 0
vn -0.705454 0 0.7087557
vn -0.705454 0 0.7087557
vn -0.705454 0 0.7087557
vn -0.708748 0.7054617 0
vn -0.708748 0.7054617 0
vn -0.708748 0.7054617 0
vn -0.705454 0 -0.7087557
vn -0.705454 0 -0.7087557
vn -0.705454 0 -0.7087557
vn -0.708748 -0.7054617 0
vn -0.708748 -0.7054617 0
vn -0.708748 -0.7054617 0
g Bone02_0
f 3/3/3 2/2/2 1/1/1
f 2/2/2 3/3/3 4/4/4
f 7/7/7 6/6/6 5/5/5
f 6/6/6 7/7/7 8/8/8
f 11/11/11 10/10/10 9/9/9
f 10/10/10 11/11/11 12/12/12
f 15/15/15 14/14/14 13/13/13
f 14/14/14 15/15/15 16/16/16
f 19/19/19 18/18/18 17/17/17
f 18/18/18 19/19/19 20/20/20
f 23/23/23 22/22/22 21/21/21
f 26/26/26 25/25/25 24/24/24
f 29/29/29 28/28/28 27/27/27
f 32/32/32 31/31/31 30/30/30
