g Box01
v 0.2265194 9.901476E-09 -0.04846881
v 0.1961716 0.1132597 0.04846894
v 0.1961716 0.1132597 -0.04846871
v 0.2265194 9.901476E-09 0.04846885
v 0.1132596 0.1961716 0.04846901
v 0.1132596 0.1961716 -0.04846863
v -9.865654E-08 0.2265194 0.04846902
v -9.441926E-08 0.2265194 -0.04846863
v 0.1961714 -0.1132598 -0.04846891
v 0.1961714 -0.1132599 0.04846874
v 0.1132596 -0.1961716 -0.04846898
v 0.1132596 -0.1961717 0.04846866
v -1.509102E-07 -0.2265194 -0.04846902
v -1.551475E-07 -0.2265195 0.04846862
v -9.441926E-08 0.2265194 -0.04846863
v -0.1132598 0.1961716 0.048469
v -0.1132598 0.1961716 -0.04846865
v -9.865654E-08 0.2265194 0.04846902
v -0.1961717 0.1132597 0.04846893
v -0.1961717 0.1132597 -0.04846873
v -0.2265195 2.824549E-08 0.04846882
v -0.2265195 2.824549E-08 -0.04846883
v -0.1961717 -0.1132597 0.04846872
v -0.1961717 -0.1132596 -0.04846892
v -0.1132599 -0.1961716 0.04846865
v -0.1132599 -0.1961715 -0.048469
v -1.551475E-07 -0.2265195 0.04846862
v -1.509102E-07 -0.2265194 -0.04846902
v 0.1961714 -0.1132598 -0.04846891
v 0.2265194 9.901476E-09 -0.04846881
v 0.1961716 0.1132597 -0.04846871
v 0.1132596 0.1961716 -0.04846863
v 0.1132596 -0.1961716 -0.04846898
v -9.441926E-08 0.2265194 -0.04846863
v -1.509102E-07 -0.2265194 -0.04846902
v 0.1961716 0.1132597 0.04846894
v 0.2265194 9.901476E-09 0.04846885
v 0.1961714 -0.1132599 0.04846874
v 0.1132596 0.1961716 0.04846901
v 0.1132596 -0.1961717 0.04846866
v -9.865654E-08 0.2265194 0.04846902
v -1.551475E-07 -0.2265195 0.04846862
v -1.509102E-07 -0.2265194 -0.04846902
v -9.441926E-08 0.2265194 -0.04846863
v -0.1132598 0.1961716 -0.04846865
v -0.1132599 -0.1961715 -0.048469
v -0.1961717 0.1132597 -0.04846873
v -0.1961717 -0.1132596 -0.04846892
v -0.2265195 2.824549E-08 -0.04846883
v -0.1132598 0.1961716 0.048469
v -9.865654E-08 0.2265194 0.04846902
v -1.551475E-07 -0.2265195 0.04846862
v -0.1132599 -0.1961716 0.04846865
v -0.1961717 0.1132597 0.04846893
v -0.1961717 -0.1132597 0.04846872
v -0.2265195 2.824549E-08 0.04846882
vt 0.02163798 0.5006618
vt 0.1597554 0.3408385
vt 0.02163798 0.3408385
vt 0.1597554 0.5006618
vt 0.1597554 0.1810153
vt 0.02163798 0.1810153
vt 0.1597554 0.02119178
vt 0.02163798 0.02119178
vt 0.02163798 0.6604852
vt 0.1597554 0.6604852
vt 0.02163798 0.8203086
vt 0.1597554 0.8203086
vt 0.02163798 0.9801318
vt 0.1597554 0.9801318
vt 0.02163798 0.02119178
vt 0.1597553 0.1810153
vt 0.02163798 0.1810153
vt 0.1597553 0.02119178
vt 0.1597553 0.3408385
vt 0.02163798 0.3408385
vt 0.1597553 0.5006618
vt 0.02163798 0.5006618
vt 0.1597553 0.660485
vt 0.02163798 0.660485
vt 0.1597553 0.8203084
vt 0.02163798 0.8203084
vt 0.1597553 0.9801318
vt 0.02163798 0.9801318
vt 0.5987962 0.2635817
vt 0.662529 0.5014351
vt 0.5987965 0.7392883
vt 0.4246758 0.9134087
vt 0.4246757 0.08946126
vt 0.1868227 0.9771413
vt 0.1868225 0.02572885
vt 0.5987965 0.7392883
vt 0.662529 0.5014351
vt 0.5987962 0.2635817
vt 0.4246758 0.9134087
vt 0.4246757 0.08946126
vt 0.1868227 0.9771413
vt 0.1868225 0.02572885
vt 0.1868228 0.02572862
vt 0.1868225 0.9771412
vt 0.4246757 0.9134086
vt 0.4246757 0.08946126
vt 0.5987962 0.7392879
vt 0.5987962 0.2635818
vt 0.6625288 0.5014349
vt 0.4246757 0.9134086
vt 0.1868225 0.9771412
vt 0.1868228 0.02572862
vt 0.4246757 0.08946126
vt 0.5987962 0.7392879
vt 0.5987962 0.2635818
vt 0.6625288 0.5014349
vn 1 -5.259076E-07 0
vn 0.8660253 0.5000001 0
vn 0.8660255 0.4999998 0
vn 1 -2.410981E-07 0
vn 0.4999999 0.8660255 0
vn 0.4999999 0.8660255 0
vn -2.204897E-07 1 0
vn -2.204897E-07 1 0
vn 0.8660253 -0.5000004 -3.921142E-07
vn 0.8660253 -0.5000004 -3.921142E-07
vn 0.4999996 -0.8660256 -7.381911E-07
vn 0.4999996 -0.8660257 -7.381912E-07
vn -4.178764E-07 -1 -7.904483E-07
vn -4.178763E-07 -1 -7.904484E-07
vn -2.204897E-07 1 0
vn -0.4999999 0.8660255 0
vn -0.5 0.8660254 0
vn -2.204897E-07 1 0
vn -0.8660255 0.4999999 0
vn -0.8660256 0.4999997 0
vn -1 1.72351E-07 -1.132013E-07
vn -1 -1.222795E-07 -1.132014E-07
vn -0.8660257 -0.4999996 -4.721676E-07
vn -0.8660257 -0.4999996 -4.721676E-07
vn -0.5000002 -0.8660253 -7.819023E-07
vn -0.5000002 -0.8660253 -7.819023E-07
vn -4.178763E-07 -1 -7.904484E-07
vn -4.178764E-07 -1 -7.904483E-07
vn 0 8.84728E-07 -1
vn 0 8.84728E-07 -1
vn 0 8.84728E-07 -1
vn 0 8.84728E-07 -1
vn 0 8.84728E-07 -1
vn 0 8.847281E-07 -1
vn 0 8.847281E-07 -1
vn 0 -8.917447E-07 1
vn 0 -8.917447E-07 1
vn 0 -8.917447E-07 1
vn 0 -8.917447E-07 1
vn 0 -8.917447E-07 1
vn 0 -8.917449E-07 1
vn 0 -8.917449E-07 1
vn 0 8.847281E-07 -1
vn 0 8.847281E-07 -1
vn 0 8.847282E-07 -1
vn 0 8.847282E-07 -1
vn 0 8.847283E-07 -1
vn 0 8.847283E-07 -1
vn 0 8.847283E-07 -1
vn 0 -8.917452E-07 1
vn 0 -8.917449E-07 1
vn 0 -8.917449E-07 1
vn 0 -8.917451E-07 1
vn 0 -8.917451E-07 1
vn 0 -8.917451E-07 1
vn 0 -8.917451E-07 1
g Box01_0
f 3/3/3 2/2/2 1/1/1
f 2/2/2 4/4/4 1/1/1
f 5/5/5 2/2/2 3/3/3
f 6/6/6 5/5/5 3/3/3
f 7/7/7 5/5/5 6/6/6
f 8/8/8 7/7/7 6/6/6
f 1/1/1 4/4/4 9/9/9
f 4/4/4 10/10/10 9/9/9
f 9/9/9 10/10/10 11/11/11
f 10/10/10 12/12/12 11/11/11
f 11/11/11 12/12/12 13/13/13
f 12/12/12 14/14/14 13/13/13
f 17/17/17 16/16/16 15/15/15
f 16/16/16 18/18/18 15/15/15
f 19/19/19 16/16/16 17/17/17
f 20/20/20 19/19/19 17/17/17
f 21/21/21 19/19/19 20/20/20
f 22/22/22 21/21/21 20/20/20
f 23/23/23 21/21/21 22/22/22
f 24/24/24 23/23/23 22/22/22
f 25/25/25 23/23/23 24/24/24
f 26/26/26 25/25/25 24/24/24
f 27/27/27 25/25/25 26/26/26
f 28/28/28 27/27/27 26/26/26
f 31/31/31 30/30/30 29/29/29
f 29/29/29 32/32/32 31/31/31
f 29/29/29 33/33/33 32/32/32
f 33/33/33 34/34/34 32/32/32
f 33/33/33 35/35/35 34/34/34
f 38/38/38 37/37/37 36/36/36
f 36/36/36 39/39/39 38/38/38
f 39/39/39 40/40/40 38/38/38
f 39/39/39 41/41/41 40/40/40
f 41/41/41 42/42/42 40/40/40
f 45/45/45 44/44/44 43/43/43
f 43/43/43 46/46/46 45/45/45
f 46/46/46 47/47/47 45/45/45
f 46/46/46 48/48/48 47/47/47
f 48/48/48 49/49/49 47/47/47
f 52/52/52 51/51/51 50/50/50
f 50/50/50 53/53/53 52/52/52
f 50/50/50 54/54/54 53/53/53
f 54/54/54 55/55/55 53/53/53
f 54/54/54 56/56/56 55/55/55
