g Box01
v 0.07592397 -0.5808219 -0.07154224
v 0.1748569 -0.3355739 0.02129053
v 0.2891815 -0.3355739 -0.03475716
v 0.2102942 -0.232964 0.04290436
v -1.907349E-08 -0.3355739 0.05083784
v -1.907349E-08 -0.232964 0.08572752
v -1.907349E-08 -0.5808219 -0.04719269
v -1.907349E-08 0.008112988 0.1064075
v 0.2630391 0.008097081 0.06919023
v 0.2925053 0.2369714 0.02513018
v -1.907349E-08 0.2606734 0.08582594
v 0.04798092 0.5808219 -0.01563416
v 0.3641017 0.3008713 -0.01933087
v -1.907349E-08 0.5808219 -0.01563416
v 0.4685777 0.008112977 -0.01017484
v 0.382387 -0.2236057 -0.0222949
v 0.5267293 0.1644505 -0.02436517
v -0.04798096 0.5808219 -0.01563416
v -0.2925054 0.2369714 0.02513018
v -0.3641018 0.3008713 -0.01933087
v -0.2630391 0.008097081 0.06919023
v -0.2102942 -0.232964 0.04290436
v -0.4685777 0.008112977 -0.01017484
v -0.382387 -0.2236057 -0.0222949
v -0.5267293 0.1644505 -0.02436517
v -0.2891815 -0.3355739 -0.03475716
v -0.1748569 -0.3355739 0.02129053
v -0.07592403 -0.5808219 -0.07154224
v -0.07592403 -0.5808219 -0.07154224
v -1.907349E-08 -0.5808219 -0.1001422
v 0.07592397 -0.5808219 -0.07154224
v 0.07592397 -0.5808219 -0.1001422
v -1.907349E-08 -0.5808219 -0.04719269
v -1.907349E-08 -0.5808219 -0.1001422
v -0.07592403 -0.5808219 -0.07154224
v -0.07592403 -0.5808219 -0.1001422
v 0.07592397 -0.5808219 -0.1001422
v 0.2891815 -0.3355739 -0.03475716
v 0.2891814 -0.3355739 -0.08126668
v 0.07592397 -0.5808219 -0.07154224
v 0.04798092 0.5808219 -0.1064075
v -1.907349E-08 0.5808219 -0.01563416
v -1.907349E-08 0.5808219 -0.1064075
v 0.04798092 0.5808219 -0.01563416
v 0.3641017 0.3008713 -0.08753202
v 0.3641017 0.3008713 -0.01933087
v -0.04798096 0.5808219 -0.1064075
v -0.04798096 0.5808219 -0.01563416
v -1.907349E-08 0.5808219 -0.1064075
v -0.3641018 0.3008713 -0.08753202
v -0.3641018 0.3008713 -0.01933087
v 0.2891814 -0.3355739 -0.08126668
v 0.2102942 -0.232964 0.04290436
v 0.2102942 -0.232964 -0.04477985
v 0.2891815 -0.3355739 -0.03475716
v 0.2102942 -0.232964 -0.04477985
v 0.382387 -0.2236057 -0.0222949
v 0.382387 -0.2236057 -0.06616177
v 0.2102942 -0.232964 0.04290436
v 0.382387 -0.2236057 -0.06616177
v 0.4685777 0.008112977 -0.01017484
v 0.4685777 0.008112979 -0.06016813
v 0.382387 -0.2236057 -0.0222949
v 0.5267293 0.1644505 -0.02436517
v 0.5267293 0.1644505 -0.07940338
v 0.2925054 0.2369714 -0.07385571
v 0.3641017 0.3008713 -0.01933087
v 0.3641017 0.3008713 -0.08753202
v 0.2925053 0.2369714 0.02513018
v 0.5267293 0.1644505 -0.07940338
v 0.2925053 0.2369714 0.02513018
v 0.2925054 0.2369714 -0.07385571
v 0.5267293 0.1644505 -0.02436517
v -0.07592403 -0.5808219 -0.1001422
v -0.2891815 -0.3355739 -0.03475716
v -0.07592403 -0.5808219 -0.07154224
v -0.2891815 -0.3355739 -0.08126668
v -0.2891815 -0.3355739 -0.08126668
v -0.2102942 -0.232964 0.04290436
v -0.2891815 -0.3355739 -0.03475716
v -0.2102942 -0.232964 -0.04477985
v -0.2102942 -0.232964 -0.04477985
v -0.382387 -0.2236057 -0.0222949
v -0.2102942 -0.232964 0.04290436
v -0.2102942 -0.232964 -0.04477985
v -0.382387 -0.2236057 -0.06616177
v -0.382387 -0.2236057 -0.06616177
v -0.4685777 0.008112977 -0.01017484
v -0.382387 -0.2236057 -0.0222949
v -0.4685777 0.008112979 -0.06016813
v -0.5267293 0.1644505 -0.02436517
v -0.5267293 0.1644505 -0.07940338
v -0.2925054 0.2369714 -0.07385571
v -0.3641018 0.3008713 -0.01933087
v -0.2925054 0.2369714 0.02513018
v -0.3641018 0.3008713 -0.08753202
v -0.5267293 0.1644505 -0.07940338
v -0.2925054 0.2369714 0.02513018
v -0.5267293 0.1644505 -0.02436517
v -0.2925054 0.2369714 -0.07385571
vt 0.5558358 0.05433641
vt 0.6327668 0.2387563
vt 0.7278576 0.2202655
vt 0.6640287 0.3133614
vt 0.496469 0.2461222
vt 0.4968335 0.321118
vt 0.4933142 0.05837337
vt 0.4976793 0.490505
vt 0.7028466 0.4894075
vt 0.7404222 0.6585531
vt 0.4983648 0.6659009
vt 0.526179 0.8973563
vt 0.7790536 0.7256344
vt 0.4982176 0.9044499
vt 0.8727258 0.483212
vt 0.8114568 0.3226117
vt 0.9229755 0.5838436
vt 0.4703299 0.8977429
vt 0.2563638 0.6592149
vt 0.2175111 0.7262611
vt 0.2922907 0.4905057
vt 0.3298553 0.3150544
vt 0.1221668 0.4854361
vt 0.1825363 0.3244441
vt 0.07293563 0.586505
vt 0.2633828 0.2243418
vt 0.3596356 0.2408341
vt 0.4307777 0.05503007
vt 0.431409 0.05357559
vt 0.5070837 0.02153758
vt 0.5558358 0.05433641
vt 0.5670865 0.03845324
vt 0.4933142 0.05837337
vt 0.4790347 0.02169458
vt 0.4307777 0.05503007
vt 0.4192554 0.03932617
vt 0.5670865 0.03845324
vt 0.7278576 0.2202655
vt 0.756334 0.20823
vt 0.5558358 0.05433641
vt 0.5631617 0.9507469
vt 0.4982176 0.9044499
vt 0.5281588 0.9660242
vt 0.526179 0.8973563
vt 0.816272 0.7515366
vt 0.7790536 0.7256344
vt 0.4335258 0.9511766
vt 0.4703299 0.8977429
vt 0.4686578 0.966291
vt 0.1802505 0.7520586
vt 0.2175111 0.7262611
vt 0.756334 0.20823
vt 0.6640287 0.3133614
vt 0.7095541 0.2868541
vt 0.7278576 0.2202655
vt 0.7095541 0.2868541
vt 0.8114568 0.3226117
vt 0.8340829 0.3036223
vt 0.6640287 0.3133614
vt 0.8340829 0.3036223
vt 0.8727258 0.483212
vt 0.9101662 0.4711522
vt 0.8114568 0.3226117
vt 0.9229755 0.5838436
vt 0.9559944 0.5911494
vt 0.8103396 0.6918367
vt 0.7790536 0.7256344
vt 0.816272 0.7515366
vt 0.7404222 0.6585531
vt 0.9559944 0.5911494
vt 0.7404222 0.6585531
vt 0.8103396 0.6918367
vt 0.9229755 0.5838436
vt 0.4192554 0.03932617
vt 0.2633828 0.2243418
vt 0.4307777 0.05503007
vt 0.2343508 0.2131931
vt 0.2343508 0.2131931
vt 0.3298553 0.3150544
vt 0.2633828 0.2243418
vt 0.2849606 0.2898855
vt 0.2849606 0.2898855
vt 0.1825363 0.3244441
vt 0.3298553 0.3150544
vt 0.2849606 0.2898855
vt 0.15998 0.3054356
vt 0.15998 0.3054356
vt 0.1221668 0.4854361
vt 0.1825363 0.3244441
vt 0.08467245 0.4735586
vt 0.07293563 0.586505
vt 0.0399685 0.5940256
vt 0.1869106 0.6925986
vt 0.2175111 0.7262611
vt 0.2563638 0.6592149
vt 0.1802505 0.7520586
vt 0.0399685 0.5940256
vt 0.2563638 0.6592149
vt 0.07293563 0.586505
vt 0.1869106 0.6925986
vn 0.2942552 -0.4274269 0.8548217
vn 0.2955174 -0.3684015 0.8814476
vn 0.4034403 -0.4000337 0.8229271
vn 0.2643268 -0.2123309 0.9407694
vn 0 -0.3440894 0.9389369
vn 0 -0.2030603 0.9791662
vn 0 -0.3969415 0.9178439
vn 0 0.003478042 0.999994
vn 0.2530482 -0.02464458 0.9671397
vn 0.2414155 0.187744 0.9520875
vn 0 0.2015949 0.9794689
vn 0.1974344 0.2753882 0.9408406
vn 0.2857123 0.3106559 0.9065658
vn 0 0.2760439 0.961145
vn 0.31989 -0.02372553 0.9471576
vn 0.355614 -0.1790226 0.9173274
vn 0.292125 0.07769749 0.9532188
vn -0.1974344 0.2753882 0.9408406
vn -0.2414154 0.187744 0.9520876
vn -0.2857122 0.3106558 0.9065658
vn -0.2530482 -0.02464459 0.9671397
vn -0.2643268 -0.2123309 0.9407694
vn -0.31989 -0.02372553 0.9471576
vn -0.355614 -0.1790226 0.9173274
vn -0.292125 0.07769751 0.9532188
vn -0.4034404 -0.4000336 0.8229271
vn -0.2955174 -0.3684015 0.8814476
vn -0.2942552 -0.4274269 0.8548217
vn -0.2942552 -0.4274269 0.8548217
vn 0 -1 0
vn 0 -1 0
vn 0 -1 0
vn 0 -1 0
vn 0 -1 0
vn 0 -1 0
vn 0 -1 0
vn 0.754608 -0.6561759 0
vn 0.754608 -0.6561759 0
vn 0.7546079 -0.6561759 0
vn 0.754608 -0.6561759 0
vn 0.3493964 0.936975 0
vn 0 1 0
vn 0 1 0
vn 0.3535245 0.9354253 0
vn 0.6629792 0.7486377 0
vn 0.6629792 0.7486377 0
vn -0.3493964 0.936975 0
vn -0.3535245 0.9354253 0
vn 0 1 0
vn -0.6629791 0.7486378 0
vn -0.6629791 0.7486378 0
vn 0.7927863 0.6094997 -1.647235E-07
vn 0.7927863 0.6094997 -1.647235E-07
vn 0.7927864 0.6094996 -1.647235E-07
vn 0.7927864 0.6094996 -1.647235E-07
vn 0.054299 -0.9985247 0
vn 0.054299 -0.9985247 0
vn 0.054299 -0.9985247 0
vn 0.054299 -0.9985247 0
vn 0.9372619 -0.3486262 -1.972695E-07
vn 0.9372619 -0.3486262 -2.342755E-07
vn 0.9372619 -0.3486261 -2.357563E-07
vn 0.9372619 -0.3486261 -1.972695E-07
vn 0.9372619 -0.3486261 -2.721751E-07
vn 0.9372619 -0.3486261 -2.72175E-07
vn 0.6658686 -0.7460691 0
vn 0.6658686 -0.7460691 0
vn 0.6658686 -0.7460691 0
vn 0.6658686 -0.7460691 0
vn 0.2957694 0.9552593 2.424223E-07
vn 0.2957694 0.9552593 2.424223E-07
vn 0.2957694 0.9552593 2.424223E-07
vn 0.2957694 0.9552593 2.424223E-07
vn -0.754608 -0.6561758 0
vn -0.754608 -0.6561757 0
vn -0.754608 -0.6561758 0
vn -0.754608 -0.6561757 0
vn -0.7927864 0.6094996 0
vn -0.7927864 0.6094996 0
vn -0.7927864 0.6094996 0
vn -0.7927864 0.6094996 0
vn -0.05429899 -0.9985247 0
vn -0.05429899 -0.9985247 0
vn -0.05429899 -0.9985247 0
vn -0.05429899 -0.9985247 0
vn -0.05429899 -0.9985247 0
vn -0.9372619 -0.3486262 0
vn -0.9372619 -0.3486261 0
vn -0.9372619 -0.3486262 0
vn -0.9372619 -0.3486261 0
vn -0.9372619 -0.348626 -1.306441E-07
vn -0.9372619 -0.348626 -1.30644E-07
vn -0.6658682 -0.7460694 0
vn -0.6658682 -0.7460694 0
vn -0.6658682 -0.7460693 0
vn -0.6658682 -0.7460694 0
vn -0.2957695 0.9552593 2.222205E-07
vn -0.2957694 0.9552593 2.222205E-07
vn -0.2957694 0.9552593 2.222205E-07
vn -0.2957694 0.9552593 2.222205E-07
g Box01_0
f 3/3/3 2/2/2 1/1/1
f 4/4/4 2/2/2 3/3/3
f 5/5/5 2/2/2 4/4/4
f 1/1/1 2/2/2 5/5/5
f 6/6/6 5/5/5 4/4/4
f 5/5/5 7/7/7 1/1/1
f 6/6/6 4/4/4 8/8/8
f 4/4/4 9/9/9 8/8/8
f 8/8/8 9/9/9 10/10/10
f 11/11/11 8/8/8 10/10/10
f 11/11/11 10/10/10 12/12/12
f 13/13/13 12/12/12 10/10/10
f 14/14/14 11/11/11 12/12/12
f 15/15/15 9/9/9 4/4/4
f 10/10/10 9/9/9 15/15/15
f 16/16/16 15/15/15 4/4/4
f 17/17/17 10/10/10 15/15/15
f 11/11/11 14/14/14 18/18/18
f 19/19/19 11/11/11 18/18/18
f 8/8/8 11/11/11 19/19/19
f 18/18/18 20/20/20 19/19/19
f 21/21/21 8/8/8 19/19/19
f 21/21/21 22/22/22 8/8/8
f 21/21/21 23/23/23 22/22/22
f 21/21/21 19/19/19 23/23/23
f 23/23/23 24/24/24 22/22/22
f 19/19/19 25/25/25 23/23/23
f 27/27/27 22/22/22 26/26/26
f 27/27/27 26/26/26 28/28/28
f 27/27/27 5/5/5 22/22/22
f 5/5/5 6/6/6 22/22/22
f 7/7/7 5/5/5 27/27/27
f 27/27/27 29/29/29 7/7/7
f 22/22/22 6/6/6 8/8/8
f 32/32/32 31/31/31 30/30/30
f 31/31/31 33/33/33 30/30/30
f 33/33/33 35/35/35 34/34/34
f 35/35/35 36/36/36 34/34/34
f 39/39/39 38/38/38 37/37/37
f 38/38/38 40/40/40 37/37/37
f 43/43/43 42/42/42 41/41/41
f 42/42/42 44/44/44 41/41/41
f 41/41/41 44/44/44 45/45/45
f 44/44/44 46/46/46 45/45/45
f 48/48/48 42/42/42 47/47/47
f 42/42/42 49/49/49 47/47/47
f 48/48/48 47/47/47 50/50/50
f 51/51/51 48/48/48 50/50/50
f 54/54/54 53/53/53 52/52/52
f 53/53/53 55/55/55 52/52/52
f 58/58/58 57/57/57 56/56/56
f 57/57/57 59/59/59 56/56/56
f 62/62/62 61/61/61 60/60/60
f 61/61/61 63/63/63 60/60/60
f 64/64/64 61/61/61 62/62/62
f 65/65/65 64/64/64 62/62/62
f 68/68/68 67/67/67 66/66/66
f 67/67/67 69/69/69 66/66/66
f 72/72/72 71/71/71 70/70/70
f 71/71/71 73/73/73 70/70/70
f 76/76/76 75/75/75 74/74/74
f 75/75/75 77/77/77 74/74/74
f 80/80/80 79/79/79 78/78/78
f 79/79/79 81/81/81 78/78/78
f 84/84/84 83/83/83 82/82/82
f 83/83/83 86/86/86 85/85/85
f 89/89/89 88/88/88 87/87/87
f 88/88/88 90/90/90 87/87/87
f 88/88/88 91/91/91 90/90/90
f 91/91/91 92/92/92 90/90/90
f 95/95/95 94/94/94 93/93/93
f 94/94/94 96/96/96 93/93/93
f 99/99/99 98/98/98 97/97/97
f 98/98/98 100/100/100 97/97/97
