g Cylinder06
v 5.58248 -4.577637E-07 0
v 8.457425 1.491272 1.204973
v 8.5889 -6.075418E-07 1.204973
v 5.497026 0.969274 0
v 8.070926 2.937577 1.204973
v 5.245816 1.909321 0
v 7.437334 4.293947 1.204973
v 4.834003 2.790913 0
v 6.579479 5.520839 1.204973
v 4.276428 3.58835 0
v 5.520192 6.578708 1.204973
v 3.587929 4.275928 0
v 4.29445 7.438206 1.204973
v 2.79124 4.83457 0
v 2.937232 8.069981 1.204973
v 1.909097 5.245201 0
v 1.491446 8.458415 1.204973
v 0.9693871 5.49767 0
v -5.195174E-07 8.587893 1.204973
v -5.722046E-07 5.581826 0
v -1.491447 8.458414 1.204973
v -0.9693882 5.49767 0
v -0.9693882 5.49767 0
v -2.937233 8.06998 1.204973
v -1.491447 8.458414 1.204973
v -1.909098 5.245201 0
v -4.29445 7.438205 1.204973
v -2.791241 4.834569 0
v -5.520191 6.578708 1.204973
v -3.587929 4.275927 0
v -6.579479 5.520839 1.204973
v -4.276428 3.588349 0
v -7.437333 4.293947 1.204973
v -4.834003 2.790913 0
v -8.070925 2.937577 1.204973
v -5.245816 1.909321 0
v -8.457422 1.491273 1.204973
v -5.497026 0.9692746 0
v -8.588899 1.395072E-06 1.204973
v -5.58248 8.583069E-07 0
v -8.457422 -1.49127 1.204973
v -5.497026 -0.9692729 0
v -8.070925 -2.937575 1.204973
v -5.245817 -1.90932 0
v -7.437334 -4.293945 1.204973
v -4.834004 -2.790912 0
v -6.579481 -5.520835 1.204973
v -4.276429 -3.588348 0
v -5.520193 -6.578706 1.204973
v -3.58793 -4.275926 0
v -4.294452 -7.438203 1.204973
v -2.791242 -4.834569 0
v -2.937235 -8.069979 1.204973
v -1.909099 -5.2452 0
v -1.49145 -8.458414 1.204973
v -0.9693899 -5.49767 0
v -3.619953E-06 -8.587893 1.204973
v -2.593994E-06 -5.581826 0
v 1.491443 -8.458414 1.204973
v 0.9693849 -5.49767 0
v 2.937228 -8.069981 1.204973
v 1.909094 -5.245202 0
v 4.294446 -7.438208 1.204973
v 2.791237 -4.834571 0
v 5.520188 -6.578712 1.204973
v 3.587926 -4.275929 0
v 6.579476 -5.520842 1.204973
v 4.276426 -3.588352 0
v 7.437331 -4.293952 1.204973
v 4.834002 -2.790916 0
v 8.070925 -2.937581 1.204973
v 5.245814 -1.909324 0
v 8.457422 -1.491275 1.204973
v 5.497025 -0.9692759 0
vt 0.75 0.004281739
vt 0.7777778 0.9988225
vt 0.75 0.9988225
vt 0.7777778 0.004281739
vt 0.8055556 0.9988225
vt 0.8055556 0.004281739
vt 0.8333334 0.9988225
vt 0.8333334 0.004281739
vt 0.8611112 0.9988225
vt 0.8611112 0.004281739
vt 0.8888888 0.9988225
vt 0.8888889 0.004281739
vt 0.9166666 0.9988225
vt 0.9166666 0.004281739
vt 0.9444444 0.9988225
vt 0.9444444 0.004281739
vt 0.9722222 0.9988225
vt 0.9722222 0.004281739
vt 1 0.9988225
vt 1 0.004281739
vt 1.027778 0.9988225
vt 1.027778 0.004281739
vt 0.02777781 0.004281739
vt 0.05555558 0.9988225
vt 0.02777781 0.9988225
vt 0.05555558 0.004281739
vt 0.08333335 0.9988225
vt 0.08333335 0.004281739
vt 0.1111111 0.9988225
vt 0.1111111 0.004281739
vt 0.1388889 0.9988225
vt 0.1388889 0.004281739
vt 0.1666667 0.9988225
vt 0.1666667 0.004281739
vt 0.1944444 0.9988225
vt 0.1944444 0.004281739
vt 0.2222222 0.9988225
vt 0.2222222 0.004281739
vt 0.25 0.9988225
vt 0.25 0.004281739
vt 0.2777777 0.9988225
vt 0.2777778 0.004281739
vt 0.3055555 0.9988225
vt 0.3055555 0.004281739
vt 0.3333333 0.9988225
vt 0.3333333 0.004281739
vt 0.3611111 0.9988225
vt 0.3611111 0.004281739
vt 0.3888889 0.9988225
vt 0.3888888 0.004281739
vt 0.4166666 0.9988225
vt 0.4166666 0.004281739
vt 0.4444444 0.9988225
vt 0.4444444 0.004281739
vt 0.4722221 0.9988225
vt 0.4722221 0.004281739
vt 0.4999999 0.9988225
vt 0.4999999 0.004281739
vt 0.5277777 0.9988225
vt 0.5277777 0.004281739
vt 0.5555555 0.9988225
vt 0.5555555 0.004281739
vt 0.5833333 0.9988225
vt 0.5833333 0.004281739
vt 0.611111 0.9988225
vt 0.611111 0.004281739
vt 0.6388888 0.9988225
vt 0.6388888 0.004281739
vt 0.6666666 0.9988225
vt 0.6666666 0.004281739
vt 0.6944444 0.9988225
vt 0.6944444 0.004281739
vt 0.7222222 0.9988225
vt 0.7222222 0.004281739
vn -0.3720308 2.909823E-07 0.9282204
vn -0.3664157 -0.06460894 0.9282054
vn -0.3720307 2.665595E-07 0.9282204
vn -0.3664157 -0.06460893 0.9282054
vn -0.3495945 -0.1272421 0.9282204
vn -0.3495945 -0.1272421 0.9282204
vn -0.3222206 -0.1860342 0.9282054
vn -0.3222205 -0.1860342 0.9282054
vn -0.2849921 -0.2391367 0.9282204
vn -0.2849921 -0.2391367 0.9282204
vn -0.239161 -0.2850208 0.9282054
vn -0.239161 -0.2850207 0.9282054
vn -0.1860154 -0.322188 0.9282204
vn -0.1860153 -0.322188 0.9282204
vn -0.1272548 -0.3496299 0.9282054
vn -0.1272548 -0.3496299 0.9282054
vn -0.0646024 -0.3663788 0.9282204
vn -0.06460238 -0.3663788 0.9282204
vn 0 -0.3720683 0.9282054
vn 1.083523E-07 -0.3720683 0.9282054
vn 0.06460251 -0.3663788 0.9282204
vn 0.06460252 -0.3663788 0.9282204
vn 0.06460252 -0.3663788 0.9282204
vn 0.1272548 -0.3496299 0.9282053
vn 0.06460251 -0.3663788 0.9282204
vn 0.1272548 -0.3496299 0.9282054
vn 0.1860154 -0.322188 0.9282204
vn 0.1860154 -0.322188 0.9282204
vn 0.2391609 -0.2850209 0.9282054
vn 0.239161 -0.2850208 0.9282054
vn 0.2849921 -0.2391368 0.9282204
vn 0.2849921 -0.2391368 0.9282204
vn 0.3222206 -0.1860342 0.9282053
vn 0.3222207 -0.1860342 0.9282053
vn 0.3495947 -0.127242 0.9282203
vn 0.3495947 -0.127242 0.9282203
vn 0.3664159 -0.06460903 0.9282053
vn 0.3664159 -0.06460902 0.9282053
vn 0.3720309 0 0.9282204
vn 0.3720309 0 0.9282203
vn 0.3664159 0.06460898 0.9282053
vn 0.366416 0.06460898 0.9282053
vn 0.3495948 0.1272419 0.9282203
vn 0.3495948 0.1272419 0.9282203
vn 0.3222208 0.1860341 0.9282053
vn 0.3222209 0.1860341 0.9282053
vn 0.2849923 0.2391367 0.9282204
vn 0.2849923 0.2391367 0.9282204
vn 0.2391611 0.2850208 0.9282053
vn 0.2391611 0.2850208 0.9282053
vn 0.1860156 0.322188 0.9282204
vn 0.1860156 0.322188 0.9282204
vn 0.127255 0.3496298 0.9282054
vn 0.127255 0.3496298 0.9282054
vn 0.06460255 0.3663787 0.9282204
vn 0.06460255 0.3663787 0.9282204
vn 0 0.3720683 0.9282053
vn 0 0.3720683 0.9282053
vn -0.06460235 0.3663789 0.9282204
vn -0.06460235 0.3663789 0.9282203
vn -0.1272546 0.3496301 0.9282053
vn -0.1272546 0.34963 0.9282053
vn -0.1860151 0.3221882 0.9282204
vn -0.1860151 0.3221883 0.9282204
vn -0.2391607 0.285021 0.9282054
vn -0.2391607 0.285021 0.9282054
vn -0.2849919 0.2391369 0.9282204
vn -0.2849919 0.2391369 0.9282204
vn -0.3222205 0.1860343 0.9282054
vn -0.3222205 0.1860343 0.9282054
vn -0.3495945 0.127242 0.9282204
vn -0.3495945 0.127242 0.9282204
vn -0.3664158 0.06460913 0.9282053
vn -0.3664158 0.06460913 0.9282053
g Cylinder06_0
f 3/3/3 2/2/2 1/1/1
f 2/2/2 4/4/4 1/1/1
f 4/4/4 2/2/2 5/5/5
f 6/6/6 4/4/4 5/5/5
f 5/5/5 7/7/7 6/6/6
f 7/7/7 8/8/8 6/6/6
f 8/8/8 7/7/7 9/9/9
f 10/10/10 8/8/8 9/9/9
f 9/9/9 11/11/11 10/10/10
f 11/11/11 12/12/12 10/10/10
f 12/12/12 11/11/11 13/13/13
f 14/14/14 12/12/12 13/13/13
f 13/13/13 15/15/15 14/14/14
f 15/15/15 16/16/16 14/14/14
f 16/16/16 15/15/15 17/17/17
f 18/18/18 16/16/16 17/17/17
f 17/17/17 19/19/19 18/18/18
f 19/19/19 20/20/20 18/18/18
f 20/20/20 19/19/19 21/21/21
f 22/22/22 20/20/20 21/21/21
f 25/25/25 24/24/24 23/23/23
f 24/24/24 26/26/26 23/23/23
f 26/26/26 24/24/24 27/27/27
f 28/28/28 26/26/26 27/27/27
f 27/27/27 29/29/29 28/28/28
f 29/29/29 30/30/30 28/28/28
f 30/30/30 29/29/29 31/31/31
f 32/32/32 30/30/30 31/31/31
f 31/31/31 33/33/33 32/32/32
f 33/33/33 34/34/34 32/32/32
f 34/34/34 33/33/33 35/35/35
f 36/36/36 34/34/34 35/35/35
f 35/35/35 37/37/37 36/36/36
f 37/37/37 38/38/38 36/36/36
f 38/38/38 37/37/37 39/39/39
f 40/40/40 38/38/38 39/39/39
f 39/39/39 41/41/41 40/40/40
f 41/41/41 42/42/42 40/40/40
f 42/42/42 41/41/41 43/43/43
f 44/44/44 42/42/42 43/43/43
f 43/43/43 45/45/45 44/44/44
f 45/45/45 46/46/46 44/44/44
f 46/46/46 45/45/45 47/47/47
f 48/48/48 46/46/46 47/47/47
f 47/47/47 49/49/49 48/48/48
f 49/49/49 50/50/50 48/48/48
f 50/50/50 49/49/49 51/51/51
f 52/52/52 50/50/50 51/51/51
f 51/51/51 53/53/53 52/52/52
f 53/53/53 54/54/54 52/52/52
f 54/54/54 53/53/53 55/55/55
f 56/56/56 54/54/54 55/55/55
f 55/55/55 57/57/57 56/56/56
f 57/57/57 58/58/58 56/56/56
f 58/58/58 57/57/57 59/59/59
f 60/60/60 58/58/58 59/59/59
f 59/59/59 61/61/61 60/60/60
f 61/61/61 62/62/62 60/60/60
f 62/62/62 61/61/61 63/63/63
f 64/64/64 62/62/62 63/63/63
f 63/63/63 65/65/65 64/64/64
f 65/65/65 66/66/66 64/64/64
f 66/66/66 65/65/65 67/67/67
f 68/68/68 66/66/66 67/67/67
f 67/67/67 69/69/69 68/68/68
f 69/69/69 70/70/70 68/68/68
f 70/70/70 69/69/69 71/71/71
f 72/72/72 70/70/70 71/71/71
f 71/71/71 73/73/73 72/72/72
f 73/73/73 74/74/74 72/72/72
f 74/74/74 73/73/73 3/3/3
f 1/1/1 74/74/74 3/3/3
