g Cylinder07
v 5.667935 0 0
v 8.005686 2.913832 6.421345
v 5.326117 1.938548 0
v 8.519472 7.676695E-08 6.050937
v 6.526295 5.476212 8.047544
v 4.34189 3.643279 0
v 4.259737 7.378081 6.304589
v 2.833967 4.908576 0
v 1.479391 8.390044 7.244801
v 0.9842261 5.581827 0
v -1.479391 8.390042 6.075923
v -0.9842273 5.581826 0
v 5.326116 -1.938552 0
v 8.005685 -2.913837 8.010982
v 4.341888 -3.643281 0
v 6.526291 -5.476216 7.514893
v 2.833965 -4.908577 0
v 4.259733 -7.378082 7.247526
v 0.9842238 -5.581827 0
v 1.479387 -8.390042 7.821933
v -0.984229 -5.581826 0
v -1.479394 -8.390042 7.511552
v -2.833969 -4.908575 0
v -4.259738 -7.378078 7.665933
v -4.341891 -3.643277 0
v -6.526296 -5.47621 6.539648
v -5.326118 -1.938547 0
v -8.005686 -2.913829 7.403672
v -5.667935 8.558343E-07 0
v -8.519472 1.363172E-06 5.737083
v -5.326117 1.938548 0
v -8.005686 2.913832 6.794792
v -4.34189 3.643278 0
v -6.526295 5.476212 7.992352
v -2.833968 4.908576 0
v -4.259736 7.37808 6.121918
v -0.9842273 5.581826 0
v -1.479391 8.390042 6.075923
vt 0.75 0
vt 0.8055556 0.9999999
vt 0.8055556 0
vt 0.75 0.9999999
vt 0.8611112 0.9999999
vt 0.8611112 0
vt 0.9166666 0.9999999
vt 0.9166666 0
vt 0.9722222 0.9999999
vt 0.9722222 0
vt 1.027778 0.9999999
vt 1.027778 0
vt 0.6944444 0
vt 0.6944444 0.9999999
vt 0.6388888 0
vt 0.6388888 0.9999999
vt 0.5833333 0
vt 0.5833333 0.9999999
vt 0.5277777 0
vt 0.5277777 0.9999999
vt 0.4722221 0
vt 0.4722221 0.9999999
vt 0.4166666 0
vt 0.4166666 0.9999999
vt 0.3611111 0
vt 0.3611111 0.9999999
vt 0.3055555 0
vt 0.3055555 0.9999999
vt 0.25 0
vt 0.25 0.9999999
vt 0.1944444 0
vt 0.1944444 0.9999999
vt 0.1388889 0
vt 0.1388889 0.9999999
vt 0.08333335 0
vt 0.08333335 0.9999999
vt 0.02777781 0
vt 0.02777781 0.9999999
vn 0.9141207 -0.05915403 -0.4011035
vn 0.8212602 0.4179027 -0.3884443
vn 0.8348852 0.3852171 -0.3931597
vn 0.9129845 -0.08805641 -0.3983785
vn 0.7178705 0.5954867 -0.360635
vn 0.7175308 0.5958873 -0.3606492
vn 0.4981121 0.7773455 -0.3842114
vn 0.4857297 0.7848421 -0.3848238
vn 0.1717908 0.906569 -0.3855135
vn 0.1697294 0.9069287 -0.3855805
vn -0.09344994 0.9073992 -0.4097485
vn -0.1137254 0.9043323 -0.4113996
vn 0.8575586 -0.372793 -0.3544272
vn 0.8534139 -0.3843063 -0.3521271
vn 0.7339475 -0.5803285 -0.3529021
vn 0.7423776 -0.5699036 -0.3522575
vn 0.457223 -0.8137136 -0.3589114
vn 0.4523036 -0.8165033 -0.3588087
vn 0.1531694 -0.9243444 -0.3494664
vn 0.1492488 -0.9250154 -0.349387
vn -0.1571879 -0.923045 -0.3511122
vn -0.1544081 -0.9235241 -0.3510858
vn -0.4341502 -0.8261645 -0.3591179
vn -0.4229462 -0.8324332 -0.3580104
vn -0.7024412 -0.6016917 -0.3801886
vn -0.6992813 -0.6054065 -0.3801168
vn -0.8562307 -0.3478062 -0.3819683
vn -0.8543385 -0.3532757 -0.3811851
vn -0.9102568 -0.02286052 -0.4134127
vn -0.9100913 -0.03393166 -0.4130163
vn -0.832742 0.3972725 -0.3856361
vn -0.819225 0.4300248 -0.3794063
vn -0.7316902 0.5785654 -0.3604049
vn -0.734237 0.5756328 -0.3599209
vn -0.519676 0.7535113 -0.4026878
vn -0.5488842 0.7348319 -0.3984321
vn -0.1137254 0.9043323 -0.4113996
vn -0.09344994 0.9073992 -0.4097485
g Cylinder07_0
f 3/3/3 2/2/2 1/1/1
f 2/2/2 4/4/4 1/1/1
f 5/5/5 2/2/2 3/3/3
f 6/6/6 5/5/5 3/3/3
f 7/7/7 5/5/5 6/6/6
f 8/8/8 7/7/7 6/6/6
f 9/9/9 7/7/7 8/8/8
f 10/10/10 9/9/9 8/8/8
f 11/11/11 9/9/9 10/10/10
f 12/12/12 11/11/11 10/10/10
f 1/1/1 4/4/4 13/13/13
f 4/4/4 14/14/14 13/13/13
f 13/13/13 14/14/14 15/15/15
f 14/14/14 16/16/16 15/15/15
f 15/15/15 16/16/16 17/17/17
f 16/16/16 18/18/18 17/17/17
f 17/17/17 18/18/18 19/19/19
f 18/18/18 20/20/20 19/19/19
f 19/19/19 20/20/20 21/21/21
f 20/20/20 22/22/22 21/21/21
f 21/21/21 22/22/22 23/23/23
f 22/22/22 24/24/24 23/23/23
f 23/23/23 24/24/24 25/25/25
f 24/24/24 26/26/26 25/25/25
f 25/25/25 26/26/26 27/27/27
f 26/26/26 28/28/28 27/27/27
f 27/27/27 28/28/28 29/29/29
f 28/28/28 30/30/30 29/29/29
f 29/29/29 30/30/30 31/31/31
f 30/30/30 32/32/32 31/31/31
f 31/31/31 32/32/32 33/33/33
f 32/32/32 34/34/34 33/33/33
f 33/33/33 34/34/34 35/35/35
f 34/34/34 36/36/36 35/35/35
f 35/35/35 36/36/36 37/37/37
f 36/36/36 38/38/38 37/37/37
