g Cylinder01
v 51.44277 9.070745 0
v 28.24847 -3.611246E-06 0
v 27.81605 4.904718 0
v 52.24249 -6.841024E-06 0
v 49.09187 17.86798 0
v 26.54487 9.661544 0
v 45.23802 26.11818 0
v 24.46102 14.12258 0
v 40.02006 33.58082 0
v 21.63958 18.15777 0
v 33.57689 40.01537 0
v 18.15563 21.63705 0
v 26.12124 45.24331 0
v 14.12423 24.46389 0
v 17.86589 49.08612 0
v 9.66041 26.54177 0
v 9.071812 51.4488 0
v 4.905292 27.81931 0
v -1.500448E-06 52.23635 0
v -3.611247E-06 28.24515 0
v -9.071814 51.44879 0
v -4.905299 27.81931 0
v 3.684029 2.126978 0
v 3.997874 1.455109 0
v 3.259096 2.734711 0
v 2.734385 3.25872 0
v 2.127222 3.684467 0
v 1.454933 3.997412 0
v 26.07136 71.63047 0
v 0.7387726 4.18982 0
v 13.23833 75.07829 0
v -5.722046E-06 4.253957 0
v -0.738784 4.18982 0
v -13.23833 75.07828 0
v 4.189323 0.7386917 0
v 4.254449 -3.814697E-07 0
v 4.189323 -0.7386932 0
v 27.81604 -4.904731 0
v 51.44277 -9.070769 0
v 26.54487 -9.661564 0
v 49.09187 -17.86802 0
v 24.46102 -14.12259 0
v 45.238 -26.11821 0
v 21.63957 -18.15778 0
v 40.02004 -33.58084 0
v 18.15562 -21.63706 0
v 33.57686 -40.01539 0
v 14.12422 -24.4639 0
v 26.12122 -45.24333 0
v 9.660398 -26.54177 0
v 17.86586 -49.08612 0
v 4.905279 -27.81931 0
v 9.07179 -51.4488 0
v -1.352946E-05 -28.24515 0
v -1.988729E-05 -52.23635 0
v -4.905307 -27.81931 0
v -9.071829 -51.44879 0
v -9.660424 -26.54176 0
v -17.8659 -49.08611 0
v -14.12424 -24.46389 0
v -26.12125 -45.24331 0
v -18.15564 -21.63704 0
v -33.57689 -40.01536 0
v -21.63959 -18.15776 0
v -40.02007 -33.58081 0
v -24.46103 -14.12257 0
v -45.23802 -26.11817 0
v -26.54488 -9.661539 0
v -49.09187 -17.86797 0
v -27.81605 -4.904716 0
v -51.44277 -9.070742 0
v -28.24847 2.72115E-06 0
v -52.24248 4.870097E-06 0
v -27.81605 4.904722 0
v -51.44276 9.07075 0
v -26.54488 9.661545 0
v -49.09187 17.86798 0
v -24.46102 14.12258 0
v -45.23801 26.11818 0
v -21.63958 18.15777 0
v -40.02005 33.58082 0
v -18.15564 21.63704 0
v -33.57688 40.01537 0
v -14.12423 24.46389 0
v -26.12123 45.24331 0
v -9.660416 26.54177 0
v -17.86589 49.08612 0
v -4.905299 27.81931 0
v -9.071814 51.44879 0
v -0.738784 4.18982 0
v -1.454944 3.997411 0
v -26.07136 71.63047 0
v -13.23833 75.07828 0
v -2.127233 3.684466 0
v -38.11824 66.02274 0
v -2.734396 3.25872 0
v -48.99812 58.3937 0
v -3.259107 2.734711 0
v -3.68404 2.126978 0
v -3.997885 1.455109 0
v -4.189334 0.7386922 0
v -4.254461 5.722046E-07 0
v -4.189335 -0.7386912 0
v -3.997886 -1.455109 0
v -3.684041 -2.126977 0
v -3.259108 -2.73471 0
v -2.734397 -3.258719 0
v -2.127234 -3.684466 0
v -1.454946 -3.997411 0
v -0.7387854 -4.189819 0
v -7.171631E-06 -4.253956 0
v 0.738771 -4.18982 0
v 1.454931 -3.997412 0
v 2.12722 -3.684467 0
v 2.734384 -3.258721 0
v 3.259094 -2.734713 0
v 3.684027 -2.126981 0
v 3.997873 -1.455112 0
v 75.0695 13.23677 0
v 76.2365 -1.00708E-05 0
v 71.63888 26.07441 0
v 66.01501 38.11378 0
v 58.40055 49.00388 0
v 48.99813 58.3937 0
v 38.11825 66.02274 0
v 75.06949 -13.23681 0
v 71.63886 -26.07446 0
v 66.01499 -38.11383 0
v 58.40052 -49.00391 0
v 48.9981 -58.39372 0
v 38.11821 -66.02276 0
v 26.07133 -71.63049 0
v 13.2383 -75.07829 0
v -2.624512E-05 -76.22755 0
v -13.23835 -75.07828 0
v -26.07138 -71.63046 0
v -38.11826 -66.02272 0
v -48.99814 -58.39368 0
v -58.40055 -49.00386 0
v -66.01501 -38.11376 0
v -71.63886 -26.0744 0
v -75.06948 -13.23677 0
v -76.23648 7.019043E-06 0
v -75.06948 13.23678 0
v -71.63885 26.07441 0
v -66.01499 38.11378 0
v -58.40052 49.00388 0
v 6.103515E-07 76.22755 0
vt 0.7777778 0.3333333
vt 0.7499999 0.6666666
vt 0.7777778 0.6666667
vt 0.7499999 0.3333333
vt 0.8055556 0.3333333
vt 0.8055556 0.6666667
vt 0.8333333 0.3333333
vt 0.8333334 0.6666667
vt 0.861111 0.3333333
vt 0.8611111 0.6666667
vt 0.8888888 0.3333333
vt 0.8888888 0.6666667
vt 0.9166667 0.3333333
vt 0.9166667 0.6666667
vt 0.9444444 0.3333333
vt 0.9444444 0.6666667
vt 0.9722222 0.3333333
vt 0.9722222 0.6666667
vt 1 0.3333333
vt 1 0.6666667
vt 1.027778 0.3333333
vt 1.027778 0.6666667
vt 0.8333334 1
vt 0.8055556 1
vt 0.8611111 1
vt 0.8888889 1
vt 0.9166667 1
vt 0.9444444 1
vt 0.9444444 0
vt 0.9722222 1
vt 0.9722222 0
vt 1 1
vt 1.027778 1
vt 1.027778 0
vt 0.7777778 1
vt 0.7499999 1
vt 0.7222221 1
vt 0.7222221 0.6666667
vt 0.7222221 0.3333333
vt 0.6944443 0.6666667
vt 0.6944443 0.3333333
vt 0.6666665 0.6666667
vt 0.6666665 0.3333333
vt 0.6388888 0.6666667
vt 0.6388887 0.3333333
vt 0.611111 0.6666667
vt 0.611111 0.3333333
vt 0.5833333 0.6666667
vt 0.5833333 0.3333333
vt 0.5555555 0.6666667
vt 0.5555555 0.3333333
vt 0.5277777 0.6666667
vt 0.5277777 0.3333333
vt 0.4999999 0.6666667
vt 0.4999999 0.3333333
vt 0.4722221 0.6666667
vt 0.4722221 0.3333333
vt 0.4444444 0.6666667
vt 0.4444444 0.3333333
vt 0.4166666 0.6666667
vt 0.4166666 0.3333333
vt 0.3888888 0.6666667
vt 0.3888888 0.3333333
vt 0.3611111 0.6666667
vt 0.361111 0.3333333
vt 0.3333333 0.6666667
vt 0.3333333 0.3333333
vt 0.3055555 0.6666667
vt 0.3055555 0.3333333
vt 0.2777778 0.6666667
vt 0.2777778 0.3333333
vt 0.25 0.6666667
vt 0.25 0.3333333
vt 0.2222222 0.6666667
vt 0.2222222 0.3333333
vt 0.1944444 0.6666667
vt 0.1944444 0.3333333
vt 0.1666667 0.6666667
vt 0.1666667 0.3333333
vt 0.1388889 0.6666667
vt 0.1388889 0.3333333
vt 0.1111111 0.6666667
vt 0.1111111 0.3333333
vt 0.08333335 0.6666667
vt 0.08333334 0.3333333
vt 0.05555558 0.6666667
vt 0.05555558 0.3333333
vt 0.02777781 0.6666667
vt 0.02777781 0.3333333
vt 0.02777781 1
vt 0.05555558 1
vt 0.05555558 0
vt 0.02777781 0
vt 0.08333335 1
vt 0.08333335 0
vt 0.1111111 1
vt 0.1111111 0
vt 0.1388889 1
vt 0.1666667 1
vt 0.1944444 1
vt 0.2222222 1
vt 0.25 1
vt 0.2777778 1
vt 0.3055555 1
vt 0.3333333 1
vt 0.3611111 1
vt 0.3888888 1
vt 0.4166666 1
vt 0.4444444 1
vt 0.4722221 1
vt 0.4999999 1
vt 0.5277777 1
vt 0.5555555 1
vt 0.5833333 1
vt 0.611111 1
vt 0.6388888 1
vt 0.6666665 1
vt 0.6944443 1
vt 0.7777778 0
vt 0.7499999 0
vt 0.8055556 0
vt 0.8333334 0
vt 0.8611111 0
vt 0.8888889 0
vt 0.9166667 0
vt 0.7222221 0
vt 0.6944443 0
vt 0.6666665 0
vt 0.6388888 0
vt 0.611111 0
vt 0.5833333 0
vt 0.5555555 0
vt 0.5277777 0
vt 0.4999999 0
vt 0.4722221 0
vt 0.4444444 0
vt 0.4166666 0
vt 0.3888888 0
vt 0.3611111 0
vt 0.3333333 0
vt 0.3055555 0
vt 0.2777778 0
vt 0.25 0
vt 0.2222222 0
vt 0.1944444 0
vt 0.1666667 0
vt 0.1388889 0
vt 1 0
vn 0 0 1
vn 0 0 1
vn 0 0 1
vn 0 0 1
vn 0 0 1
vn 0 0 1
vn 0 0 1
vn 0 0 1
vn 0 0 1
vn 0 0 1
vn 0 0 1
vn 0 0 1
vn 0 0 1
vn 0 0 1
vn 0 0 1
vn 0 0 1
vn 0 0 1
vn 0 0 1
vn 0 0 1
vn 0 0 1
vn 0 0 1
vn 0 0 1
vn 0 0 1
vn 0 0 1
vn 0 0 1
vn 0 0 1
vn 0 0 1
vn 0 0 1
vn 0 0 1
vn 0 0 1
vn 0 0 1
vn 0 0 1
vn 0 0 1
vn 0 0 1
vn 0 0 1
vn 0 0 1
vn 0 0 1
vn 0 0 1
vn 0 0 1
vn 0 0 1
vn 0 0 1
vn 0 0 1
vn 0 0 1
vn 0 0 1
vn 0 0 1
vn 0 0 1
vn 0 0 1
vn 0 0 1
vn 0 0 1
vn 0 0 1
vn 0 0 1
vn 0 0 1
vn 0 0 1
vn 0 0 1
vn 0 0 1
vn 0 0 1
vn 0 0 1
vn 0 0 1
vn 0 0 1
vn 0 0 1
vn 0 0 1
vn 0 0 1
vn 0 0 1
vn 0 0 1
vn 0 0 1
vn 0 0 1
vn 0 0 1
vn 0 0 1
vn 0 0 1
vn 0 0 1
vn 0 0 1
vn 0 0 1
vn 0 0 1
vn 0 0 1
vn 0 0 1
vn 0 0 1
vn 0 0 1
vn 0 0 1
vn 0 0 1
vn 0 0 1
vn 0 0 1
vn 0 0 1
vn 0 0 1
vn 0 0 1
vn 0 0 1
vn 0 0 1
vn 0 0 1
vn 0 0 1
vn 0 0 1
vn 0 0 1
vn 0 0 1
vn 0 0 1
vn 0 0 1
vn 0 0 1
vn 0 0 1
vn 0 0 1
vn 0 0 1
vn 0 0 1
vn 0 0 1
vn 0 0 1
vn 0 0 1
vn 0 0 1
vn 0 0 1
vn 0 0 1
vn 0 0 1
vn 0 0 1
vn 0 0 1
vn 0 0 1
vn 0 0 1
vn 0 0 1
vn 0 0 1
vn 0 0 1
vn 0 0 1
vn 0 0 1
vn 0 0 1
vn 0 0 1
vn 0 0 1
vn 0 0 1
vn 0 0 1
vn 0 0 1
vn 0 0 1
vn 0 0 1
vn 0 0 1
vn 0 0 1
vn 0 0 1
vn 0 0 1
vn 0 0 1
vn 0 0 1
vn 0 0 1
vn 0 0 1
vn 0 0 1
vn 0 0 1
vn 0 0 1
vn 0 0 1
vn 0 0 1
vn 0 0 1
vn 0 0 1
vn 0 0 1
vn 0 0 1
vn 0 0 1
vn 0 0 1
vn 0 0 1
vn 0 0 1
vn 0 0 1
vn 0 0 1
vn 0 0 1
vn 0 0 1
vn 0 0 1
g Cylinder01_0
f 3/3/3 2/2/2 1/1/1
f 2/2/2 4/4/4 1/1/1
f 3/3/3 1/1/1 5/5/5
f 6/6/6 3/3/3 5/5/5
f 6/6/6 5/5/5 7/7/7
f 8/8/8 6/6/6 7/7/7
f 8/8/8 7/7/7 9/9/9
f 10/10/10 8/8/8 9/9/9
f 10/10/10 9/9/9 11/11/11
f 12/12/12 10/10/10 11/11/11
f 12/12/12 11/11/11 13/13/13
f 14/14/14 12/12/12 13/13/13
f 14/14/14 13/13/13 15/15/15
f 16/16/16 14/14/14 15/15/15
f 16/16/16 15/15/15 17/17/17
f 18/18/18 16/16/16 17/17/17
f 18/18/18 17/17/17 19/19/19
f 20/20/20 18/18/18 19/19/19
f 20/20/20 19/19/19 21/21/21
f 22/22/22 20/20/20 21/21/21
f 23/23/23 8/8/8 10/10/10
f 23/23/23 24/24/24 8/8/8
f 25/25/25 23/23/23 10/10/10
f 25/25/25 10/10/10 12/12/12
f 26/26/26 25/25/25 12/12/12
f 26/26/26 12/12/12 14/14/14
f 27/27/27 26/26/26 14/14/14
f 27/27/27 14/14/14 16/16/16
f 28/28/28 27/27/27 16/16/16
f 28/28/28 16/16/16 18/18/18
f 29/29/29 15/15/15 13/13/13
f 30/30/30 28/28/28 18/18/18
f 30/30/30 18/18/18 20/20/20
f 29/29/29 31/31/31 15/15/15
f 31/31/31 17/17/17 15/15/15
f 32/32/32 30/30/30 20/20/20
f 32/32/32 20/20/20 22/22/22
f 33/33/33 32/32/32 22/22/22
f 34/34/34 21/21/21 19/19/19
f 24/24/24 35/35/35 6/6/6
f 35/35/35 3/3/3 6/6/6
f 35/35/35 36/36/36 3/3/3
f 36/36/36 2/2/2 3/3/3
f 36/36/36 37/37/37 2/2/2
f 37/37/37 38/38/38 2/2/2
f 2/2/2 38/38/38 4/4/4
f 38/38/38 39/39/39 4/4/4
f 38/38/38 40/40/40 39/39/39
f 40/40/40 41/41/41 39/39/39
f 40/40/40 42/42/42 41/41/41
f 42/42/42 43/43/43 41/41/41
f 42/42/42 44/44/44 43/43/43
f 44/44/44 45/45/45 43/43/43
f 44/44/44 46/46/46 45/45/45
f 46/46/46 47/47/47 45/45/45
f 46/46/46 48/48/48 47/47/47
f 48/48/48 49/49/49 47/47/47
f 48/48/48 50/50/50 49/49/49
f 50/50/50 51/51/51 49/49/49
f 50/50/50 52/52/52 51/51/51
f 52/52/52 53/53/53 51/51/51
f 52/52/52 54/54/54 53/53/53
f 54/54/54 55/55/55 53/53/53
f 54/54/54 56/56/56 55/55/55
f 56/56/56 57/57/57 55/55/55
f 56/56/56 58/58/58 57/57/57
f 58/58/58 59/59/59 57/57/57
f 58/58/58 60/60/60 59/59/59
f 60/60/60 61/61/61 59/59/59
f 60/60/60 62/62/62 61/61/61
f 62/62/62 63/63/63 61/61/61
f 62/62/62 64/64/64 63/63/63
f 64/64/64 65/65/65 63/63/63
f 64/64/64 66/66/66 65/65/65
f 66/66/66 67/67/67 65/65/65
f 66/66/66 68/68/68 67/67/67
f 68/68/68 69/69/69 67/67/67
f 68/68/68 70/70/70 69/69/69
f 70/70/70 71/71/71 69/69/69
f 70/70/70 72/72/72 71/71/71
f 72/72/72 73/73/73 71/71/71
f 72/72/72 74/74/74 73/73/73
f 74/74/74 75/75/75 73/73/73
f 74/74/74 76/76/76 75/75/75
f 76/76/76 77/77/77 75/75/75
f 76/76/76 78/78/78 77/77/77
f 78/78/78 79/79/79 77/77/77
f 78/78/78 80/80/80 79/79/79
f 80/80/80 81/81/81 79/79/79
f 80/80/80 82/82/82 81/81/81
f 82/82/82 83/83/83 81/81/81
f 82/82/82 84/84/84 83/83/83
f 84/84/84 85/85/85 83/83/83
f 84/84/84 86/86/86 85/85/85
f 86/86/86 87/87/87 85/85/85
f 86/86/86 88/88/88 87/87/87
f 88/88/88 89/89/89 87/87/87
f 90/90/90 88/88/88 86/86/86
f 91/91/91 90/90/90 86/86/86
f 91/91/91 86/86/86 84/84/84
f 92/92/92 87/87/87 89/89/89
f 93/93/93 92/92/92 89/89/89
f 94/94/94 91/91/91 84/84/84
f 94/94/94 84/84/84 82/82/82
f 92/92/92 95/95/95 87/87/87
f 95/95/95 85/85/85 87/87/87
f 96/96/96 94/94/94 82/82/82
f 95/95/95 97/97/97 85/85/85
f 97/97/97 83/83/83 85/85/85
f 96/96/96 82/82/82 80/80/80
f 98/98/98 96/96/96 80/80/80
f 98/98/98 80/80/80 78/78/78
f 99/99/99 98/98/98 78/78/78
f 99/99/99 78/78/78 76/76/76
f 100/100/100 99/99/99 76/76/76
f 100/100/100 76/76/76 74/74/74
f 101/101/101 100/100/100 74/74/74
f 101/101/101 74/74/74 72/72/72
f 102/102/102 101/101/101 72/72/72
f 102/102/102 72/72/72 70/70/70
f 103/103/103 102/102/102 70/70/70
f 103/103/103 70/70/70 68/68/68
f 104/104/104 103/103/103 68/68/68
f 104/104/104 68/68/68 66/66/66
f 105/105/105 104/104/104 66/66/66
f 105/105/105 66/66/66 64/64/64
f 106/106/106 105/105/105 64/64/64
f 106/106/106 64/64/64 62/62/62
f 107/107/107 106/106/106 62/62/62
f 107/107/107 62/62/62 60/60/60
f 108/108/108 107/107/107 60/60/60
f 108/108/108 60/60/60 58/58/58
f 109/109/109 108/108/108 58/58/58
f 109/109/109 58/58/58 56/56/56
f 110/110/110 109/109/109 56/56/56
f 110/110/110 56/56/56 54/54/54
f 111/111/111 110/110/110 54/54/54
f 111/111/111 54/54/54 52/52/52
f 112/112/112 111/111/111 52/52/52
f 112/112/112 52/52/52 50/50/50
f 113/113/113 112/112/112 50/50/50
f 113/113/113 50/50/50 48/48/48
f 114/114/114 113/113/113 48/48/48
f 114/114/114 48/48/48 46/46/46
f 115/115/115 114/114/114 46/46/46
f 115/115/115 46/46/46 44/44/44
f 116/116/116 115/115/115 44/44/44
f 116/116/116 44/44/44 42/42/42
f 117/117/117 116/116/116 42/42/42
f 117/117/117 42/42/42 40/40/40
f 118/118/118 117/117/117 40/40/40
f 118/118/118 40/40/40 38/38/38
f 37/37/37 118/118/118 38/38/38
f 120/120/120 119/119/119 4/4/4
f 119/119/119 1/1/1 4/4/4
f 119/119/119 121/121/121 1/1/1
f 121/121/121 5/5/5 1/1/1
f 121/121/121 122/122/122 5/5/5
f 122/122/122 7/7/7 5/5/5
f 122/122/122 123/123/123 7/7/7
f 123/123/123 9/9/9 7/7/7
f 123/123/123 124/124/124 9/9/9
f 124/124/124 11/11/11 9/9/9
f 124/124/124 125/125/125 11/11/11
f 125/125/125 13/13/13 11/11/11
f 125/125/125 29/29/29 13/13/13
f 120/120/120 4/4/4 39/39/39
f 126/126/126 120/120/120 39/39/39
f 126/126/126 39/39/39 41/41/41
f 127/127/127 126/126/126 41/41/41
f 127/127/127 41/41/41 43/43/43
f 128/128/128 127/127/127 43/43/43
f 128/128/128 43/43/43 45/45/45
f 129/129/129 128/128/128 45/45/45
f 129/129/129 45/45/45 47/47/47
f 130/130/130 129/129/129 47/47/47
f 130/130/130 47/47/47 49/49/49
f 131/131/131 130/130/130 49/49/49
f 131/131/131 49/49/49 51/51/51
f 132/132/132 131/131/131 51/51/51
f 132/132/132 51/51/51 53/53/53
f 133/133/133 132/132/132 53/53/53
f 133/133/133 53/53/53 55/55/55
f 134/134/134 133/133/133 55/55/55
f 134/134/134 55/55/55 57/57/57
f 135/135/135 134/134/134 57/57/57
f 135/135/135 57/57/57 59/59/59
f 136/136/136 135/135/135 59/59/59
f 136/136/136 59/59/59 61/61/61
f 137/137/137 136/136/136 61/61/61
f 137/137/137 61/61/61 63/63/63
f 138/138/138 137/137/137 63/63/63
f 138/138/138 63/63/63 65/65/65
f 139/139/139 138/138/138 65/65/65
f 139/139/139 65/65/65 67/67/67
f 140/140/140 139/139/139 67/67/67
f 140/140/140 67/67/67 69/69/69
f 141/141/141 140/140/140 69/69/69
f 141/141/141 69/69/69 71/71/71
f 142/142/142 141/141/141 71/71/71
f 142/142/142 71/71/71 73/73/73
f 143/143/143 142/142/142 73/73/73
f 143/143/143 73/73/73 75/75/75
f 144/144/144 143/143/143 75/75/75
f 144/144/144 75/75/75 77/77/77
f 145/145/145 144/144/144 77/77/77
f 145/145/145 77/77/77 79/79/79
f 146/146/146 145/145/145 79/79/79
f 146/146/146 79/79/79 81/81/81
f 147/147/147 146/146/146 81/81/81
f 147/147/147 81/81/81 83/83/83
f 97/97/97 147/147/147 83/83/83
f 24/24/24 6/6/6 8/8/8
f 31/31/31 148/148/148 17/17/17
f 148/148/148 19/19/19 17/17/17
f 148/148/148 34/34/34 19/19/19
