g foss001
v 0.08042704 -0.04526697 -0.01926497
v 0.09288279 0.0007925916 -0.0193723
v 0.08043492 0.0461066 -0.01917261
v 0.0464174 0.07963513 -0.01871827
v 0.04640629 -0.07916815 -0.0188788
v -5.218229E-05 0.0919375 -0.0181315
v -6.383791E-05 -0.09179953 -0.01831726
v -0.04652257 0.07963505 -0.01756963
v -0.0465316 -0.07978524 -0.01773081
v -0.0805421 0.04610648 -0.01718311
v -0.08054608 -0.0463426 -0.01727659
v -0.09299298 -0.0004492053 -0.01707633
v 0.09854403 0.0007772391 -0.01397329
v 0.08545003 0.04982132 0.01046883
v 0.08533505 0.05005719 -0.01376021
v 0.09865897 0.0005434908 0.01025573
v 0.04936141 0.0856428 0.01095111
v 0.04924642 0.08587704 -0.01327798
v 0.08533307 -0.04862108 -0.01386
v 0.08544803 -0.04885483 0.01036902
v 0.04924255 -0.08496191 -0.01345075
v 0.0493575 -0.08519309 0.01077832
v 0.09097659 0.0004199952 0.01777341
v 0.07879809 0.04610706 0.01796999
v 0.0455206 0.07963531 0.01841487
v 6.269678E-05 0.09850019 0.01157343
v 6.190308E-05 0.0919374 0.01898876
v -0.04923741 0.08498322 0.01216908
v -0.04539737 0.07963464 0.0195378
v -0.08532813 0.04867388 0.0125784
v -0.04935206 0.08521859 -0.01206016
v -5.269274E-05 0.09873224 -0.01265573
v -0.08544238 0.04891007 -0.01165088
v -0.0985387 -0.0007739463 0.01269165
v -0.09865369 -0.0005401958 -0.01153763
v -0.08533011 -0.04999577 0.01247859
v -0.08544507 -0.04976201 -0.01175066
v -0.04924134 -0.08584722 0.01199628
v -0.0493563 -0.08561604 -0.01223291
v 5.775129E-05 -0.0987308 0.01137394
v -5.71891E-05 -0.09850241 -0.0128552
v -0.07867775 0.0461059 0.01991497
v -0.09085567 -0.0007947737 0.02001799
v -0.07867299 -0.04667664 0.01982116
v -0.04539388 -0.08008766 0.01937637
v 5.775129E-05 -0.0987308 0.01137394
v 6.476119E-05 -0.09209916 0.01880277
v 0.04552224 -0.07948402 0.01825407
v 5.775129E-05 -0.0987308 0.01137394
v 0.07879834 -0.04562443 0.01787729
v -5.71891E-05 -0.09850241 -0.0128552
v 0.04924255 -0.08496191 -0.01345075
v 5.775129E-05 -0.0987308 0.01137394
v 0.04924642 0.08587704 -0.01327798
v 6.269678E-05 0.09850019 0.01157343
v -5.269274E-05 0.09873224 -0.01265573
v -5.269274E-05 0.09873224 -0.01265573
v 6.269678E-05 0.09850019 0.01157343
v 0.07879809 0.04610706 0.01796999
v 0.09097659 0.0004199952 0.01777341
v 0.07879834 -0.04562443 0.01787729
v 0.04552224 -0.07948402 0.01825407
v 0.0455206 0.07963531 0.01841487
v 6.476119E-05 -0.09209916 0.01880277
v 6.190308E-05 0.0919374 0.01898876
v -0.04539388 -0.08008766 0.01937637
v -0.04539737 0.07963464 0.0195378
v -0.07867299 -0.04667664 0.01982116
v -0.07867775 0.0461059 0.01991497
v -0.09085567 -0.0007947737 0.02001799
v 0.08043492 0.0461066 -0.01917261
v 0.09854403 0.0007772391 -0.01397329
v 0.08533505 0.05005719 -0.01376021
v 0.09288279 0.0007925916 -0.0193723
v 0.0464174 0.07963513 -0.01871827
v 0.04924642 0.08587704 -0.01327798
v 0.08533307 -0.04862108 -0.01386
v 0.08042704 -0.04526697 -0.01926497
v 0.04924255 -0.08496191 -0.01345075
v 0.04640629 -0.07916815 -0.0188788
v -5.218229E-05 0.0919375 -0.0181315
v 0.04924642 0.08587704 -0.01327798
v -5.269274E-05 0.09873224 -0.01265573
v -0.04652257 0.07963505 -0.01756963
v -0.04935206 0.08521859 -0.01206016
v -0.0805421 0.04610648 -0.01718311
v -0.08544238 0.04891007 -0.01165088
v -0.09299298 -0.0004492053 -0.01707633
v -0.09865369 -0.0005401958 -0.01153763
v -0.08054608 -0.0463426 -0.01727659
v -0.08544507 -0.04976201 -0.01175066
v -0.0465316 -0.07978524 -0.01773081
v -0.0493563 -0.08561604 -0.01223291
v -6.383791E-05 -0.09179953 -0.01831726
v -5.71891E-05 -0.09850241 -0.0128552
v 0.04924255 -0.08496191 -0.01345075
vt 0.1770155 0.3179727
vt 0.1282415 0.5
vt 0.1741954 0.682027
vt 0.2892193 0.8152801
vt 0.3074485 0.1847199
vt 0.5287535 0.864054
vt 0.4712464 0.135946
vt 0.6925514 0.81528
vt 0.7107805 0.18472
vt 0.8229844 0.682027
vt 0.8258045 0.3179731
vt 0.8717584 0.5000001
vt 0.944594 0.4968371
vt 0.8693013 0.7132162
vt 0.8866112 0.7195579
vt 0.9264324 0.5
vt 0.7132162 0.8693013
vt 0.725036 0.8834483
vt 0.8834482 0.2749636
vt 0.8693012 0.2867835
vt 0.7195578 0.1133887
vt 0.7132161 0.1306985
vt 0.8712081 0.5
vt 0.8214757 0.6856041
vt 0.6856041 0.8214757
vt 0.5 0.9264324
vt 0.5 0.8712081
vt 0.2867838 0.8693013
vt 0.3143959 0.8214757
vt 0.1306987 0.7132162
vt 0.2845705 0.8712037
vt 0.5031628 0.944594
vt 0.1278307 0.713757
vt 0.07356755 0.5000001
vt 0.07081338 0.4990345
vt 0.1306987 0.2867839
vt 0.1287962 0.2845706
vt 0.2867837 0.1306988
vt 0.2862428 0.1278308
vt 0.4999998 0.07356755
vt 0.5009654 0.07081338
vt 0.1785243 0.6856041
vt 0.1287918 0.5000001
vt 0.1785242 0.314396
vt 0.3143958 0.1785243
vt 0.4999998 0.07356755
vt 0.4999999 0.1287918
vt 0.685604 0.1785242
vt 0.4999998 0.07356755
vt 0.8214756 0.3143957
vt 0.5009654 0.07081338
vt 0.7195578 0.1133887
vt 0.4999998 0.07356755
vt 0.725036 0.8834483
vt 0.5 0.9264324
vt 0.5031628 0.944594
vt 0.5031628 0.944594
vt 0.5 0.9264324
vt 0.8214757 0.6856041
vt 0.8712081 0.5
vt 0.8214756 0.3143957
vt 0.685604 0.1785242
vt 0.6856041 0.8214757
vt 0.4999999 0.1287918
vt 0.5 0.8712081
vt 0.3143958 0.1785243
vt 0.3143959 0.8214757
vt 0.1785242 0.314396
vt 0.1785243 0.6856041
vt 0.1287918 0.5000001
vt 0.8258045 0.682027
vt 0.944594 0.4968371
vt 0.8866112 0.7195579
vt 0.8717584 0.5
vt 0.7107806 0.8152801
vt 0.725036 0.8834483
vt 0.8834482 0.2749636
vt 0.8229844 0.3179727
vt 0.7195578 0.1133887
vt 0.6925514 0.1847199
vt 0.4712464 0.864054
vt 0.725036 0.8834483
vt 0.5031628 0.944594
vt 0.3074484 0.81528
vt 0.2845705 0.8712037
vt 0.1770155 0.682027
vt 0.1278307 0.713757
vt 0.1282415 0.5000001
vt 0.07081338 0.4990345
vt 0.1741954 0.3179731
vt 0.1287962 0.2845706
vt 0.2892193 0.18472
vt 0.2862428 0.1278308
vt 0.5287535 0.135946
vt 0.5009654 0.07081338
vt 0.7195578 0.1133887
vn -0.01235802 0.001011682 -0.9999231
vn -0.01235802 0.001011682 -0.9999231
vn -0.01235802 0.001011682 -0.9999231
vn -0.01235802 0.001011682 -0.9999231
vn -0.01235802 0.001011682 -0.9999231
vn -0.01235802 0.001011682 -0.9999231
vn -0.01235802 0.001011682 -0.9999231
vn -0.01235802 0.001011682 -0.9999231
vn -0.01235802 0.001011682 -0.9999231
vn -0.01235802 0.001011682 -0.9999231
vn -0.01235802 0.001011682 -0.9999231
vn -0.01235802 0.001011682 -0.9999231
vn 0.9253511 0.001321312 -0.379109
vn 0.8080614 0.4641469 0.3627733
vn 0.7919528 0.4693889 -0.3904929
vn 0.9320808 -0.0003797731 0.3622501
vn 0.4687116 0.8092434 0.3541674
vn 0.4464892 0.7987999 -0.4031948
vn 0.7974343 -0.4627407 -0.3872591
vn 0.8129633 -0.4631528 0.352959
vn 0.4567111 -0.7938594 -0.4014999
vn 0.4785628 -0.8094763 0.340185
vn 0.7018498 -0.001903986 0.7123225
vn 0.6117235 0.3510174 0.7089295
vn 0.3613836 0.6284094 0.6888421
vn -0.001467473 0.9391787 0.3434256
vn 0.002331304 0.7452581 0.666772
vn -0.4733654 0.8106836 0.3445536
vn -0.362368 0.6512007 0.6668037
vn -0.810682 0.4607031 0.3613133
vn -0.4667831 0.7976172 -0.3819952
vn -0.01022932 0.9166505 -0.3995586
vn -0.8073363 0.4625756 -0.3663769
vn -0.9285651 -0.001663564 0.3711657
vn -0.9309432 0.0002027673 -0.3651642
vn -0.8055621 -0.4679578 0.3634351
vn -0.8010008 -0.4639293 -0.3783744
vn -0.4638799 -0.815271 0.3466247
vn -0.4572547 -0.7960668 -0.3964792
vn 0.009503837 -0.9418433 0.3359181
vn 0.000838512 -0.9138181 -0.4061228
vn -0.6142435 0.373855 0.6949369
vn -0.6960479 -0.001600452 0.7179935
vn -0.6050078 -0.3625923 0.708867
vn -0.3501541 -0.6394448 0.6844723
vn 0.009503837 -0.9418433 0.3359181
vn 0.01222344 -0.7425312 0.6696999
vn 0.370778 -0.6348627 0.6778443
vn 0.009503837 -0.9418433 0.3359181
vn 0.6185262 -0.359149 0.698883
vn 0.000838512 -0.9138181 -0.4061228
vn 0.4567111 -0.7938594 -0.4014999
vn 0.009503837 -0.9418433 0.3359181
vn 0.4464892 0.7987999 -0.4031948
vn -0.001467473 0.9391787 0.3434256
vn -0.01022932 0.9166505 -0.3995586
vn -0.01022932 0.9166505 -0.3995586
vn -0.001467473 0.9391787 0.3434256
vn 0.01235005 -0.001010355 0.9999232
vn 0.01235005 -0.001010356 0.9999232
vn 0.01235005 -0.001010356 0.9999232
vn 0.01235005 -0.001010356 0.9999232
vn 0.01235005 -0.001010356 0.9999232
vn 0.01235005 -0.001010356 0.9999232
vn 0.01235005 -0.001010356 0.9999232
vn 0.01235005 -0.001010356 0.9999232
vn 0.01235005 -0.001010356 0.9999232
vn 0.01235005 -0.001010356 0.9999232
vn 0.01235005 -0.001010355 0.9999232
vn 0.01235005 -0.001010355 0.9999232
vn 0.5765327 0.3216962 -0.7510803
vn 0.9253511 0.001321312 -0.379109
vn 0.7919528 0.4693889 -0.3904929
vn 0.6828066 0.001139235 -0.7305983
vn 0.3128122 0.5453464 -0.7776541
vn 0.4464892 0.7987999 -0.4031948
vn 0.7974343 -0.4627407 -0.3872591
vn 0.5852578 -0.3312944 -0.7400792
vn 0.4567111 -0.7938594 -0.4014999
vn 0.3266227 -0.558677 -0.7623632
vn -0.01302973 0.631122 -0.7755742
vn 0.4464892 0.7987999 -0.4031948
vn -0.01022932 0.9166505 -0.3995586
vn -0.3450182 0.5668825 -0.7480686
vn -0.4667831 0.7976172 -0.3819952
vn -0.6014605 0.342171 -0.7219171
vn -0.8073363 0.4625756 -0.3663769
vn -0.6970723 0.001772735 -0.7169986
vn -0.9309432 0.0002027673 -0.3651642
vn -0.5940363 -0.329489 -0.733865
vn -0.8010008 -0.4639293 -0.3783744
vn -0.3350312 -0.5577618 -0.7593786
vn -0.4572547 -0.7960668 -0.3964792
vn -0.004078703 -0.6355694 -0.7720329
vn 0.000838512 -0.9138181 -0.4061228
vn 0.4567111 -0.7938594 -0.4014999
g foss001_0
f 3/3/3 2/2/2 1/1/1
f 1/1/1 4/4/4 3/3/3
f 1/1/1 5/5/5 4/4/4
f 5/5/5 6/6/6 4/4/4
f 5/5/5 7/7/7 6/6/6
f 7/7/7 8/8/8 6/6/6
f 7/7/7 9/9/9 8/8/8
f 9/9/9 10/10/10 8/8/8
f 9/9/9 11/11/11 10/10/10
f 11/11/11 12/12/12 10/10/10
f 15/15/15 14/14/14 13/13/13
f 14/14/14 16/16/16 13/13/13
f 17/17/17 14/14/14 15/15/15
f 18/18/18 17/17/17 15/15/15
f 13/13/13 16/16/16 19/19/19
f 16/16/16 20/20/20 19/19/19
f 19/19/19 20/20/20 21/21/21
f 20/20/20 22/22/22 21/21/21
f 23/23/23 16/16/16 14/14/14
f 24/24/24 23/23/23 14/14/14
f 24/24/24 14/14/14 17/17/17
f 25/25/25 24/24/24 17/17/17
f 25/25/25 17/17/17 26/26/26
f 27/27/27 25/25/25 26/26/26
f 27/27/27 26/26/26 28/28/28
f 29/29/29 27/27/27 28/28/28
f 29/29/29 28/28/28 30/30/30
f 30/30/30 28/28/28 31/31/31
f 31/31/31 28/28/28 32/32/32
f 33/33/33 30/30/30 31/31/31
f 34/34/34 30/30/30 33/33/33
f 35/35/35 34/34/34 33/33/33
f 36/36/36 34/34/34 35/35/35
f 37/37/37 36/36/36 35/35/35
f 38/38/38 36/36/36 37/37/37
f 39/39/39 38/38/38 37/37/37
f 40/40/40 38/38/38 39/39/39
f 41/41/41 40/40/40 39/39/39
f 42/42/42 29/29/29 30/30/30
f 42/42/42 30/30/30 34/34/34
f 43/43/43 42/42/42 34/34/34
f 43/43/43 34/34/34 36/36/36
f 44/44/44 43/43/43 36/36/36
f 44/44/44 36/36/36 38/38/38
f 45/45/45 44/44/44 38/38/38
f 45/45/45 38/38/38 46/46/46
f 47/47/47 45/45/45 46/46/46
f 48/48/48 47/47/47 22/22/22
f 47/47/47 49/49/49 22/22/22
f 48/48/48 22/22/22 20/20/20
f 50/50/50 48/48/48 20/20/20
f 50/50/50 20/20/20 16/16/16
f 23/23/23 50/50/50 16/16/16
f 52/52/52 22/22/22 51/51/51
f 22/22/22 53/53/53 51/51/51
f 56/56/56 55/55/55 54/54/54
f 55/55/55 17/17/17 54/54/54
f 28/28/28 58/58/58 57/57/57
f 61/61/61 60/60/60 59/59/59
f 59/59/59 62/62/62 61/61/61
f 59/59/59 63/63/63 62/62/62
f 63/63/63 64/64/64 62/62/62
f 63/63/63 65/65/65 64/64/64
f 65/65/65 66/66/66 64/64/64
f 65/65/65 67/67/67 66/66/66
f 67/67/67 68/68/68 66/66/66
f 67/67/67 69/69/69 68/68/68
f 69/69/69 70/70/70 68/68/68
f 73/73/73 72/72/72 71/71/71
f 72/72/72 74/74/74 71/71/71
f 73/73/73 71/71/71 75/75/75
f 76/76/76 73/73/73 75/75/75
f 72/72/72 77/77/77 74/74/74
f 77/77/77 78/78/78 74/74/74
f 77/77/77 79/79/79 78/78/78
f 79/79/79 80/80/80 78/78/78
f 82/82/82 75/75/75 81/81/81
f 83/83/83 82/82/82 81/81/81
f 83/83/83 81/81/81 84/84/84
f 85/85/85 83/83/83 84/84/84
f 85/85/85 84/84/84 86/86/86
f 87/87/87 85/85/85 86/86/86
f 87/87/87 86/86/86 88/88/88
f 89/89/89 87/87/87 88/88/88
f 89/89/89 88/88/88 90/90/90
f 91/91/91 89/89/89 90/90/90
f 91/91/91 90/90/90 92/92/92
f 93/93/93 91/91/91 92/92/92
f 93/93/93 92/92/92 94/94/94
f 95/95/95 93/93/93 94/94/94
f 95/95/95 94/94/94 80/80/80
f 96/96/96 95/95/95 80/80/80
