g magnet
v 0.1018684 -0.4393153 0.1238756
v 0.1690269 -0.1934793 0.3546674
v 0.2817442 -0.2961681 0.1512902
v -0.01084889 -0.3366266 0.3272529
v -0.08913285 -0.469215 0.03311443
v -0.2018501 -0.3665263 0.2364917
v -0.2371742 -0.4270459 -0.07022604
v -0.3498915 -0.3243572 0.1331513
v 0.3674887 0.1370851 0.2977528
v 0.4802061 0.03439641 0.09437551
v 0.3326215 0.09952655 -0.02030525
v 0.04094675 -0.08302419 0.2279113
v 0.153664 -0.1857128 0.02453395
v 0.2199042 0.2022153 0.183072
v -0.08689925 -0.1520343 0.1919
v 0.025818 -0.2547231 -0.01147733
v -0.2041878 -0.1271238 0.1143177
v -0.09147055 -0.2298124 -0.08905963
v 0.4802061 0.03439641 0.09437551
v 0.2199042 0.2022153 0.183072
v 0.3326215 0.09952655 -0.02030525
v 0.3674887 0.1370851 0.2977528
v -0.01084889 -0.3366266 0.3272529
v 0.04094675 -0.08302419 0.2279113
v 0.1690269 -0.1934793 0.3546674
v -0.2018501 -0.3665263 0.2364917
v -0.08689925 -0.1520343 0.1919
v -0.3498915 -0.3243572 0.1331513
v -0.2041878 -0.1271238 0.1143177
v 0.2199042 0.2022153 0.183072
v 0.3674887 0.1370851 0.2977528
v 0.1018684 -0.4393153 0.1238756
v 0.2817442 -0.2961681 0.1512902
v 0.153664 -0.1857128 0.02453395
v -0.08913285 -0.469215 0.03311443
v 0.025818 -0.2547231 -0.01147733
v -0.2371742 -0.4270459 -0.07022604
v -0.09147055 -0.2298124 -0.08905963
v 0.4802061 0.03439641 0.09437551
v 0.3326215 0.09952655 -0.02030525
v -0.3674885 -0.1322291 -0.2913079
v -0.4002775 0.1789993 -0.1489273
v -0.4802059 -0.0295405 -0.08793055
v -0.2875601 0.07631061 -0.3523046
v -0.3307417 -0.3111376 -0.1806078
v -0.443459 -0.2084489 0.02276953
v -0.2371742 -0.4270459 -0.07022604
v -0.3498915 -0.3243572 0.1331513
v -0.02742859 0.3665265 -0.3546676
v -0.1401459 0.469215 -0.1512903
v 0.08885019 0.2590187 -0.2359403
v -0.2456463 0.104485 -0.02560304
v -0.02386706 0.3617074 -0.03256291
v -0.1329291 0.00179632 -0.2289804
v -0.2698533 -0.03233303 0.03006258
v -0.1571361 -0.1350218 -0.1733147
v -0.2041878 -0.1271238 0.1143177
v -0.09147055 -0.2298124 -0.08905963
v -0.02742859 0.3665265 -0.3546676
v -0.02386706 0.3617074 -0.03256291
v -0.1401459 0.469215 -0.1512903
v 0.08885019 0.2590187 -0.2359403
v -0.4802059 -0.0295405 -0.08793055
v -0.4002775 0.1789993 -0.1489273
v -0.2456463 0.104485 -0.02560304
v -0.443459 -0.2084489 0.02276953
v -0.2698533 -0.03233303 0.03006258
v -0.3498915 -0.3243572 0.1331513
v -0.2041878 -0.1271238 0.1143177
v -0.1401459 0.469215 -0.1512903
v -0.02386706 0.3617074 -0.03256291
v -0.3674885 -0.1322291 -0.2913079
v -0.1329291 0.00179632 -0.2289804
v -0.2875601 0.07631061 -0.3523046
v -0.3307417 -0.3111376 -0.1806078
v -0.1571361 -0.1350218 -0.1733147
v -0.2371742 -0.4270459 -0.07022604
v -0.09147055 -0.2298124 -0.08905963
v 0.08885019 0.2590187 -0.2359403
v -0.02742859 0.3665265 -0.3546676
vt 0.173562 0.5813732
vt 0.01650031 0.7244228
vt 0.1735621 0.7244228
vt 0.01650028 0.5813732
vt 0.173562 0.4494078
vt 0.01650031 0.4494078
vt 0.1735621 0.3348497
vt 0.01650031 0.3348497
vt 0.01650036 0.965241
vt 0.1735621 0.965241
vt 0.2180177 0.9465359
vt 0.3750795 0.7366371
vt 0.2180177 0.7366371
vt 0.3750796 0.9465359
vt 0.3750795 0.6441537
vt 0.2180177 0.6441537
vt 0.3750795 0.5559096
vt 0.2180176 0.5559097
vt 0.8224502 0.5318033
vt 0.9795113 0.4095064
vt 0.8224502 0.4095064
vt 0.9795113 0.5318033
vt 0.5137757 0.3559291
vt 0.4283891 0.5448091
vt 0.5834523 0.5143751
vt 0.3791675 0.2700395
vt 0.3626147 0.4542695
vt 0.2423908 0.2475414
vt 0.2584699 0.4307122
vt 0.4268001 0.7987824
vt 0.5746209 0.8056315
vt 0.5137757 0.3559291
vt 0.5834523 0.5143751
vt 0.4283891 0.5448091
vt 0.3791675 0.2700395
vt 0.3626147 0.4542695
vt 0.2423908 0.2475414
vt 0.2584699 0.4307122
vt 0.5746209 0.8056315
vt 0.4268001 0.7987824
vt 0.6277962 0.5905626
vt 0.7848575 0.7336118
vt 0.7848575 0.5905626
vt 0.6277962 0.7336118
vt 0.6277962 0.4585986
vt 0.7848575 0.4585986
vt 0.6277962 0.3438326
vt 0.7848575 0.3442494
vt 0.6277962 0.9742282
vt 0.7848575 0.9746311
vt 0.9769874 0.9674804
vt 0.8199286 0.7585105
vt 0.8199286 0.9684054
vt 0.9769874 0.7575858
vt 0.8199286 0.6655669
vt 0.9769874 0.6655669
vt 0.8199286 0.5777884
vt 0.9769874 0.5768626
vt 0.04719536 0.2323672
vt 0.169474 0.07532915
vt 0.04719536 0.07532915
vt 0.169474 0.2323672
vt 0.883424 0.08910733
vt 0.7454096 0.02292546
vt 0.7140089 0.1590896
vt 0.955426 0.2105711
vt 0.7921198 0.2198516
vt 0.9713395 0.3321105
vt 0.8099164 0.3125815
vt 0.4877342 0.02227451
vt 0.4894955 0.1531204
vt 0.883424 0.08910733
vt 0.7140089 0.1590896
vt 0.7454096 0.02292546
vt 0.955426 0.2105711
vt 0.7921198 0.2198516
vt 0.9713395 0.3321105
vt 0.8099164 0.3125815
vt 0.4894955 0.1531204
vt 0.4877342 0.02227451
vn 0.2023007 -0.8245189 0.5284345
vn 0.6071835 -0.5212373 0.5996997
vn 0.6071836 -0.5212373 0.5996997
vn 0.2023006 -0.824519 0.5284345
vn -0.2382789 -0.9136763 0.3292701
vn -0.2382789 -0.9136763 0.32927
vn -0.5924417 -0.8019654 0.07657864
vn -0.5924417 -0.8019654 0.07657864
vn 0.737608 -0.3426653 0.5818204
vn 0.737608 -0.3426653 0.5818204
vn -0.7251472 0.3629659 -0.5851642
vn -0.5246041 0.6068085 -0.597138
vn -0.5246041 0.6068085 -0.597138
vn -0.7251472 0.3629659 -0.5851642
vn 0.04665214 0.9018574 -0.4295075
vn 0.04665207 0.9018574 -0.4295075
vn 0.5924416 0.8019655 -0.07657877
vn 0.5924416 0.8019655 -0.07657877
vn 0.4973561 0.8535306 -0.1553139
vn 0.4973561 0.8535306 -0.1553139
vn 0.4973561 0.8535306 -0.1553138
vn 0.4973561 0.8535306 -0.1553138
vn -0.4434371 0.4039842 0.8001002
vn -0.4434372 0.4039842 0.8001002
vn -0.4434371 0.4039841 0.8001002
vn -0.4434372 0.4039842 0.8001001
vn -0.4434372 0.4039842 0.8001001
vn -0.4434372 0.4039843 0.8001001
vn -0.4434372 0.4039843 0.8001001
vn -0.4434372 0.4039841 0.8001002
vn -0.4434372 0.4039841 0.8001002
vn 0.4434372 -0.4039842 -0.8001001
vn 0.4434372 -0.4039842 -0.8001001
vn 0.4434372 -0.4039842 -0.8001001
vn 0.4434371 -0.4039842 -0.8001001
vn 0.4434371 -0.4039842 -0.8001001
vn 0.4434372 -0.4039842 -0.8001001
vn 0.4434372 -0.4039842 -0.8001001
vn 0.4434372 -0.4039842 -0.8001001
vn 0.4434372 -0.4039842 -0.8001001
vn -0.8917264 -0.1087302 -0.4393197
vn -0.7306696 0.3540793 -0.5837379
vn -0.8917264 -0.1087303 -0.4393197
vn -0.7306696 0.3540793 -0.5837379
vn -0.8270713 -0.5284473 -0.1915637
vn -0.8270712 -0.5284473 -0.1915637
vn -0.5924417 -0.8019654 0.07657864
vn -0.5924417 -0.8019654 0.07657864
vn -0.5982315 0.531334 -0.5998359
vn -0.5982316 0.531334 -0.5998359
vn 0.6141117 -0.5132706 0.5995166
vn 0.7871391 -0.2514253 0.5632028
vn 0.6141117 -0.5132706 0.5995166
vn 0.7871391 -0.2514253 0.5632028
vn 0.8820457 0.3552848 0.3094644
vn 0.8820457 0.3552848 0.3094644
vn 0.5924416 0.8019655 -0.07657877
vn 0.5924416 0.8019655 -0.07657877
vn 0.6769227 0.7360456 0.003527259
vn 0.6769227 0.7360456 0.003527259
vn 0.6769227 0.7360455 0.003527258
vn 0.6769227 0.7360456 0.003527259
vn -0.4434372 0.4039842 0.8001001
vn -0.4434371 0.4039842 0.8001002
vn -0.4434372 0.4039842 0.8001001
vn -0.4434372 0.4039843 0.8001
vn -0.4434373 0.4039843 0.8001
vn -0.4434372 0.4039843 0.8001001
vn -0.4434372 0.4039843 0.8001001
vn -0.4434371 0.4039842 0.8001002
vn -0.4434371 0.4039842 0.8001002
vn 0.4434374 -0.4039844 -0.8001
vn 0.4434373 -0.4039843 -0.8001
vn 0.4434372 -0.4039842 -0.8001001
vn 0.4434373 -0.4039843 -0.8001
vn 0.4434374 -0.4039844 -0.8001
vn 0.4434372 -0.4039842 -0.8001001
vn 0.4434372 -0.4039842 -0.8001001
vn 0.4434372 -0.4039842 -0.8001001
vn 0.4434373 -0.4039843 -0.8001
g magnet_0
f 3/3/3 2/2/2 1/1/1
f 2/2/2 4/4/4 1/1/1
f 1/1/1 4/4/4 5/5/5
f 4/4/4 6/6/6 5/5/5
f 5/5/5 6/6/6 7/7/7
f 6/6/6 8/8/8 7/7/7
f 9/9/9 2/2/2 3/3/3
f 10/10/10 9/9/9 3/3/3
f 13/13/13 12/12/12 11/11/11
f 12/12/12 14/14/14 11/11/11
f 12/12/12 13/13/13 15/15/15
f 13/13/13 16/16/16 15/15/15
f 17/17/17 15/15/15 16/16/16
f 18/18/18 17/17/17 16/16/16
f 21/21/21 20/20/20 19/19/19
f 20/20/20 22/22/22 19/19/19
f 25/25/25 24/24/24 23/23/23
f 23/23/23 24/24/24 26/26/26
f 24/24/24 27/27/27 26/26/26
f 26/26/26 27/27/27 28/28/28
f 27/27/27 29/29/29 28/28/28
f 30/30/30 24/24/24 25/25/25
f 31/31/31 30/30/30 25/25/25
f 34/34/34 33/33/33 32/32/32
f 34/34/34 32/32/32 35/35/35
f 36/36/36 34/34/34 35/35/35
f 36/36/36 35/35/35 37/37/37
f 38/38/38 36/36/36 37/37/37
f 39/39/39 33/33/33 34/34/34
f 40/40/40 39/39/39 34/34/34
f 43/43/43 42/42/42 41/41/41
f 42/42/42 44/44/44 41/41/41
f 43/43/43 41/41/41 45/45/45
f 46/46/46 43/43/43 45/45/45
f 46/46/46 45/45/45 47/47/47
f 48/48/48 46/46/46 47/47/47
f 49/49/49 44/44/44 42/42/42
f 50/50/50 49/49/49 42/42/42
f 53/53/53 52/52/52 51/51/51
f 52/52/52 54/54/54 51/51/51
f 54/54/54 52/52/52 55/55/55
f 56/56/56 54/54/54 55/55/55
f 55/55/55 57/57/57 56/56/56
f 57/57/57 58/58/58 56/56/56
f 61/61/61 60/60/60 59/59/59
f 60/60/60 62/62/62 59/59/59
f 65/65/65 64/64/64 63/63/63
f 65/65/65 63/63/63 66/66/66
f 67/67/67 65/65/65 66/66/66
f 67/67/67 66/66/66 68/68/68
f 69/69/69 67/67/67 68/68/68
f 70/70/70 64/64/64 65/65/65
f 71/71/71 70/70/70 65/65/65
f 74/74/74 73/73/73 72/72/72
f 72/72/72 73/73/73 75/75/75
f 73/73/73 76/76/76 75/75/75
f 75/75/75 76/76/76 77/77/77
f 76/76/76 78/78/78 77/77/77
f 79/79/79 73/73/73 74/74/74
f 80/80/80 79/79/79 74/74/74
