g Object01
v -0.0007318878 -0.01867454 0.001872253
v 0.04368908 -0.001999543 0.2380512
v 0.01575107 -0.001935543 0.001867256
v -0.0007318878 -0.04661354 0.2380512
v 0.04368908 -0.001999543 0.2380512
v -0.04513794 -0.001999543 0.2380512
v 0.03627407 -0.06387954 0.2816653
v 0.06080807 -0.03947254 0.2816653
v 0.05778709 -0.06071054 0.4643932
v -0.0007318878 -0.08495054 0.4643932
v 0.08187908 -0.08462754 0.7295403
v 0.1160981 -0.001935543 0.7295403
v 0.08202709 -0.002063543 0.4643922
v 0.08401909 -0.001935543 0.8147582
v 0.04739109 -0.06976555 0.8095292
v -0.0007318878 -0.001935543 0.8489812
v -0.0007318878 -0.1188305 0.7295192
v -0.001006927 -0.08793055 0.8060732
v -0.001006927 -0.08793055 0.8060732
v -0.01721489 -0.001935543 0.001867256
v -0.04513794 -0.001999543 0.2380512
v -0.03780594 -0.06385154 0.2816653
v -0.06215492 -0.03975854 0.2816653
v -0.0007318878 -0.04661354 0.2380512
v -0.05925194 -0.06071054 0.4643932
v -0.0007318878 -0.08495054 0.4643932
v -0.08334389 -0.08462754 0.7295403
v -0.1175629 -0.001935543 0.7295403
v -0.08342896 -0.002063543 0.4643922
v -0.08548294 -0.001935543 0.8147582
v -0.04884293 -0.06976854 0.8095322
v -0.0007318878 -0.001935543 0.8489812
v -0.0007318878 -0.1188305 0.7295192
v -0.001006927 -0.08793055 0.8060732
v -0.001006927 -0.08793055 0.8060732
v -0.0007318878 0.01480346 0.001872253
v 0.04368908 -0.001999543 0.2380512
v -0.0007318878 0.04261346 0.2380512
v -0.04513794 -0.001999543 0.2380512
v 0.01575107 -0.001935543 0.001867256
v 0.04368908 -0.001999543 0.2380512
v 0.03676308 0.05980446 0.2816653
v 0.06118507 0.03468846 0.2816653
v 0.05778709 0.05683945 0.4643932
v -0.0007318878 0.08107846 0.4643932
v 0.08187908 0.08075646 0.7295403
v 0.1160981 -0.001935543 0.7295403
v 0.08202709 -0.002063543 0.4643922
v 0.04740906 0.06591046 0.8094832
v -0.0007318878 0.1149585 0.7295192
v 0.001405106 0.08812445 0.8069993
v 0.08401909 -0.001935543 0.8147582
v -0.0007318878 -0.001935543 0.8489812
v 0.001405106 0.08812445 0.8069993
v -0.04513794 -0.001999543 0.2380512
v -0.01721489 -0.001935543 0.001867256
v -0.0007318878 0.04261346 0.2380512
v -0.06274292 0.03445946 0.2816653
v -0.03740188 0.06014645 0.2816653
v -0.05925194 0.05683945 0.4643932
v -0.0007318878 0.08107846 0.4643932
v -0.08334389 0.08075646 0.7295403
v -0.1175629 -0.001935543 0.7295403
v -0.08342896 -0.002063543 0.4643922
v -0.08548294 -0.001935543 0.8147582
v -0.04896095 0.06587946 0.8094742
v -0.0007318878 -0.001935543 0.8489812
v -0.0007318878 0.1149585 0.7295192
v 0.001405106 0.08812445 0.8069993
v 0.001405106 0.08812445 0.8069993
v -0.000724945 0.09431446 0.7772962
v 0.03567707 0.06737446 0.7990763
v -0.000724945 0.1300155 0.8673933
v -0.000724945 0.04126345 0.8239793
v -0.000724945 0.1300155 0.8673933
v -0.0004238891 -0.1003065 0.7813332
v -0.0004238891 -0.1361375 0.8717592
v 0.03589107 -0.07364654 0.8036042
v -0.0004238891 -0.04741054 0.8283573
v -0.0004238891 -0.1361375 0.8717592
v -0.0005728912 -0.1077575 0.6721543
v 0.02991909 -0.08948255 0.6427032
v -0.0005728912 -0.1482875 0.6593493
v -0.0005728912 -0.09679854 0.6126782
v -0.03106491 -0.08948255 0.6427032
v -0.002486954 0.09488346 0.6208372
v 0.02802906 0.08756646 0.6508623
v -0.002486954 0.1463815 0.6576912
v -0.002486954 0.1058425 0.6803142
v -0.03300392 0.08756646 0.6508623
v -0.000724945 0.09431446 0.7772962
v -0.000724945 0.1300155 0.8673933
v -0.03712692 0.06737546 0.7990763
v -0.000724945 0.04126345 0.8239793
v -0.000724945 0.1300155 0.8673933
v -0.0004238891 -0.1003065 0.7813332
v -0.03673889 -0.07364654 0.8036042
v -0.0004238891 -0.1361375 0.8717592
v -0.0004238891 -0.04741054 0.8283573
v -0.0004238891 -0.1361375 0.8717592
v 0.09226806 -0.001972543 0.7858182
v 0.1088501 -0.001795543 0.8597373
v 0.05957409 0.02905745 0.7995012
v 0.04075508 -0.001972543 0.8226052
v 0.1088501 -0.001795543 0.8597373
v 0.05957409 -0.03300354 0.7995012
v 0.1088501 -0.001795543 0.8597373
v 0.1088501 -0.001795543 0.8597373
v 0.09226806 -0.001972543 0.7858182
v 0.09472809 -7.254332E-05 0.6207642
v 0.1497721 2.345666E-05 0.6699822
v 0.08753406 0.03041746 0.6508623
v 0.1058091 -7.154331E-05 0.6803142
v 0.08753005 -0.03056254 0.6508623
v 0.1497721 2.345666E-05 0.6699822
v 0.09472809 -7.254332E-05 0.6207642
v -0.09378395 -0.001972543 0.7849092
v -0.06109093 0.02905745 0.7985932
v -0.1103669 -0.001795543 0.8588282
v -0.04227089 -0.001972543 0.8216962
v -0.1103669 -0.001795543 0.8588282
v -0.06109093 -0.03300354 0.7985932
v -0.1103669 -0.001795543 0.8588282
v -0.1103669 -0.001795543 0.8588282
v -0.09378395 -0.001972543 0.7849092
v -0.09441192 -0.001474543 0.6207642
v -0.08721794 0.02901646 0.6508632
v -0.1494559 -0.001377543 0.6699822
v -0.1054929 -0.001473543 0.6803142
v -0.08721291 -0.03196454 0.6508632
v -0.1494559 -0.001377543 0.6699822
v -0.09441192 -0.001474543 0.6207642
v 0.02039909 -0.002224543 0.004098244
v -0.0007318878 -0.05804254 -0.03612774
v -0.0007318878 -0.02662454 0.004098244
v 0.04760807 -0.002224543 -0.03612774
v -0.0007318878 -0.02662454 0.004098244
v -0.04907196 -0.002224543 -0.03612774
v -0.02186294 -0.002224543 0.004098244
v -0.0007318878 -0.05804254 -0.03612774
v -0.02186294 -0.002224543 0.004098244
v -0.0007318878 0.05359346 -0.03612774
v -0.0007318878 0.02217546 0.004098244
v -0.04907196 -0.002224543 -0.03612774
v -0.0007318878 0.05359346 -0.03612774
v -0.0007318878 0.02217546 0.004098244
v 0.04760807 -0.002224543 -0.03612774
v 0.02039909 -0.002224543 0.004098244
v -0.0007318878 0.05359346 -0.03612774
v 0.04760807 -0.002224543 -0.03612774
v -0.0007318878 -0.02662454 -0.08947975
v -0.0007318878 -0.05804254 -0.03612774
v 0.02039909 -0.002224543 -0.08947975
v -0.0007318878 -0.05804254 -0.03612774
v -0.02186294 -0.002224543 -0.08947975
v -0.04907196 -0.002224543 -0.03612774
v -0.0007318878 -0.02662454 -0.08947975
v -0.04907196 -0.002224543 -0.03612774
v -0.0007318878 0.02217546 -0.08947975
v -0.0007318878 0.05359346 -0.03612774
v -0.02186294 -0.002224543 -0.08947975
v -0.0007318878 0.05359346 -0.03612774
v 0.02039909 -0.002224543 -0.08947975
v 0.04760807 -0.002224543 -0.03612774
v -0.0007318878 0.05359346 -0.03612774
v -0.0007318878 0.02217546 -0.08947975
v 0.02039909 -0.002224543 0.004098244
v -0.0007318878 -0.02662454 0.004098244
v -0.0007318878 0.02217546 0.004098244
v -0.02186294 -0.002224543 0.004098244
v 0.02039909 -0.002224543 -0.08947975
v -0.0007318878 0.02217546 -0.08947975
v -0.0007318878 -0.02662454 -0.08947975
v -0.02186294 -0.002224543 -0.08947975
v -0.0007318878 -0.04661354 0.2380512
v -0.0006589508 -0.1291215 0.3064713
v 0.03627407 -0.06387954 0.2816653
v 0.03627407 -0.06387954 0.2816653
v -0.0006589508 -0.1291215 0.3064713
v -0.0007318878 -0.08495054 0.4643932
v -0.0007318878 -0.04661354 0.2380512
v -0.03780594 -0.06385154 0.2816653
v -0.0006589508 -0.1291215 0.3064713
v -0.0006589508 -0.1291215 0.3064713
v -0.03780594 -0.06385154 0.2816653
v -0.0007318878 -0.08495054 0.4643932
v -0.0007318878 0.04261346 0.2380512
v -0.0003889465 0.1217744 0.3064713
v -0.03740188 0.06014645 0.2816653
v -0.03740188 0.06014645 0.2816653
v -0.0003889465 0.1217744 0.3064713
v -0.0007318878 0.08107846 0.4643932
v -0.0007318878 0.04261346 0.2380512
v 0.03676308 0.05980446 0.2816653
v -0.0003889465 0.1217744 0.3064713
v -0.0003889465 0.1217744 0.3064713
v 0.03676308 0.05980446 0.2816653
v -0.0007318878 0.08107846 0.4643932
v 0.04368908 -0.001999543 0.2380512
v 0.1261981 -0.002118543 0.3064713
v 0.06118507 0.03468846 0.2816653
v 0.06118507 0.03468846 0.2816653
v 0.1261981 -0.002118543 0.3064713
v 0.08202709 -0.002063543 0.4643922
v 0.04368908 -0.001999543 0.2380512
v 0.06080807 -0.03947254 0.2816653
v 0.1261981 -0.002118543 0.3064713
v 0.1261981 -0.002118543 0.3064713
v 0.06080807 -0.03947254 0.2816653
v 0.08202709 -0.002063543 0.4643922
v -0.04513794 -0.001999543 0.2380512
v -0.06274292 0.03445946 0.2816653
v -0.1275379 -0.002118543 0.3064713
v -0.06274292 0.03445946 0.2816653
v -0.08342896 -0.002063543 0.4643922
v -0.1275379 -0.002118543 0.3064713
v -0.04513794 -0.001999543 0.2380512
v -0.1275379 -0.002118543 0.3064713
v -0.06215492 -0.03975854 0.2816653
v -0.1275379 -0.002118543 0.3064713
v -0.08342896 -0.002063543 0.4643922
v -0.06215492 -0.03975854 0.2816653
vt 0.9644 0.0124
vt 0.9827 0.1671
vt 0.9845 0.0127
vt 0.9568 0.1549
vt 0.9827 0.1671
vt 0.9827 0.1671
vt 0.9421 0.1934
vt 0.9601 0.1961
vt 0.9416 0.32
vt 0.9028 0.3179
vt 0.9331 0.4775
vt 0.9832 0.473
vt 0.9821 0.3199
vt 0.983 0.5199
vt 0.9406 0.5295
vt 0.9831 0.572
vt 0.8835 0.4885
vt 0.9203 0.5412
vt 0.9203 0.5412
vt 0.9845 0.0127
vt 0.9827 0.1671
vt 0.9421 0.1934
vt 0.96 0.1961
vt 0.9568 0.1549
vt 0.9416 0.32
vt 0.9028 0.3179
vt 0.9331 0.4775
vt 0.9832 0.473
vt 0.9821 0.3199
vt 0.9831 0.5199
vt 0.9406 0.5295
vt 0.9831 0.572
vt 0.8835 0.4885
vt 0.9203 0.5413
vt 0.9203 0.5413
vt 0.9644 0.0124
vt 0.9827 0.1671
vt 0.9568 0.1549
vt 0.9827 0.1671
vt 0.9845 0.0127
vt 0.9827 0.1671
vt 0.9424 0.1935
vt 0.9602 0.1961
vt 0.9416 0.32
vt 0.9028 0.3179
vt 0.9331 0.4775
vt 0.9832 0.473
vt 0.9821 0.3199
vt 0.9406 0.5294
vt 0.8835 0.4885
vt 0.9202 0.5412
vt 0.9831 0.5199
vt 0.9831 0.572
vt 0.9202 0.5412
vt 0.9827 0.1671
vt 0.9845 0.0127
vt 0.9568 0.1549
vt 0.9602 0.1961
vt 0.9419 0.1933
vt 0.9416 0.32
vt 0.9028 0.3179
vt 0.9331 0.4775
vt 0.9832 0.473
vt 0.9821 0.3199
vt 0.983 0.5199
vt 0.9407 0.5294
vt 0.9831 0.572
vt 0.8835 0.4885
vt 0.9202 0.5412
vt 0.9202 0.5412
vt 0.6969 0.412
vt 0.6654 0.4171
vt 0.7011 0.4724
vt 0.6465 0.4472
vt 0.7011 0.4724
vt 0.6465 0.4472
vt 0.7014 0.4725
vt 0.6653 0.4172
vt 0.6969 0.4119
vt 0.7014 0.4725
vt 0.4628 0.9661
vt 0.4908 0.9848
vt 0.4747 0.9153
vt 0.5185 0.9681
vt 0.4908 0.9849
vt 0.5185 0.9681
vt 0.4907 0.9848
vt 0.4747 0.9153
vt 0.4628 0.9661
vt 0.4907 0.9848
vt 0.6465 0.4472
vt 0.7012 0.4724
vt 0.6653 0.4172
vt 0.6969 0.4119
vt 0.7012 0.4724
vt 0.6969 0.412
vt 0.6654 0.4172
vt 0.7012 0.4725
vt 0.6465 0.4472
vt 0.7012 0.4725
vt 0.9892 0.9534
vt 0.9345 0.928
vt 0.9704 0.9837
vt 0.9386 0.9889
vt 0.9345 0.928
vt 0.9029 0.9865
vt 0.9345 0.928
vt 0.9345 0.928
vt 0.8814 0.956
vt 0.5184 0.9681
vt 0.4747 0.9153
vt 0.4907 0.9848
vt 0.4628 0.9661
vt 0.4295 0.9709
vt 0.4747 0.9153
vt 0.4073 0.9468
vt 0.8814 0.9561
vt 0.903 0.9865
vt 0.9344 0.9281
vt 0.9386 0.9889
vt 0.9344 0.9281
vt 0.9704 0.9837
vt 0.9344 0.9281
vt 0.9344 0.9281
vt 0.9892 0.9534
vt 0.5184 0.9681
vt 0.4907 0.9849
vt 0.4747 0.9153
vt 0.4628 0.9661
vt 0.4294 0.971
vt 0.4747 0.9153
vt 0.4072 0.947
vt 0.7556 0.1251
vt 0.7404 0.1083
vt 0.7412 0.1236
vt 0.7644 0.1071
vt 0.7412 0.1236
vt 0.7163 0.1098
vt 0.7271 0.1268
vt 0.7404 0.1083
vt 0.3657 0.352
vt 0.3513 0.3344
vt 0.3514 0.3497
vt 0.3754 0.3345
vt 0.3513 0.3344
vt 0.3514 0.3497
vt 0.3272 0.3346
vt 0.3371 0.3521
vt 0.3513 0.3344
vt 0.7644 0.1071
vt 0.7392 0.0887
vt 0.7404 0.1083
vt 0.753 0.0857
vt 0.7404 0.1083
vt 0.7253 0.0873
vt 0.7163 0.1098
vt 0.7392 0.0887
vt 0.3754 0.3345
vt 0.3513 0.3148
vt 0.3513 0.3344
vt 0.3651 0.3125
vt 0.3513 0.3344
vt 0.3374 0.3126
vt 0.3272 0.3346
vt 0.3513 0.3344
vt 0.3513 0.3148
vt 0.8679 0.1382
vt 0.8624 0.1003
vt 0.8312 0.1491
vt 0.8256 0.1112
vt 0.9571 0.8793
vt 0.9437 0.911
vt 0.9904 0.888
vt 0.977 0.9197
vt 0.2054 0.352
vt 0.2378 0.3363
vt 0.235 0.3714
vt 0.235 0.3714
vt 0.2378 0.3363
vt 0.3117 0.3004
vt 0.2054 0.352
vt 0.2085 0.3167
vt 0.2378 0.3363
vt 0.2378 0.3363
vt 0.2085 0.3167
vt 0.3117 0.3004
vt 0.2054 0.352
vt 0.2378 0.3363
vt 0.235 0.3714
vt 0.235 0.3714
vt 0.2378 0.3363
vt 0.3117 0.3004
vt 0.2054 0.352
vt 0.2085 0.3167
vt 0.2378 0.3363
vt 0.2378 0.3363
vt 0.2085 0.3167
vt 0.3117 0.3004
vt 0.2054 0.352
vt 0.2378 0.3363
vt 0.235 0.3714
vt 0.235 0.3714
vt 0.2378 0.3363
vt 0.3117 0.3004
vt 0.2054 0.352
vt 0.2085 0.3167
vt 0.2378 0.3363
vt 0.2378 0.3363
vt 0.2085 0.3167
vt 0.3117 0.3004
vt 0.2054 0.352
vt 0.235 0.3714
vt 0.2378 0.3363
vt 0.235 0.3714
vt 0.3117 0.3004
vt 0.2378 0.3363
vt 0.2054 0.352
vt 0.2378 0.3363
vt 0.2085 0.3167
vt 0.2378 0.3363
vt 0.3117 0.3004
vt 0.2085 0.3167
vn -1.459039E-05 -0.9928732 -0.1191752
vn 0.8682485 0.0005597722 -0.4961292
vn 0.9930764 0.0001293569 -0.1174701
vn 0.0001120253 -0.867155 -0.4980382
vn 0.8682485 0.0005597722 -0.4961292
vn -0.8685157 0.002889576 -0.4956534
vn 0.6241285 -0.6800655 -0.3846745
vn 0.6776288 -0.6262637 -0.3855036
vn 0.7049783 -0.7045256 -0.08154277
vn 2.982672E-05 -0.9964939 -0.08366591
vn 0.7013029 -0.7022815 0.1223723
vn 0.99232 0.01178985 0.123134
vn 0.9964645 -0.000569719 -0.08401331
vn 0.7476403 0.02088903 0.6637754
vn 0.4466172 -0.6150793 0.6497774
vn -9.881073E-05 -0.004999561 0.9999875
vn 0.0003354827 -0.9926873 0.1207141
vn -0.001295339 -0.7839833 0.6207805
vn -0.001295339 -0.7839833 0.6207805
vn -0.9930837 0.0001293105 -0.1174081
vn -0.8685157 0.002889576 -0.4956534
vn -0.6227452 -0.6809705 -0.3853148
vn -0.675858 -0.6275839 -0.3864641
vn 0.0001120253 -0.867155 -0.4980382
vn -0.7052562 -0.7042451 -0.08156336
vn 2.982672E-05 -0.9964939 -0.08366591
vn -0.7015072 -0.7021203 0.122126
vn -0.9939616 1.117972E-06 0.1097278
vn -0.9964585 -0.0003682653 -0.08408454
vn -0.7373895 -9.199886E-05 0.6754677
vn -0.4474523 -0.6139989 0.6502243
vn -9.881073E-05 -0.004999561 0.9999875
vn 0.0003354827 -0.9926873 0.1207141
vn -0.001295339 -0.7839833 0.6207805
vn -0.001295339 -0.7839833 0.6207805
vn -1.449836E-05 0.9929369 -0.118644
vn 0.8682485 0.0005597722 -0.4961292
vn -0.00285649 0.8669103 -0.4984561
vn -0.8685157 0.002889576 -0.4956534
vn 0.9930764 0.0001293569 -0.1174701
vn 0.8682485 0.0005597722 -0.4961292
vn 0.6320336 0.6733223 -0.3836282
vn 0.6879709 0.6166914 -0.3826065
vn 0.7054393 0.7040519 -0.08164885
vn -0.0003210132 0.9964933 -0.08367196
vn 0.7137195 0.6877723 0.1325651
vn 0.99232 0.01178985 0.123134
vn 0.9964645 -0.000569719 -0.08401331
vn 0.4972706 0.5763628 0.648481
vn -0.002692013 0.995209 0.09773346
vn 0.0119282 0.7844868 0.6200308
vn 0.7476403 0.02088903 0.6637754
vn -9.881073E-05 -0.004999561 0.9999875
vn 0.0119282 0.7844868 0.6200308
vn -0.8685157 0.002889576 -0.4956534
vn -0.9930837 0.0001293105 -0.1174081
vn -0.00285649 0.8669103 -0.4984561
vn -0.6831641 0.6213919 -0.383613
vn -0.62928 0.675822 -0.3837593
vn -0.7057093 0.7037666 -0.08177391
vn -0.0003210132 0.9964933 -0.08367196
vn -0.7047129 0.6996275 0.1179036
vn -0.9939616 1.117972E-06 0.1097278
vn -0.9964585 -0.0003682653 -0.08408454
vn -0.7373895 -9.199886E-05 0.6754677
vn -0.4690116 0.5938026 0.6537788
vn -9.881073E-05 -0.004999561 0.9999875
vn -0.002692013 0.995209 0.09773346
vn 0.0119282 0.7844868 0.6200308
vn 0.0119282 0.7844868 0.6200308
vn 9.978211E-06 0.9296739 -0.3683837
vn 0.9307742 0.2427837 0.2733414
vn 1.025214E-06 0.6781049 0.7349651
vn 1.966769E-06 -0.4394073 0.898288
vn 1.025214E-06 0.6781049 0.7349651
vn 1.488481E-07 -0.9296751 -0.3683806
vn 0 -0.6781014 0.7349684
vn 0.930787 -0.2448652 0.2714344
vn 2.774038E-07 0.4394087 0.8982872
vn 0 -0.6781014 0.7349684
vn 3.027965E-07 -0.3012613 0.9535416
vn 0.8511531 -0.4926439 -0.1812191
vn 1.547533E-07 -0.9730453 0.2306142
vn 1.955919E-07 -0.6715918 -0.7409214
vn -0.8511529 -0.4926444 -0.1812191
vn 6.249213E-06 0.5819672 -0.8132123
vn 0.8697041 0.4690747 -0.1535697
vn 4.61165E-06 0.9973413 0.07287102
vn 7.972551E-06 0.4873097 0.8732292
vn -0.8696979 0.4690858 -0.1535716
vn 9.978211E-06 0.9296739 -0.3683837
vn 1.025214E-06 0.6781049 0.7349651
vn -0.9307736 0.2427928 0.2733355
vn 1.966769E-06 -0.4394073 0.898288
vn 1.025214E-06 0.6781049 0.7349651
vn 1.488481E-07 -0.9296751 -0.3683806
vn -0.9307868 -0.2448654 0.2714346
vn 0 -0.6781014 0.7349684
vn 2.774038E-07 0.4394087 0.8982872
vn 0 -0.6781014 0.7349684
vn 0.9757504 -0.0009744636 -0.2188842
vn 0.6116408 0.002142388 0.7911326
vn 0.1783058 0.9273062 0.329105
vn -0.4787449 -0.0008773746 0.8779536
vn 0.6116408 0.002142388 0.7911326
vn 0.180591 -0.9258502 0.3319463
vn 0.6116408 0.002142388 0.7911326
vn 0.6116408 0.002142388 0.7911326
vn 0.9757504 -0.0009744636 -0.2188842
vn 0.6665553 -0.0004482476 -0.7454554
vn 0.9654235 0.001425996 0.2606828
vn 0.4768352 0.8589175 -0.1867855
vn 0.2287856 -0.00124276 0.9734761
vn 0.4788753 -0.8578043 -0.1866825
vn 0.9654235 0.001425996 0.2606828
vn 0.6665553 -0.0004482476 -0.7454554
vn -0.9757475 -0.0009744639 -0.2188966
vn -0.1783069 0.9273046 0.3291091
vn -0.6116489 0.00214224 0.7911264
vn 0.4787378 -0.0008773071 0.8779576
vn -0.6116489 0.00214224 0.7911264
vn -0.1805922 -0.9258485 0.3319504
vn -0.6116489 0.00214224 0.7911264
vn -0.6116489 0.00214224 0.7911264
vn -0.9757475 -0.0009744639 -0.2188966
vn -0.6665551 -0.0004719533 -0.7454557
vn -0.4768316 0.8589212 -0.1867777
vn -0.9654248 0.001435064 0.2606777
vn -0.2287857 -0.00127269 0.973476
vn -0.4788755 -0.8578071 -0.186669
vn -0.9654248 0.001435064 0.2606777
vn -0.6665551 -0.0004719533 -0.7454557
vn 0.8283098 -9.79893E-07 0.5602704
vn 0.6730505 -0.5828797 0.4552519
vn 0.673052 -0.5828792 0.4552505
vn 0.8283097 -3.375443E-07 0.5602706
vn -0.6730494 -0.5828804 0.4552524
vn -0.6730495 -0.5828803 0.4552525
vn -0.6730497 -0.5828793 0.4552535
vn 0.07273742 -0.9959661 0.05254387
vn -0.4192249 0.363061 0.832128
vn -0.6730496 0.5828804 0.4552524
vn -0.4627848 0.4007841 0.7906973
vn -0.9976132 -0.04599222 0.05150537
vn -0.6730496 0.5828804 0.4552524
vn 0.6730505 0.5828795 0.4552522
vn 0.8283097 -3.375443E-07 0.5602706
vn 0.8283098 -9.79893E-07 0.5602704
vn 0.6730502 0.5828803 0.4552515
vn 0.8908394 1.779975E-07 -0.4543184
vn 0.7053298 -0.6108342 -0.3597103
vn 0.07273742 -0.9959661 0.05254387
vn 0.8908395 8.642457E-07 -0.4543182
vn -0.7053288 -0.6108354 -0.3597102
vn -0.705329 -0.6108353 -0.35971
vn -0.9976132 -0.04599222 0.05150537
vn -0.7053299 -0.6108348 -0.3597091
vn -0.7053289 0.6108353 -0.3597103
vn -0.7053289 0.6108351 -0.3597104
vn -0.7053286 0.6108359 -0.3597098
vn -0.7053294 0.6108343 -0.3597112
vn 0.7053298 0.6108345 -0.3597099
vn 0.8908395 8.642457E-07 -0.4543182
vn 0.8908394 1.779975E-07 -0.4543184
vn 0.7053298 0.6108345 -0.3597099
vn 0.7053311 0.6108336 -0.3597086
vn 0 0 1
vn 0 0 1
vn -0.4627848 0.4007841 0.7906973
vn -0.4192249 0.363061 0.832128
vn 0 0 -1
vn 0 0 -1
vn 0 0 -1
vn 0 0 -1
vn 0.5206676 -0.5447067 -0.6574191
vn 0.5206676 -0.5447067 -0.6574191
vn 0.5206676 -0.5447067 -0.6574191
vn 0.8831064 -0.4517255 0.1267561
vn 0.8831064 -0.4517255 0.1267561
vn 0.8831064 -0.4517255 0.1267561
vn -0.5196974 -0.5456288 -0.6574221
vn -0.5196974 -0.5456288 -0.6574221
vn -0.5196974 -0.5456288 -0.6574221
vn -0.8820254 -0.4538911 0.1265466
vn -0.8820254 -0.4538911 0.1265466
vn -0.8820254 -0.4538911 0.1265466
vn -0.5049415 0.5656792 -0.6519517
vn -0.5049415 0.5656792 -0.6519517
vn -0.5049415 0.5656792 -0.6519517
vn -0.8716867 0.4750138 0.1205166
vn -0.8716867 0.4750138 0.1205166
vn -0.8716867 0.4750138 0.1205166
vn 0.5032305 0.5638322 -0.6548682
vn 0.5032305 0.5638322 -0.6548682
vn 0.5032305 0.5638322 -0.6548682
vn 0.8721549 0.4732913 0.1238596
vn 0.8721549 0.4732913 0.1238596
vn 0.8721549 0.4732913 0.1238596
vn 0.5454051 0.5207065 -0.6568089
vn 0.5454053 0.5207066 -0.6568089
vn 0.5454053 0.5207065 -0.6568088
vn 0.4518735 0.8831271 0.1260828
vn 0.4518734 0.8831271 0.1260828
vn 0.4518735 0.8831271 0.1260828
vn 0.5456976 -0.5176644 -0.6589673
vn 0.5456975 -0.5176643 -0.6589673
vn 0.5456976 -0.5176644 -0.6589673
vn 0.4550355 -0.8812863 0.1275817
vn 0.4550355 -0.8812864 0.1275818
vn 0.4550355 -0.8812864 0.1275818
vn -0.5455465 0.5214409 -0.6561085
vn -0.5455465 0.5214409 -0.6561086
vn -0.5455465 0.5214409 -0.6561086
vn -0.4508024 0.8837422 0.125606
vn -0.4508024 0.8837422 0.125606
vn -0.4508024 0.8837422 0.125606
vn -0.5469903 -0.5154245 -0.6596507
vn -0.5469903 -0.5154245 -0.6596507
vn -0.5469903 -0.5154245 -0.6596507
vn -0.4578279 -0.8797517 0.1281825
vn -0.4578279 -0.8797516 0.1281825
vn -0.4578279 -0.8797516 0.1281824
g Object01_0
f 3/3/3 2/2/2 1/1/1
f 5/5/5 4/4/4 1/1/1
f 4/4/4 6/6/6 1/1/1
f 7/7/7 4/4/4 2/2/2
f 8/8/8 7/7/7 2/2/2
f 8/8/8 9/9/9 7/7/7
f 9/9/9 10/10/10 7/7/7
f 10/10/10 9/9/9 11/11/11
f 11/11/11 9/9/9 12/12/12
f 9/9/9 13/13/13 12/12/12
f 13/13/13 9/9/9 8/8/8
f 12/12/12 14/14/14 11/11/11
f 14/14/14 15/15/15 11/11/11
f 16/16/16 15/15/15 14/14/14
f 17/17/17 10/10/10 11/11/11
f 18/18/18 11/11/11 15/15/15
f 17/17/17 11/11/11 18/18/18
f 16/16/16 19/19/19 15/15/15
f 21/21/21 20/20/20 1/1/1
f 23/23/23 21/21/21 22/22/22
f 21/21/21 24/24/24 22/22/22
f 23/23/23 22/22/22 25/25/25
f 25/25/25 22/22/22 26/26/26
f 25/25/25 26/26/26 27/27/27
f 25/25/25 27/27/27 28/28/28
f 29/29/29 25/25/25 28/28/28
f 29/29/29 23/23/23 25/25/25
f 30/30/30 28/28/28 27/27/27
f 31/31/31 30/30/30 27/27/27
f 31/31/31 32/32/32 30/30/30
f 26/26/26 33/33/33 27/27/27
f 34/34/34 31/31/31 27/27/27
f 33/33/33 34/34/34 27/27/27
f 32/32/32 31/31/31 35/35/35
f 38/38/38 37/37/37 36/36/36
f 39/39/39 38/38/38 36/36/36
f 41/41/41 40/40/40 36/36/36
f 41/41/41 38/38/38 42/42/42
f 43/43/43 41/41/41 42/42/42
f 43/43/43 42/42/42 44/44/44
f 44/44/44 42/42/42 45/45/45
f 44/44/44 45/45/45 46/46/46
f 44/44/44 46/46/46 47/47/47
f 48/48/48 44/44/44 47/47/47
f 48/48/48 43/43/43 44/44/44
f 49/49/49 47/47/47 46/46/46
f 45/45/45 50/50/50 46/46/46
f 50/50/50 51/51/51 46/46/46
f 51/51/51 49/49/49 46/46/46
f 52/52/52 47/47/47 49/49/49
f 49/49/49 53/53/53 52/52/52
f 53/53/53 49/49/49 54/54/54
f 56/56/56 55/55/55 36/36/36
f 55/55/55 58/58/58 57/57/57
f 58/58/58 59/59/59 57/57/57
f 58/58/58 60/60/60 59/59/59
f 60/60/60 61/61/61 59/59/59
f 61/61/61 60/60/60 62/62/62
f 62/62/62 60/60/60 63/63/63
f 60/60/60 64/64/64 63/63/63
f 64/64/64 60/60/60 58/58/58
f 63/63/63 65/65/65 62/62/62
f 65/65/65 66/66/66 62/62/62
f 67/67/67 66/66/66 65/65/65
f 68/68/68 61/61/61 62/62/62
f 68/68/68 62/62/62 69/69/69
f 62/62/62 66/66/66 69/69/69
f 67/67/67 70/70/70 66/66/66
f 73/73/73 72/72/72 71/71/71
f 72/72/72 75/75/75 74/74/74
f 78/78/78 77/77/77 76/76/76
f 80/80/80 78/78/78 79/79/79
f 83/83/83 82/82/82 81/81/81
f 82/82/82 83/83/83 84/84/84
f 85/85/85 83/83/83 81/81/81
f 83/83/83 85/85/85 84/84/84
f 88/88/88 87/87/87 86/86/86
f 87/87/87 88/88/88 89/89/89
f 90/90/90 88/88/88 86/86/86
f 88/88/88 90/90/90 89/89/89
f 93/93/93 92/92/92 91/91/91
f 95/95/95 93/93/93 94/94/94
f 98/98/98 97/97/97 96/96/96
f 97/97/97 100/100/100 99/99/99
f 103/103/103 102/102/102 101/101/101
f 105/105/105 103/103/103 104/104/104
f 107/107/107 104/104/104 106/106/106
f 106/106/106 109/109/109 108/108/108
f 112/112/112 111/111/111 110/110/110
f 111/111/111 112/112/112 113/113/113
f 115/115/115 113/113/113 114/114/114
f 114/114/114 116/116/116 115/115/115
f 119/119/119 118/118/118 117/117/117
f 118/118/118 121/121/121 120/120/120
f 120/120/120 123/123/123 122/122/122
f 125/125/125 122/122/122 124/124/124
f 128/128/128 127/127/127 126/126/126
f 127/127/127 128/128/128 129/129/129
f 129/129/129 131/131/131 130/130/130
f 132/132/132 130/130/130 131/131/131
f 135/135/135 134/134/134 133/133/133
f 134/134/134 136/136/136 133/133/133
f 139/139/139 138/138/138 137/137/137
f 138/138/138 140/140/140 137/137/137
f 143/143/143 142/142/142 141/141/141
f 145/145/145 144/144/144 141/141/141
f 148/148/148 147/147/147 146/146/146
f 147/147/147 149/149/149 146/146/146
f 152/152/152 151/151/151 150/150/150
f 151/151/151 153/153/153 150/150/150
f 156/156/156 155/155/155 154/154/154
f 155/155/155 157/157/157 154/154/154
f 160/160/160 159/159/159 158/158/158
f 159/159/159 161/161/161 158/158/158
f 164/164/164 163/163/163 162/162/162
f 163/163/163 166/166/166 165/165/165
f 169/169/169 168/168/168 167/167/167
f 170/170/170 168/168/168 169/169/169
f 173/173/173 172/172/172 171/171/171
f 174/174/174 172/172/172 173/173/173
f 177/177/177 176/176/176 175/175/175
f 180/180/180 179/179/179 178/178/178
f 183/183/183 182/182/182 181/181/181
f 186/186/186 185/185/185 184/184/184
f 189/189/189 188/188/188 187/187/187
f 192/192/192 191/191/191 190/190/190
f 195/195/195 194/194/194 193/193/193
f 198/198/198 197/197/197 196/196/196
f 201/201/201 200/200/200 199/199/199
f 204/204/204 203/203/203 202/202/202
f 207/207/207 206/206/206 205/205/205
f 210/210/210 209/209/209 208/208/208
f 213/213/213 212/212/212 211/211/211
f 216/216/216 215/215/215 214/214/214
f 219/219/219 218/218/218 217/217/217
f 222/222/222 221/221/221 220/220/220
