g Object01
v -0.1503612 1.221177 0.07181457
v 0.3075583 0.5098373 0.08828031
v -0.170847 0.5096986 0.08828323
v 0.2076388 1.221124 0.07181595
v 0.4092944 0.3256116 0.1244213
v -0.2682696 0.3265655 0.1243929
v 0.1747238 1.28954 -0.02028396
v 0.1208084 1.777823 -0.0226005
v -0.1370665 1.289593 -0.02028414
v -0.1792904 1.646937 -0.0224802
v -0.6525127 2.366539 -0.02313198
v -0.3726615 2.38653 -0.02299685
v -0.6562132 3.114045 -0.023663
v 0.1747238 1.28954 -0.02028396
v -0.170847 0.5096986 0.08828323
v -0.1503611 1.221177 -0.05592298
v -0.1503612 1.221177 0.07181457
v -0.1708469 0.5096986 -0.06097583
v -0.2682696 0.3265655 0.1243929
v -0.2682695 0.3265655 -0.094184
v -0.1370664 1.289593 -0.1456028
v -0.1370665 1.289593 -0.02028414
v -0.1792904 1.646937 -0.136893
v -0.1792904 1.646937 -0.0224802
v -0.6525127 2.366539 -0.1156484
v -0.6525127 2.366539 -0.02313198
v -0.6562132 3.114045 -0.09659925
v -0.6562132 3.114045 -0.023663
v 0.2076388 1.221124 0.07181595
v 0.3075583 0.5098373 -0.06097471
v 0.3075583 0.5098373 0.08828031
v 0.2076388 1.221124 -0.05592326
v 0.4092944 0.3256116 -0.09419527
v 0.4092944 0.3256116 0.1244213
v 0.1747238 1.28954 -0.02028396
v 0.1747238 1.289539 -0.1456042
v 0.1208085 1.777823 -0.1330287
v 0.1747238 1.28954 -0.02028396
v 0.1208084 1.777823 -0.0226005
v -0.3726615 2.38653 -0.02299685
v -0.3726615 2.38653 -0.1201547
v -0.6562132 3.114045 -0.023663
v -0.6562132 3.114045 -0.09659925
v 0.4092944 0.3256116 0.1244213
v -0.2682695 0.3265655 -0.094184
v -0.2682696 0.3265655 0.1243929
v 0.4092944 0.3256116 -0.09419527
v -0.1503611 1.221177 -0.05592298
v 0.3075582 0.5085346 -0.06237392
v 0.2076388 1.221124 -0.05592326
v -0.170847 0.508396 -0.0623747
v 0.4092944 0.3256116 -0.09419527
v -0.2682695 0.3265655 -0.094184
v 0.1747238 1.289539 -0.1456042
v -0.1370664 1.289593 -0.1456028
v 0.1208085 1.777823 -0.1330287
v -0.1792904 1.646937 -0.136893
v -0.6525127 2.366539 -0.1156484
v -0.3726615 2.38653 -0.1201547
v -0.6562132 3.114045 -0.09659925
v 0.0223901 1.512491 -0.1417478
v 0.2231676 1.72349 -0.1392105
v 0.003064991 1.682998 -0.1392106
v 0.2459721 1.522285 -0.1392105
v 0.02239006 1.512491 -0.01669806
v 0.2231676 1.72349 -0.01669804
v 0.2459721 1.522285 -0.01669804
v 0.003064953 1.682998 -0.01669807
v 0.0223901 1.512491 -0.1417478
v 0.003064953 1.682998 -0.01669807
v 0.02239006 1.512491 -0.01669806
v 0.003064991 1.682998 -0.1392106
v 0.003064991 1.682998 -0.1392106
v 0.2231676 1.72349 -0.01669804
v 0.003064953 1.682998 -0.01669807
v 0.2231676 1.72349 -0.1392105
v 0.2231676 1.72349 -0.1392105
v 0.2459721 1.522285 -0.01669804
v 0.2231676 1.72349 -0.01669804
v 0.2459721 1.522285 -0.1392105
v 0.2459721 1.522285 -0.1392105
v 0.02239006 1.512491 -0.01669806
v 0.2459721 1.522285 -0.01669804
v 0.0223901 1.512491 -0.1417478
v -0.1503612 -1.221179 0.07181457
v 0.3075583 -0.5098392 0.08828031
v 0.2076388 -1.221125 0.07181595
v -0.170847 -0.5097005 0.08828323
v 0.4092944 -0.3256134 0.1244213
v -0.2682696 -0.3265674 0.1243929
v 0.1747238 -1.289542 -0.02028396
v 0.1208084 -1.777825 -0.0226005
v -0.1370665 -1.289595 -0.02028414
v -0.1792904 -1.646938 -0.0224802
v -0.6525127 -2.366541 -0.02313198
v -0.3726615 -2.386532 -0.02299685
v -0.6562132 -3.114047 -0.023663
v 0.1747238 -1.289542 -0.02028396
v -0.170847 -0.5097005 0.08828323
v -0.1503611 -1.221179 -0.05592298
v -0.1708469 -0.5097005 -0.06097583
v -0.1503612 -1.221179 0.07181457
v -0.2682696 -0.3265674 0.1243929
v -0.2682695 -0.3265674 -0.094184
v -0.1370664 -1.289595 -0.1456028
v -0.1370665 -1.289595 -0.02028414
v -0.1792904 -1.646938 -0.136893
v -0.1792904 -1.646938 -0.0224802
v -0.6525127 -2.366541 -0.1156484
v -0.6525127 -2.366541 -0.02313198
v -0.6562132 -3.114046 -0.09659925
v -0.6562132 -3.114047 -0.023663
v 0.2076388 -1.221125 0.07181595
v 0.3075583 -0.5098392 -0.06097471
v 0.2076388 -1.221125 -0.05592326
v 0.3075583 -0.5098392 0.08828031
v 0.4092944 -0.3256134 -0.09419527
v 0.4092944 -0.3256134 0.1244213
v 0.1747238 -1.289542 -0.02028396
v 0.1747238 -1.289541 -0.1456042
v 0.1208085 -1.777825 -0.1330287
v 0.1747238 -1.289542 -0.02028396
v 0.1208084 -1.777825 -0.0226005
v -0.3726615 -2.386532 -0.02299685
v -0.3726615 -2.386532 -0.1201547
v -0.6562132 -3.114047 -0.023663
v -0.6562132 -3.114046 -0.09659925
v 0.4092944 -0.3256134 0.1244213
v -0.2682695 -0.3265674 -0.094184
v 0.4092944 -0.3256134 -0.09419527
v -0.2682696 -0.3265674 0.1243929
v -0.1503611 -1.221179 -0.05592298
v 0.3075582 -0.5085363 -0.06237392
v -0.170847 -0.5083978 -0.0623747
v 0.2076388 -1.221125 -0.05592326
v 0.4092944 -0.3256134 -0.09419527
v -0.2682695 -0.3265674 -0.094184
v 0.1747238 -1.289541 -0.1456042
v -0.1370664 -1.289595 -0.1456028
v 0.1208085 -1.777825 -0.1330287
v -0.1792904 -1.646938 -0.136893
v -0.6525127 -2.366541 -0.1156484
v -0.3726615 -2.386532 -0.1201547
v -0.6562132 -3.114046 -0.09659925
v 0.0223901 -1.512492 -0.1417478
v 0.2231676 -1.723492 -0.1392105
v 0.2459721 -1.522286 -0.1392105
v 0.003064991 -1.683 -0.1392106
v 0.02239006 -1.512492 -0.01669806
v 0.2231676 -1.723492 -0.01669804
v 0.003064953 -1.683 -0.01669807
v 0.2459721 -1.522286 -0.01669804
v 0.0223901 -1.512492 -0.1417478
v 0.003064953 -1.683 -0.01669807
v 0.003064991 -1.683 -0.1392106
v 0.02239006 -1.512492 -0.01669806
v 0.003064991 -1.683 -0.1392106
v 0.2231676 -1.723492 -0.01669804
v 0.2231676 -1.723492 -0.1392105
v 0.003064953 -1.683 -0.01669807
v 0.2231676 -1.723492 -0.1392105
v 0.2459721 -1.522286 -0.01669804
v 0.2459721 -1.522286 -0.1392105
v 0.2231676 -1.723492 -0.01669804
v 0.2459721 -1.522286 -0.1392105
v 0.02239006 -1.512492 -0.01669806
v 0.0223901 -1.512492 -0.1417478
v 0.2459721 -1.522286 -0.01669804
v -0.08093844 -0.3745998 0.07239964
v -0.08093844 0.3745995 -0.02540431
v -0.08093844 0.3745995 0.07239957
v -0.08093844 -0.3745998 -0.02540424
v 0.1371254 -0.3745998 -0.02540428
v 0.1371254 0.3745995 0.07239953
v 0.1371254 0.3745995 -0.02540435
v 0.1371254 -0.3745998 0.0723996
v 0.1371254 -0.3745998 0.0723996
v -0.08093844 0.3745995 0.07239957
v 0.1371254 0.3745995 0.07239953
v -0.08093844 -0.3745998 0.07239964
vt 0.4727086 0.6257313
vt 0.2037292 0.7419296
vt 0.3440555 0.8424894
vt 0.3783248 0.5606084
vt 0.1362746 0.7805388
vt 0.3268161 0.9173092
vt 0.398916 0.5280044
vt 0.508996 0.3974368
vt 0.4991241 0.593965
vt 0.5797085 0.4868815
vt 0.8369682 0.3245977
vt 0.7530723 0.2744041
vt 0.9645084 0.09795532
vt 0.398916 0.5280044
vt 0.3440555 0.8424894
vt 0.5101516 0.6366229
vt 0.4727086 0.6257313
vt 0.3958122 0.858898
vt 0.3268161 0.9173092
vt 0.3986519 0.9283785
vt 0.542233 0.6147322
vt 0.4991241 0.593965
vt 0.607611 0.5153649
vt 0.5797085 0.4868815
vt 0.8590882 0.345709
vt 0.8369682 0.3245977
vt 0.9867589 0.1116644
vt 0.9645084 0.09795532
vt 0.3783248 0.5606084
vt 0.1732336 0.697015
vt 0.2037292 0.7419296
vt 0.3571731 0.5273548
vt 0.1048729 0.7147345
vt 0.1362746 0.7805388
vt 0.398916 0.5280044
vt 0.3681611 0.490881
vt 0.4869785 0.3675956
vt 0.398916 0.5280044
vt 0.508996 0.3974368
vt 0.7530723 0.2744041
vt 0.7343463 0.2456243
vt 0.9645084 0.09795532
vt 0.9487144 0.07815079
vt 0.1362746 0.7805388
vt 0.283185 0.9806672
vt 0.3268161 0.9173092
vt 0.09009264 0.8419695
vt 0.4727086 0.6257313
vt 0.2037292 0.7419296
vt 0.3783248 0.5606084
vt 0.3440555 0.8424894
vt 0.1362746 0.7805388
vt 0.3268161 0.9173092
vt 0.398916 0.5280044
vt 0.4991241 0.593965
vt 0.508996 0.3974368
vt 0.5797085 0.4868815
vt 0.8369682 0.3245977
vt 0.7530723 0.2744041
vt 0.9645084 0.09795532
vt 0.7061471 0.6036394
vt 0.8318185 0.7532585
vt 0.8212143 0.6035637
vt 0.6960323 0.753367
vt 0.7067858 0.9852467
vt 0.8320079 0.8354117
vt 0.6962258 0.8355168
vt 0.821853 0.9851031
vt 0.7061471 0.6036394
vt 0.821195 0.5214491
vt 0.7061277 0.5214491
vt 0.8212143 0.6035637
vt 0.9818188 0.7526335
vt 0.8320079 0.8354117
vt 0.9821509 0.8347847
vt 0.8318185 0.7532585
vt 0.8318185 0.7532585
vt 0.6962258 0.8355168
vt 0.8320079 0.8354117
vt 0.6960323 0.753367
vt 0.6960323 0.753367
vt 0.5462381 0.836166
vt 0.6962258 0.8355168
vt 0.5458942 0.7540147
vt 0.4727086 0.6257313
vt 0.2037292 0.7419296
vt 0.3783248 0.5606084
vt 0.3440555 0.8424894
vt 0.1362746 0.7805388
vt 0.3268161 0.9173092
vt 0.398916 0.5280044
vt 0.508996 0.3974368
vt 0.4991241 0.593965
vt 0.5797085 0.4868815
vt 0.8369682 0.3245977
vt 0.7530723 0.2744041
vt 0.9645084 0.09795532
vt 0.398916 0.5280044
vt 0.3440555 0.8424894
vt 0.5101516 0.6366229
vt 0.3958122 0.858898
vt 0.4727086 0.6257313
vt 0.3268161 0.9173092
vt 0.3986519 0.9283785
vt 0.542233 0.6147322
vt 0.4991241 0.593965
vt 0.607611 0.5153649
vt 0.5797085 0.4868815
vt 0.8590882 0.345709
vt 0.8369682 0.3245977
vt 0.9867589 0.1116644
vt 0.9645084 0.09795532
vt 0.3783248 0.5606084
vt 0.1732336 0.697015
vt 0.3571731 0.5273548
vt 0.2037292 0.7419296
vt 0.1048729 0.7147345
vt 0.1362746 0.7805388
vt 0.398916 0.5280044
vt 0.3681611 0.490881
vt 0.4869785 0.3675956
vt 0.398916 0.5280044
vt 0.508996 0.3974368
vt 0.7530723 0.2744041
vt 0.7343463 0.2456243
vt 0.9645084 0.09795532
vt 0.9487144 0.07815079
vt 0.1362746 0.7805388
vt 0.283185 0.9806672
vt 0.09009264 0.8419695
vt 0.3268161 0.9173092
vt 0.4727086 0.6257313
vt 0.2037292 0.7419296
vt 0.3440555 0.8424894
vt 0.3783248 0.5606084
vt 0.1362746 0.7805388
vt 0.3268161 0.9173092
vt 0.398916 0.5280044
vt 0.4991241 0.593965
vt 0.508996 0.3974368
vt 0.5797085 0.4868815
vt 0.8369682 0.3245977
vt 0.7530723 0.2744041
vt 0.9645084 0.09795532
vt 0.7061471 0.6036394
vt 0.8318185 0.7532585
vt 0.6960323 0.753367
vt 0.8212143 0.6035637
vt 0.7067858 0.9852467
vt 0.8320079 0.8354117
vt 0.821853 0.9851031
vt 0.6962258 0.8355168
vt 0.7061471 0.6036394
vt 0.821195 0.5214491
vt 0.8212143 0.6035637
vt 0.7061277 0.5214491
vt 0.9818188 0.7526335
vt 0.8320079 0.8354117
vt 0.8318185 0.7532585
vt 0.9821509 0.8347847
vt 0.8318185 0.7532585
vt 0.6962258 0.8355168
vt 0.6960323 0.753367
vt 0.8320079 0.8354117
vt 0.6960323 0.753367
vt 0.5462381 0.836166
vt 0.5458942 0.7540147
vt 0.6962258 0.8355168
vt 0.4889953 0.0815585
vt 0.01330572 0.01945992
vt 0.01330572 0.0815585
vt 0.4889953 0.01945992
vt 0.4889947 0.2821127
vt 0.01330552 0.2200138
vt 0.01330533 0.2821126
vt 0.4889948 0.2200139
vt 0.4889948 0.2200139
vt 0.01330572 0.0815585
vt 0.01330552 0.2200138
vt 0.4889953 0.0815585
vn 6.707125E-05 0.4390275 0.8984736
vn 6.767005E-05 0.123925 0.9922916
vn 6.538601E-05 0.1205525 0.992707
vn 6.037925E-05 0.3980766 0.9173521
vn 0.0001144804 0.1929804 0.9812026
vn 0.0001144804 0.1929804 0.9812026
vn -0.0003747901 0.5031942 0.8641732
vn -0.0005537512 0.00291169 0.9999956
vn -0.0004448975 0.4512727 0.892386
vn -0.0005706333 0.003017957 0.9999954
vn -0.0003931259 0.0006829696 0.9999998
vn -0.0003190096 0.0006698776 0.9999998
vn -0.000533407 0.0007077489 0.9999996
vn -0.0003747901 0.5031942 0.8641732
vn -0.9630325 0.2693854 -3.570476E-07
vn -0.9917495 0.1281905 -3.522522E-07
vn -0.9971234 0.07579411 -3.608132E-07
vn -0.9636009 0.2673452 -3.572322E-07
vn -0.8828495 0.469656 -3.299664E-07
vn -0.8828495 0.469656 -3.299664E-07
vn -0.9996778 -0.0253813 -3.064407E-07
vn -0.997347 0.07279416 -3.238081E-07
vn -0.9407412 -0.3391254 4.389497E-07
vn -0.9396645 -0.3420973 4.489303E-07
vn -0.9559059 -0.2936732 6.280486E-07
vn -0.9572463 -0.2892739 6.188155E-07
vn -0.9999877 -0.004950488 0
vn -0.9999877 -0.004950488 0
vn 0.9731138 0.2303245 1.209195E-07
vn 0.9456415 0.3252109 1.699739E-07
vn 0.9451017 0.3267764 1.696908E-07
vn 0.9468969 0.3215375 0
vn 0.875388 0.4834212 1.379661E-07
vn 0.875388 0.4834211 1.379661E-07
vn 0.9502208 0.3115773 0
vn 0.9769283 0.2135672 1.263026E-07
vn 0.9242686 0.3817427 1.884878E-07
vn 0.9502208 0.3115773 0
vn 0.9229542 0.3849098 1.881197E-07
vn 0.8645712 0.5025104 -2.494577E-07
vn 0.863435 0.50446 -2.436502E-07
vn 0.9317321 0.3631465 -6.433811E-07
vn 0.9317321 0.3631465 -6.433811E-07
vn -0.001407953 -0.999999 0
vn -0.001407953 -0.999999 0
vn -0.001407953 -0.999999 0
vn -0.001407954 -0.999999 0
vn -6.879846E-05 -0.4178955 -0.9084951
vn 6.648615E-05 0.1056643 -0.9944019
vn -6.193823E-05 -0.3750243 -0.927015
vn 6.425365E-05 0.1024368 -0.9947395
vn 0.0001122873 0.1718543 -0.9851224
vn 0.0001122873 0.1718543 -0.9851224
vn 0.0003678129 -0.4860455 -0.8739335
vn 0.0004378237 -0.4321187 -0.9018166
vn -0.002865787 0.02306361 -0.9997299
vn -0.002691685 0.02316523 -0.999728
vn -0.01321292 0.02353622 -0.9996357
vn -0.01072919 0.02255926 -0.9996879
vn -0.01790808 0.02538266 -0.9995173
vn 0.004882249 0.007378833 -0.9999609
vn 0.004882249 0.007378833 -0.9999609
vn 0.004882249 0.007378833 -0.9999609
vn 0.004882249 0.007378833 -0.9999609
vn -1.0898E-07 0 1
vn -1.0898E-07 0 1
vn -1.0898E-07 0 1
vn -1.0898E-07 0 1
vn -0.9936383 -0.1126178 -3.053092E-07
vn -0.9936383 -0.1126178 -3.053092E-07
vn -0.9936383 -0.1126178 -3.053092E-07
vn -0.9936383 -0.1126178 -3.053092E-07
vn -0.1809353 0.9834949 0
vn -0.1809353 0.9834949 0
vn -0.1809353 0.9834949 0
vn -0.1809353 0.9834949 0
vn 0.9936383 0.1126181 4.766825E-07
vn 0.9936383 0.1126181 4.766825E-07
vn 0.9936383 0.1126181 4.766826E-07
vn 0.9936383 0.1126181 4.766825E-07
vn 0.04376374 -0.9990419 0
vn 0.04376374 -0.9990419 0
vn 0.04376374 -0.9990419 0
vn 0.04376374 -0.9990419 0
vn 6.702321E-05 -0.4390275 0.8984735
vn 6.766312E-05 -0.1239249 0.9922916
vn 6.033619E-05 -0.3980765 0.9173522
vn 6.53794E-05 -0.1205525 0.992707
vn 0.0001144672 -0.1929803 0.9812026
vn 0.0001144672 -0.1929803 0.9812026
vn -0.0003748501 -0.503194 0.8641734
vn -0.0005537528 -0.002911689 0.9999956
vn -0.0004449511 -0.4512728 0.8923859
vn -0.0005706352 -0.003017959 0.9999954
vn -0.000393126 -0.0006829694 0.9999998
vn -0.0003190096 -0.0006698773 0.9999998
vn -0.0005334069 -0.0007077486 0.9999996
vn -0.0003748501 -0.503194 0.8641734
vn -0.9630325 -0.2693854 -3.5543E-07
vn -0.9917496 -0.1281905 -3.757702E-07
vn -0.9636009 -0.2673452 -3.557471E-07
vn -0.9971234 -0.07579415 -3.790873E-07
vn -0.8828495 -0.469656 -3.149679E-07
vn -0.8828495 -0.469656 -3.149679E-07
vn -0.9996778 0.02538136 -3.623814E-07
vn -0.997347 -0.07279428 -3.681583E-07
vn -0.9407412 0.3391254 1.618411E-07
vn -0.9396647 0.3420972 1.689805E-07
vn -0.955906 0.2936728 3.767725E-07
vn -0.9572463 0.2892742 3.714576E-07
vn -0.9999877 0.004950489 0
vn -0.9999877 0.004950488 0
vn 0.973114 -0.2303243 0
vn 0.9456416 -0.3252108 1.699739E-07
vn 0.946897 -0.3215368 -1.981989E-07
vn 0.9451018 -0.3267763 1.696907E-07
vn 0.875388 -0.4834209 1.37966E-07
vn 0.875388 -0.4834209 1.37966E-07
vn 0.9502211 -0.3115765 -2.430102E-07
vn 0.9769284 -0.2135672 0
vn 0.9242686 -0.3817427 1.258708E-07
vn 0.9502211 -0.3115765 -2.430102E-07
vn 0.9229542 -0.3849098 1.262239E-07
vn 0.8645712 -0.5025104 -5.981458E-07
vn 0.863435 -0.50446 -5.872928E-07
vn 0.931732 -0.3631465 -1.332718E-06
vn 0.9317321 -0.3631465 -1.332718E-06
vn -0.001407953 0.999999 0
vn -0.001407953 0.999999 0
vn -0.001407954 0.999999 0
vn -0.001407953 0.999999 0
vn -6.887034E-05 0.4178953 -0.9084951
vn 6.648615E-05 -0.1056642 -0.9944019
vn 6.425365E-05 -0.1024368 -0.9947395
vn -6.200289E-05 0.3750242 -0.927015
vn 0.0001122873 -0.1718543 -0.9851224
vn 0.0001122873 -0.1718543 -0.9851224
vn 0.0003677272 0.4860454 -0.8739335
vn 0.0004377469 0.4321185 -0.9018167
vn -0.002865789 -0.02306361 -0.9997299
vn -0.002691684 -0.02316523 -0.999728
vn -0.01321291 -0.02353622 -0.9996357
vn -0.01072918 -0.02255926 -0.9996879
vn -0.01790807 -0.02538266 -0.9995173
vn 0.004882254 -0.007378827 -0.9999609
vn 0.004882254 -0.007378826 -0.9999609
vn 0.004882254 -0.007378826 -0.9999609
vn 0.004882254 -0.007378827 -0.9999609
vn -1.0898E-07 0 1
vn -1.0898E-07 0 1
vn -1.0898E-07 0 1
vn -1.0898E-07 0 1
vn -0.9936383 0.1126177 -3.053089E-07
vn -0.9936383 0.1126177 -3.053089E-07
vn -0.9936383 0.1126177 -3.05309E-07
vn -0.9936383 0.1126177 -3.05309E-07
vn -0.1809348 -0.9834951 0
vn -0.1809348 -0.9834951 0
vn -0.1809348 -0.9834951 0
vn -0.1809348 -0.9834951 0
vn 0.9936383 -0.112618 4.651494E-07
vn 0.9936383 -0.112618 4.651494E-07
vn 0.9936383 -0.112618 4.651494E-07
vn 0.9936383 -0.1126179 4.651494E-07
vn 0.04376301 0.9990419 0
vn 0.04376301 0.9990419 0
vn 0.04376301 0.9990419 0
vn 0.04376301 0.9990419 0
vn -1 0 0
vn -1 0 0
vn -1 0 0
vn -1 0 0
vn 1 0 -3.41281E-07
vn 1 0 -3.41281E-07
vn 1 0 -3.41281E-07
vn 1 0 -3.41281E-07
vn 1.749349E-07 0 1
vn 1.749349E-07 0 1
vn 1.749349E-07 0 1
vn 1.749349E-07 0 1
g Object01_0
f 3/3/3 2/2/2 1/1/1
f 2/2/2 4/4/4 1/1/1
f 5/5/5 2/2/2 3/3/3
f 6/6/6 5/5/5 3/3/3
f 4/4/4 7/7/7 1/1/1
f 9/9/9 7/7/7 8/8/8
f 10/10/10 9/9/9 8/8/8
f 11/11/11 10/10/10 8/8/8
f 12/12/12 11/11/11 8/8/8
f 13/13/13 11/11/11 12/12/12
f 14/14/14 9/9/9 1/1/1
f 17/17/17 16/16/16 15/15/15
f 16/16/16 18/18/18 15/15/15
f 15/15/15 18/18/18 19/19/19
f 18/18/18 20/20/20 19/19/19
f 21/21/21 16/16/16 17/17/17
f 22/22/22 21/21/21 17/17/17
f 23/23/23 21/21/21 22/22/22
f 24/24/24 23/23/23 22/22/22
f 25/25/25 23/23/23 24/24/24
f 26/26/26 25/25/25 24/24/24
f 27/27/27 25/25/25 26/26/26
f 28/28/28 27/27/27 26/26/26
f 31/31/31 30/30/30 29/29/29
f 30/30/30 32/32/32 29/29/29
f 33/33/33 30/30/30 31/31/31
f 34/34/34 33/33/33 31/31/31
f 29/29/29 32/32/32 35/35/35
f 32/32/32 36/36/36 35/35/35
f 36/36/36 37/37/37 35/35/35
f 37/37/37 39/39/39 38/38/38
f 39/39/39 37/37/37 40/40/40
f 37/37/37 41/41/41 40/40/40
f 40/40/40 41/41/41 42/42/42
f 41/41/41 43/43/43 42/42/42
f 46/46/46 45/45/45 44/44/44
f 45/45/45 47/47/47 44/44/44
f 50/50/50 49/49/49 48/48/48
f 49/49/49 51/51/51 48/48/48
f 49/49/49 52/52/52 51/51/51
f 52/52/52 53/53/53 51/51/51
f 54/54/54 50/50/50 48/48/48
f 55/55/55 54/54/54 48/48/48
f 54/54/54 55/55/55 56/56/56
f 55/55/55 57/57/57 56/56/56
f 57/57/57 58/58/58 56/56/56
f 58/58/58 59/59/59 56/56/56
f 58/58/58 60/60/60 59/59/59
f 63/63/63 62/62/62 61/61/61
f 62/62/62 64/64/64 61/61/61
f 67/67/67 66/66/66 65/65/65
f 66/66/66 68/68/68 65/65/65
f 71/71/71 70/70/70 69/69/69
f 70/70/70 72/72/72 69/69/69
f 75/75/75 74/74/74 73/73/73
f 74/74/74 76/76/76 73/73/73
f 79/79/79 78/78/78 77/77/77
f 78/78/78 80/80/80 77/77/77
f 83/83/83 82/82/82 81/81/81
f 82/82/82 84/84/84 81/81/81
f 87/87/87 86/86/86 85/85/85
f 86/86/86 88/88/88 85/85/85
f 86/86/86 89/89/89 88/88/88
f 89/89/89 90/90/90 88/88/88
f 91/91/91 87/87/87 85/85/85
f 91/91/91 93/93/93 92/92/92
f 93/93/93 94/94/94 92/92/92
f 94/94/94 95/95/95 92/92/92
f 95/95/95 96/96/96 92/92/92
f 95/95/95 97/97/97 96/96/96
f 93/93/93 98/98/98 85/85/85
f 101/101/101 100/100/100 99/99/99
f 100/100/100 102/102/102 99/99/99
f 101/101/101 99/99/99 103/103/103
f 104/104/104 101/101/101 103/103/103
f 100/100/100 105/105/105 102/102/102
f 105/105/105 106/106/106 102/102/102
f 105/105/105 107/107/107 106/106/106
f 107/107/107 108/108/108 106/106/106
f 107/107/107 109/109/109 108/108/108
f 109/109/109 110/110/110 108/108/108
f 109/109/109 111/111/111 110/110/110
f 111/111/111 112/112/112 110/110/110
f 115/115/115 114/114/114 113/113/113
f 114/114/114 116/116/116 113/113/113
f 114/114/114 117/117/117 116/116/116
f 117/117/117 118/118/118 116/116/116
f 115/115/115 113/113/113 119/119/119
f 120/120/120 115/115/115 119/119/119
f 121/121/121 120/120/120 119/119/119
f 123/123/123 121/121/121 122/122/122
f 121/121/121 123/123/123 124/124/124
f 125/125/125 121/121/121 124/124/124
f 125/125/125 124/124/124 126/126/126
f 127/127/127 125/125/125 126/126/126
f 130/130/130 129/129/129 128/128/128
f 129/129/129 131/131/131 128/128/128
f 134/134/134 133/133/133 132/132/132
f 133/133/133 135/135/135 132/132/132
f 136/136/136 133/133/133 134/134/134
f 137/137/137 136/136/136 134/134/134
f 135/135/135 138/138/138 132/132/132
f 138/138/138 139/139/139 132/132/132
f 139/139/139 138/138/138 140/140/140
f 141/141/141 139/139/139 140/140/140
f 142/142/142 141/141/141 140/140/140
f 143/143/143 142/142/142 140/140/140
f 144/144/144 142/142/142 143/143/143
f 147/147/147 146/146/146 145/145/145
f 146/146/146 148/148/148 145/145/145
f 151/151/151 150/150/150 149/149/149
f 150/150/150 152/152/152 149/149/149
f 155/155/155 154/154/154 153/153/153
f 154/154/154 156/156/156 153/153/153
f 159/159/159 158/158/158 157/157/157
f 158/158/158 160/160/160 157/157/157
f 163/163/163 162/162/162 161/161/161
f 162/162/162 164/164/164 161/161/161
f 167/167/167 166/166/166 165/165/165
f 166/166/166 168/168/168 165/165/165
f 171/171/171 170/170/170 169/169/169
f 170/170/170 172/172/172 169/169/169
f 175/175/175 174/174/174 173/173/173
f 174/174/174 176/176/176 173/173/173
f 179/179/179 178/178/178 177/177/177
f 178/178/178 180/180/180 177/177/177
