g Object03
v 0 -1.108772 0.03303394
v 0.04109051 -1.105173 0.01325
v 0 -1.304773 0.01325
v 0 -0.4862376 0.03104429
v 0 -1.108772 -0.006533948
v 0 -0.4862376 -0.004544295
v -0.04109051 -1.105173 0.01325
v 0 -0.4862376 0.03104429
v 0 -0.4862376 -0.004544295
v 0 -0.4862376 0.03104429
v 0.049498 -0.4857143 0.01325
v 0 -0.4862376 -0.004544295
v -0.049498 -0.4857143 0.01325
v 0 -0.4862376 0.03104429
v 0 -0.4862376 -0.004544295
v 0.03258895 -0.160058 0.0265
v 0 0.1671141 0.0265
v 0.01796792 0.1671141 0.0265
v 0.02452864 0.1948566 0.0265
v 0 -0.160058 0.0265
v 0 0.1671141 0.0265
v 0.07382815 -0.3505763 0.0265
v 0 -0.3505763 0.03531453
v 0.1056496 -0.334467 0.0265
v 0.08477863 -0.2194718 0.0308608
v 0.08807389 -0.2014107 0.03076762
v 0.1338114 -0.2456487 0.03011864
v 0 -0.3505763 0.03531453
v 0 -0.160058 0.0265
v 0.03258895 -0.160058 0.0265
v 0.08732449 -0.3641165 0.01798062
v 0 -0.3505763 0.03531453
v 0 -0.4862376 0.03104429
v 0.049498 -0.4857143 0.01325
v 0.07382815 -0.3505763 -2.527237E-09
v 0 -0.3505763 -0.008814534
v 0.08732449 -0.3641165 0.008519371
v 0 -0.4862376 -0.004544295
v 0.1056496 -0.334467 -1.263618E-09
v 0 -0.3505763 -0.008814534
v 0.08477863 -0.2194718 -0.004360806
v 0.08807389 -0.2014107 -0.004267623
v 0 -0.3505763 -0.008814534
v 0.1338114 -0.2456487 -0.003618645
v 0 -0.160058 -2.527237E-09
v 0.03258895 -0.160058 -1.263618E-09
v 0.03258895 -0.160058 -1.263618E-09
v 0 0.1671141 -1.263618E-09
v 0 -0.160058 -2.527237E-09
v 0.01796792 0.1671141 -2.527237E-09
v 0 0.1671141 -1.263618E-09
v 0.02452864 0.1948566 -1.895428E-09
v 0.02452864 0.1948566 0.0265
v 0.03258895 -0.160058 -1.263618E-09
v 0.03258895 -0.160058 0.0265
v 0.02452864 0.1948566 -1.895428E-09
v 0.01796792 0.1671141 0.0265
v 0.02452864 0.1948566 -1.895428E-09
v 0.02452864 0.1948566 0.0265
v 0.01796792 0.1671141 -2.527237E-09
v 0 0.1671141 0.0265
v 0.01796792 0.1671141 -2.527237E-09
v 0.01796792 0.1671141 0.0265
v 0 0.1671141 -1.263618E-09
v 0.08732449 -0.3641165 0.01798062
v 0.08732449 -0.3641165 0.008519371
v 0.049498 -0.4857143 0.01325
v 0.07382815 -0.3505763 0.0265
v 0.08732449 -0.3641165 0.008519371
v 0.08732449 -0.3641165 0.01798062
v 0.07382815 -0.3505763 0.0265
v 0.07382815 -0.3505763 -2.527237E-09
v 0.1056496 -0.334467 0.0265
v 0.07382815 -0.3505763 -2.527237E-09
v 0.07382815 -0.3505763 0.0265
v 0.1056496 -0.334467 -1.263618E-09
v 0.1338114 -0.2456487 0.03011864
v 0.1056496 -0.334467 -1.263618E-09
v 0.1056496 -0.334467 0.0265
v 0.1338114 -0.2456487 -0.003618645
v 0.08477863 -0.2194718 0.0308608
v 0.1338114 -0.2456487 -0.003618645
v 0.1338114 -0.2456487 0.03011864
v 0.08477863 -0.2194718 -0.004360806
v 0.08807389 -0.2014107 0.03076762
v 0.08477863 -0.2194718 -0.004360806
v 0.08477863 -0.2194718 0.0308608
v 0.08807389 -0.2014107 -0.004267623
v 0.03258895 -0.160058 0.0265
v 0.08807389 -0.2014107 -0.004267623
v 0.08807389 -0.2014107 0.03076762
v 0.03258895 -0.160058 -1.263618E-09
v -0.03258895 -0.160058 0.0265
v 0 0.1671141 0.0265
v 0 -0.160058 0.0265
v -0.01796792 0.1671141 0.0265
v 0 0.1671141 0.0265
v -0.02452864 0.1948566 0.0265
v -0.07382815 -0.3505763 0.0265
v -0.1056496 -0.334467 0.0265
v 0 -0.3505763 0.03531453
v -0.08477863 -0.2194718 0.0308608
v -0.08807389 -0.2014107 0.03076762
v 0 -0.3505763 0.03531453
v -0.1338114 -0.2456487 0.03011864
v 0 -0.160058 0.0265
v -0.03258895 -0.160058 0.0265
v -0.08732449 -0.3641165 0.01798062
v 0 -0.3505763 0.03531453
v 0 -0.4862376 0.03104429
v -0.049498 -0.4857143 0.01325
v -0.07382815 -0.3505763 -2.527237E-09
v -0.08732449 -0.3641165 0.008519371
v 0 -0.3505763 -0.008814534
v 0 -0.4862376 -0.004544295
v 0 -0.3505763 -0.008814534
v -0.1056496 -0.334467 -1.263618E-09
v -0.08477863 -0.2194718 -0.004360806
v -0.08807389 -0.2014107 -0.004267623
v -0.1338114 -0.2456487 -0.003618645
v 0 -0.3505763 -0.008814534
v 0 -0.160058 -2.527237E-09
v -0.03258895 -0.160058 -1.263618E-09
v -0.03258895 -0.160058 -1.263618E-09
v 0 0.1671141 -1.263618E-09
v -0.01796792 0.1671141 -2.527237E-09
v -0.02452864 0.1948566 -1.895428E-09
v 0 -0.160058 -2.527237E-09
v 0 0.1671141 -1.263618E-09
v -0.02452864 0.1948566 0.0265
v -0.03258895 -0.160058 -1.263618E-09
v -0.02452864 0.1948566 -1.895428E-09
v -0.03258895 -0.160058 0.0265
v -0.01796792 0.1671141 0.0265
v -0.02452864 0.1948566 -1.895428E-09
v -0.01796792 0.1671141 -2.527237E-09
v -0.02452864 0.1948566 0.0265
v 0 0.1671141 0.0265
v -0.01796792 0.1671141 -2.527237E-09
v 0 0.1671141 -1.263618E-09
v -0.01796792 0.1671141 0.0265
v -0.08732449 -0.3641165 0.01798062
v -0.049498 -0.4857143 0.01325
v -0.08732449 -0.3641165 0.008519371
v -0.07382815 -0.3505763 0.0265
v -0.08732449 -0.3641165 0.008519371
v -0.07382815 -0.3505763 -2.527237E-09
v -0.07382815 -0.3505763 0.0265
v -0.08732449 -0.3641165 0.01798062
v -0.1056496 -0.334467 0.0265
v -0.07382815 -0.3505763 -2.527237E-09
v -0.1056496 -0.334467 -1.263618E-09
v -0.07382815 -0.3505763 0.0265
v -0.1338114 -0.2456487 0.03011864
v -0.1056496 -0.334467 -1.263618E-09
v -0.1338114 -0.2456487 -0.003618645
v -0.1056496 -0.334467 0.0265
v -0.08477863 -0.2194718 0.0308608
v -0.1338114 -0.2456487 -0.003618645
v -0.08477863 -0.2194718 -0.004360806
v -0.1338114 -0.2456487 0.03011864
v -0.08807389 -0.2014107 0.03076762
v -0.08477863 -0.2194718 -0.004360806
v -0.08807389 -0.2014107 -0.004267623
v -0.08477863 -0.2194718 0.0308608
v -0.03258895 -0.160058 0.0265
v -0.08807389 -0.2014107 -0.004267623
v -0.03258895 -0.160058 -1.263618E-09
v -0.08807389 -0.2014107 0.03076762
v -0.03313571 -0.2470021 0.03395727
v 0 -0.2334619 0.03348873
v -0.01360244 -0.2631137 0.03451478
v 0.01360252 -0.2631137 0.03451478
v 0.03313571 -0.2470021 0.03395727
v -0.03313571 -0.2199217 0.03302019
v 0.03313571 -0.2199217 0.03302019
v 0.01360252 -0.2038101 0.03246266
v -0.01360244 -0.2038101 0.03246266
v 0.03313571 -0.246994 -0.006528134
v 0 -0.2334619 -0.005866941
v 0.01360244 -0.2630961 -0.007314902
v -0.01360252 -0.2630961 -0.007314902
v -0.03313571 -0.246994 -0.006528134
v 0.03313571 -0.2199298 -0.005205746
v -0.03313571 -0.2199298 -0.005205746
v -0.01360252 -0.2038276 -0.004418985
v 0.01360244 -0.2038276 -0.004418985
vt 0.7197343 0.2308652
vt 0.7654269 0.2875122
vt 0.9504676 0.02044554
vt 0.01964164 0.9279784
vt 0.7197343 0.2308652
vt 0.01964164 0.9279784
vt 0.7654269 0.2875122
vt 0.01964164 0.9279784
vt 0.01964164 0.9279784
vt 0.01964164 0.9279784
vt 0.05928588 0.971169
vt 0.01964164 0.9279784
vt 0.05928588 0.971169
vt 0.01964164 0.9279784
vt 0.01964164 0.9279784
vt 0.6517714 0.07165187
vt 0.09813917 0.5781207
vt 0.1113527 0.6154013
vt 0.09481613 0.6784071
vt 0.5982867 0.01739591
vt 0.09813917 0.5781207
vt 0.6785624 0.7198707
vt 0.5421412 0.5841668
vt 0.6771911 0.8036785
vt 0.4431044 0.9550711
vt 0.4098869 0.9728322
vt 0.5612148 0.979492
vt 0.5421412 0.5841668
vt 0.201475 0.8812642
vt 0.2516546 0.9417544
vt 0.7111156 0.6955953
vt 0.5421412 0.5841668
vt 0.7545645 0.3385827
vt 0.8193837 0.3971915
vt 0.6785624 0.7198707
vt 0.5421412 0.5841668
vt 0.7111156 0.6955953
vt 0.7545645 0.3385827
vt 0.6771911 0.8036785
vt 0.5421412 0.5841668
vt 0.4431044 0.9550711
vt 0.4098869 0.9728322
vt 0.5421412 0.5841668
vt 0.5612148 0.979492
vt 0.201475 0.8812642
vt 0.2516546 0.9417544
vt 0.6517714 0.07165187
vt 0.09813917 0.5781207
vt 0.5982867 0.01739591
vt 0.1113527 0.6154013
vt 0.09813917 0.5781207
vt 0.1237454 0.7106026
vt 0.09275166 0.6779743
vt 0.6980843 0.1137488
vt 0.6517714 0.07165187
vt 0.1409539 0.729449
vt 0.1006186 0.6154013
vt 0.01455487 0.6593289
vt 0.06884332 0.6724813
vt 0.03243138 0.6028678
vt 0.08706619 0.5781207
vt 0.03243138 0.6028678
vt 0.1006186 0.6154013
vt 0.03489517 0.5665855
vt 0.7922595 0.7444361
vt 0.84434 0.7890012
vt 0.6092439 0.9795626
vt 0.8190634 0.7169456
vt 0.84434 0.7890012
vt 0.7922595 0.7444361
vt 0.8190634 0.7169456
vt 0.8696154 0.7481495
vt 0.8528711 0.6506346
vt 0.8696154 0.7481495
vt 0.8190634 0.7169456
vt 0.9083477 0.6716014
vt 0.8965651 0.4512874
vt 0.9083477 0.6716014
vt 0.8528711 0.6506346
vt 0.9709409 0.4656815
vt 0.9095595 0.3311253
vt 0.9709409 0.4656815
vt 0.8965651 0.4512874
vt 0.9884686 0.3378119
vt 0.9108462 0.2927236
vt 0.9884686 0.3378119
vt 0.9095595 0.3311253
vt 0.9896418 0.2937179
vt 0.9173103 0.1380767
vt 0.9896418 0.2937179
vt 0.9108462 0.2927236
vt 0.976933 0.1369917
vt 0.6517714 0.07165187
vt 0.09813917 0.5781207
vt 0.5982867 0.01739591
vt 0.1113527 0.6154013
vt 0.09813917 0.5781207
vt 0.09481613 0.6784071
vt 0.6785624 0.7198707
vt 0.6771911 0.8036785
vt 0.5421412 0.5841668
vt 0.4431044 0.9550711
vt 0.4098869 0.9728322
vt 0.5421412 0.5841668
vt 0.5612148 0.979492
vt 0.2010114 0.8808711
vt 0.2516546 0.9417544
vt 0.7111156 0.6955953
vt 0.5421412 0.5841668
vt 0.7545645 0.3385827
vt 0.8193837 0.3971915
vt 0.6785624 0.7198707
vt 0.7111156 0.6955953
vt 0.5421412 0.5841668
vt 0.7545645 0.3385827
vt 0.5421412 0.5841668
vt 0.6771911 0.8036785
vt 0.4431044 0.9550711
vt 0.4098869 0.9728322
vt 0.5612148 0.979492
vt 0.5421412 0.5841668
vt 0.201475 0.8812642
vt 0.2516546 0.9417544
vt 0.6517714 0.07165187
vt 0.09813917 0.5781207
vt 0.1113527 0.6154013
vt 0.1228028 0.711216
vt 0.5982867 0.01739591
vt 0.09813917 0.5781207
vt 0.09481613 0.6784071
vt 0.6980843 0.1137488
vt 0.1409539 0.729449
vt 0.6517714 0.07165187
vt 0.1006186 0.6154013
vt 0.01455487 0.6593289
vt 0.03243138 0.6028678
vt 0.06884332 0.6724813
vt 0.08706619 0.5781207
vt 0.03243138 0.6028678
vt 0.03489517 0.5665855
vt 0.1006186 0.6154013
vt 0.7922595 0.7444361
vt 0.6092439 0.9795626
vt 0.84434 0.7890012
vt 0.8190634 0.7169456
vt 0.84434 0.7890012
vt 0.8696154 0.7481495
vt 0.8190634 0.7169456
vt 0.7922595 0.7444361
vt 0.8528711 0.6506346
vt 0.8696154 0.7481495
vt 0.9083477 0.6716014
vt 0.8190634 0.7169456
vt 0.8965651 0.4512874
vt 0.9083477 0.6716014
vt 0.9709409 0.4656815
vt 0.8528711 0.6506346
vt 0.9095595 0.3311253
vt 0.9709409 0.4656815
vt 0.9884686 0.3378119
vt 0.8965651 0.4512874
vt 0.9108462 0.2927236
vt 0.9884686 0.3378119
vt 0.9896418 0.2937179
vt 0.9095595 0.3311253
vt 0.9173103 0.1380767
vt 0.9896418 0.2937179
vt 0.976933 0.1369917
vt 0.9108462 0.2927236
vt 0.03742897 0.101171
vt 0.1787677 0.1589606
vt 0.1207472 0.03240647
vt 0.2367885 0.03240647
vt 0.3201063 0.101171
vt 0.03742897 0.2167501
vt 0.3201063 0.2167501
vt 0.2367885 0.2855147
vt 0.1207472 0.2855147
vt 0.03742897 0.101171
vt 0.1787677 0.1589606
vt 0.1207472 0.03240647
vt 0.2367885 0.03240647
vt 0.3201063 0.101171
vt 0.03742897 0.2167501
vt 0.3201063 0.2167501
vt 0.2367885 0.2855147
vt 0.1207472 0.2855147
vn 0 -0.05204619 0.9986446
vn 0.9951213 -0.09865842 1.469349E-07
vn 0 -1 3.648009E-07
vn 0 -0.05992802 0.9982027
vn 0 -0.05204624 -0.9986446
vn 0 -0.01642695 -0.9998651
vn -0.9951213 -0.09865843 1.469349E-07
vn 0 -0.05992802 0.9982027
vn 0 -0.01642695 -0.9998651
vn 0 -0.05992802 0.9982027
vn 0.9865097 -0.1623487 -0.02101059
vn 0 -0.01642695 -0.9998651
vn -0.9865097 -0.1623487 -0.02101059
vn 0 -0.05992802 0.9982027
vn 0 -0.01642695 -0.9998651
vn -0.01525995 0.03114237 0.9993985
vn 0 0 1
vn 0 0 1
vn 0 0 1
vn 0 0.02522141 0.9996818
vn 0 0 1
vn 0.1481116 -0.1535848 0.9769722
vn 0 -0.04413325 0.9990256
vn 0.06780994 -0.05511837 0.9961746
vn 0.06117813 -0.01397845 0.9980289
vn -0.00964506 0.04061301 0.9991284
vn 0.05989394 -0.02696934 0.9978403
vn 0 -0.04413325 0.9990256
vn 0 0.02522141 0.9996818
vn -0.01525995 0.03114237 0.9993985
vn 0.2102952 -0.07995185 0.9743633
vn 0 -0.04413325 0.9990256
vn 0 -0.05992802 0.9982027
vn 0.9865097 -0.1623487 -0.02101059
vn 0.1430866 -0.1811876 -0.9729837
vn 0 -0.06319296 -0.9980013
vn 0.1741262 -0.1270921 -0.9764874
vn 0 -0.01642695 -0.9998651
vn 0.06780995 -0.05511836 -0.9961746
vn 0 -0.06319296 -0.9980013
vn 0.06117827 -0.01397852 -0.9980289
vn -0.009645007 0.04061301 -0.9991284
vn 0 -0.06319296 -0.9980013
vn 0.05989394 -0.02696933 -0.9978403
vn 0 0.02522142 -0.9996818
vn -0.01525993 0.03114238 -0.9993985
vn -0.01525993 0.03114238 -0.9993985
vn 0 0 -1
vn 0 0.02522142 -0.9996818
vn 0 0 -1
vn 0 0 -1
vn 0 0 -1
vn 0.1045649 0.9945181 0
vn 0.9997422 0.0227047 0
vn 0.9997422 0.0227047 0
vn 0.1045649 0.9945181 0
vn -0.9731578 0.2301383 0
vn 0.1045649 0.9945181 0
vn 0.1045649 0.9945181 0
vn -0.9731578 0.2301383 0
vn 0 1 0
vn 0 1 0
vn 0 1 0
vn 0 1 0
vn 0.9548655 -0.2970384 0
vn 0.9548655 -0.2970384 0
vn 0.9548655 -0.2970385 0
vn 0.7082548 0.705957 0
vn 0.7082548 0.705957 0
vn 0.7082548 0.705957 0
vn 0.7082548 0.705957 0
vn 0.7082548 0.705957 0
vn 0.4516619 -0.8921892 0
vn 0.4516619 -0.8921892 0
vn 0.4516619 -0.8921892 0
vn 0.4516619 -0.8921892 0
vn 0.9532307 -0.3022437 0
vn 0.9532307 -0.3022437 0
vn 0.9532307 -0.3022437 0
vn 0.9532307 -0.3022437 0
vn 0.4709536 0.8821579 0
vn 0.4709536 0.8821579 0
vn 0.4709536 0.8821579 0
vn 0.4709536 0.882158 0
vn 0.9837601 -0.1794879 0
vn 0.9837601 -0.1794879 0
vn 0.9837601 -0.1794879 0
vn 0.9837601 -0.1794879 0
vn 0.5975836 0.8018067 0
vn 0.5975836 0.8018067 0
vn 0.5975836 0.8018067 0
vn 0.5975836 0.8018067 0
vn 0.01525995 0.03114237 0.9993985
vn 0 0 1
vn 0 0.02522141 0.9996818
vn 0 0 1
vn 0 0 1
vn 0 0 1
vn -0.1481116 -0.1535848 0.9769722
vn -0.06780994 -0.05511837 0.9961746
vn 0 -0.04413325 0.9990256
vn -0.06117813 -0.01397845 0.9980289
vn 0.00964506 0.04061301 0.9991284
vn 0 -0.04413325 0.9990256
vn -0.05989394 -0.02696934 0.9978403
vn 0 0.02522141 0.9996818
vn 0.01525995 0.03114237 0.9993985
vn -0.2102952 -0.07995185 0.9743633
vn 0 -0.04413325 0.9990256
vn 0 -0.05992802 0.9982027
vn -0.9865097 -0.1623487 -0.02101059
vn -0.1430866 -0.1811876 -0.9729837
vn -0.1741262 -0.1270921 -0.9764874
vn 0 -0.06319296 -0.9980013
vn 0 -0.01642695 -0.9998651
vn 0 -0.06319296 -0.9980013
vn -0.06780995 -0.05511836 -0.9961746
vn -0.06117827 -0.01397852 -0.9980289
vn 0.009645008 0.04061301 -0.9991284
vn -0.05989394 -0.02696933 -0.9978403
vn 0 -0.06319296 -0.9980013
vn 0 0.02522142 -0.9996818
vn 0.01525994 0.03114238 -0.9993985
vn 0.01525994 0.03114238 -0.9993985
vn 0 0 -1
vn 0 0 -1
vn 0 0 -1
vn 0 0.02522142 -0.9996818
vn 0 0 -1
vn -0.1045652 0.994518 0
vn -0.9997422 0.0227047 0
vn -0.1045652 0.994518 0
vn -0.9997422 0.0227047 0
vn 0.9731578 0.2301384 0
vn -0.1045652 0.994518 0
vn 0.9731578 0.2301384 0
vn -0.1045652 0.994518 0
vn 0 1 0
vn 0 1 0
vn 0 1 0
vn 0 1 0
vn -0.9548655 -0.2970384 0
vn -0.9548655 -0.2970385 0
vn -0.9548655 -0.2970384 0
vn -0.7082548 0.705957 0
vn -0.7082548 0.705957 0
vn -0.7082548 0.705957 0
vn -0.7082548 0.705957 0
vn -0.7082548 0.705957 0
vn -0.4516619 -0.8921892 0
vn -0.4516619 -0.8921892 0
vn -0.4516619 -0.8921892 0
vn -0.4516619 -0.8921892 0
vn -0.9532307 -0.3022437 0
vn -0.9532307 -0.3022437 0
vn -0.9532307 -0.3022437 0
vn -0.9532307 -0.3022437 0
vn -0.4709536 0.8821579 0
vn -0.4709536 0.8821579 0
vn -0.4709536 0.882158 0
vn -0.4709536 0.8821579 0
vn -0.9837601 -0.1794879 0
vn -0.9837601 -0.1794879 0
vn -0.9837601 -0.1794879 0
vn -0.9837601 -0.1794879 0
vn -0.5975836 0.8018067 0
vn -0.5975836 0.8018067 0
vn -0.5975836 0.8018067 0
vn -0.5975836 0.8018067 0
vn 0 0.03458291 0.9994018
vn 0 0.03458302 0.9994018
vn 0 0.03458272 0.9994019
vn 0 0.03458272 0.9994019
vn 0 0.03458291 0.9994018
vn 0 0.0345832 0.9994018
vn 0 0.0345832 0.9994018
vn 0 0.03458328 0.9994018
vn 0 0.03458328 0.9994018
vn 1.042756E-07 0.04880287 -0.9988084
vn 0 0.04880281 -0.9988084
vn 0 0.04880298 -0.9988084
vn 0 0.04880298 -0.9988084
vn -1.047635E-07 0.04880288 -0.9988084
vn 0 0.04880271 -0.9988084
vn 0 0.04880271 -0.9988084
vn 0 0.04880268 -0.9988084
vn 0 0.04880268 -0.9988084
g Object03_0
f 3/3/3 2/2/2 1/1/1
f 4/4/4 1/1/1 2/2/2
f 2/2/2 3/3/3 5/5/5
f 5/5/5 6/6/6 2/2/2
f 7/7/7 3/3/3 1/1/1
f 3/3/3 7/7/7 5/5/5
f 1/1/1 8/8/8 7/7/7
f 9/9/9 5/5/5 7/7/7
f 11/11/11 10/10/10 2/2/2
f 12/12/12 11/11/11 2/2/2
f 14/14/14 13/13/13 7/7/7
f 13/13/13 15/15/15 7/7/7
f 18/18/18 17/17/17 16/16/16
f 19/19/19 18/18/18 16/16/16
f 21/21/21 20/20/20 16/16/16
f 24/24/24 23/23/23 22/22/22
f 26/26/26 23/23/23 25/25/25
f 27/27/27 25/25/25 24/24/24
f 25/25/25 28/28/28 24/24/24
f 29/29/29 28/28/28 26/26/26
f 30/30/30 29/29/29 26/26/26
f 22/22/22 32/32/32 31/31/31
f 32/32/32 33/33/33 31/31/31
f 31/31/31 33/33/33 34/34/34
f 36/36/36 35/35/35 34/34/34
f 35/35/35 37/37/37 34/34/34
f 38/38/38 36/36/36 34/34/34
f 40/40/40 39/39/39 35/35/35
f 40/40/40 42/42/42 41/41/41
f 43/43/43 41/41/41 39/39/39
f 41/41/41 44/44/44 39/39/39
f 43/43/43 45/45/45 42/42/42
f 45/45/45 46/46/46 42/42/42
f 49/49/49 48/48/48 47/47/47
f 51/51/51 50/50/50 47/47/47
f 50/50/50 52/52/52 47/47/47
f 55/55/55 54/54/54 53/53/53
f 54/54/54 56/56/56 53/53/53
f 59/59/59 58/58/58 57/57/57
f 58/58/58 60/60/60 57/57/57
f 63/63/63 62/62/62 61/61/61
f 62/62/62 64/64/64 61/61/61
f 67/67/67 66/66/66 65/65/65
f 70/70/70 69/69/69 68/68/68
f 69/69/69 72/72/72 71/71/71
f 75/75/75 74/74/74 73/73/73
f 74/74/74 76/76/76 73/73/73
f 79/79/79 78/78/78 77/77/77
f 78/78/78 80/80/80 77/77/77
f 83/83/83 82/82/82 81/81/81
f 82/82/82 84/84/84 81/81/81
f 87/87/87 86/86/86 85/85/85
f 86/86/86 88/88/88 85/85/85
f 91/91/91 90/90/90 89/89/89
f 90/90/90 92/92/92 89/89/89
f 95/95/95 94/94/94 93/93/93
f 97/97/97 96/96/96 93/93/93
f 96/96/96 98/98/98 93/93/93
f 101/101/101 100/100/100 99/99/99
f 101/101/101 103/103/103 102/102/102
f 104/104/104 102/102/102 100/100/100
f 102/102/102 105/105/105 100/100/100
f 104/104/104 106/106/106 103/103/103
f 106/106/106 107/107/107 103/103/103
f 109/109/109 99/99/99 108/108/108
f 110/110/110 109/109/109 108/108/108
f 110/110/110 108/108/108 111/111/111
f 113/113/113 112/112/112 111/111/111
f 112/112/112 114/114/114 111/111/111
f 114/114/114 115/115/115 111/111/111
f 117/117/117 116/116/116 112/112/112
f 119/119/119 116/116/116 118/118/118
f 120/120/120 118/118/118 117/117/117
f 118/118/118 121/121/121 117/117/117
f 122/122/122 121/121/121 119/119/119
f 123/123/123 122/122/122 119/119/119
f 126/126/126 125/125/125 124/124/124
f 127/127/127 126/126/126 124/124/124
f 129/129/129 128/128/128 124/124/124
f 132/132/132 131/131/131 130/130/130
f 131/131/131 133/133/133 130/130/130
f 136/136/136 135/135/135 134/134/134
f 135/135/135 137/137/137 134/134/134
f 140/140/140 139/139/139 138/138/138
f 139/139/139 141/141/141 138/138/138
f 144/144/144 143/143/143 142/142/142
f 147/147/147 146/146/146 145/145/145
f 146/146/146 149/149/149 148/148/148
f 152/152/152 151/151/151 150/150/150
f 151/151/151 153/153/153 150/150/150
f 156/156/156 155/155/155 154/154/154
f 155/155/155 157/157/157 154/154/154
f 160/160/160 159/159/159 158/158/158
f 159/159/159 161/161/161 158/158/158
f 164/164/164 163/163/163 162/162/162
f 163/163/163 165/165/165 162/162/162
f 168/168/168 167/167/167 166/166/166
f 167/167/167 169/169/169 166/166/166
f 172/172/172 171/171/171 170/170/170
f 173/173/173 171/171/171 172/172/172
f 173/173/173 174/174/174 171/171/171
f 170/170/170 171/171/171 175/175/175
f 174/174/174 176/176/176 171/171/171
f 171/171/171 176/176/176 177/177/177
f 171/171/171 177/177/177 178/178/178
f 171/171/171 178/178/178 175/175/175
f 181/181/181 180/180/180 179/179/179
f 182/182/182 180/180/180 181/181/181
f 182/182/182 183/183/183 180/180/180
f 179/179/179 180/180/180 184/184/184
f 183/183/183 185/185/185 180/180/180
f 180/180/180 185/185/185 186/186/186
f 180/180/180 186/186/186 187/187/187
f 180/180/180 187/187/187 184/184/184
