g Object01
v -4.577637E-07 0.0347825 0.7962759
v 0.06515053 0.0002564993 -0.313695
v 0.07360351 0.0002564993 0.794736
v -4.577637E-07 0.0253995 -0.310828
v 0.1300735 0.0002564993 -0.362496
v 0.05735153 0.0354115 -0.416914
v -4.577637E-07 0.0714665 -0.425866
v -4.577637E-07 0.0512045 -0.459086
v -4.577637E-07 0.0002564993 0.870551
v 0.05735153 -0.0349005 -0.416914
v 0.1300735 0.0002564993 -0.362496
v 0.04214851 0.0002564993 -0.4501339
v -4.577637E-07 -0.0506915 -0.459086
v -4.577637E-07 0.0512045 -0.459086
v -4.577637E-07 -0.0709535 -0.425866
v -4.577637E-07 -0.0349005 -0.310828
v 0.1300735 0.0002564993 -0.362496
v 0.06515053 0.0002564993 -0.313695
v 0.07360351 0.0002564993 0.794736
v -4.577637E-07 -0.0349005 0.794544
v -4.577637E-07 -0.0506915 -0.459086
v -4.577637E-07 0.0002564993 0.870551
v -4.577637E-07 0.0313515 -0.715445
v -4.577637E-07 0.0512045 -0.459086
v -4.577637E-07 0.0313515 -0.715445
v 0.03602257 -5.00679E-07 -0.713581
v 0.08398551 -5.00679E-07 -0.833043
v -4.577637E-07 0.0740975 -0.810585
v -4.577637E-07 -5.00679E-07 -0.870551
v -4.577637E-07 0.0512045 -0.459086
v -0.04214844 0.0002564993 -0.4501339
v -0.05735344 -0.0349005 -0.416914
v -0.05735344 0.0354115 -0.416914
v -0.1300735 0.0002564993 -0.362497
v -4.577637E-07 0.0512045 -0.459086
v -4.577637E-07 -0.0709535 -0.425866
v -4.577637E-07 -0.0349005 -0.310828
v -0.1300735 0.0002564993 -0.362497
v -0.06515045 0.0002564993 -0.313695
v -0.0736055 0.0002564993 0.794736
v -4.577637E-07 -0.0349005 0.794544
v -4.577637E-07 -0.0506915 -0.459086
v -4.577637E-07 0.0002564993 0.870551
v -0.1300735 0.0002564993 -0.362497
v -4.577637E-07 0.0253995 -0.310828
v -0.06515045 0.0002564993 -0.313695
v -0.0736055 0.0002564993 0.794736
v -4.577637E-07 0.0347825 0.7962759
v -4.577637E-07 0.0714665 -0.425866
v -4.577637E-07 0.0002564993 0.870551
v -4.577637E-07 0.0512045 -0.459086
v -4.577637E-07 -0.0313525 -0.715445
v 0.08398551 -5.00679E-07 -0.833043
v -4.577637E-07 -0.0740975 -0.810585
v 0.03602257 -5.00679E-07 -0.713581
v -4.577637E-07 -5.00679E-07 -0.870551
v -4.577637E-07 -0.0313525 -0.715445
v -4.577637E-07 -0.0506915 -0.459086
v -4.577637E-07 -0.0506915 -0.459086
v -4.577637E-07 0.0313515 -0.715445
v -0.0360215 -5.00679E-07 -0.713581
v -0.08398544 -5.00679E-07 -0.833043
v -4.577637E-07 0.0740975 -0.810585
v -4.577637E-07 -5.00679E-07 -0.870551
v -4.577637E-07 -0.0313525 -0.715445
v -0.0360215 -5.00679E-07 -0.713581
v -0.08398544 -5.00679E-07 -0.833043
v -4.577637E-07 -0.0740975 -0.810585
v -4.577637E-07 -5.00679E-07 -0.870551
vt 0.9662 0.6819
vt 0.9682 0.2844
vt 0.9535 0.6783
vt 0.988 0.2872
vt 0.9685 0.2653
vt 0.978 0.2469
vt 0.9926 0.2418
vt 0.9851 0.2292
vt 0.9524 0.708
vt 0.9593 0.2469
vt 0.9685 0.2653
vt 0.9684 0.2344
vt 0.9514 0.2305
vt 0.9851 0.2292
vt 0.9445 0.2422
vt 0.9476 0.2864
vt 0.9685 0.2653
vt 0.9682 0.2844
vt 0.9535 0.6783
vt 0.9406 0.6805
vt 0.9514 0.2305
vt 0.9524 0.708
vt 0.9751 0.1389
vt 0.9851 0.2292
vt 0.9751 0.1389
vt 0.962 0.1398
vt 0.9588 0.0995
vt 0.9829 0.1006
vt 0.9572 0.0793
vt 0.9851 0.2292
vt 0.9684 0.2344
vt 0.9593 0.2469
vt 0.978 0.2469
vt 0.9685 0.2653
vt 0.9851 0.2292
vt 0.9445 0.2422
vt 0.9476 0.2864
vt 0.9685 0.2653
vt 0.9682 0.2844
vt 0.9535 0.6783
vt 0.9406 0.6805
vt 0.9514 0.2305
vt 0.9524 0.708
vt 0.9685 0.2653
vt 0.988 0.2872
vt 0.9682 0.2844
vt 0.9535 0.6783
vt 0.9662 0.6819
vt 0.9926 0.2418
vt 0.9524 0.708
vt 0.9851 0.2292
vt 0.949 0.1407
vt 0.9588 0.0995
vt 0.9352 0.1043
vt 0.962 0.1398
vt 0.9572 0.0793
vt 0.949 0.1407
vt 0.9514 0.2305
vt 0.9514 0.2305
vt 0.9751 0.1389
vt 0.962 0.1398
vt 0.9588 0.0995
vt 0.9829 0.1006
vt 0.9572 0.0793
vt 0.949 0.1407
vt 0.962 0.1398
vt 0.9588 0.0995
vt 0.9352 0.1043
vt 0.9572 0.0793
vn 1.170205E-06 0.9792972 0.2024277
vn 0.9020257 0.04515959 0.4293138
vn 0.9495803 0.01939213 0.3129239
vn -5.864295E-07 0.9861909 0.1656123
vn 0.9931618 0.01852486 0.115267
vn 0.6944018 0.6607557 -0.28497
vn 2.837593E-06 0.9732892 -0.2295829
vn -3.244371E-06 0.8801305 -0.4747318
vn 2.642306E-06 -0.0006977928 0.9999998
vn 0.7019526 -0.6451838 -0.3016626
vn 0.9931618 0.01852486 0.115267
vn 0.9089055 0.0001579384 -0.4170022
vn -3.293036E-06 -0.880614 -0.4738343
vn -3.244371E-06 0.8801305 -0.4747318
vn 2.898503E-06 -0.9653792 -0.2608503
vn -6.599493E-07 -0.9879856 0.1545463
vn 0.9931618 0.01852486 0.115267
vn 0.9020257 0.04515959 0.4293138
vn 0.9495803 0.01939213 0.3129239
vn 1.174706E-06 -0.9790871 0.2034417
vn -3.293036E-06 -0.880614 -0.4738343
vn 2.642306E-06 -0.0006977928 0.9999998
vn -8.989137E-06 0.9803002 0.1975136
vn -3.244371E-06 0.8801305 -0.4747318
vn -8.989137E-06 0.9803002 0.1975136
vn 0.9815781 -0.0002247923 0.1910617
vn 0.9396712 -2.11791E-06 -0.3420791
vn -4.370786E-06 0.9892647 -0.1461348
vn -1.926489E-06 -2.831707E-06 -1
vn -3.244371E-06 0.8801305 -0.4747318
vn -0.9088973 0.0001579696 -0.4170199
vn -0.7019513 -0.6451821 -0.3016692
vn -0.6944003 0.6607543 -0.2849771
vn -0.9931613 0.01852535 0.1152704
vn -3.244371E-06 0.8801305 -0.4747318
vn 2.898503E-06 -0.9653792 -0.2608503
vn -6.599493E-07 -0.9879856 0.1545463
vn -0.9931613 0.01852535 0.1152704
vn -0.902025 0.04515983 0.429315
vn -0.9495803 0.01939224 0.3129238
vn 1.174706E-06 -0.9790871 0.2034417
vn -3.293036E-06 -0.880614 -0.4738343
vn 2.642306E-06 -0.0006977928 0.9999998
vn -0.9931613 0.01852535 0.1152704
vn -5.864295E-07 0.9861909 0.1656123
vn -0.902025 0.04515983 0.429315
vn -0.9495803 0.01939224 0.3129238
vn 1.170205E-06 0.9792972 0.2024277
vn 2.837593E-06 0.9732892 -0.2295829
vn 2.642306E-06 -0.0006977928 0.9999998
vn -3.244371E-06 0.8801305 -0.4747318
vn -8.990061E-06 -0.9801158 0.1984262
vn 0.9396712 -2.11791E-06 -0.3420791
vn -4.408487E-06 -0.9892647 -0.1461352
vn 0.9815781 -0.0002247923 0.1910617
vn -1.926489E-06 -2.831707E-06 -1
vn -8.990061E-06 -0.9801158 0.1984262
vn -3.293036E-06 -0.880614 -0.4738343
vn -3.293036E-06 -0.880614 -0.4738343
vn -8.989137E-06 0.9803002 0.1975136
vn -0.9815784 -0.0002247888 0.19106
vn -0.9396716 -2.145038E-06 -0.3420778
vn -4.370786E-06 0.9892647 -0.1461348
vn -1.926489E-06 -2.831707E-06 -1
vn -8.990061E-06 -0.9801158 0.1984262
vn -0.9815784 -0.0002247888 0.19106
vn -0.9396716 -2.145038E-06 -0.3420778
vn -4.408487E-06 -0.9892647 -0.1461352
vn -1.926489E-06 -2.831707E-06 -1
g Object01_0
f 3/3/3 2/2/2 1/1/1
f 2/2/2 4/4/4 1/1/1
f 4/4/4 2/2/2 5/5/5
f 6/6/6 4/4/4 5/5/5
f 7/7/7 4/4/4 6/6/6
f 8/8/8 7/7/7 6/6/6
f 9/9/9 3/3/3 1/1/1
f 11/11/11 10/10/10 6/6/6
f 10/10/10 12/12/12 6/6/6
f 12/12/12 10/10/10 13/13/13
f 12/12/12 14/14/14 6/6/6
f 10/10/10 16/16/16 15/15/15
f 16/16/16 10/10/10 17/17/17
f 18/18/18 16/16/16 17/17/17
f 18/18/18 19/19/19 16/16/16
f 19/19/19 20/20/20 16/16/16
f 10/10/10 15/15/15 21/21/21
f 22/22/22 20/20/20 19/19/19
f 24/24/24 12/12/12 23/23/23
f 12/12/12 26/26/26 25/25/25
f 25/25/25 26/26/26 27/27/27
f 28/28/28 25/25/25 27/27/27
f 29/29/29 28/28/28 27/27/27
f 31/31/31 30/30/30 23/23/23
f 32/32/32 31/31/31 13/13/13
f 31/31/31 32/32/32 33/33/33
f 32/32/32 34/34/34 33/33/33
f 35/35/35 31/31/31 33/33/33
f 37/37/37 32/32/32 36/36/36
f 32/32/32 37/37/37 38/38/38
f 37/37/37 39/39/39 38/38/38
f 40/40/40 39/39/39 37/37/37
f 41/41/41 40/40/40 37/37/37
f 36/36/36 32/32/32 42/42/42
f 43/43/43 40/40/40 41/41/41
f 45/45/45 33/33/33 44/44/44
f 46/46/46 45/45/45 44/44/44
f 45/45/45 46/46/46 47/47/47
f 48/48/48 45/45/45 47/47/47
f 45/45/45 49/49/49 33/33/33
f 50/50/50 48/48/48 47/47/47
f 49/49/49 51/51/51 33/33/33
f 54/54/54 53/53/53 52/52/52
f 53/53/53 55/55/55 52/52/52
f 54/54/54 56/56/56 53/53/53
f 55/55/55 12/12/12 52/52/52
f 12/12/12 58/58/58 57/57/57
f 59/59/59 31/31/31 57/57/57
f 61/61/61 31/31/31 60/60/60
f 61/61/61 60/60/60 62/62/62
f 60/60/60 63/63/63 62/62/62
f 63/63/63 64/64/64 62/62/62
f 31/31/31 66/66/66 65/65/65
f 66/66/66 67/67/67 65/65/65
f 67/67/67 68/68/68 65/65/65
f 69/69/69 68/68/68 67/67/67
