g Object02
v 0.01665391 0.2831924 0.03486899
v 0.02047234 0.1182318 -0.07132305
v 0.02047297 0.1181997 0.03961967
v 0.01665427 0.28318 -0.0481516
v 0.02885349 0.07550971 -0.09491578
v 0.02884683 0.07573091 0.06221211
v -0.004703808 0.2990457 -0.04051859
v -0.005240995 0.4122792 -0.02801555
v -0.004703883 0.2990581 0.03178594
v -0.005213137 0.3819265 0.04157772
v -0.005364299 0.5488033 0.1513185
v -0.005332932 0.5534391 0.0864207
v -0.005487405 0.7221506 0.1521767
v -0.004703808 0.2990457 -0.04051859
v 0.02047297 0.1181997 0.03961967
v -0.01296858 0.2831925 0.03486897
v 0.01665391 0.2831924 0.03486899
v -0.01414038 0.1181997 0.03961965
v 0.02884683 0.07573091 0.06221211
v -0.02184141 0.07573092 0.06221206
v -0.03376543 0.2990581 0.03178591
v -0.004703883 0.2990581 0.03178594
v -0.03174559 0.3819265 0.0415777
v -0.005213137 0.3819265 0.04157772
v -0.02681896 0.5488032 0.1513185
v -0.005364299 0.5488033 0.1513185
v -0.02240141 0.7221506 0.1521767
v -0.005487405 0.7221506 0.1521767
v 0.01665427 0.28318 -0.0481516
v -0.01414007 0.1182318 -0.07132308
v 0.02047234 0.1182318 -0.07132305
v -0.0129686 0.28318 -0.04815162
v -0.02184395 0.07550972 -0.0949158
v 0.02885349 0.07550971 -0.09491578
v -0.004703808 0.2990457 -0.04051859
v -0.03376573 0.2990457 -0.04051861
v -0.03084943 0.4122792 -0.02801557
v -0.004703808 0.2990457 -0.04051859
v -0.005240995 0.4122792 -0.02801555
v -0.005332932 0.5534391 0.0864207
v -0.02786396 0.5534391 0.08642069
v -0.005487405 0.7221506 0.1521767
v -0.02240141 0.7221506 0.1521767
v 0.02885349 0.07550971 -0.09491578
v -0.02184141 0.07573092 0.06221206
v 0.02884683 0.07573091 0.06221211
v -0.02184395 0.07550972 -0.0949158
v -0.01296858 0.2831925 0.03486897
v -0.01446455 0.1179297 -0.07132304
v -0.0129686 0.28318 -0.04815162
v -0.01446478 0.1178976 0.03961968
v -0.02184395 0.07550972 -0.0949158
v -0.02184141 0.07573092 0.06221206
v -0.03376573 0.2990457 -0.04051861
v -0.03376543 0.2990581 0.03178591
v -0.03084943 0.4122792 -0.02801557
v -0.03174559 0.3819265 0.0415777
v -0.02681896 0.5488032 0.1513185
v -0.02786396 0.5534391 0.08642069
v -0.02240141 0.7221506 0.1521767
v -0.03287141 0.3507483 -0.005192239
v -0.03228298 0.3996794 -0.05175278
v -0.03228302 0.3902892 -0.0007107235
v -0.03228299 0.3530196 -0.05704117
v -0.003872237 0.3507483 -0.005192217
v -0.003872201 0.3996794 -0.05175275
v -0.003872209 0.3530196 -0.05704114
v -0.003872233 0.3902892 -0.0007107015
v -0.03287141 0.3507483 -0.005192239
v -0.003872233 0.3902892 -0.0007107015
v -0.003872237 0.3507483 -0.005192217
v -0.03228302 0.3902892 -0.0007107235
v -0.03228302 0.3902892 -0.0007107235
v -0.003872201 0.3996794 -0.05175275
v -0.003872233 0.3902892 -0.0007107015
v -0.03228298 0.3996794 -0.05175278
v -0.03228298 0.3996794 -0.05175278
v -0.003872209 0.3530196 -0.05704114
v -0.003872201 0.3996794 -0.05175275
v -0.03228299 0.3530196 -0.05704117
v -0.03228299 0.3530196 -0.05704117
v -0.003872237 0.3507483 -0.005192217
v -0.003872209 0.3530196 -0.05704114
v -0.03287141 0.3507483 -0.005192239
v 0.01665382 -0.2831924 0.0348689
v 0.02047231 -0.1182318 -0.07132309
v 0.01665417 -0.28318 -0.0481517
v 0.02047293 -0.1181997 0.03961963
v 0.02885346 -0.07550968 -0.09491581
v 0.0288468 -0.07573094 0.06221208
v -0.004703905 -0.2990457 -0.04051869
v -0.005241129 -0.4122792 -0.02801569
v -0.004703979 -0.2990581 0.03178583
v -0.005213261 -0.3819265 0.04157759
v -0.005364478 -0.5488033 0.1513183
v -0.005333113 -0.5534391 0.08642051
v -0.00548764 -0.7221506 0.1521764
v -0.004703905 -0.2990457 -0.04051869
v 0.02047293 -0.1181997 0.03961963
v -0.01296867 -0.2831925 0.03486887
v -0.01414041 -0.1181997 0.03961961
v 0.01665382 -0.2831924 0.0348689
v 0.0288468 -0.07573094 0.06221208
v -0.02184143 -0.07573093 0.06221205
v -0.03376553 -0.2990581 0.03178581
v -0.004703979 -0.2990581 0.03178583
v -0.03174572 -0.3819265 0.04157757
v -0.005213261 -0.3819265 0.04157759
v -0.02681914 -0.5488032 0.1513183
v -0.005364478 -0.5488033 0.1513183
v -0.02240164 -0.7221506 0.1521764
v -0.00548764 -0.7221506 0.1521764
v 0.01665417 -0.28318 -0.0481517
v -0.0141401 -0.1182318 -0.07132312
v -0.01296869 -0.28318 -0.04815171
v 0.02047231 -0.1182318 -0.07132309
v -0.02184397 -0.07550967 -0.09491583
v 0.02885346 -0.07550968 -0.09491581
v -0.004703905 -0.2990457 -0.04051869
v -0.03376582 -0.2990457 -0.04051871
v -0.03084956 -0.4122792 -0.02801571
v -0.004703905 -0.2990457 -0.04051869
v -0.005241129 -0.4122792 -0.02801569
v -0.005333113 -0.5534391 0.08642051
v -0.02786414 -0.5534391 0.0864205
v -0.00548764 -0.7221506 0.1521764
v -0.02240164 -0.7221506 0.1521764
v 0.02885346 -0.07550968 -0.09491581
v -0.02184143 -0.07573093 0.06221205
v -0.02184397 -0.07550967 -0.09491583
v 0.0288468 -0.07573094 0.06221208
v -0.01296867 -0.2831925 0.03486887
v -0.01446458 -0.1179297 -0.07132308
v -0.01446481 -0.1178976 0.03961964
v -0.01296869 -0.28318 -0.04815171
v -0.02184397 -0.07550967 -0.09491583
v -0.02184143 -0.07573093 0.06221205
v -0.03376582 -0.2990457 -0.04051871
v -0.03376553 -0.2990581 0.03178581
v -0.03084956 -0.4122792 -0.02801571
v -0.03174572 -0.3819265 0.04157757
v -0.02681914 -0.5488032 0.1513183
v -0.02786414 -0.5534391 0.0864205
v -0.02240164 -0.7221506 0.1521764
v -0.03287153 -0.3507483 -0.005192359
v -0.03228311 -0.3996794 -0.05175291
v -0.0322831 -0.3530196 -0.05704129
v -0.03228315 -0.3902892 -0.0007108575
v -0.003872352 -0.3507483 -0.005192337
v -0.003872331 -0.3996794 -0.05175288
v -0.00387236 -0.3902892 -0.0007108355
v -0.003872324 -0.3530196 -0.05704126
v -0.03287153 -0.3507483 -0.005192359
v -0.00387236 -0.3902892 -0.0007108355
v -0.03228315 -0.3902892 -0.0007108575
v -0.003872352 -0.3507483 -0.005192337
v -0.03228315 -0.3902892 -0.0007108575
v -0.003872331 -0.3996794 -0.05175288
v -0.03228311 -0.3996794 -0.05175291
v -0.00387236 -0.3902892 -0.0007108355
v -0.03228311 -0.3996794 -0.05175291
v -0.003872324 -0.3530196 -0.05704126
v -0.0322831 -0.3530196 -0.05704129
v -0.003872331 -0.3996794 -0.05175288
v -0.0322831 -0.3530196 -0.05704129
v -0.003872352 -0.3507483 -0.005192337
v -0.03287153 -0.3507483 -0.005192359
v -0.003872324 -0.3530196 -0.05704126
v 0.02134229 -0.1415549 0.003079474
v 0.01819425 -0.2835568 0.02387698
v 0.02134227 -0.1415549 0.02387698
v 0.01819426 -0.2835568 -0.0001413027
v 0.006537776 -0.2925518 0.02387696
v 0.006537796 -0.2925518 -0.0001413084
v 0.02134235 0.1415549 0.003079484
v 0.01819436 0.2835568 0.02387699
v 0.01819438 0.2835568 -0.0001412834
v 0.02134234 0.1415549 0.02387699
v 0.0065379 0.2925518 0.02387698
v 0.006537919 0.2925518 -0.0001412885
v 0.01678951 -0.08687005 0.01876977
v -0.005891292 0.08687007 0.01876977
v 0.01678954 0.08687007 0.01876978
v -0.005891319 -0.08687005 0.01876977
v -0.005891304 -0.08687005 -0.03179948
v 0.01678955 0.08687007 -0.03179947
v -0.005891277 0.08687007 -0.03179948
v 0.01678953 -0.08687005 -0.03179947
v 0.01678953 -0.08687005 -0.03179947
v 0.01678954 0.08687007 0.01876978
v 0.01678955 0.08687007 -0.03179947
v 0.01678951 -0.08687005 0.01876977
v -0.005891304 -0.08687005 -0.03179948
v -0.005891292 0.08687007 0.01876977
v -0.005891319 -0.08687005 0.01876977
v -0.005891277 0.08687007 -0.03179948
v -0.01509143 0.1415549 0.003079539
v -0.01525246 0.2835568 0.02387711
v -0.01525244 0.2835568 -0.0001411661
v -0.01509145 0.1415549 0.02387704
v -0.02690892 0.2925517 0.0238771
v -0.0269089 0.2925517 -0.0001411684
v -0.01603421 -0.1398281 0.003079408
v -0.01430889 -0.2815239 0.02387685
v -0.01603423 -0.1398281 0.02387691
v -0.01430887 -0.2815239 -0.0001414278
v -0.02596534 -0.2905188 0.02387683
v -0.02596532 -0.2905188 -0.000141437
vt 0.4727086 0.6257313
vt 0.2037292 0.7419296
vt 0.3440555 0.8424894
vt 0.3783248 0.5606084
vt 0.1362746 0.7805388
vt 0.3268161 0.9173092
vt 0.398916 0.5280044
vt 0.508996 0.3974368
vt 0.4991241 0.593965
vt 0.5797085 0.4868815
vt 0.8369682 0.3245977
vt 0.7530723 0.2744041
vt 0.9645084 0.09795532
vt 0.398916 0.5280044
vt 0.3440555 0.8424894
vt 0.5101516 0.6366229
vt 0.4727086 0.6257313
vt 0.3958122 0.858898
vt 0.3268161 0.9173092
vt 0.3986519 0.9283785
vt 0.542233 0.6147322
vt 0.4991241 0.593965
vt 0.607611 0.5153649
vt 0.5797085 0.4868815
vt 0.8590882 0.345709
vt 0.8369682 0.3245977
vt 0.9867589 0.1116644
vt 0.9645084 0.09795532
vt 0.3783248 0.5606084
vt 0.1732336 0.697015
vt 0.2037292 0.7419296
vt 0.3571731 0.5273548
vt 0.1048729 0.7147345
vt 0.1362746 0.7805388
vt 0.398916 0.5280044
vt 0.3681611 0.490881
vt 0.4869785 0.3675956
vt 0.398916 0.5280044
vt 0.508996 0.3974368
vt 0.7530723 0.2744041
vt 0.7343463 0.2456243
vt 0.9645084 0.09795532
vt 0.9487144 0.07815079
vt 0.1362746 0.7805388
vt 0.283185 0.9806672
vt 0.3268161 0.9173092
vt 0.09009264 0.8419695
vt 0.4727086 0.6257313
vt 0.2037292 0.7419296
vt 0.3783248 0.5606084
vt 0.3440555 0.8424894
vt 0.1362746 0.7805388
vt 0.3268161 0.9173092
vt 0.398916 0.5280044
vt 0.4991241 0.593965
vt 0.508996 0.3974368
vt 0.5797085 0.4868815
vt 0.8369682 0.3245977
vt 0.7530723 0.2744041
vt 0.9645084 0.09795532
vt 0.7061471 0.6036394
vt 0.8318185 0.7532585
vt 0.8212143 0.6035637
vt 0.6960323 0.753367
vt 0.7067858 0.9852467
vt 0.8320079 0.8354117
vt 0.6962258 0.8355168
vt 0.821853 0.9851031
vt 0.7061471 0.6036394
vt 0.821195 0.5214491
vt 0.7061277 0.5214491
vt 0.8212143 0.6035637
vt 0.9818188 0.7526335
vt 0.8320079 0.8354117
vt 0.9821509 0.8347847
vt 0.8318185 0.7532585
vt 0.8318185 0.7532585
vt 0.6962258 0.8355168
vt 0.8320079 0.8354117
vt 0.6960323 0.753367
vt 0.6960323 0.753367
vt 0.5462381 0.836166
vt 0.6962258 0.8355168
vt 0.5458942 0.7540147
vt 0.4727086 0.6257313
vt 0.2037292 0.7419296
vt 0.3783248 0.5606084
vt 0.3440555 0.8424894
vt 0.1362746 0.7805388
vt 0.3268161 0.9173092
vt 0.398916 0.5280044
vt 0.508996 0.3974368
vt 0.4991241 0.593965
vt 0.5797085 0.4868815
vt 0.8369682 0.3245977
vt 0.7530723 0.2744041
vt 0.9645084 0.09795532
vt 0.398916 0.5280044
vt 0.3440555 0.8424894
vt 0.5101516 0.6366229
vt 0.3958122 0.858898
vt 0.4727086 0.6257313
vt 0.3268161 0.9173092
vt 0.3986519 0.9283785
vt 0.542233 0.6147322
vt 0.4991241 0.593965
vt 0.607611 0.5153649
vt 0.5797085 0.4868815
vt 0.8590882 0.345709
vt 0.8369682 0.3245977
vt 0.9867589 0.1116644
vt 0.9645084 0.09795532
vt 0.3783248 0.5606084
vt 0.1732336 0.697015
vt 0.3571731 0.5273548
vt 0.2037292 0.7419296
vt 0.1048729 0.7147345
vt 0.1362746 0.7805388
vt 0.398916 0.5280044
vt 0.3681611 0.490881
vt 0.4869785 0.3675956
vt 0.398916 0.5280044
vt 0.508996 0.3974368
vt 0.7530723 0.2744041
vt 0.7343463 0.2456243
vt 0.9645084 0.09795532
vt 0.9487144 0.07815079
vt 0.1362746 0.7805388
vt 0.283185 0.9806672
vt 0.09009264 0.8419695
vt 0.3268161 0.9173092
vt 0.4727086 0.6257313
vt 0.2037292 0.7419296
vt 0.3440555 0.8424894
vt 0.3783248 0.5606084
vt 0.1362746 0.7805388
vt 0.3268161 0.9173092
vt 0.398916 0.5280044
vt 0.4991241 0.593965
vt 0.508996 0.3974368
vt 0.5797085 0.4868815
vt 0.8369682 0.3245977
vt 0.7530723 0.2744041
vt 0.9645084 0.09795532
vt 0.7061471 0.6036394
vt 0.8318185 0.7532585
vt 0.6960323 0.753367
vt 0.8212143 0.6035637
vt 0.7067858 0.9852467
vt 0.8320079 0.8354117
vt 0.821853 0.9851031
vt 0.6962258 0.8355168
vt 0.7061471 0.6036394
vt 0.821195 0.5214491
vt 0.8212143 0.6035637
vt 0.7061277 0.5214491
vt 0.9818188 0.7526335
vt 0.8320079 0.8354117
vt 0.8318185 0.7532585
vt 0.9821509 0.8347847
vt 0.8318185 0.7532585
vt 0.6962258 0.8355168
vt 0.6960323 0.753367
vt 0.8320079 0.8354117
vt 0.6960323 0.753367
vt 0.5462381 0.836166
vt 0.5458942 0.7540147
vt 0.6962258 0.8355168
vt 0.01424874 0.7935803
vt 0.08777002 0.4094696
vt 0.06863511 0.7981204
vt 0.024961 0.4042265
vt 0.08226012 0.3752403
vt 0.01945123 0.3699975
vt 0.1117905 0.6344981
vt 0.4122164 0.3897886
vt 0.3678847 0.3458088
vt 0.1501773 0.6725805
vt 0.4298336 0.3603004
vt 0.3855019 0.3163207
vt 0.4889953 0.0815585
vt 0.01330572 0.01945992
vt 0.01330572 0.0815585
vt 0.4889953 0.01945992
vt 0.4889947 0.2821127
vt 0.01330552 0.2200138
vt 0.01330533 0.2821126
vt 0.4889948 0.2200139
vt 0.4889948 0.2200139
vt 0.01330572 0.0815585
vt 0.01330552 0.2200138
vt 0.4889953 0.0815585
vt 0.4889948 0.2200139
vt 0.01330572 0.0815585
vt 0.4889953 0.0815585
vt 0.01330552 0.2200138
vt 0.01424874 0.7935803
vt 0.08777002 0.4094696
vt 0.024961 0.4042265
vt 0.06863511 0.7981204
vt 0.08226012 0.3752403
vt 0.01945123 0.3699975
vt 0.1117905 0.6344981
vt 0.4122164 0.3897886
vt 0.1501773 0.6725805
vt 0.3678847 0.3458088
vt 0.4298336 0.3603004
vt 0.3855019 0.3163207
vn 0.8984735 0.4390277 -6.668141E-05
vn 0.9922916 0.1239248 -6.718832E-05
vn 0.992707 0.1205523 -6.490431E-05
vn 0.9173522 0.3980765 -5.997635E-05
vn 0.9812026 0.1929802 -0.0001139993
vn 0.9812026 0.1929802 -0.0001139993
vn 0.8641732 0.5031942 0.0003751503
vn 0.9999956 0.00291147 0.0005542153
vn 0.8923859 0.4512729 0.0004452751
vn 0.9999954 0.003017738 0.0005710975
vn 0.9999998 0.0006827482 0.0003935831
vn 0.9999998 0.0006696562 0.0003194687
vn 0.9999996 0.0007075276 0.0005338605
vn 0.8641732 0.5031942 0.0003751503
vn -7.153022E-07 0.2693853 0.9630325
vn -7.592502E-07 0.1281907 0.9917495
vn -7.61203E-07 0.07579411 0.9971234
vn -7.158884E-07 0.2673451 0.9636009
vn -6.39135E-07 0.469656 0.8828496
vn -6.39135E-07 0.4696559 0.8828496
vn -8.572953E-07 -0.0253814 0.9996778
vn -8.153923E-07 0.07279442 0.997347
vn -5.242961E-07 -0.3391254 0.9407412
vn -5.190098E-07 -0.3420973 0.9396647
vn -1.833032E-07 -0.2936726 0.955906
vn -1.842307E-07 -0.2892744 0.9572462
vn -2.338952E-07 -0.004950452 0.9999877
vn -2.338952E-07 -0.004950452 0.9999877
vn 4.851801E-07 0.2303245 -0.973114
vn 4.951019E-07 0.325211 -0.9456415
vn 4.942124E-07 0.3267765 -0.9451017
vn 3.754459E-07 0.3215374 -0.9468969
vn 3.951278E-07 0.4834213 -0.8753878
vn 3.951278E-07 0.4834213 -0.8753878
vn 4.210589E-07 0.3115771 -0.9502209
vn 5.632498E-07 0.2135672 -0.9769283
vn 6.634208E-07 0.3817427 -0.9242687
vn 4.210589E-07 0.3115771 -0.9502209
vn 6.625892E-07 0.3849099 -0.9229542
vn 0 0.5025104 -0.8645712
vn 0 0.5044602 -0.863435
vn -4.806809E-07 0.3631465 -0.9317321
vn -4.806809E-07 0.3631465 -0.9317321
vn -1.88854E-07 -0.999999 0.001407769
vn -1.88854E-07 -0.999999 0.001407769
vn -1.88854E-07 -0.999999 0.001407769
vn -1.88854E-07 -0.999999 0.001407769
vn -0.908495 -0.4178956 6.854949E-05
vn -0.9944019 0.1056645 -6.692635E-05
vn -0.927015 -0.3750242 6.166365E-05
vn -0.9947395 0.1024371 -6.469462E-05
vn -0.9851223 0.1718546 -0.0001127108
vn -0.9851223 0.1718546 -0.0001127108
vn -0.8739334 -0.4860456 -0.0003680229
vn -0.9018166 -0.4321187 -0.0004380688
vn -0.9997298 0.02306384 0.002865314
vn -0.999728 0.02316545 0.00269121
vn -0.9996357 0.02353645 0.01321244
vn -0.9996879 0.0225595 0.01072871
vn -0.9995173 0.02538288 0.01790758
vn -0.9999609 0.007379038 -0.004882702
vn -0.9999609 0.007379039 -0.004882702
vn -0.9999609 0.007379039 -0.004882702
vn -0.9999609 0.00737904 -0.004882702
vn 1 -2.063973E-07 5.703887E-07
vn 1 -2.063973E-07 5.703887E-07
vn 1 -2.063973E-07 5.703887E-07
vn 1 -2.063974E-07 5.703887E-07
vn -7.644388E-07 -0.1126178 0.9936383
vn -7.644387E-07 -0.1126178 0.9936383
vn -7.644388E-07 -0.1126178 0.9936383
vn -7.644387E-07 -0.1126178 0.9936383
vn -1.859511E-07 0.9834952 0.1809346
vn -1.859511E-07 0.9834952 0.1809346
vn -1.859511E-07 0.9834952 0.1809346
vn -1.859511E-07 0.9834952 0.1809346
vn 9.962924E-07 0.1126182 -0.9936383
vn 9.962924E-07 0.1126182 -0.9936383
vn 9.962924E-07 0.1126182 -0.9936383
vn 9.962924E-07 0.1126182 -0.9936383
vn 0 -0.9990419 -0.04376358
vn 0 -0.9990419 -0.04376358
vn 0 -0.9990419 -0.04376358
vn 0 -0.9990419 -0.04376358
vn 0.8984735 -0.4390277 -6.668496E-05
vn 0.9922916 -0.1239252 -6.723163E-05
vn 0.9173521 -0.3980767 -5.99801E-05
vn 0.992707 -0.1205527 -6.494633E-05
vn 0.9812026 -0.1929806 -0.000114069
vn 0.9812026 -0.1929806 -0.000114069
vn 0.8641732 -0.5031943 0.0003751468
vn 0.9999956 -0.002911798 0.0005542108
vn 0.8923858 -0.451273 0.0004452711
vn 0.9999954 -0.003018067 0.0005710931
vn 0.9999998 -0.0006830733 0.0003935844
vn 0.9999998 -0.0006699822 0.0003194683
vn 0.9999996 -0.0007078509 0.0005338652
vn 0.8641732 -0.5031943 0.0003751468
vn -7.811756E-07 -0.2693858 0.9630324
vn -7.74158E-07 -0.1281911 0.9917495
vn -7.815364E-07 -0.2673455 0.9636008
vn -7.884575E-07 -0.07579447 0.9971234
vn -7.262898E-07 -0.4696564 0.8828493
vn -7.262898E-07 -0.4696564 0.8828493
vn -8.572953E-07 0.02538107 0.9996779
vn -8.153922E-07 -0.07279482 0.9973469
vn -5.444265E-07 0.3391252 0.9407413
vn -5.394141E-07 0.342097 0.9396647
vn -2.046222E-07 0.2936722 0.9559062
vn -2.052319E-07 0.2892741 0.9572463
vn -2.343433E-07 0.004950067 0.9999877
vn -2.343433E-07 0.004950068 0.9999877
vn 4.914648E-07 -0.2303242 -0.973114
vn 4.413405E-07 -0.3252107 -0.9456416
vn 3.789872E-07 -0.3215371 -0.946897
vn 4.399148E-07 -0.3267763 -0.9451018
vn 2.863245E-07 -0.4834211 -0.875388
vn 2.863245E-07 -0.4834211 -0.875388
vn 4.21059E-07 -0.3115769 -0.950221
vn 5.632498E-07 -0.2135669 -0.9769284
vn 6.185788E-07 -0.3817425 -0.9242687
vn 4.21059E-07 -0.3115769 -0.950221
vn 6.172162E-07 -0.3849096 -0.9229543
vn 0 -0.5025102 -0.8645713
vn 0 -0.5044598 -0.8634351
vn -4.80681E-07 -0.3631461 -0.9317322
vn -4.80681E-07 -0.3631461 -0.9317321
vn 1.874509E-07 0.999999 0.001408133
vn 1.874509E-07 0.999999 0.001408133
vn 1.874509E-07 0.999999 0.001408133
vn 1.874509E-07 0.999999 0.001408133
vn -0.9084949 0.4178958 6.854771E-05
vn -0.9944019 -0.1056642 -6.69633E-05
vn -0.9947395 -0.1024368 -6.473038E-05
vn -0.9270149 0.3750246 6.16619E-05
vn -0.9851224 -0.1718543 -0.0001127719
vn -0.9851224 -0.1718543 -0.0001127719
vn -0.8739333 0.4860457 -0.0003680266
vn -0.9018165 0.432119 -0.0004380724
vn -0.9997299 -0.02306351 0.002865304
vn -0.999728 -0.02316512 0.002691199
vn -0.9996357 -0.02353614 0.01321242
vn -0.9996879 -0.02255919 0.01072869
vn -0.9995174 -0.02538259 0.01790756
vn -0.9999609 -0.00737871 -0.004882739
vn -0.9999609 -0.00737871 -0.004882739
vn -0.9999609 -0.00737871 -0.004882739
vn -0.9999609 -0.00737871 -0.004882739
vn 1 -1.115315E-07 5.716645E-07
vn 1 -1.115315E-07 5.716645E-07
vn 1 -1.115315E-07 5.716645E-07
vn 1 -1.115315E-07 5.716645E-07
vn -7.618297E-07 0.1126175 0.9936383
vn -7.618297E-07 0.1126175 0.9936383
vn -7.618297E-07 0.1126175 0.9936383
vn -7.618297E-07 0.1126175 0.9936383
vn -1.778663E-07 -0.9834952 0.1809346
vn -1.778663E-07 -0.9834952 0.1809346
vn -1.778663E-07 -0.9834952 0.1809346
vn -1.778663E-07 -0.9834952 0.1809346
vn 1.085646E-06 -0.1126178 -0.9936383
vn 1.085646E-06 -0.1126178 -0.9936383
vn 1.085646E-06 -0.1126178 -0.9936383
vn 1.085646E-06 -0.1126178 -0.9936383
vn 0 0.9990419 -0.04376358
vn 0 0.9990419 -0.04376359
vn 0 0.9990419 -0.04376359
vn 0 0.9990419 -0.04376359
vn 0.9997544 -0.02216348 7.49097E-07
vn 0.8925319 -0.4509842 6.719475E-07
vn 0.9997544 -0.02216348 7.490971E-07
vn 0.8909603 -0.4540812 6.70793E-07
vn 0.6109229 -0.79169 4.6351E-07
vn 0.6109231 -0.79169 4.635101E-07
vn 0.9997544 0.02216307 6.910422E-07
vn 0.8925325 0.4509831 6.304367E-07
vn 0.8909609 0.45408 6.294486E-07
vn 0.9997544 0.02216307 6.910422E-07
vn 0.6109249 0.7916885 4.466546E-07
vn 0.610925 0.7916885 4.466546E-07
vn -2.365177E-07 0 1
vn -2.365177E-07 0 1
vn -2.365177E-07 0 1
vn -2.365177E-07 0 1
vn 1.576785E-07 0 -1
vn 1.576785E-07 0 -1
vn 1.576785E-07 0 -1
vn 1.576785E-07 0 -1
vn 1 -1.372271E-07 2.828817E-07
vn 1 -1.372271E-07 2.828817E-07
vn 1 -1.372271E-07 2.828817E-07
vn 1 -1.372271E-07 2.828817E-07
vn -1 1.543805E-07 -3.064551E-07
vn -1 1.543806E-07 -3.064552E-07
vn -1 1.543805E-07 -3.064551E-07
vn -1 1.543805E-07 -3.064551E-07
vn 0.9999994 0.001133812 8.247945E-07
vn 0.8972248 0.441574 7.128448E-07
vn 0.8956436 0.4447724 7.113431E-07
vn 0.9999994 0.001133812 8.247944E-07
vn 0.6109231 0.79169 4.550826E-07
vn 0.6109231 0.79169 4.550826E-07
vn 0.9999259 0.01217547 7.470905E-07
vn 0.9001442 -0.435592 6.859024E-07
vn 0.9999259 0.01217547 7.470907E-07
vn 0.8985544 -0.4388622 6.848119E-07
vn 0.6109252 -0.7916884 4.803645E-07
vn 0.6109251 -0.7916884 4.803645E-07
g Object02_0
f 3/3/3 2/2/2 1/1/1
f 2/2/2 4/4/4 1/1/1
f 5/5/5 2/2/2 3/3/3
f 6/6/6 5/5/5 3/3/3
f 4/4/4 7/7/7 1/1/1
f 9/9/9 7/7/7 8/8/8
f 10/10/10 9/9/9 8/8/8
f 11/11/11 10/10/10 8/8/8
f 12/12/12 11/11/11 8/8/8
f 13/13/13 11/11/11 12/12/12
f 14/14/14 9/9/9 1/1/1
f 17/17/17 16/16/16 15/15/15
f 16/16/16 18/18/18 15/15/15
f 15/15/15 18/18/18 19/19/19
f 18/18/18 20/20/20 19/19/19
f 21/21/21 16/16/16 17/17/17
f 22/22/22 21/21/21 17/17/17
f 23/23/23 21/21/21 22/22/22
f 24/24/24 23/23/23 22/22/22
f 25/25/25 23/23/23 24/24/24
f 26/26/26 25/25/25 24/24/24
f 27/27/27 25/25/25 26/26/26
f 28/28/28 27/27/27 26/26/26
f 31/31/31 30/30/30 29/29/29
f 30/30/30 32/32/32 29/29/29
f 33/33/33 30/30/30 31/31/31
f 34/34/34 33/33/33 31/31/31
f 29/29/29 32/32/32 35/35/35
f 32/32/32 36/36/36 35/35/35
f 36/36/36 37/37/37 35/35/35
f 37/37/37 39/39/39 38/38/38
f 39/39/39 37/37/37 40/40/40
f 37/37/37 41/41/41 40/40/40
f 40/40/40 41/41/41 42/42/42
f 41/41/41 43/43/43 42/42/42
f 46/46/46 45/45/45 44/44/44
f 45/45/45 47/47/47 44/44/44
f 50/50/50 49/49/49 48/48/48
f 49/49/49 51/51/51 48/48/48
f 49/49/49 52/52/52 51/51/51
f 52/52/52 53/53/53 51/51/51
f 54/54/54 50/50/50 48/48/48
f 55/55/55 54/54/54 48/48/48
f 54/54/54 55/55/55 56/56/56
f 55/55/55 57/57/57 56/56/56
f 57/57/57 58/58/58 56/56/56
f 58/58/58 59/59/59 56/56/56
f 58/58/58 60/60/60 59/59/59
f 63/63/63 62/62/62 61/61/61
f 62/62/62 64/64/64 61/61/61
f 67/67/67 66/66/66 65/65/65
f 66/66/66 68/68/68 65/65/65
f 71/71/71 70/70/70 69/69/69
f 70/70/70 72/72/72 69/69/69
f 75/75/75 74/74/74 73/73/73
f 74/74/74 76/76/76 73/73/73
f 79/79/79 78/78/78 77/77/77
f 78/78/78 80/80/80 77/77/77
f 83/83/83 82/82/82 81/81/81
f 82/82/82 84/84/84 81/81/81
f 87/87/87 86/86/86 85/85/85
f 86/86/86 88/88/88 85/85/85
f 86/86/86 89/89/89 88/88/88
f 89/89/89 90/90/90 88/88/88
f 91/91/91 87/87/87 85/85/85
f 91/91/91 93/93/93 92/92/92
f 93/93/93 94/94/94 92/92/92
f 94/94/94 95/95/95 92/92/92
f 95/95/95 96/96/96 92/92/92
f 95/95/95 97/97/97 96/96/96
f 93/93/93 98/98/98 85/85/85
f 101/101/101 100/100/100 99/99/99
f 100/100/100 102/102/102 99/99/99
f 101/101/101 99/99/99 103/103/103
f 104/104/104 101/101/101 103/103/103
f 100/100/100 105/105/105 102/102/102
f 105/105/105 106/106/106 102/102/102
f 105/105/105 107/107/107 106/106/106
f 107/107/107 108/108/108 106/106/106
f 107/107/107 109/109/109 108/108/108
f 109/109/109 110/110/110 108/108/108
f 109/109/109 111/111/111 110/110/110
f 111/111/111 112/112/112 110/110/110
f 115/115/115 114/114/114 113/113/113
f 114/114/114 116/116/116 113/113/113
f 114/114/114 117/117/117 116/116/116
f 117/117/117 118/118/118 116/116/116
f 115/115/115 113/113/113 119/119/119
f 120/120/120 115/115/115 119/119/119
f 121/121/121 120/120/120 119/119/119
f 123/123/123 121/121/121 122/122/122
f 121/121/121 123/123/123 124/124/124
f 125/125/125 121/121/121 124/124/124
f 125/125/125 124/124/124 126/126/126
f 127/127/127 125/125/125 126/126/126
f 130/130/130 129/129/129 128/128/128
f 129/129/129 131/131/131 128/128/128
f 134/134/134 133/133/133 132/132/132
f 133/133/133 135/135/135 132/132/132
f 136/136/136 133/133/133 134/134/134
f 137/137/137 136/136/136 134/134/134
f 135/135/135 138/138/138 132/132/132
f 138/138/138 139/139/139 132/132/132
f 139/139/139 138/138/138 140/140/140
f 141/141/141 139/139/139 140/140/140
f 142/142/142 141/141/141 140/140/140
f 143/143/143 142/142/142 140/140/140
f 144/144/144 142/142/142 143/143/143
f 147/147/147 146/146/146 145/145/145
f 146/146/146 148/148/148 145/145/145
f 151/151/151 150/150/150 149/149/149
f 150/150/150 152/152/152 149/149/149
f 155/155/155 154/154/154 153/153/153
f 154/154/154 156/156/156 153/153/153
f 159/159/159 158/158/158 157/157/157
f 158/158/158 160/160/160 157/157/157
f 163/163/163 162/162/162 161/161/161
f 162/162/162 164/164/164 161/161/161
f 167/167/167 166/166/166 165/165/165
f 166/166/166 168/168/168 165/165/165
f 171/171/171 170/170/170 169/169/169
f 170/170/170 172/172/172 169/169/169
f 170/170/170 173/173/173 172/172/172
f 173/173/173 174/174/174 172/172/172
f 177/177/177 176/176/176 175/175/175
f 176/176/176 178/178/178 175/175/175
f 179/179/179 176/176/176 177/177/177
f 180/180/180 179/179/179 177/177/177
f 183/183/183 182/182/182 181/181/181
f 182/182/182 184/184/184 181/181/181
f 187/187/187 186/186/186 185/185/185
f 186/186/186 188/188/188 185/185/185
f 191/191/191 190/190/190 189/189/189
f 190/190/190 192/192/192 189/189/189
f 195/195/195 194/194/194 193/193/193
f 194/194/194 196/196/196 193/193/193
f 199/199/199 198/198/198 197/197/197
f 198/198/198 200/200/200 197/197/197
f 201/201/201 198/198/198 199/199/199
f 202/202/202 201/201/201 199/199/199
f 205/205/205 204/204/204 203/203/203
f 204/204/204 206/206/206 203/203/203
f 204/204/204 207/207/207 206/206/206
f 207/207/207 208/208/208 206/206/206
