g Object01
v 0 -0.130759 -0.6854344
v 0.067555 1.003798E-06 -0.8087935
v 0 -0.06746099 -0.8087935
v 0.130853 1.003798E-06 -0.6854344
v 0.130853 1.003798E-06 -0.6854344
v 0 -0.04011599 -0.6272385
v 0.04021003 1.003798E-06 -0.6272385
v 0 0.040117 -0.6272385
v 0 0.13076 -0.6854344
v -0.130852 1.003798E-06 -0.6854344
v -0.04020897 1.003798E-06 -0.6272385
v 0.130853 1.003798E-06 -0.6854344
v 0 -0.130759 -0.6854344
v -0.130852 1.003798E-06 -0.6854344
v 0 -0.04011599 -0.6272385
v 0.04020897 1.003798E-06 -0.2296675
v 0.04021003 1.003798E-06 -0.6272385
v 0 -0.04011599 -0.2296675
v 0 -0.04011599 -0.2296675
v 0 -0.130198 -0.1345465
v 0.110496 1.003798E-06 -0.1345465
v 0 -0.151207 0.4453735
v 0.13166 3.799796E-09 0.4453735
v 0.144832 -0.14474 0.6386815
v 0.171926 -0.05359799 0.5902815
v 0.174504 3.799796E-09 0.6920816
v 0.182848 3.799796E-09 0.5356135
v 0.150579 -0.070434 0.6820676
v 0.101953 -0.10186 0.7454824
v 0 3.799796E-09 0.8089575
v 0 -0.151207 0.4453735
v 0 -0.174411 0.6920816
v 0 3.799796E-09 0.8089575
v -0.144832 -0.14474 0.6386815
v -0.101953 -0.10186 0.7454824
v -0.06879799 -0.1504 0.6883736
v 0.067621 -0.152147 0.6786235
v 0 -0.151207 0.4453735
v -0.13166 3.799796E-09 0.4453735
v -0.110496 1.003798E-06 -0.1345465
v 0 -0.130198 -0.1345465
v 0 -0.04011599 -0.2296675
v -0.171883 -0.053705 0.5902846
v -0.179298 3.799796E-09 0.5354666
v -0.174064 3.799796E-09 0.6923076
v -0.149343 -0.072049 0.6922255
v -0.174064 3.799796E-09 0.6923076
v 0 3.799796E-09 0.8089575
v 0.067555 1.003798E-06 -0.8087935
v 0 1.003798E-06 -0.8089574
v 0 -0.06746099 -0.8087935
v -0.06755401 1.003798E-06 -0.8087935
v -0.06755401 1.003798E-06 -0.8087935
v 0 -0.130759 -0.6854344
v 0 -0.06746099 -0.8087935
v -0.130852 1.003798E-06 -0.6854344
v 0 -0.04011599 -0.6272385
v -0.04020897 1.003798E-06 -0.2296675
v 0 -0.04011599 -0.2296675
v -0.04020897 1.003798E-06 -0.6272385
v 0 -0.04011599 -0.2296675
v -0.04020897 1.003798E-06 -0.2296675
v -0.110496 1.003798E-06 -0.1345465
v 0.110496 1.003798E-06 -0.1345465
v 0.04020897 1.003798E-06 -0.2296675
v 0 0.040117 -0.2296675
v -0.110496 1.003798E-06 -0.1345465
v 0.110496 1.003798E-06 -0.1345465
v -0.149343 -0.072049 0.6922255
v -0.101953 -0.10186 0.7454824
v -0.189505 -0.18866 0.7856166
v -0.101953 -0.10186 0.7454824
v -0.06879799 -0.1504 0.6883736
v -0.189505 -0.18866 0.7856166
v -0.06879799 -0.1504 0.6883736
v -0.144832 -0.14474 0.6386815
v -0.189505 -0.18866 0.7856166
v -0.144832 -0.14474 0.6386815
v -0.149343 -0.072049 0.6922255
v -0.189505 -0.18866 0.7856166
v 0.150579 -0.070434 0.6820676
v 0.189505 -0.18866 0.7856155
v 0.101953 -0.10186 0.7454824
v 0.101953 -0.10186 0.7454824
v 0.189505 -0.18866 0.7856155
v 0.067621 -0.152147 0.6786235
v 0.067621 -0.152147 0.6786235
v 0.189505 -0.18866 0.7856155
v 0.144832 -0.14474 0.6386815
v 0.144832 -0.14474 0.6386815
v 0.189505 -0.18866 0.7856155
v 0.150579 -0.070434 0.6820676
v 0.174504 3.799796E-09 0.6920816
v 0.296032 3.799796E-09 0.6300406
v 0.171926 -0.05359799 0.5902815
v 0.171926 0.053599 0.5902815
v 0.171926 -0.05359799 0.5902815
v 0.296032 3.799796E-09 0.6300406
v 0.182848 3.799796E-09 0.5356135
v 0.171926 0.053599 0.5902815
v -0.174064 3.799796E-09 0.6923076
v -0.171883 -0.053705 0.5902846
v -0.296032 3.799796E-09 0.6300406
v -0.171883 0.053706 0.5902846
v -0.171883 -0.053705 0.5902846
v -0.179298 3.799796E-09 0.5354666
v -0.296032 3.799796E-09 0.6300406
v -0.171883 0.053706 0.5902846
v 0.067555 1.003798E-06 -0.8087935
v 0 0.13076 -0.6854344
v 0 0.067462 -0.8087935
v 0.130853 1.003798E-06 -0.6854344
v 0 0.040117 -0.6272385
v 0.04020897 1.003798E-06 -0.2296675
v 0 0.040117 -0.2296675
v 0.04021003 1.003798E-06 -0.6272385
v 0 0.040117 -0.2296675
v 0.110496 1.003798E-06 -0.1345465
v 0 0.130199 -0.1345465
v 0 0.151208 0.4453735
v 0.13166 3.799796E-09 0.4453735
v 0.144833 0.144741 0.6386815
v 0.171926 0.053599 0.5902815
v 0.174504 3.799796E-09 0.6920816
v 0.182848 3.799796E-09 0.5356135
v 0.150579 0.070434 0.6820685
v 0.101953 0.101861 0.7454824
v 0 3.799796E-09 0.8089575
v 0 0.174412 0.6920816
v 0 0.151208 0.4453735
v 0 3.799796E-09 0.8089575
v -0.144832 0.144741 0.6386815
v -0.101953 0.101861 0.7454824
v -0.06879799 0.150401 0.6883736
v 0.067621 0.152148 0.6786235
v -0.13166 3.799796E-09 0.4453735
v 0 0.151208 0.4453735
v -0.110496 1.003798E-06 -0.1345465
v 0 0.130199 -0.1345465
v 0 0.040117 -0.2296675
v -0.171883 0.053706 0.5902846
v -0.179298 3.799796E-09 0.5354666
v -0.174064 3.799796E-09 0.6923076
v -0.149344 0.072049 0.6922255
v -0.174064 3.799796E-09 0.6923076
v 0 3.799796E-09 0.8089575
v 0.067555 1.003798E-06 -0.8087935
v 0 0.067462 -0.8087935
v 0 1.003798E-06 -0.8089574
v -0.06755401 1.003798E-06 -0.8087935
v 0 0.13076 -0.6854344
v -0.06755401 1.003798E-06 -0.8087935
v 0 0.067462 -0.8087935
v -0.130852 1.003798E-06 -0.6854344
v 0 0.040117 -0.6272385
v -0.04020897 1.003798E-06 -0.2296675
v -0.04020897 1.003798E-06 -0.6272385
v 0 0.040117 -0.2296675
v -0.149344 0.072049 0.6922255
v -0.189505 0.18866 0.7856166
v -0.101953 0.101861 0.7454824
v -0.101953 0.101861 0.7454824
v -0.189505 0.18866 0.7856166
v -0.06879799 0.150401 0.6883736
v -0.06879799 0.150401 0.6883736
v -0.189505 0.18866 0.7856166
v -0.144832 0.144741 0.6386815
v -0.144832 0.144741 0.6386815
v -0.189505 0.18866 0.7856166
v -0.149344 0.072049 0.6922255
v 0.150579 0.070434 0.6820685
v 0.101953 0.101861 0.7454824
v 0.189505 0.18866 0.7856155
v 0.101953 0.101861 0.7454824
v 0.067621 0.152148 0.6786235
v 0.189505 0.18866 0.7856155
v 0.067621 0.152148 0.6786235
v 0.144833 0.144741 0.6386815
v 0.189505 0.18866 0.7856155
v 0.144833 0.144741 0.6386815
v 0.150579 0.070434 0.6820685
v 0.189505 0.18866 0.7856155
vt 0.7532 0.2474
vt 0.8027 0.197
vt 0.7532 0.1965
vt 0.8171 0.2535
vt 0.8171 0.2535
vt 0.7532 0.286
vt 0.7887 0.2899
vt 0.7532 0.286
vt 0.7532 0.2474
vt 0.6893 0.2535
vt 0.7177 0.2899
vt 0.8171 0.2535
vt 0.7532 0.2474
vt 0.6893 0.2535
vt 0.7195 0.0146
vt 0.7478 0.1638
vt 0.7478 0.0146
vt 0.7195 0.1638
vt 0.9185 0.2397
vt 0.9185 0.2797
vt 0.9615 0.2732
vt 0.9185 0.4259
vt 0.9688 0.4269
vt 0.9527 0.4762
vt 0.9734 0.4692
vt 0.9768 0.5027
vt 0.9868 0.4541
vt 0.9615 0.495
vt 0.9437 0.5044
vt 0.9185 0.5379
vt 0.9185 0.4259
vt 0.9185 0.4861
vt 0.9185 0.5379
vt 0.8842 0.4762
vt 0.8933 0.5044
vt 0.8998 0.4882
vt 0.9352 0.4854
vt 0.9185 0.4259
vt 0.8682 0.4269
vt 0.8755 0.2732
vt 0.9185 0.2797
vt 0.9185 0.2397
vt 0.8637 0.4692
vt 0.8502 0.454
vt 0.8484 0.4854
vt 0.8794 0.4972
vt 0.8602 0.5027
vt 0.9185 0.5379
vt 0.8546 0.1139
vt 0.8256 0.1139
vt 0.8256 0.1429
vt 0.7966 0.1139
vt 0.7037 0.197
vt 0.7532 0.2474
vt 0.7532 0.1965
vt 0.6893 0.2535
vt 0.7195 0.0146
vt 0.6912 0.1638
vt 0.7195 0.1638
vt 0.6912 0.0146
vt 0.9185 0.2397
vt 0.8935 0.236
vt 0.8755 0.2732
vt 0.9615 0.2732
vt 0.9435 0.236
vt 0.9185 0.2397
vt 0.8755 0.2732
vt 0.9615 0.2732
vt 0.8514 0.3415
vt 0.8492 0.3178
vt 0.8054 0.318
vt 0.8492 0.3178
vt 0.8514 0.2923
vt 0.8054 0.318
vt 0.8514 0.2923
vt 0.8321 0.2711
vt 0.8054 0.318
vt 0.8334 0.3642
vt 0.8514 0.3415
vt 0.8054 0.318
vt 0.7947 0.4449
vt 0.8405 0.4209
vt 0.7966 0.4211
vt 0.7966 0.4211
vt 0.8405 0.4209
vt 0.7942 0.3956
vt 0.7942 0.3956
vt 0.8405 0.4209
vt 0.8132 0.3743
vt 0.813 0.4673
vt 0.8405 0.4209
vt 0.7947 0.4449
vt 0.4502 0.6486
vt 0.4825 0.6145
vt 0.4317 0.6265
vt 0.4317 0.6265
vt 0.4317 0.6265
vt 0.4825 0.6145
vt 0.4408 0.5978
vt 0.4317 0.6265
vt 0.4213 0.5379
vt 0.4398 0.5159
vt 0.389 0.5039
vt 0.4398 0.5159
vt 0.4398 0.5159
vt 0.4307 0.4871
vt 0.389 0.5039
vt 0.4398 0.5159
vt 0.8027 0.197
vt 0.7532 0.2474
vt 0.7532 0.1965
vt 0.8171 0.2535
vt 0.7195 0.0146
vt 0.7478 0.1638
vt 0.7195 0.1638
vt 0.7478 0.0146
vt 0.9185 0.2397
vt 0.9615 0.2732
vt 0.9185 0.2797
vt 0.9185 0.4259
vt 0.9688 0.4269
vt 0.9527 0.4762
vt 0.9734 0.4692
vt 0.9768 0.5027
vt 0.9868 0.4541
vt 0.9615 0.495
vt 0.9437 0.5044
vt 0.9185 0.5379
vt 0.9185 0.4861
vt 0.9185 0.4259
vt 0.9185 0.5379
vt 0.8842 0.4762
vt 0.8933 0.5044
vt 0.8998 0.4882
vt 0.9352 0.4854
vt 0.8682 0.4269
vt 0.9185 0.4259
vt 0.8755 0.2732
vt 0.9185 0.2797
vt 0.9185 0.2397
vt 0.8637 0.4692
vt 0.8502 0.454
vt 0.8484 0.4854
vt 0.8794 0.4972
vt 0.8602 0.5027
vt 0.9185 0.5379
vt 0.8546 0.1139
vt 0.8256 0.1429
vt 0.8256 0.1139
vt 0.7966 0.1139
vt 0.7532 0.2474
vt 0.7037 0.197
vt 0.7532 0.1965
vt 0.6893 0.2535
vt 0.7195 0.0146
vt 0.6912 0.1638
vt 0.6912 0.0146
vt 0.7195 0.1638
vt 0.8514 0.3415
vt 0.8054 0.318
vt 0.8492 0.3178
vt 0.8492 0.3178
vt 0.8054 0.318
vt 0.8514 0.2923
vt 0.8514 0.2923
vt 0.8054 0.318
vt 0.8321 0.2711
vt 0.8334 0.3642
vt 0.8054 0.318
vt 0.8514 0.3415
vt 0.7947 0.4449
vt 0.7966 0.4211
vt 0.8405 0.4209
vt 0.7966 0.4211
vt 0.7942 0.3956
vt 0.8405 0.4209
vt 0.7942 0.3956
vt 0.8132 0.3743
vt 0.8405 0.4209
vt 0.813 0.4673
vt 0.7947 0.4449
vt 0.8405 0.4209
vn -1.893927E-06 -0.8897957 -0.4563591
vn 0.8896216 2.856781E-06 -0.4566982
vn -2.981339E-06 -0.8897957 -0.456359
vn 0.8896217 1.799312E-06 -0.4566981
vn 0.5400584 8.168156E-07 0.8416275
vn -2.884711E-06 -0.5404747 0.8413602
vn 0.5400584 2.76069E-06 0.8416275
vn -2.915406E-06 0.540477 0.8413588
vn -8.342271E-07 0.540477 0.8413588
vn -0.5400608 7.9866E-07 0.841626
vn -0.5400608 2.791372E-06 0.841626
vn 0.5400584 8.168156E-07 0.8416275
vn -8.160957E-07 -0.5404747 0.8413602
vn -0.5400608 7.9866E-07 0.841626
vn 0.7062919 -0.7079207 9.481078E-07
vn 1 6.178399E-06 1.34239E-06
vn 1 6.23214E-06 1.34239E-06
vn 0.7062919 -0.7079207 9.481078E-07
vn 0 -0.7577826 -0.652507
vn 0 -0.9416743 -0.3365255
vn 0.9515213 1.370797E-06 -0.3075828
vn 0 -0.971287 -0.2379112
vn 0.954233 -1.745697E-06 -0.299064
vn 0.8473928 -0.4862347 -0.2133103
vn 0.8131347 -0.4855675 -0.3209925
vn 0.8494315 -3.05578E-06 0.5276989
vn 0.8042642 -4.746779E-06 -0.5942718
vn 0.9029211 -0.2697537 0.3346137
vn 0.3874855 -0.3846697 0.8377854
vn -6.850543E-05 -1.471565E-06 1
vn 0 -0.971287 -0.2379112
vn 0.008438241 -0.9504719 0.3106963
vn -6.850543E-05 -1.471565E-06 1
vn -0.7236334 -0.671999 -0.1573915
vn -0.3673723 -0.3626655 0.8564528
vn -0.3162774 -0.8373659 0.4458553
vn 0.3589421 -0.7847245 0.5053394
vn 0 -0.971287 -0.2379112
vn -0.9554801 -1.620806E-06 -0.2950553
vn -0.9515213 1.378012E-06 -0.3075828
vn 0 -0.9416743 -0.3365255
vn 0 -0.7577826 -0.652507
vn -0.8920552 -0.3932428 -0.2227054
vn -0.8840244 -4.972413E-06 -0.4674407
vn -0.8512812 -2.812114E-06 0.5247096
vn -0.8484836 -0.2916304 0.4416189
vn -0.8512812 -2.812114E-06 0.5247096
vn -6.850543E-05 -1.471565E-06 1
vn 0.002426988 0 -0.9999971
vn 0 0 -1
vn 0 -0.002430334 -0.999997
vn -0.002427024 0 -0.9999971
vn -0.8896227 2.898785E-06 -0.456696
vn -1.893927E-06 -0.8897957 -0.4563591
vn -2.981339E-06 -0.8897957 -0.456359
vn -0.8896227 1.831433E-06 -0.4566961
vn -0.7062967 -0.707916 0
vn -1 6.178365E-06 0
vn -0.7062967 -0.707916 0
vn -1 6.178365E-06 0
vn 0 -0.7577826 -0.652507
vn -0.8042562 7.331289E-06 -0.5942827
vn -0.9515213 1.378012E-06 -0.3075828
vn 0.9515213 1.370797E-06 -0.3075828
vn 0.8042562 7.331289E-06 -0.5942827
vn 0 0.7577857 -0.6525034
vn -0.9515213 1.378012E-06 -0.3075828
vn 0.9515213 1.370797E-06 -0.3075828
vn -0.3425588 0.6563409 0.6722128
vn -0.3425588 0.6563409 0.6722129
vn -0.3425588 0.6563409 0.6722129
vn 0.6526267 -0.3468011 0.6736523
vn 0.6526267 -0.3468011 0.6736523
vn 0.6526266 -0.3468012 0.6736524
vn 0.0969651 -0.9613041 -0.2578605
vn 0.0969651 -0.9613042 -0.2578605
vn 0.0969651 -0.9613041 -0.2578606
vn -0.9589279 0.1272305 -0.2535148
vn -0.9589279 0.1272306 -0.2535148
vn -0.9589279 0.1272306 -0.2535148
vn 0.3827207 0.6767988 0.6288626
vn 0.3827207 0.6767988 0.6288626
vn 0.3827207 0.6767989 0.6288625
vn -0.6713971 -0.3842003 0.6337319
vn -0.6713971 -0.3842003 0.6337318
vn -0.6713971 -0.3842003 0.6337318
vn -0.04873893 -0.9609441 -0.2724172
vn -0.04873893 -0.9609441 -0.2724172
vn -0.04873892 -0.9609441 -0.2724172
vn 0.8473928 -0.4862347 -0.2133103
vn 0.9600931 0.08188878 -0.267424
vn 0.9029211 -0.2697537 0.3346137
vn 0.4546851 -2.909807E-06 0.8906523
vn 0.4546851 -1.728632E-06 0.8906523
vn 0.2291801 -0.8636795 0.4489257
vn 0.2291833 0.8636753 0.4489319
vn 0.8131347 -0.4855675 -0.3209925
vn 0.6406127 -8.203809E-07 -0.7678642
vn 0.8042642 -4.746779E-06 -0.5942718
vn 0.813139 0.485559 -0.3209945
vn -0.4546932 -2.813869E-06 0.8906482
vn -0.2294924 -0.8632836 0.4495272
vn -0.4546932 -1.864167E-06 0.8906482
vn -0.2294956 0.8632795 0.4495335
vn -0.4725702 -0.6606352 -0.5832997
vn -0.6295 -3.206052E-06 -0.7770004
vn -0.6295 -8.578596E-07 -0.7770004
vn -0.472574 0.6606283 -0.5833045
vn 0.8896216 2.856781E-06 -0.4566982
vn -1.797616E-06 0.8897967 -0.4563572
vn -2.89735E-06 0.8897967 -0.4563572
vn 0.8896217 1.799312E-06 -0.4566981
vn 0.7062832 0.7079294 9.481193E-07
vn 1 6.178399E-06 1.34239E-06
vn 0.7062832 0.7079294 9.481193E-07
vn 1 6.23214E-06 1.34239E-06
vn 0 0.7577857 -0.6525034
vn 0.9515213 1.370797E-06 -0.3075828
vn 0 0.9416743 -0.3365255
vn -5.542568E-07 0.9712867 -0.237912
vn 0.954233 -1.745697E-06 -0.299064
vn 0.8473966 0.486229 -0.2133081
vn 0.813139 0.485559 -0.3209945
vn 0.8494315 -3.05578E-06 0.5276989
vn 0.8042642 -4.746779E-06 -0.5942718
vn 0.9029206 0.269747 0.3346206
vn 0.3874821 0.3846692 0.8377871
vn -6.850543E-05 -1.471565E-06 1
vn 0.008437939 0.9504718 0.3106965
vn -5.542568E-07 0.9712867 -0.237912
vn -6.850543E-05 -1.471565E-06 1
vn -0.7236336 0.6719978 -0.1573955
vn -0.3673686 0.362664 0.856455
vn -0.3162773 0.8373659 0.4458553
vn 0.3589419 0.7847211 0.5053449
vn -0.9554801 -1.620806E-06 -0.2950553
vn -5.542568E-07 0.9712867 -0.237912
vn -0.9515213 1.378012E-06 -0.3075828
vn 0 0.9416743 -0.3365255
vn 0 0.7577857 -0.6525034
vn -0.8920552 0.3932421 -0.2227064
vn -0.8840244 -4.972413E-06 -0.4674407
vn -0.8512812 -2.812114E-06 0.5247096
vn -0.8484903 0.2916201 0.4416128
vn -0.8512812 -2.812114E-06 0.5247096
vn -6.850543E-05 -1.471565E-06 1
vn 0.002426988 0 -0.9999971
vn 0 0.00243037 -0.999997
vn 0 0 -1
vn -0.002427024 0 -0.9999971
vn -1.797616E-06 0.8897967 -0.4563572
vn -0.8896227 2.898785E-06 -0.456696
vn -2.89735E-06 0.8897967 -0.4563572
vn -0.8896227 1.831433E-06 -0.4566961
vn -0.7062879 0.7079247 0
vn -1 6.178365E-06 0
vn -1 6.178365E-06 0
vn -0.7062879 0.7079247 0
vn -0.3425465 -0.6563395 0.6722204
vn -0.3425465 -0.6563395 0.6722204
vn -0.3425466 -0.6563395 0.6722204
vn 0.6526249 0.3468031 0.673653
vn 0.6526249 0.3468031 0.6736529
vn 0.6526249 0.3468031 0.6736529
vn 0.0969617 0.9613059 -0.2578555
vn 0.0969617 0.9613059 -0.2578555
vn 0.0969617 0.9613059 -0.2578555
vn -0.9589283 -0.1272181 -0.2535195
vn -0.9589283 -0.1272181 -0.2535194
vn -0.9589283 -0.1272181 -0.2535195
vn 0.3827077 -0.6767977 0.6288718
vn 0.3827077 -0.6767977 0.6288718
vn 0.3827077 -0.6767977 0.6288717
vn -0.6713952 0.3842024 0.6337326
vn -0.6713952 0.3842025 0.6337326
vn -0.6713952 0.3842024 0.6337326
vn -0.04873557 0.9609455 -0.2724124
vn -0.04873557 0.9609455 -0.2724124
vn -0.04873557 0.9609455 -0.2724124
vn 0.8473966 0.486229 -0.2133081
vn 0.9029206 0.269747 0.3346206
vn 0.9600945 -0.08189873 -0.2674154
g Object01_0
f 3/3/3 2/2/2 1/1/1
f 2/2/2 4/4/4 1/1/1
f 7/7/7 6/6/6 5/5/5
f 7/7/7 5/5/5 8/8/8
f 5/5/5 9/9/9 8/8/8
f 8/8/8 9/9/9 10/10/10
f 11/11/11 10/10/10 6/6/6
f 11/11/11 8/8/8 10/10/10
f 6/6/6 13/13/13 12/12/12
f 14/14/14 13/13/13 6/6/6
f 17/17/17 16/16/16 15/15/15
f 16/16/16 18/18/18 15/15/15
f 21/21/21 20/20/20 19/19/19
f 22/22/22 20/20/20 21/21/21
f 23/23/23 22/22/22 21/21/21
f 22/22/22 23/23/23 24/24/24
f 24/24/24 23/23/23 25/25/25
f 24/24/24 25/25/25 26/26/26
f 23/23/23 27/27/27 25/25/25
f 24/24/24 26/26/26 28/28/28
f 26/26/26 29/29/29 28/28/28
f 30/30/30 29/29/29 26/26/26
f 32/32/32 31/31/31 24/24/24
f 33/33/33 32/32/32 29/29/29
f 31/31/31 32/32/32 34/34/34
f 32/32/32 33/33/33 35/35/35
f 36/36/36 32/32/32 35/35/35
f 36/36/36 34/34/34 32/32/32
f 32/32/32 37/37/37 29/29/29
f 24/24/24 37/37/37 32/32/32
f 39/39/39 38/38/38 34/34/34
f 39/39/39 40/40/40 38/38/38
f 40/40/40 41/41/41 38/38/38
f 41/41/41 40/40/40 42/42/42
f 39/39/39 34/34/34 43/43/43
f 43/43/43 44/44/44 39/39/39
f 34/34/34 45/45/45 43/43/43
f 35/35/35 47/47/47 46/46/46
f 47/47/47 34/34/34 46/46/46
f 35/35/35 48/48/48 47/47/47
f 51/51/51 50/50/50 49/49/49
f 50/50/50 51/51/51 52/52/52
f 55/55/55 54/54/54 53/53/53
f 54/54/54 56/56/56 53/53/53
f 59/59/59 58/58/58 57/57/57
f 58/58/58 60/60/60 57/57/57
f 63/63/63 62/62/62 61/61/61
f 65/65/65 64/64/64 61/61/61
f 62/62/62 67/67/67 66/66/66
f 68/68/68 65/65/65 66/66/66
f 71/71/71 70/70/70 69/69/69
f 74/74/74 73/73/73 72/72/72
f 77/77/77 76/76/76 75/75/75
f 80/80/80 79/79/79 78/78/78
f 83/83/83 82/82/82 81/81/81
f 86/86/86 85/85/85 84/84/84
f 89/89/89 88/88/88 87/87/87
f 92/92/92 91/91/91 90/90/90
f 95/95/95 94/94/94 93/93/93
f 94/94/94 96/96/96 93/93/93
f 99/99/99 98/98/98 97/97/97
f 98/98/98 99/99/99 100/100/100
f 103/103/103 102/102/102 101/101/101
f 104/104/104 103/103/103 101/101/101
f 107/107/107 106/106/106 105/105/105
f 106/106/106 107/107/107 108/108/108
f 111/111/111 110/110/110 109/109/109
f 110/110/110 112/112/112 109/109/109
f 115/115/115 114/114/114 113/113/113
f 114/114/114 116/116/116 113/113/113
f 119/119/119 118/118/118 117/117/117
f 119/119/119 120/120/120 118/118/118
f 120/120/120 121/121/121 118/118/118
f 121/121/121 120/120/120 122/122/122
f 121/121/121 122/122/122 123/123/123
f 123/123/123 122/122/122 124/124/124
f 125/125/125 121/121/121 123/123/123
f 124/124/124 122/122/122 126/126/126
f 127/127/127 124/124/124 126/126/126
f 127/127/127 128/128/128 124/124/124
f 130/130/130 129/129/129 122/122/122
f 129/129/129 131/131/131 127/127/127
f 129/129/129 130/130/130 132/132/132
f 131/131/131 129/129/129 133/133/133
f 129/129/129 134/134/134 133/133/133
f 132/132/132 134/134/134 129/129/129
f 135/135/135 129/129/129 127/127/127
f 135/135/135 122/122/122 129/129/129
f 137/137/137 136/136/136 132/132/132
f 138/138/138 136/136/136 137/137/137
f 139/139/139 138/138/138 137/137/137
f 138/138/138 139/139/139 140/140/140
f 132/132/132 136/136/136 141/141/141
f 142/142/142 141/141/141 136/136/136
f 143/143/143 132/132/132 141/141/141
f 145/145/145 133/133/133 144/144/144
f 132/132/132 145/145/145 144/144/144
f 146/146/146 133/133/133 145/145/145
f 149/149/149 148/148/148 147/147/147
f 148/148/148 149/149/149 150/150/150
f 153/153/153 152/152/152 151/151/151
f 152/152/152 154/154/154 151/151/151
f 157/157/157 156/156/156 155/155/155
f 156/156/156 158/158/158 155/155/155
f 161/161/161 160/160/160 159/159/159
f 164/164/164 163/163/163 162/162/162
f 167/167/167 166/166/166 165/165/165
f 170/170/170 169/169/169 168/168/168
f 173/173/173 172/172/172 171/171/171
f 176/176/176 175/175/175 174/174/174
f 179/179/179 178/178/178 177/177/177
f 182/182/182 181/181/181 180/180/180
