g objWEAPON_JUNGLEFORCE_WHITE
v 0.001384273 -0.186512 -0.03742573
v 0.03060443 -0.4810323 -1.796946E-05
v 0.03060443 -0.1865121 -1.793282E-05
v 0.001384273 -0.4810323 -0.03742579
v 0.04916351 -0.5001001 -1.796117E-05
v 0.002229461 -0.5001001 -0.06052691
v 0.001384273 0.1112086 -0.03742568
v 0.03060443 0.1112086 -1.789308E-05
v -0.02783589 -0.4810322 -1.796946E-05
v -0.02783589 -0.1865121 -1.793282E-05
v -0.04470473 -0.5001 -1.796117E-05
v -0.02783589 0.1112086 -1.789308E-05
v 0.001384274 0.1299601 -0.0646922
v 0.03060443 0.1112086 -1.789308E-05
v 0.05154924 0.1299601 -1.78893E-05
v -0.02783589 0.1112086 -1.789308E-05
v -0.04878084 0.1299601 -1.78893E-05
v 0.001384274 0.144438 -0.03353867
v 0.05154924 0.1299601 -1.78893E-05
v 0.02789235 0.144438 -1.789735E-05
v 0.001384274 0.1299601 -0.0646922
v 0.05154924 0.1299601 -1.78893E-05
v -0.04878084 0.1299601 -1.78893E-05
v -0.04878084 0.1299601 -1.78893E-05
v -0.02512377 0.144438 -1.789732E-05
v 0.002229461 -0.5001001 -0.06052691
v 0.03701216 -0.5166386 -1.796507E-05
v 0.04916351 -0.5001001 -1.796117E-05
v 0.002229461 -0.5166387 -0.04394395
v 0.03701216 -0.5166386 -1.796507E-05
v -0.03253803 -0.5166385 -1.796481E-05
v -0.03253803 -0.5166385 -1.796481E-05
v -0.04470473 -0.5001 -1.796117E-05
v 0.07993931 -0.6638983 -0.03228739
v 0.07232704 -0.6283917 -0.02840836
v 0.04735031 -0.6428062 -0.0349763
v 0.04555658 -0.5166387 -0.03497629
v 0.07661801 -0.5535643 -0.02840835
v 0.07993931 -0.6638983 0.03225142
v 0.07232704 -0.6283917 0.0283724
v 0.07661801 -0.5535643 0.02837241
v 0.002229461 -0.5166387 -0.04394395
v 0.005390072 -0.6385652 -0.04109972
v 0.006190312 -0.6420445 -0.01877259
v -0.0368791 -0.6403926 -0.03362256
v 0.01513591 -0.6890883 -0.01200573
v -0.02170055 -0.7103552 -0.01725941
v -0.07931908 -0.6289788 -0.0172594
v -0.07931908 -0.6289788 0.01722346
v -0.08058143 -0.5154954 0.01722346
v -0.08058143 -0.5154954 -0.01725939
v -0.02170055 -0.7103551 0.01722345
v -0.02170055 -0.7103551 0.01722345
v 0.01513591 -0.6890883 0.01196977
v 0.01513591 -0.6890883 0.01196977
v -0.06307036 -0.6086048 -0.03313111
v -0.03357877 -0.6331168 -0.03968368
v -0.0573668 -0.5276868 -0.03439574
v -0.04100546 -0.5166385 -0.03898964
v 0.04735031 -0.6428062 -0.0349763
v 0.006190312 -0.6420445 0.01873663
v 0.04735031 -0.6428061 0.03494034
v 0.07993931 -0.6638983 -0.03228739
v 0.07993931 -0.6638983 0.03225142
v -0.03253803 -0.5166385 -1.796481E-05
v -0.04100546 -0.5166385 -0.03898964
v 0.002229461 -0.5166387 -0.04394395
v -0.0573668 -0.5276868 -0.03439574
v -0.03253803 -0.5166385 -1.796481E-05
v -0.08058143 -0.5154954 -0.01725939
v -0.0573668 -0.5276868 0.0343598
v -0.08058143 -0.5154954 0.01722346
v -0.0573668 -0.5276868 -0.03439574
v -0.04100546 -0.5166385 0.03895371
v 0.04555658 -0.5166387 -0.03497629
v 0.03701216 -0.5166386 -1.796507E-05
v 0.03701216 -0.5166386 -1.796507E-05
v 0.07661801 -0.5535643 -0.02840835
v 0.07661801 -0.5535643 0.02837241
v 0.04555658 -0.5166386 0.03494036
v 0.006190312 -0.6420445 -0.01877259
v 0.01513591 -0.6890883 0.01196977
v 0.006190312 -0.6420445 0.01873663
v 0.001384273 0.1900802 -0.05703364
v 0.001384274 0.2417324 -1.788629E-05
v -0.04311121 0.1900802 -1.789039E-05
v 0.04587964 0.1900802 -1.789039E-05
v -0.04311121 0.1900802 -1.789039E-05
v 0.001384274 0.144438 -0.03353867
v -0.02512377 0.144438 -1.789732E-05
v 0.02789235 0.144438 -1.789735E-05
v 0.04587964 0.1900802 -1.789039E-05
v 0.001384274 -0.1865121 0.03738987
v 0.03060443 -0.4810323 -1.796946E-05
v 0.001384274 -0.4810323 0.03738986
v 0.03060443 -0.1865121 -1.793282E-05
v 0.04916351 -0.5001001 -1.796117E-05
v 0.002229461 -0.5001001 0.06049099
v 0.001384274 0.1112086 0.03738989
v 0.03060443 0.1112086 -1.789308E-05
v -0.02783589 -0.4810322 -1.796946E-05
v -0.02783589 -0.1865121 -1.793282E-05
v -0.04470473 -0.5001 -1.796117E-05
v -0.02783589 0.1112086 -1.789308E-05
v 0.001384274 0.1299601 0.06465644
v 0.03060443 0.1112086 -1.789308E-05
v 0.05154924 0.1299601 -1.78893E-05
v -0.02783589 0.1112086 -1.789308E-05
v -0.04878084 0.1299601 -1.78893E-05
v 0.001384274 0.144438 0.03350287
v 0.05154924 0.1299601 -1.78893E-05
v 0.001384274 0.1299601 0.06465644
v -0.04878084 0.1299601 -1.78893E-05
v 0.02789235 0.144438 -1.789735E-05
v 0.05154924 0.1299601 -1.78893E-05
v -0.04878084 0.1299601 -1.78893E-05
v -0.02512377 0.144438 -1.789732E-05
v 0.002229461 -0.5001001 0.06049099
v 0.03701216 -0.5166386 -1.796507E-05
v 0.002229461 -0.5166386 0.04390802
v -0.03253803 -0.5166385 -1.796481E-05
v 0.04916351 -0.5001001 -1.796117E-05
v 0.03701216 -0.5166386 -1.796507E-05
v -0.03253803 -0.5166385 -1.796481E-05
v -0.04470473 -0.5001 -1.796117E-05
v 0.07993931 -0.6638983 0.03225142
v 0.04735031 -0.6428061 0.03494034
v 0.07232704 -0.6283917 0.0283724
v 0.04555658 -0.5166386 0.03494036
v 0.07661801 -0.5535643 0.02837241
v 0.002229461 -0.5166386 0.04390802
v 0.005390072 -0.6385652 0.04106377
v 0.006190312 -0.6420445 0.01873663
v -0.0368791 -0.6403926 0.0335866
v 0.01513591 -0.6890883 0.01196977
v -0.02170055 -0.7103551 0.01722345
v -0.07931908 -0.6289788 0.01722346
v -0.06307036 -0.6086048 0.03309515
v -0.0573668 -0.5276868 0.0343598
v -0.08058143 -0.5154954 0.01722346
v -0.03357877 -0.6331168 0.03964772
v -0.04100546 -0.5166385 0.03895371
v -0.03253803 -0.5166385 -1.796481E-05
v 0.002229461 -0.5166386 0.04390802
v -0.04100546 -0.5166385 0.03895371
v 0.03701216 -0.5166386 -1.796507E-05
v 0.04555658 -0.5166386 0.03494036
v 0.001384274 0.2417324 -1.788629E-05
v 0.001384274 0.1900802 0.05699787
v -0.04311121 0.1900802 -1.789039E-05
v 0.04587964 0.1900802 -1.789039E-05
v -0.04311121 0.1900802 -1.789039E-05
v 0.001384274 0.144438 0.03350287
v -0.02512377 0.144438 -1.789732E-05
v 0.02789235 0.144438 -1.789735E-05
v 0.04587964 0.1900802 -1.789039E-05
vt 0.4257935 0.8959469
vt 0.08283596 0.8620644
vt 0.4257935 0.8620644
vt 0.08283595 0.8959469
vt 0.05614538 0.837816
vt 0.05614542 0.8959469
vt 0.7724777 0.8959469
vt 0.7724778 0.8620644
vt 0.08283596 0.9298294
vt 0.4257935 0.9298294
vt 0.05614542 0.9540778
vt 0.7724778 0.9298294
vt 0.7943131 0.8959469
vt 0.7724778 0.8620644
vt 0.7943131 0.837816
vt 0.7724778 0.9298294
vt 0.7943131 0.9540777
vt 0.8259819 0.8959478
vt 0.7943131 0.837816
vt 0.8259819 0.8557742
vt 0.7943131 0.8959469
vt 0.7943131 0.837816
vt 0.7943131 0.9540777
vt 0.7943131 0.9540777
vt 0.8259819 0.9361214
vt 0.05614542 0.8959469
vt 0.0250678 0.851387
vt 0.05614538 0.837816
vt 0.02506776 0.8959479
vt 0.0250678 0.851387
vt 0.02506789 0.9404869
vt 0.02506789 0.9404869
vt 0.05614542 0.9540778
vt 0.1050679 0.6062686
vt 0.146408 0.6143882
vt 0.1296294 0.641672
vt 0.2484096 0.6431265
vt 0.20543 0.6094825
vt 0.09918445 0.5792788
vt 0.1430777 0.5904009
vt 0.2000088 0.5851351
vt 0.2483713 0.690185
vt 0.1450076 0.6856049
vt 0.1305331 0.6865017
vt 0.1352838 0.7312285
vt 0.09372827 0.6813408
vt 0.06885928 0.7216336
vt 0.1457674 0.7795867
vt 0.1426951 0.8072398
vt 0.2570093 0.8112783
vt 0.2498399 0.7805467
vt 0.04832162 0.7419279
vt 0.04832162 0.7080819
vt 0.07469465 0.6668952
vt 0.07469465 0.6668952
vt 0.1712937 0.7573773
vt 0.1462748 0.7259067
vt 0.2356028 0.7553092
vt 0.2484165 0.7374332
vt 0.1296248 0.6416759
vt 0.10997 0.6688451
vt 0.1101886 0.6465645
vt 0.1050362 0.6062843
vt 0.08226145 0.6152401
vt 0.2484168 0.7228642
vt 0.2484165 0.7374332
vt 0.2483713 0.690185
vt 0.2356323 0.7553176
vt 0.2627791 0.7351024
vt 0.2498399 0.7805467
vt 0.2696988 0.7649508
vt 0.2768409 0.7888025
vt 0.2356323 0.7553176
vt 0.2784472 0.7521287
vt 0.2484096 0.6431265
vt 0.2484104 0.6578011
vt 0.2620858 0.6460646
vt 0.2054354 0.6094941
vt 0.2238067 0.5898947
vt 0.2781489 0.6283547
vt 0.1305242 0.6865107
vt 0.07469465 0.6668952
vt 0.10997 0.6688451
vt 0.9037212 0.8811567
vt 0.9766477 0.8811567
vt 0.9037212 0.9482335
vt 0.9037212 0.8140802
vt 0.9037212 0.9482335
vt 0.8505725 0.8811566
vt 0.8505725 0.9381037
vt 0.8505725 0.8242096
vt 0.9037212 0.8140802
vt 0.4257935 0.8959469
vt 0.08283596 0.8620644
vt 0.08283595 0.8959469
vt 0.4257935 0.8620644
vt 0.05614538 0.837816
vt 0.05614542 0.8959469
vt 0.7724777 0.8959469
vt 0.7724778 0.8620644
vt 0.08283596 0.9298294
vt 0.4257935 0.9298294
vt 0.05614542 0.9540778
vt 0.7724778 0.9298294
vt 0.7943131 0.8959469
vt 0.7724778 0.8620644
vt 0.7943131 0.837816
vt 0.7724778 0.9298294
vt 0.7943131 0.9540777
vt 0.8259819 0.8959478
vt 0.7943131 0.837816
vt 0.7943131 0.8959469
vt 0.7943131 0.9540777
vt 0.8259819 0.8557742
vt 0.7943131 0.837816
vt 0.7943131 0.9540777
vt 0.8259819 0.9361214
vt 0.05614542 0.8959469
vt 0.0250678 0.851387
vt 0.02506776 0.8959479
vt 0.02506789 0.9404869
vt 0.05614538 0.837816
vt 0.0250678 0.851387
vt 0.02506789 0.9404869
vt 0.05614542 0.9540778
vt 0.1050679 0.6062686
vt 0.1296294 0.641672
vt 0.146408 0.6143882
vt 0.2484096 0.6431265
vt 0.20543 0.6094825
vt 0.2483713 0.690185
vt 0.1450077 0.6856045
vt 0.1305331 0.6865017
vt 0.1352838 0.7312281
vt 0.09372827 0.6813408
vt 0.06885928 0.7216336
vt 0.1457674 0.7795867
vt 0.1712937 0.757377
vt 0.2356028 0.7553092
vt 0.2498042 0.7805392
vt 0.1462749 0.7259066
vt 0.2484165 0.7374332
vt 0.2484168 0.7228642
vt 0.2483713 0.690185
vt 0.2484165 0.7374332
vt 0.2484104 0.6578011
vt 0.2484096 0.6431265
vt 0.9766477 0.8811567
vt 0.9037212 0.8811567
vt 0.9037212 0.9482335
vt 0.9037212 0.8140802
vt 0.9037212 0.9482335
vt 0.8505725 0.8811566
vt 0.8505725 0.9381037
vt 0.8505725 0.8242096
vt 0.9037212 0.8140802
vn 0 1.539362E-07 -1
vn 0.8966086 0.4428238 -2.034264E-07
vn 1 0 0
vn -0.01528936 0.53839 -0.8425571
vn 0.7142319 0.6999092 -2.113576E-07
vn 0.005837978 0.7690983 -0.6391038
vn 6.630277E-07 -0.6004752 -0.7996434
vn 0.8742592 -0.4854594 -2.236196E-07
vn -0.9105439 0.4134125 -2.258469E-07
vn -1 0 0
vn -0.7465132 0.6653706 -1.793908E-07
vn -0.8742585 -0.4854607 -1.171341E-07
vn 4.284936E-07 -0.8223329 -0.5690067
vn 0.8742592 -0.4854594 -2.236196E-07
vn 0.6647339 -0.7470803 -3.671242E-07
vn -0.8742585 -0.4854607 -1.171341E-07
vn -0.6647322 -0.7470817 -2.753437E-07
vn 7.186999E-07 0.904605 -0.426251
vn 0.5166774 0.8561801 3.14844E-07
vn 0.5166774 0.8561801 0
vn 4.398552E-07 0.904605 -0.426251
vn 0.5166774 0.8561801 3.14844E-07
vn -0.5166757 0.8561811 3.305868E-07
vn -0.5166757 0.8561811 3.305868E-07
vn -0.5166757 0.8561811 0
vn 3.687276E-05 -0.6966951 -0.7173674
vn 0.7962958 -0.6049074 0
vn 0.7962958 -0.6049075 3.220319E-07
vn 1.438077E-05 -0.6966951 -0.7173675
vn 0.7962958 -0.6049074 0
vn -0.7961465 -0.6051039 0
vn -0.7961465 -0.6051039 0
vn -0.7961466 -0.6051039 2.928039E-07
vn 0.4825376 -0.6772134 -0.5554633
vn 0.7622135 0.08467373 -0.6417639
vn -0.04157101 -0.6147078 -0.7876588
vn 0.4465764 0.7112852 -0.5428101
vn 0.8024533 0.268638 -0.5328249
vn 0.4825378 -0.6772135 0.5554629
vn 0.7622136 0.0846737 0.6417637
vn 0.8024534 0.2686378 0.5328248
vn 0.04178994 0.4231642 -0.9050888
vn 0.01587906 -0.6231493 -0.7819417
vn 0.348224 -0.8421633 -0.4117049
vn -0.2402117 -0.4284399 -0.8710554
vn 0.8008838 -0.3677609 -0.4725855
vn -0.131506 -0.8264228 -0.5474775
vn -0.8425224 -0.3015344 -0.4463553
vn -0.8425222 -0.3015343 0.4463556
vn -0.5324627 0.766275 0.3595915
vn -0.5324627 0.766275 -0.3595914
vn -0.1315062 -0.8264222 0.5474783
vn -0.1315062 -0.8264222 0.5474783
vn 0.8008835 -0.3677609 0.4725861
vn 0.8008835 -0.3677609 0.4725861
vn -0.457487 -0.09136076 -0.8845105
vn -0.2414656 -0.3141046 -0.9181681
vn -0.4376097 0.5081469 -0.7418116
vn -0.2757732 0.7122616 -0.6454708
vn -0.04157101 -0.6147078 -0.7876588
vn 0.3482245 -0.8421628 0.4117055
vn -0.04156984 -0.6147067 0.7876596
vn 0.4825376 -0.6772134 -0.5554633
vn 0.4825378 -0.6772135 0.5554629
vn -0.2916833 0.9565149 0
vn -0.2757732 0.7122616 -0.6454708
vn 0.04178994 0.4231642 -0.9050888
vn -0.4376097 0.5081469 -0.7418116
vn -0.2916833 0.9565149 0
vn -0.5324627 0.766275 -0.3595914
vn -0.4376098 0.5081469 0.7418115
vn -0.5324627 0.766275 0.3595915
vn -0.4376097 0.5081469 -0.7418116
vn -0.2757735 0.7122612 0.645471
vn 0.4465764 0.7112852 -0.5428101
vn 0.47585 0.8795264 -4.291119E-07
vn 0.47585 0.8795264 -4.291119E-07
vn 0.8024533 0.268638 -0.5328249
vn 0.8024534 0.2686378 0.5328248
vn 0.4465767 0.7112854 0.5428097
vn 0.348224 -0.8421633 -0.4117049
vn 0.8008835 -0.3677609 0.4725861
vn 0.3482245 -0.8421628 0.4117055
vn 3.223734E-07 0.1431809 -0.9896966
vn 5.114669E-07 1 0
vn -0.9902497 0.139304 0
vn 0.9902497 0.1393043 0
vn -0.9902497 0.139304 0
vn 3.259159E-07 -0.4533617 -0.8913266
vn -0.9288283 -0.3705104 0
vn 0.928829 -0.370509 0
vn 0.9902497 0.1393043 0
vn 0 0 1
vn 0.8966086 0.4428238 -2.034264E-07
vn -0.01528926 0.5383905 0.8425568
vn 1 0 0
vn 0.7142319 0.6999092 -2.113576E-07
vn 0.005838063 0.7690989 0.6391031
vn 6.156683E-07 -0.6004758 0.7996429
vn 0.8742592 -0.4854594 -2.236196E-07
vn -0.9105439 0.4134125 -2.258469E-07
vn -1 0 0
vn -0.7465132 0.6653706 -1.793908E-07
vn -0.8742585 -0.4854607 -1.171341E-07
vn 4.713432E-07 -0.8223335 0.5690058
vn 0.8742592 -0.4854594 -2.236196E-07
vn 0.6647339 -0.7470803 -3.671242E-07
vn -0.8742585 -0.4854607 -1.171341E-07
vn -0.6647322 -0.7470817 -2.753437E-07
vn 7.761958E-07 0.9046047 0.4262513
vn 0.5166774 0.8561801 3.14844E-07
vn 4.398553E-07 0.9046047 0.4262513
vn -0.5166757 0.8561811 3.305868E-07
vn 0.5166774 0.8561801 0
vn 0.5166774 0.8561801 3.14844E-07
vn -0.5166757 0.8561811 3.305868E-07
vn -0.5166757 0.8561811 0
vn 3.683139E-05 -0.6966951 0.7173674
vn 0.7962958 -0.6049074 0
vn 1.434331E-05 -0.6966951 0.7173674
vn -0.7961465 -0.6051039 0
vn 0.7962958 -0.6049075 3.220319E-07
vn 0.7962958 -0.6049074 0
vn -0.7961465 -0.6051039 0
vn -0.7961466 -0.6051039 2.928039E-07
vn 0.4825378 -0.6772135 0.5554629
vn -0.04156984 -0.6147067 0.7876596
vn 0.7622136 0.0846737 0.6417637
vn 0.4465767 0.7112854 0.5428097
vn 0.8024534 0.2686378 0.5328248
vn 0.04178974 0.4231643 0.9050888
vn 0.01587971 -0.6231498 0.7819414
vn 0.3482245 -0.8421628 0.4117055
vn -0.2402112 -0.4284388 0.8710561
vn 0.8008835 -0.3677609 0.4725861
vn -0.1315062 -0.8264222 0.5474783
vn -0.8425222 -0.3015343 0.4463556
vn -0.457487 -0.0913608 0.8845105
vn -0.4376098 0.5081469 0.7418115
vn -0.5324627 0.766275 0.3595915
vn -0.2414654 -0.3141022 0.918169
vn -0.2757735 0.7122612 0.645471
vn -0.2916833 0.9565149 0
vn 0.04178974 0.4231643 0.9050888
vn -0.2757735 0.7122612 0.645471
vn 0.47585 0.8795264 -4.291119E-07
vn 0.4465767 0.7112854 0.5428097
vn 5.114669E-07 1 0
vn 3.471714E-07 0.1431808 0.9896966
vn -0.9902497 0.139304 0
vn 0.9902497 0.1393043 0
vn -0.9902497 0.139304 0
vn 3.259158E-07 -0.453362 0.8913265
vn -0.9288283 -0.3705104 0
vn 0.928829 -0.370509 0
vn 0.9902497 0.1393043 0
g objWEAPON_JUNGLEFORCE_WHITE_0
f 3/3/3 2/2/2 1/1/1
f 2/2/2 4/4/4 1/1/1
f 2/2/2 5/5/5 4/4/4
f 5/5/5 6/6/6 4/4/4
f 3/3/3 1/1/1 7/7/7
f 8/8/8 3/3/3 7/7/7
f 1/1/1 4/4/4 9/9/9
f 10/10/10 1/1/1 9/9/9
f 7/7/7 1/1/1 10/10/10
f 9/9/9 4/4/4 11/11/11
f 4/4/4 6/6/6 11/11/11
f 12/12/12 7/7/7 10/10/10
f 14/14/14 7/7/7 13/13/13
f 15/15/15 14/14/14 13/13/13
f 13/13/13 7/7/7 16/16/16
f 17/17/17 13/13/13 16/16/16
f 20/20/20 19/19/19 18/18/18
f 22/22/22 21/21/21 18/18/18
f 18/18/18 21/21/21 23/23/23
f 25/25/25 18/18/18 24/24/24
f 28/28/28 27/27/27 26/26/26
f 30/30/30 29/29/29 26/26/26
f 26/26/26 29/29/29 31/31/31
f 33/33/33 26/26/26 32/32/32
f 36/36/36 35/35/35 34/34/34
f 36/36/36 37/37/37 35/35/35
f 37/37/37 38/38/38 35/35/35
f 39/39/39 34/34/34 35/35/35
f 40/40/40 39/39/39 35/35/35
f 40/40/40 35/35/35 38/38/38
f 41/41/41 40/40/40 38/38/38
f 42/42/42 37/37/37 36/36/36
f 43/43/43 42/42/42 36/36/36
f 44/44/44 43/43/43 36/36/36
f 45/45/45 43/43/43 44/44/44
f 44/44/44 46/46/46 45/45/45
f 46/46/46 47/47/47 45/45/45
f 45/45/45 47/47/47 48/48/48
f 49/49/49 48/48/48 47/47/47
f 49/49/49 50/50/50 48/48/48
f 50/50/50 51/51/51 48/48/48
f 52/52/52 49/49/49 47/47/47
f 53/53/53 47/47/47 46/46/46
f 54/54/54 53/53/53 46/46/46
f 55/55/55 46/46/46 44/44/44
f 56/56/56 48/48/48 51/51/51
f 56/56/56 45/45/45 48/48/48
f 57/57/57 45/45/45 56/56/56
f 45/45/45 57/57/57 43/43/43
f 58/58/58 56/56/56 51/51/51
f 56/56/56 58/58/58 57/57/57
f 57/57/57 59/59/59 43/43/43
f 58/58/58 59/59/59 57/57/57
f 61/61/61 44/44/44 60/60/60
f 62/62/62 61/61/61 36/36/36
f 62/62/62 36/36/36 63/63/63
f 64/64/64 62/62/62 63/63/63
f 59/59/59 42/42/42 43/43/43
f 67/67/67 66/66/66 65/65/65
f 69/69/69 66/66/66 68/68/68
f 71/71/71 68/68/68 70/70/70
f 72/72/72 71/71/71 70/70/70
f 73/73/73 71/71/71 69/69/69
f 71/71/71 74/74/74 69/69/69
f 76/76/76 75/75/75 67/67/67
f 78/78/78 75/75/75 77/77/77
f 79/79/79 38/38/38 77/77/77
f 80/80/80 79/79/79 77/77/77
f 83/83/83 82/82/82 81/81/81
f 86/86/86 85/85/85 84/84/84
f 84/84/84 85/85/85 87/87/87
f 84/84/84 89/89/89 88/88/88
f 89/89/89 90/90/90 88/88/88
f 91/91/91 89/89/89 84/84/84
f 92/92/92 91/91/91 84/84/84
f 95/95/95 94/94/94 93/93/93
f 94/94/94 96/96/96 93/93/93
f 97/97/97 94/94/94 95/95/95
f 98/98/98 97/97/97 95/95/95
f 93/93/93 96/96/96 99/99/99
f 96/96/96 100/100/100 99/99/99
f 95/95/95 93/93/93 101/101/101
f 93/93/93 102/102/102 101/101/101
f 93/93/93 99/99/99 102/102/102
f 98/98/98 95/95/95 103/103/103
f 95/95/95 101/101/101 103/103/103
f 99/99/99 104/104/104 102/102/102
f 99/99/99 106/106/106 105/105/105
f 106/106/106 107/107/107 105/105/105
f 99/99/99 105/105/105 108/108/108
f 105/105/105 109/109/109 108/108/108
f 112/112/112 111/111/111 110/110/110
f 112/112/112 110/110/110 113/113/113
f 115/115/115 114/114/114 110/110/110
f 110/110/110 117/117/117 116/116/116
f 120/120/120 119/119/119 118/118/118
f 120/120/120 118/118/118 121/121/121
f 123/123/123 122/122/122 118/118/118
f 118/118/118 125/125/125 124/124/124
f 128/128/128 127/127/127 126/126/126
f 129/129/129 127/127/127 128/128/128
f 130/130/130 129/129/129 128/128/128
f 129/129/129 131/131/131 127/127/127
f 131/131/131 132/132/132 127/127/127
f 132/132/132 133/133/133 127/127/127
f 132/132/132 134/134/134 133/133/133
f 135/135/135 133/133/133 134/134/134
f 136/136/136 135/135/135 134/134/134
f 136/136/136 134/134/134 137/137/137
f 134/134/134 138/138/138 137/137/137
f 137/137/137 138/138/138 139/139/139
f 140/140/140 137/137/137 139/139/139
f 134/134/134 141/141/141 138/138/138
f 141/141/141 134/134/134 132/132/132
f 139/139/139 138/138/138 141/141/141
f 131/131/131 142/142/142 132/132/132
f 142/142/142 141/141/141 132/132/132
f 142/142/142 139/139/139 141/141/141
f 145/145/145 144/144/144 143/143/143
f 147/147/147 146/146/146 144/144/144
f 150/150/150 149/149/149 148/148/148
f 149/149/149 151/151/151 148/148/148
f 153/153/153 149/149/149 152/152/152
f 154/154/154 153/153/153 152/152/152
f 153/153/153 155/155/155 149/149/149
f 155/155/155 156/156/156 149/149/149
