g objWEAPON_JUNGLEFORCE_BLACK_00
v -0.1346612 0.5859525 -0.01275653
v -6.698842E-06 -0.2045573 -0.111094
v 8.160425E-07 0.5857828 -0.1110359
v -0.1339647 -0.2046649 -0.01255719
v -0.09556949 -0.6233371 -0.07999472
v -1.068143E-05 -0.6233204 -0.1109377
v -7.586927E-06 -0.2047627 0.09311211
v -6.437001E-08 0.5860769 0.09249689
v -0.0955412 -0.6234145 0.05844181
v -0.1370307 -0.5786902 -0.01201047
v -1.156374E-05 -0.6234186 0.09217232
v -0.09461954 -0.8848765 0.1520344
v -0.2604487 -0.7589688 0.035282
v -0.4160636 -0.9841173 0.04363589
v -0.2676665 -1.433813 0.04423607
v -0.5677173 -0.8041931 0.04447119
v -1.010491 -1.404566 0.04447167
v -0.338553 -1.72109 0.04447584
v -0.9016863 -2.2808 0.04447564
v -0.7200091 -0.4075322 0.01886893
v -0.8660538 -0.2045675 -0.0105325
v -1.171185 -1.404565 -0.01052903
v -1.01049 -1.404566 -0.06552833
v -0.7200089 -0.4075324 -0.03993103
v -0.5677167 -0.8041936 -0.0655288
v -0.2716444 -1.440289 -0.06550109
v -0.3385525 -1.721091 -0.06552415
v -0.9016858 -2.2808 -0.06552435
v -0.4162005 -0.9840214 -0.06544376
v -0.09472017 -0.8847573 -0.1575094
v -0.2605477 -0.7581146 -0.06460863
v -1.028804 -2.370483 -0.01052455
v -0.7200342 -3.045146 -0.01052051
v -0.5949367 -2.987499 -0.0655202
v -0.3643258 -3.5842 -0.01051682
v -0.2412016 -3.52644 -0.04078547
v -1.869541E-05 -1.445333 -0.06538298
v -1.286663E-05 -0.884775 -0.1802794
v -0.2772163 -0.6360106 -0.06510135
v -1.068143E-05 -0.6233204 -0.1109377
v -0.0998714 -2.061979 -0.06552177
v -0.08971389 -3.455373 -0.06551614
v -0.5949371 -2.987498 0.0444798
v -0.2412018 -3.526439 0.01975243
v -0.09987187 -2.061978 0.04447822
v -0.08971436 -3.455373 0.04448386
v -0.1370307 -0.5786902 -0.01201047
v -0.1339647 -0.2046649 -0.01255719
v 2.345623E-06 0.7252972 -0.1578111
v -0.2240285 0.725319 -0.01225026
v -0.2239988 0.858623 -0.01210224
v 3.613798E-06 0.8586369 -0.1578763
v 1.055418E-06 0.7253494 0.1396273
v 2.32002E-06 0.858638 0.1402736
v 0.2240047 0.8586187 -0.01210029
v 0.2240319 0.7253148 -0.01224831
v 0.134662 0.58595 -0.01275536
v 0.1339505 -0.2046675 -0.01255602
v 0.09554786 -0.6233389 -0.07999389
v 0.09551837 -0.6234163 0.05844264
v 0.1370094 -0.5786929 -0.01200928
v -1.156374E-05 -0.6234186 0.09217232
v 0.09459093 -0.8848784 0.1520353
v 0.2604235 -0.7589738 0.03528425
v 0.416034 -0.9841253 0.0436395
v 0.2676284 -1.433818 0.04423839
v 0.5676911 -0.8042039 0.04447612
v 1.010453 -1.404585 0.04448044
v 0.3385094 -1.721097 0.04447878
v 0.9016321 -2.280817 0.04448347
v 0.7199908 -0.4075458 0.01887517
v 0.8660394 -0.204584 -0.01052498
v 1.171148 -1.404587 -0.01051886
v 1.010454 -1.404585 -0.06551956
v 0.719991 -0.4075461 -0.03992477
v 0.5676916 -0.8042043 -0.06552388
v 0.2716071 -1.440294 -0.06549872
v 0.3385099 -1.721097 -0.06552122
v 0.9016325 -2.280818 -0.06551652
v 0.4161719 -0.9840293 -0.06544016
v 0.09469423 -0.8847591 -0.1575086
v 0.2605234 -0.7581196 -0.06460636
v 1.028749 -2.370502 -0.01051562
v 0.7199658 -3.04516 -0.01051426
v 0.59487 -2.98751 -0.06551504
v 0.3642473 -3.584207 -0.01051366
v 0.2411244 -3.526444 -0.04078337
v -1.869541E-05 -1.445333 -0.06538298
v -1.286663E-05 -0.884775 -0.1802794
v -1.068143E-05 -0.6233204 -0.1109377
v 0.2771942 -0.6360159 -0.06509894
v -1.068143E-05 -0.6233204 -0.1109377
v -6.698842E-06 -0.2045573 -0.111094
v 0.09982228 -2.061981 -0.06552091
v 0.08963828 -3.455375 -0.06551536
v 0.5948695 -2.987509 0.04448496
v 0.2411242 -3.526444 0.01975452
v 0.09982181 -2.06198 0.04447909
v 0.0896378 -3.455374 0.04448464
v 0.1370094 -0.5786929 -0.01200928
v 0.1339505 -0.2046675 -0.01255602
v 8.160425E-07 0.5857828 -0.1110359
v 2.345623E-06 0.7252972 -0.1578111
v -1.156374E-05 -0.6234186 0.09217232
v -1.440315E-05 -0.8848308 0.1736835
v -1.899112E-05 -1.426939 0.04306812
v -0.2765391 -0.6365514 0.04020305
v -0.7200089 -0.4075324 -0.03993103
v -0.7200091 -0.4075322 0.01886893
v -0.8660538 -0.2045675 -0.0105325
v -0.5677167 -0.8041936 -0.0655288
v -0.5677173 -0.8041931 0.04447119
v -0.4162005 -0.9840214 -0.06544376
v -0.4160636 -0.9841173 0.04363589
v -0.3643258 -3.5842 -0.01051682
v -0.2412018 -3.526439 0.01975243
v -0.2412016 -3.52644 -0.04078547
v -0.08971436 -3.455373 0.04448386
v -0.08971389 -3.455373 -0.06551614
v -0.2605477 -0.7581146 -0.06460863
v -0.4160636 -0.9841173 0.04363589
v -0.4162005 -0.9840214 -0.06544376
v -0.2604487 -0.7589688 0.035282
v -0.2772163 -0.6360106 -0.06510135
v -0.2765391 -0.6365514 0.04020305
v -0.3385525 -1.721091 -0.06552415
v -0.2676665 -1.433813 0.04423607
v -0.2716444 -1.440289 -0.06550109
v -0.338553 -1.72109 0.04447584
v -0.2716444 -1.440289 -0.06550109
v -1.899112E-05 -1.426939 0.04306812
v -1.869541E-05 -1.445333 -0.06538298
v -0.2676665 -1.433813 0.04423607
v 0.2716071 -1.440294 -0.06549872
v 0.2676284 -1.433818 0.04423839
v -0.1370307 -0.5786902 -0.01201047
v -0.2765391 -0.6365514 0.04020305
v -0.2772163 -0.6360106 -0.06510135
v 3.613798E-06 0.8586369 -0.1578763
v 2.32002E-06 0.858638 0.1402736
v -0.2239988 0.858623 -0.01210224
v -0.0998714 -2.061979 -0.06552177
v -0.338553 -1.72109 0.04447584
v -0.3385525 -1.721091 -0.06552415
v -0.09987187 -2.061978 0.04447822
v -0.08971389 -3.455373 -0.06551614
v -0.09987187 -2.061978 0.04447822
v -0.0998714 -2.061979 -0.06552177
v -0.08971436 -3.455373 0.04448386
v 2.345623E-06 0.7252972 -0.1578111
v 8.160425E-07 0.5857828 -0.1110359
v -1.156374E-05 -0.6234186 0.09217232
v -1.440315E-05 -0.8848308 0.1736835
v -1.899112E-05 -1.426939 0.04306812
v 0.2765162 -0.6365566 0.04020545
v 0.719991 -0.4075461 -0.03992477
v 0.8660394 -0.204584 -0.01052498
v 0.7199908 -0.4075458 0.01887517
v 0.5676916 -0.8042043 -0.06552388
v 0.5676911 -0.8042039 0.04447612
v 0.4161719 -0.9840293 -0.06544016
v 0.416034 -0.9841253 0.0436395
v 0.3642473 -3.584207 -0.01051366
v 0.2411244 -3.526444 -0.04078337
v 0.2411242 -3.526444 0.01975452
v 0.0896378 -3.455374 0.04448464
v 0.08963828 -3.455375 -0.06551536
v 0.2605234 -0.7581196 -0.06460636
v 0.416034 -0.9841253 0.0436395
v 0.2604235 -0.7589738 0.03528425
v 0.4161719 -0.9840293 -0.06544016
v 0.2771942 -0.6360159 -0.06509894
v 0.2765162 -0.6365566 0.04020545
v 0.3385099 -1.721097 -0.06552122
v 0.2676284 -1.433818 0.04423839
v 0.3385094 -1.721097 0.04447878
v 0.2716071 -1.440294 -0.06549872
v 0.1370094 -0.5786929 -0.01200928
v 0.2771942 -0.6360159 -0.06509894
v 0.2765162 -0.6365566 0.04020545
v 3.613798E-06 0.8586369 -0.1578763
v 0.2240047 0.8586187 -0.01210029
v 2.32002E-06 0.858638 0.1402736
v 0.09982228 -2.061981 -0.06552091
v 0.3385094 -1.721097 0.04447878
v 0.09982181 -2.06198 0.04447909
v 0.3385099 -1.721097 -0.06552122
v 0.08963828 -3.455375 -0.06551536
v 0.09982181 -2.06198 0.04447909
v 0.0896378 -3.455374 0.04448464
v 0.09982228 -2.061981 -0.06552091
vt 0.1388911 0.1324844
vt 0.3436531 0.2454586
vt 0.1665315 0.09693776
vt 0.3119824 0.2773546
vt 0.4008178 0.3561863
vt 0.4259888 0.3363504
vt 0.3436531 0.2454586
vt 0.1665315 0.09693776
vt 0.4008178 0.3561863
vt 0.3832669 0.3547297
vt 0.4259888 0.3363504
vt 0.4468449 0.4201095
vt 0.3772481 0.422669
vt 0.3848148 0.5085779
vt 0.5029088 0.5778109
vt 0.3139828 0.5087147
vt 0.3494603 0.7264243
vt 0.5438181 0.6385505
vt 0.5677602 0.8684098
vt 0.1987275 0.4630185
vt 0.126379 0.4534861
vt 0.3186186 0.7620955
vt 0.3494603 0.7264243
vt 0.1987275 0.4630185
vt 0.3139828 0.5087147
vt 0.5029088 0.5778109
vt 0.5438181 0.6385505
vt 0.5677602 0.8684098
vt 0.3848148 0.5085779
vt 0.4468449 0.4201095
vt 0.3772481 0.422669
vt 0.5645323 0.9134108
vt 0.7786697 0.9602314
vt 0.7874335 0.9211197
vt 0.9678712 0.9692543
vt 0.97596 0.9307804
vt 0.5685788 0.5361918
vt 0.4730642 0.401107
vt 0.3592094 0.3890075
vt 0.4259888 0.3363504
vt 0.6596264 0.642817
vt 0.9862425 0.8834078
vt 0.7874335 0.9211197
vt 0.97596 0.9307804
vt 0.6596264 0.642817
vt 0.9862425 0.8834078
vt 0.3832669 0.3547297
vt 0.3119824 0.2773546
vt 0.1169456 0.05651474
vt 0.05636083 0.1399592
vt 0.01363879 0.1093604
vt 0.07389615 0.0256747
vt 0.1169456 0.05651474
vt 0.07389615 0.0256747
vt 0.01363879 0.1093604
vt 0.05636083 0.1399592
vt 0.1388911 0.1324844
vt 0.3119824 0.2773546
vt 0.4008178 0.3561863
vt 0.4008178 0.3561863
vt 0.3832669 0.3547297
vt 0.4259888 0.3363504
vt 0.4468449 0.4201095
vt 0.3772481 0.422669
vt 0.3848148 0.5085779
vt 0.5029088 0.5778109
vt 0.3139828 0.5087147
vt 0.3494603 0.7264243
vt 0.5438181 0.6385505
vt 0.5677602 0.8684098
vt 0.1987275 0.4630185
vt 0.126379 0.4534861
vt 0.3186186 0.7620955
vt 0.3494603 0.7264243
vt 0.1987275 0.4630185
vt 0.3139828 0.5087147
vt 0.5029088 0.5778109
vt 0.5438181 0.6385505
vt 0.5677602 0.8684098
vt 0.3848148 0.5085779
vt 0.4468449 0.4201095
vt 0.3772481 0.422669
vt 0.5645323 0.9134108
vt 0.7786697 0.9602314
vt 0.7874335 0.9211197
vt 0.9678712 0.9692543
vt 0.97596 0.9307804
vt 0.5685788 0.5361918
vt 0.4730642 0.401107
vt 0.4259888 0.3363504
vt 0.3592094 0.3890075
vt 0.4259888 0.3363504
vt 0.3436531 0.2454586
vt 0.6596264 0.642817
vt 0.9862425 0.8834078
vt 0.7874335 0.9211197
vt 0.97596 0.9307804
vt 0.6596264 0.642817
vt 0.9862425 0.8834078
vt 0.3832669 0.3547297
vt 0.3119824 0.2773546
vt 0.1665315 0.09693776
vt 0.1169456 0.05651474
vt 0.4259888 0.3363504
vt 0.4730642 0.401107
vt 0.5685788 0.5361918
vt 0.3592094 0.3890075
vt 0.4773431 0.03640479
vt 0.4771422 0.05705374
vt 0.5650438 0.04845601
vt 0.3280189 0.02738523
vt 0.3280189 0.06601781
vt 0.2454333 0.02740502
vt 0.2453763 0.06571442
vt 0.9262292 0.5314965
vt 0.9348654 0.4926944
vt 0.9175931 0.4926944
vt 0.9419215 0.4449536
vt 0.9105371 0.4449536
vt 0.3772481 0.422669
vt 0.3848148 0.5085779
vt 0.3848148 0.5085779
vt 0.3772481 0.422669
vt 0.3592094 0.3890075
vt 0.3592094 0.3890075
vt 0.5438181 0.6385505
vt 0.5029088 0.5778109
vt 0.5029088 0.5778109
vt 0.5438181 0.6385505
vt 0.5029088 0.5778109
vt 0.5685788 0.5361918
vt 0.5685788 0.5361918
vt 0.5029088 0.5778109
vt 0.5029088 0.5778109
vt 0.5029088 0.5778109
vt 0.3832669 0.3547297
vt 0.3592094 0.3890075
vt 0.3592094 0.3890075
vt 0.6208701 0.03868386
vt 0.6391039 0.1337932
vt 0.724084 0.06851131
vt 0.6596264 0.642817
vt 0.5438181 0.6385505
vt 0.5438181 0.6385505
vt 0.6596264 0.642817
vt 0.9105371 0.4449536
vt 0.941922 0.04739082
vt 0.9105376 0.04739076
vt 0.9419215 0.4449536
vt 0.1169456 0.05651474
vt 0.1665315 0.09693776
vt 0.4259888 0.3363504
vt 0.4730642 0.401107
vt 0.5685788 0.5361918
vt 0.3592094 0.3890075
vt 0.4773431 0.03640479
vt 0.5650438 0.04845601
vt 0.4771422 0.05705374
vt 0.3280189 0.02738523
vt 0.3280189 0.06601781
vt 0.2454333 0.02740502
vt 0.2453763 0.06571442
vt 0.9262292 0.5314965
vt 0.9175931 0.4926944
vt 0.9348654 0.4926944
vt 0.9419215 0.4449536
vt 0.9105371 0.4449536
vt 0.3772481 0.422669
vt 0.3848148 0.5085779
vt 0.3772481 0.422669
vt 0.3848148 0.5085779
vt 0.3592094 0.3890075
vt 0.3592094 0.3890075
vt 0.5438181 0.6385505
vt 0.5029088 0.5778109
vt 0.5438181 0.6385505
vt 0.5029088 0.5778109
vt 0.3832669 0.3547297
vt 0.3592094 0.3890075
vt 0.3592094 0.3890075
vt 0.6208701 0.03868386
vt 0.724084 0.06851131
vt 0.6391039 0.1337932
vt 0.6596264 0.642817
vt 0.5438181 0.6385505
vt 0.6596264 0.642817
vt 0.5438181 0.6385505
vt 0.9105371 0.4449536
vt 0.941922 0.04739082
vt 0.9419215 0.4449536
vt 0.9105376 0.04739076
vn -0.9572721 -0.2886548 -0.01756675
vn 4.593012E-06 0.02804127 -0.9996068
vn 2.406082E-06 -0.1967181 -0.9804601
vn -0.9991695 0.03717647 -0.01668303
vn -0.3976343 0.2612793 -0.8795568
vn 5.863891E-06 0.1713338 -0.985213
vn -4.049223E-06 0.02910612 0.9995763
vn -6.227888E-06 -0.2060421 0.9785432
vn -0.4251868 0.2772374 0.8616006
vn -0.8403093 0.5420052 -0.01052079
vn -2.350525E-06 0.1999468 0.9798068
vn -0.2270239 0.05194973 0.9725026
vn -0.3095302 0.1269775 0.9423735
vn -0.145607 0.007358314 0.9893152
vn -0.06148619 -0.05536617 0.9965712
vn -0.03487649 0.02616158 0.9990491
vn -0.1622869 0.01076719 0.9866849
vn 5.950955E-05 0.0001394914 1
vn -0.1856519 -0.04765137 0.9814595
vn -0.1842287 0.06480135 0.9807448
vn -0.9517356 0.3069189 -5.355993E-06
vn -0.9993748 0.03535721 -4.402207E-06
vn -0.162471 0.01068521 -0.9866555
vn -0.1842202 0.06479351 -0.980747
vn -0.03530303 0.02607892 -0.9990363
vn -0.05711062 -0.04852401 -0.9971879
vn 1.074274E-05 9.644617E-06 -1
vn -0.1856558 -0.04768679 -0.981457
vn -0.1252525 0.002616965 -0.9921215
vn -0.2061187 0.04361465 -0.9775544
vn -0.2539087 0.1110059 -0.9608371
vn -0.952572 -0.3043132 -2.798831E-06
vn -0.8693337 -0.4942255 -1.737413E-06
vn -0.1548952 -0.09224518 -0.9836149
vn -0.800719 -0.5990402 -1.081569E-06
vn -0.1202046 -0.0925433 -0.9884263
vn 2.633371E-06 -0.1725697 -0.9849974
vn 4.764165E-06 0.04513681 -0.9989808
vn -0.2138611 0.3597114 -0.9082242
vn 5.863891E-06 0.1713338 -0.985213
vn -0.00281468 -0.003048018 -0.9999914
vn -0.01434853 -0.01550257 -0.9997769
vn -0.1549037 -0.09223733 0.9836143
vn -0.1202132 -0.09253539 0.9884261
vn -0.0028233 -0.00304002 0.9999914
vn -0.01435718 -0.01549456 0.9997769
vn -0.8403093 0.5420052 -0.01052079
vn -0.9991695 0.03717647 -0.01668303
vn 2.627576E-06 -0.1719515 -0.9851054
vn -0.974314 -0.2250119 -0.009047065
vn -0.999954 -0.001876037 -0.009412943
vn 4.343007E-06 0.0003800266 -1
vn -6.015509E-06 -0.1798168 0.9837001
vn -4.367016E-06 -0.002906881 0.9999958
vn 0.999954 -0.001895054 -0.009404333
vn 0.9743099 -0.2250304 -0.009038609
vn 0.9572667 -0.288673 -0.01755844
vn 0.9991703 0.03715748 -0.01667433
vn 0.3976468 0.2612717 -0.8795534
vn 0.4251846 0.2772293 0.8616043
vn 0.8403196 0.5419893 -0.01051349
vn -2.350525E-06 0.1999468 0.9798068
vn 0.2270166 0.05194542 0.9725046
vn 0.3095245 0.1269716 0.9423762
vn 0.1455986 0.007355546 0.9893165
vn 0.06147649 -0.05536733 0.9965717
vn 0.03486832 0.02616092 0.9990495
vn 0.1622785 0.01076411 0.9866862
vn -6.818569E-05 0.0001394926 1
vn 0.1856425 -0.0476549 0.9814611
vn 0.1842214 0.06479785 0.9807464
vn 0.9517415 0.3069009 2.903942E-06
vn 0.9993754 0.03533819 4.271157E-06
vn 0.1624798 0.01068212 -0.9866541
vn 0.1842299 0.06479001 -0.9807454
vn 0.03531219 0.02607824 -0.9990361
vn 0.05711835 -0.0485251 -0.9971874
vn -2.063768E-06 9.644739E-06 -1
vn 0.1856634 -0.04769032 -0.9814554
vn 0.1252612 0.002614581 -0.9921204
vn 0.2061281 0.04361074 -0.9775528
vn 0.2539191 0.1110011 -0.960835
vn 0.9525663 -0.3043314 5.349261E-06
vn 0.8693244 -0.494242 5.686085E-06
vn 0.154902 -0.09224815 -0.9836136
vn 0.8007075 -0.5990554 5.867651E-06
vn 0.1202115 -0.09254558 -0.9884253
vn 2.633371E-06 -0.1725697 -0.9849974
vn 4.764165E-06 0.04513681 -0.9989808
vn 5.863891E-06 0.1713338 -0.985213
vn 0.2138758 0.3597074 -0.9082223
vn 5.863891E-06 0.1713338 -0.985213
vn 4.593012E-06 0.02804127 -0.9996068
vn 0.002823301 -0.003048071 -0.9999914
vn 0.01435691 -0.01550285 -0.9997768
vn 0.1548934 -0.09224028 0.9836157
vn 0.1202028 -0.09253766 0.988427
vn 0.002814564 -0.003040074 0.9999914
vn 0.01434821 -0.01549483 0.999777
vn 0.8403196 0.5419893 -0.01051349
vn 0.9991703 0.03715748 -0.01667433
vn 2.406082E-06 -0.1967181 -0.9804601
vn 2.627576E-06 -0.1719515 -0.9851054
vn -2.350525E-06 0.1999468 0.9798068
vn -3.841659E-06 0.05173389 0.9986609
vn -6.202492E-06 -0.205694 0.9786164
vn -0.2638896 0.3795018 0.8867585
vn 0.8833996 0.4686205 1.961348E-06
vn 0.8833996 0.4686205 1.961348E-06
vn 0.8117048 0.5840679 1.189052E-06
vn 0.8594077 0.5112909 -9.958985E-05
vn 0.8594955 0.5111434 -9.948767E-05
vn 0.7646797 0.6444104 -0.0001951936
vn 0.7646797 0.6444105 -0.0001951936
vn 0.4247108 -0.905329 5.459563E-06
vn 0.4247113 -0.9053289 5.459565E-06
vn 0.4247113 -0.9053289 5.459566E-06
vn 0.4247117 -0.9053287 5.459567E-06
vn 0.4247117 -0.9053287 5.459567E-06
vn -0.9728653 0.2313469 0.003406098
vn -0.823014 0.5680103 0.003511946
vn -0.823014 0.5680103 0.003511946
vn -0.9722467 0.2339332 0.003408561
vn -0.991134 -0.1328355 0.002845953
vn -0.991134 -0.1328355 0.002845953
vn 0.9717633 -0.2357174 -0.01064302
vn 0.9717633 -0.2357175 -0.01064302
vn 0.9717633 -0.2357175 -0.01064302
vn 0.9717633 -0.2357174 -0.01064302
vn 0.003591999 -0.9935674 0.1131857
vn -9.938496E-06 -0.9935737 0.1131865
vn -9.938497E-06 -0.9935737 0.1131864
vn 0.003591999 -0.9935674 0.1131857
vn -0.003611876 -0.9935673 0.1131857
vn -0.003611876 -0.9935673 0.1131857
vn -0.3807975 0.9246305 0.007196615
vn -0.3807975 0.9246305 0.007196615
vn -0.3807974 0.9246305 0.007196615
vn 9.508755E-06 1 -3.994742E-06
vn 9.508755E-06 1 -3.994742E-06
vn -6.405985E-05 1 -3.995061E-06
vn 0.9526179 0.3041693 2.918658E-06
vn 0.8191649 0.573558 1.263407E-06
vn 0.8191649 0.5735581 1.263407E-06
vn 0.9526179 0.3041693 2.918657E-06
vn 0.9999734 0.007289562 4.310119E-06
vn 0.9526179 0.3041693 2.918657E-06
vn 0.9526179 0.3041693 2.918658E-06
vn 0.9999734 0.007289562 4.310119E-06
vn 2.627576E-06 -0.1719515 -0.9851054
vn 2.406082E-06 -0.1967181 -0.9804601
vn -2.350525E-06 0.1999468 0.9798068
vn -3.841659E-06 0.05173389 0.9986609
vn -6.202492E-06 -0.205694 0.9786164
vn 0.2638891 0.3794968 0.8867609
vn -0.8833907 0.4686373 -5.705451E-06
vn -0.8116937 0.5840833 -5.855513E-06
vn -0.8833907 0.4686373 -5.705451E-06
vn -0.859398 0.5113072 -0.0001070561
vn -0.8594858 0.5111598 -0.0001069547
vn -0.7646675 0.6444251 -0.0002018449
vn -0.7646673 0.6444251 -0.0002018449
vn -0.424728 -0.9053211 1.773515E-06
vn -0.4247285 -0.9053208 1.773512E-06
vn -0.4247285 -0.9053208 1.773512E-06
vn -0.4247289 -0.9053206 1.773509E-06
vn -0.4247289 -0.9053206 1.773509E-06
vn 0.9728697 0.2313284 0.003414542
vn 0.8230247 0.5679945 0.003519089
vn 0.9722511 0.2339148 0.003417
vn 0.8230247 0.5679946 0.003519089
vn 0.9911315 -0.1328544 0.002854555
vn 0.9911315 -0.1328544 0.002854555
vn -0.9717677 -0.235699 -0.01065146
vn -0.9717677 -0.235699 -0.01065145
vn -0.9717677 -0.235699 -0.01065146
vn -0.9717677 -0.235699 -0.01065146
vn 0.3808149 0.9246232 0.007199919
vn 0.3808149 0.9246232 0.007199919
vn 0.3808149 0.9246232 0.007199919
vn 9.508755E-06 1 -3.994742E-06
vn 8.307736E-05 1 -3.994423E-06
vn 9.508755E-06 1 -3.994742E-06
vn -0.9526122 0.3041874 -5.348886E-06
vn -0.819154 0.5735736 -5.845903E-06
vn -0.9526122 0.3041874 -5.348886E-06
vn -0.819154 0.5735736 -5.845903E-06
vn -0.9999733 0.007308579 -4.368435E-06
vn -0.9526122 0.3041874 -5.348886E-06
vn -0.9999733 0.007308579 -4.368435E-06
vn -0.9526122 0.3041874 -5.348886E-06
g objWEAPON_JUNGLEFORCE_BLACK_00_0
f 3/3/3 2/2/2 1/1/1
f 2/2/2 4/4/4 1/1/1
f 5/5/5 4/4/4 2/2/2
f 6/6/6 5/5/5 2/2/2
f 1/1/1 4/4/4 7/7/7
f 8/8/8 1/1/1 7/7/7
f 7/7/7 4/4/4 9/9/9
f 9/9/9 4/4/4 10/10/10
f 11/11/11 7/7/7 9/9/9
f 9/9/9 12/12/12 11/11/11
f 13/13/13 12/12/12 9/9/9
f 12/12/12 13/13/13 14/14/14
f 15/15/15 12/12/12 14/14/14
f 15/15/15 14/14/14 16/16/16
f 17/17/17 15/15/15 16/16/16
f 18/18/18 15/15/15 17/17/17
f 19/19/19 18/18/18 17/17/17
f 20/20/20 17/17/17 16/16/16
f 20/20/20 21/21/21 17/17/17
f 21/21/21 22/22/22 17/17/17
f 17/17/17 22/22/22 19/19/19
f 23/23/23 22/22/22 21/21/21
f 24/24/24 23/23/23 21/21/21
f 24/24/24 25/25/25 23/23/23
f 23/23/23 25/25/25 26/26/26
f 23/23/23 26/26/26 27/27/27
f 28/28/28 23/23/23 27/27/27
f 23/23/23 28/28/28 22/22/22
f 25/25/25 29/29/29 26/26/26
f 26/26/26 29/29/29 30/30/30
f 29/29/29 31/31/31 30/30/30
f 28/28/28 32/32/32 22/22/22
f 22/22/22 32/32/32 19/19/19
f 33/33/33 32/32/32 28/28/28
f 19/19/19 32/32/32 33/33/33
f 34/34/34 33/33/33 28/28/28
f 33/33/33 34/34/34 35/35/35
f 34/34/34 36/36/36 35/35/35
f 37/37/37 26/26/26 30/30/30
f 38/38/38 37/37/37 30/30/30
f 6/6/6 38/38/38 30/30/30
f 30/30/30 31/31/31 39/39/39
f 5/5/5 30/30/30 39/39/39
f 5/5/5 40/40/40 30/30/30
f 34/34/34 28/28/28 41/41/41
f 28/28/28 27/27/27 41/41/41
f 36/36/36 34/34/34 42/42/42
f 34/34/34 41/41/41 42/42/42
f 33/33/33 35/35/35 43/43/43
f 43/43/43 19/19/19 33/33/33
f 35/35/35 44/44/44 43/43/43
f 43/43/43 45/45/45 19/19/19
f 45/45/45 18/18/18 19/19/19
f 44/44/44 46/46/46 43/43/43
f 46/46/46 45/45/45 43/43/43
f 47/47/47 5/5/5 39/39/39
f 5/5/5 47/47/47 48/48/48
f 50/50/50 49/49/49 1/1/1
f 49/49/49 50/50/50 51/51/51
f 52/52/52 49/49/49 51/51/51
f 50/50/50 1/1/1 53/53/53
f 51/51/51 50/50/50 53/53/53
f 1/1/1 8/8/8 53/53/53
f 54/54/54 51/51/51 53/53/53
f 49/49/49 52/52/52 55/55/55
f 55/55/55 54/54/54 53/53/53
f 56/56/56 49/49/49 55/55/55
f 56/56/56 55/55/55 53/53/53
f 49/49/49 56/56/56 57/57/57
f 8/8/8 57/57/57 53/53/53
f 57/57/57 56/56/56 53/53/53
f 57/57/57 8/8/8 7/7/7
f 58/58/58 57/57/57 7/7/7
f 58/58/58 2/2/2 57/57/57
f 2/2/2 3/3/3 57/57/57
f 58/58/58 59/59/59 2/2/2
f 58/58/58 7/7/7 60/60/60
f 58/58/58 60/60/60 61/61/61
f 7/7/7 62/62/62 60/60/60
f 63/63/63 60/60/60 62/62/62
f 63/63/63 64/64/64 60/60/60
f 64/64/64 63/63/63 65/65/65
f 63/63/63 66/66/66 65/65/65
f 65/65/65 66/66/66 67/67/67
f 66/66/66 68/68/68 67/67/67
f 66/66/66 69/69/69 68/68/68
f 69/69/69 70/70/70 68/68/68
f 68/68/68 71/71/71 67/67/67
f 72/72/72 71/71/71 68/68/68
f 73/73/73 72/72/72 68/68/68
f 73/73/73 68/68/68 70/70/70
f 73/73/73 74/74/74 72/72/72
f 74/74/74 75/75/75 72/72/72
f 76/76/76 75/75/75 74/74/74
f 76/76/76 74/74/74 77/77/77
f 77/77/77 74/74/74 78/78/78
f 74/74/74 79/79/79 78/78/78
f 79/79/79 74/74/74 73/73/73
f 80/80/80 76/76/76 77/77/77
f 80/80/80 77/77/77 81/81/81
f 82/82/82 80/80/80 81/81/81
f 83/83/83 79/79/79 73/73/73
f 83/83/83 73/73/73 70/70/70
f 83/83/83 84/84/84 79/79/79
f 83/83/83 70/70/70 84/84/84
f 84/84/84 85/85/85 79/79/79
f 85/85/85 84/84/84 86/86/86
f 87/87/87 85/85/85 86/86/86
f 77/77/77 88/88/88 81/81/81
f 88/88/88 89/89/89 81/81/81
f 89/89/89 90/90/90 81/81/81
f 82/82/82 81/81/81 91/91/91
f 81/81/81 59/59/59 91/91/91
f 92/92/92 59/59/59 81/81/81
f 59/59/59 90/90/90 93/93/93
f 79/79/79 85/85/85 94/94/94
f 78/78/78 79/79/79 94/94/94
f 94/94/94 85/85/85 95/95/95
f 85/85/85 87/87/87 95/95/95
f 86/86/86 84/84/84 96/96/96
f 70/70/70 96/96/96 84/84/84
f 97/97/97 86/86/86 96/96/96
f 98/98/98 96/96/96 70/70/70
f 69/69/69 98/98/98 70/70/70
f 98/98/98 99/99/99 96/96/96
f 99/99/99 97/97/97 96/96/96
f 59/59/59 100/100/100 91/91/91
f 100/100/100 59/59/59 101/101/101
f 103/103/103 102/102/102 1/1/1
f 12/12/12 105/105/105 104/104/104
f 105/105/105 12/12/12 106/106/106
f 12/12/12 15/15/15 106/106/106
f 107/107/107 13/13/13 9/9/9
f 10/10/10 107/107/107 9/9/9
f 110/110/110 109/109/109 108/108/108
f 108/108/108 109/109/109 111/111/111
f 109/109/109 112/112/112 111/111/111
f 111/111/111 112/112/112 113/113/113
f 112/112/112 114/114/114 113/113/113
f 117/117/117 116/116/116 115/115/115
f 118/118/118 116/116/116 117/117/117
f 119/119/119 118/118/118 117/117/117
f 122/122/122 121/121/121 120/120/120
f 121/121/121 123/123/123 120/120/120
f 120/120/120 123/123/123 124/124/124
f 123/123/123 125/125/125 124/124/124
f 128/128/128 127/127/127 126/126/126
f 127/127/127 129/129/129 126/126/126
f 132/132/132 131/131/131 130/130/130
f 131/131/131 133/133/133 130/130/130
f 131/131/131 132/132/132 134/134/134
f 135/135/135 131/131/131 134/134/134
f 138/138/138 137/137/137 136/136/136
f 141/141/141 140/140/140 139/139/139
f 144/144/144 143/143/143 142/142/142
f 143/143/143 145/145/145 142/142/142
f 148/148/148 147/147/147 146/146/146
f 147/147/147 149/149/149 146/146/146
f 151/151/151 150/150/150 57/57/57
f 153/153/153 63/63/63 152/152/152
f 63/63/63 153/153/153 154/154/154
f 66/66/66 63/63/63 154/154/154
f 64/64/64 155/155/155 60/60/60
f 155/155/155 61/61/61 60/60/60
f 158/158/158 157/157/157 156/156/156
f 158/158/158 156/156/156 159/159/159
f 160/160/160 158/158/158 159/159/159
f 160/160/160 159/159/159 161/161/161
f 162/162/162 160/160/160 161/161/161
f 165/165/165 164/164/164 163/163/163
f 165/165/165 166/166/166 164/164/164
f 166/166/166 167/167/167 164/164/164
f 170/170/170 169/169/169 168/168/168
f 169/169/169 171/171/171 168/168/168
f 170/170/170 168/168/168 172/172/172
f 173/173/173 170/170/170 172/172/172
f 176/176/176 175/175/175 174/174/174
f 175/175/175 177/177/177 174/174/174
f 180/180/180 179/179/179 178/178/178
f 183/183/183 182/182/182 181/181/181
f 186/186/186 185/185/185 184/184/184
f 185/185/185 187/187/187 184/184/184
f 190/190/190 189/189/189 188/188/188
f 189/189/189 191/191/191 188/188/188
