g Shield
v 0 0 0.3067309
v -0.04491971 0.1084457 0.2833824
v -5.130879E-09 0.1173808 0.2833824
v -0.08300078 0.2003816 0.2168915
v -9.480627E-09 0.2168915 0.2168915
v -0.1533654 0.1533654 0.2168915
v -0.08300077 0.08300077 0.2833824
v 0 0 0.3067309
v -0.2003816 0.08300078 0.2168915
v -0.1084457 0.0449197 0.2833824
v 0 0 0.3067309
v -0.2168915 3.27497E-08 0.2168915
v -0.1173808 1.772401E-08 0.2833824
v 0 0 0.3067309
v 0.04491958 0.1084458 0.2833824
v 0 0 0.3067309
v 0.08300054 0.2003817 0.2168915
v 0.0830007 0.08300086 0.2833824
v 0 0 0.3067309
v 0.1533653 0.1533656 0.2168915
v 0.1084457 0.04491979 0.2833824
v 0 0 0.3067309
v 0.2003815 0.08300093 0.2168915
v 0.1173808 7.649506E-08 0.2833824
v 0 0 0.3067309
v 0.2168915 1.413444E-07 0.2168915
v 0.261811 0.1084459 0.1173808
v 0.2833824 1.846754E-07 0.1173808
v 0.2003814 0.2003818 0.1173808
v 0.1084454 0.2618113 0.1173808
v -1.238704E-08 0.2833824 0.1173808
v -0.1084458 0.2618112 0.1173808
v -0.2003816 0.2003816 0.1173808
v -0.2618112 0.1084457 0.1173808
v -0.2833824 4.278955E-08 0.1173808
v -0.1173808 0.2833824 -1.340763E-08
v -1.340763E-08 0.3067309 -1.340763E-08
v -0.2168915 0.2168915 -1.340763E-08
v -0.2833824 0.1173808 -1.340763E-08
v -0.3067309 4.631507E-08 -1.340763E-08
v 0.1173805 0.2833825 -1.340763E-08
v -0.1084458 0.2618112 -0.1173808
v -1.238704E-08 0.2833824 -0.1173808
v -0.2003816 0.2003816 -0.1173808
v -0.2618112 0.1084457 -0.1173808
v -0.2833824 4.278955E-08 -0.1173808
v 0.1084454 0.2618113 -0.1173808
v 0.2168913 0.2168917 -1.340763E-08
v 0.2833823 0.117381 -1.340763E-08
v 0.3067309 1.998912E-07 -1.340763E-08
v 0.261811 0.1084459 -0.1173808
v 0.2833824 1.846754E-07 -0.1173808
v 0.2003814 0.2003818 -0.1173808
v -0.08300078 0.2003816 -0.2168915
v -9.480627E-09 0.2168915 -0.2168915
v -0.2003816 0.08300078 -0.2168915
v -0.2168915 3.27497E-08 -0.2168915
v 0.2003815 0.08300093 -0.2168915
v 0.2168915 1.413444E-07 -0.2168915
v 0.1533653 0.1533656 -0.2168915
v 0.08300054 0.2003817 -0.2168915
v -0.04491971 0.1084457 -0.2833824
v -5.13088E-09 0.1173808 -0.2833824
v -0.08300078 0.08300078 -0.2833824
v -0.1533654 0.1533654 -0.2168915
v -0.1084457 0.04491971 -0.2833824
v -0.1173808 1.772401E-08 -0.2833824
v 0.04491958 0.1084458 -0.2833824
v 0.0830007 0.08300087 -0.2833824
v 0 0 -0.3067309
v 0 0 -0.3067309
v 0 0 -0.3067309
v 0 0 -0.3067309
v 0 0 -0.3067309
v 0.1084457 0.04491979 -0.2833824
v 0.1173808 7.649506E-08 -0.2833824
v 0 0 -0.3067309
v 0 0 -0.3067309
v 0 0 -0.3067309
v 0 0 0.3067309
v -0.1084458 -0.04491967 0.2833824
v -0.1173808 1.772401E-08 0.2833824
v -0.2003816 -0.08300071 0.2168915
v -0.2168915 3.27497E-08 0.2168915
v -0.1533655 -0.1533654 0.2168915
v -0.0830008 -0.08300076 0.2833824
v 0 0 0.3067309
v -0.0830008 -0.2003816 0.2168915
v -0.04491971 -0.1084457 0.2833824
v 0 0 0.3067309
v 2.586405E-09 -0.2168915 0.2168915
v 1.399752E-09 -0.1173808 0.2833824
v 0 0 0.3067309
v 0.0830008 -0.2003816 0.2168915
v 0.04491972 -0.1084457 0.2833824
v 0 0 0.3067309
v 0.1533655 -0.1533654 0.2168915
v 0.0830008 -0.08300076 0.2833824
v 0 0 0.3067309
v 0.2003816 -0.08300067 0.2168915
v 0.1084458 -0.04491964 0.2833824
v 0 0 0.3067309
v 0.2168915 1.413444E-07 0.2168915
v 0.1173808 7.649506E-08 0.2833824
v 0 0 0.3067309
v 0.1084458 -0.2618111 0.1173808
v 3.379301E-09 -0.2833824 0.1173808
v 0.2003817 -0.2003815 0.1173808
v 0.2618112 -0.1084456 0.1173808
v 0.2833824 1.846754E-07 0.1173808
v 0.1173809 -0.2833823 -1.340763E-08
v 3.657729E-09 -0.3067309 -1.340763E-08
v -0.1084458 -0.2618112 0.1173808
v -0.2003817 -0.2003815 0.1173808
v -0.2618112 -0.1084457 0.1173808
v -0.2833824 4.278955E-08 0.1173808
v -0.2833824 -0.1173808 -1.340763E-08
v -0.3067309 4.631507E-08 -1.340763E-08
v -0.2168915 -0.2168914 -1.340763E-08
v -0.1173809 -0.2833824 -1.340763E-08
v -0.2618112 -0.1084457 -0.1173808
v -0.2833824 4.278955E-08 -0.1173808
v -0.2003817 -0.2003815 -0.1173808
v -0.1084458 -0.2618112 -0.1173808
v 3.379301E-09 -0.2833824 -0.1173808
v 0.1084458 -0.2618111 -0.1173808
v 0.2003817 -0.2003815 -0.1173808
v 0.2168915 -0.2168914 -1.340763E-08
v 0.2833824 -0.1173807 -1.340763E-08
v 0.3067309 1.998912E-07 -1.340763E-08
v 0.2618112 -0.1084456 -0.1173808
v 0.2833824 1.846754E-07 -0.1173808
v -0.0830008 -0.2003816 -0.2168915
v 2.586405E-09 -0.2168915 -0.2168915
v 0.0830008 -0.2003816 -0.2168915
v 0.1533655 -0.1533654 -0.2168915
v 0.2003816 -0.08300067 -0.2168915
v 0.2168915 1.413444E-07 -0.2168915
v 1.399752E-09 -0.1173808 -0.2833824
v -0.04491972 -0.1084457 -0.2833824
v -0.1533655 -0.1533654 -0.2168915
v -0.2003816 -0.08300071 -0.2168915
v -0.2168915 3.27497E-08 -0.2168915
v -0.1084458 -0.04491968 -0.2833824
v -0.1173808 1.772401E-08 -0.2833824
v -0.08300081 -0.08300076 -0.2833824
v 0.1084458 -0.04491965 -0.2833824
v 0.08300081 -0.08300076 -0.2833824
v 0.1173808 7.649506E-08 -0.2833824
v 0 0 -0.3067309
v 0 0 -0.3067309
v 0 0 -0.3067309
v 0 0 -0.3067309
v 0 0 -0.3067309
v 0.04491972 -0.1084457 -0.2833824
v 0 0 -0.3067309
v 0 0 -0.3067309
v 0 0 -0.3067309
vt 0.5 0.9995005
vt 0.4268499 0.9614782
vt 0.5000001 0.9614782
vt 0.3648362 0.8532002
vt 0.5000001 0.8532001
vt 0.2502498 0.8532002
vt 0.3648362 0.9614782
vt 0.5 0.9995005
vt 0.1736856 0.8532002
vt 0.3233999 0.9614782
vt 0.5 0.9995005
vt 0.1467998 0.8532002
vt 0.3088494 0.9614782
vt 0.5 0.9995005
vt 0.57315 0.9614782
vt 0.5 0.9995005
vt 0.6351635 0.8532002
vt 0.6351638 0.9614782
vt 0.5 0.9995005
vt 0.74975 0.8532002
vt 0.6766001 0.9614782
vt 0.5 0.9995005
vt 0.8263143 0.8532002
vt 0.6911505 0.9614782
vt 0.5 0.9995005
vt 0.8532002 0.8532002
vt 0.9263502 0.6911505
vt 0.9614782 0.6911505
vt 0.8263142 0.6911505
vt 0.6765997 0.6911505
vt 0.5000001 0.6911505
vt 0.3234 0.6911505
vt 0.1736857 0.6911505
vt 0.0736497 0.6911505
vt 0.03852174 0.6911505
vt 0.3088495 0.5
vt 0.5000001 0.5
vt 0.1467999 0.5
vt 0.0385218 0.5
vt 0.0004995167 0.5
vt 0.6911501 0.5
vt 0.3234 0.3088494
vt 0.5000001 0.3088494
vt 0.1736857 0.3088494
vt 0.0736497 0.3088494
vt 0.03852174 0.3088494
vt 0.6765997 0.3088494
vt 0.8532 0.5
vt 0.9614782 0.5
vt 0.9995005 0.5
vt 0.9263502 0.3088494
vt 0.9614782 0.3088494
vt 0.8263142 0.3088494
vt 0.3648362 0.1467998
vt 0.5000001 0.1467998
vt 0.1736856 0.1467998
vt 0.1467998 0.1467998
vt 0.8263143 0.1467998
vt 0.8532002 0.1467998
vt 0.74975 0.1467998
vt 0.6351635 0.1467998
vt 0.4268499 0.03852174
vt 0.5000001 0.03852174
vt 0.3648362 0.03852174
vt 0.2502498 0.1467998
vt 0.3233999 0.03852174
vt 0.3088494 0.03852174
vt 0.57315 0.03852174
vt 0.6351638 0.03852174
vt 0.5 0.0004995167
vt 0.5 0.0004995167
vt 0.5 0.0004995167
vt 0.5 0.0004995167
vt 0.5 0.0004995167
vt 0.6766001 0.03852174
vt 0.6911506 0.03852174
vt 0.5 0.0004995167
vt 0.5 0.0004995167
vt 0.5 0.0004995167
vt 0.5 0.9995005
vt 0.3233998 0.9614782
vt 0.3088494 0.9614782
vt 0.1736856 0.8532002
vt 0.1467998 0.8532002
vt 0.2502496 0.8532002
vt 0.3648361 0.9614782
vt 0.5 0.9995005
vt 0.364836 0.8532002
vt 0.4268498 0.9614782
vt 0.5 0.9995005
vt 0.4999999 0.8532002
vt 0.5 0.9614782
vt 0.5 0.9995005
vt 0.6351638 0.8532002
vt 0.5731502 0.9614782
vt 0.5 0.9995005
vt 0.7497503 0.8532002
vt 0.6351639 0.9614782
vt 0.5 0.9995005
vt 0.8263144 0.8532002
vt 0.6766001 0.9614782
vt 0.5 0.9995005
vt 0.8532002 0.8532002
vt 0.6911505 0.9614782
vt 0.5 0.9995005
vt 0.6766 0.6911505
vt 0.4999999 0.6911505
vt 0.8263144 0.6911505
vt 0.9263504 0.6911505
vt 0.9614782 0.6911505
vt 0.6911505 0.5
vt 0.4999999 0.5
vt 0.3233997 0.6911505
vt 0.1736854 0.6911505
vt 0.07364962 0.6911505
vt 0.03852174 0.6911505
vt 0.03852162 0.5
vt 0.0004995167 0.5
vt 0.1467996 0.5
vt 0.3088493 0.5
vt 0.07364962 0.3088494
vt 0.03852174 0.3088494
vt 0.1736854 0.3088494
vt 0.3233997 0.3088494
vt 0.4999999 0.3088494
vt 0.6766 0.3088494
vt 0.8263144 0.3088494
vt 0.8532002 0.5
vt 0.9614784 0.5
vt 0.9995005 0.5
vt 0.9263504 0.3088494
vt 0.9614782 0.3088494
vt 0.364836 0.1467998
vt 0.4999999 0.1467999
vt 0.6351638 0.1467998
vt 0.7497503 0.1467998
vt 0.8263144 0.1467998
vt 0.8532002 0.1467998
vt 0.5 0.03852174
vt 0.4268498 0.03852174
vt 0.2502496 0.1467998
vt 0.1736856 0.1467998
vt 0.1467998 0.1467998
vt 0.3233998 0.03852174
vt 0.3088494 0.03852174
vt 0.364836 0.03852174
vt 0.6766002 0.03852174
vt 0.6351639 0.03852174
vt 0.6911506 0.03852174
vt 0.5 0.0004995167
vt 0.5 0.0004995167
vt 0.5 0.0004995167
vt 0.5 0.0004995167
vt 0.5 0.0004995167
vt 0.5731502 0.03852174
vt 0.5 0.0004995167
vt 0.5 0.0004995167
vt 0.5 0.0004995167
vn 0 0 1
vn -0.154257 0.3724091 0.9151592
vn -1.371734E-07 0.4030927 0.9151592
vn -0.2750952 0.6641384 0.6951566
vn -2.286422E-07 0.7188582 0.6951567
vn -0.5083095 0.5083095 0.6951567
vn -0.2850296 0.2850296 0.9151592
vn 0 0 1
vn -0.6641384 0.2750952 0.6951567
vn -0.3724092 0.154257 0.9151591
vn 0 0 1
vn -0.7188582 0 0.6951567
vn -0.4030927 0 0.9151592
vn 0 0 1
vn 0.1542566 0.3724092 0.9151592
vn 0 0 1
vn 0.2750946 0.6641386 0.6951567
vn 0.2850294 0.2850299 0.9151592
vn 0 0 1
vn 0.5083091 0.50831 0.6951567
vn 0.3724091 0.1542572 0.9151591
vn 0 0 1
vn 0.6641383 0.2750957 0.6951567
vn 0.4030928 2.669983E-07 0.9151591
vn 0 0 1
vn 0.7188583 5.020188E-07 0.6951566
vn 0.8566953 0.3548556 0.374367
vn 0.9272806 6.586419E-07 0.3743671
vn 0.6556858 0.655687 0.3743671
vn 0.3548542 0.856696 0.3743671
vn -3.117235E-07 0.9272806 0.3743671
vn -0.354855 0.8566956 0.374367
vn -0.6556864 0.6556864 0.3743671
vn -0.8566956 0.354855 0.374367
vn -0.9272806 1.156394E-07 0.3743671
vn -0.3826835 0.9238795 0
vn -3.534766E-07 1 0
vn -0.7071068 0.7071068 0
vn -0.9238795 0.3826835 0
vn -1 1.262416E-07 0
vn 0.3826826 0.9238799 0
vn -0.354855 0.8566956 -0.3743671
vn -3.142375E-07 0.9272806 -0.3743671
vn -0.6556864 0.6556864 -0.3743671
vn -0.8566956 0.354855 -0.3743671
vn -0.9272806 1.00556E-07 -0.3743671
vn 0.3548542 0.856696 -0.3743671
vn 0.7071061 0.7071074 0
vn 0.9238792 0.3826841 0
vn 1 7.221022E-07 0
vn 0.8566953 0.3548556 -0.374367
vn 0.9272806 6.53614E-07 -0.3743671
vn 0.6556858 0.655687 -0.3743671
vn -0.2750951 0.6641384 -0.6951568
vn -2.261569E-07 0.7188581 -0.6951567
vn -0.6641384 0.2750952 -0.6951567
vn -0.7188582 0 -0.6951567
vn 0.6641382 0.2750957 -0.6951568
vn 0.7188582 5.119597E-07 -0.6951567
vn 0.508309 0.50831 -0.6951567
vn 0.2750946 0.6641386 -0.6951567
vn -0.154257 0.3724091 -0.9151592
vn -1.322744E-07 0.4030927 -0.9151592
vn -0.2850296 0.2850296 -0.9151592
vn -0.5083095 0.5083095 -0.6951567
vn -0.3724091 0.154257 -0.9151592
vn -0.4030927 0 -0.9151592
vn 0.1542566 0.3724092 -0.9151592
vn 0.2850294 0.2850299 -0.9151592
vn 0 0 -1
vn 0 0 -1
vn 0 0 -1
vn 0 0 -1
vn 0 0 -1
vn 0.372409 0.1542572 -0.9151592
vn 0.4030928 2.933307E-07 -0.9151592
vn 0 0 -1
vn 0 0 -1
vn 0 0 -1
vn 0 0 1
vn -0.3724092 -0.1542568 0.9151592
vn -0.4030927 0 0.9151592
vn -0.6641385 -0.275095 0.6951567
vn -0.7188582 0 0.6951567
vn -0.5083097 -0.5083093 0.6951567
vn -0.2850296 -0.2850295 0.9151592
vn 0 0 1
vn -0.2750952 -0.6641384 0.6951566
vn -0.154257 -0.3724091 0.9151592
vn 0 0 1
vn 0 -0.7188583 0.6951566
vn 0 -0.4030927 0.9151592
vn 0 0 1
vn 0.2750953 -0.6641384 0.6951567
vn 0.154257 -0.3724091 0.9151592
vn 0 0 1
vn 0.5083097 -0.5083094 0.6951567
vn 0.2850297 -0.2850295 0.9151592
vn 0 0 1
vn 0.6641386 -0.2750948 0.6951567
vn 0.3724092 -0.1542568 0.9151592
vn 0 0 1
vn 0.7188583 5.020188E-07 0.6951566
vn 0.4030928 2.669983E-07 0.9151591
vn 0 0 1
vn 0.354855 -0.8566955 0.374367
vn 0 -0.9272806 0.3743671
vn 0.6556866 -0.6556862 0.374367
vn 0.8566958 -0.3548545 0.3743671
vn 0.9272806 6.586419E-07 0.3743671
vn 0.3826836 -0.9238794 0
vn 0 -1 0
vn -0.354855 -0.8566956 0.374367
vn -0.6556866 -0.6556861 0.374367
vn -0.8566957 -0.3548547 0.3743671
vn -0.9272806 1.156394E-07 0.3743671
vn -0.9238796 -0.3826832 0
vn -1 1.262416E-07 0
vn -0.7071069 -0.7071066 0
vn -0.3826835 -0.9238795 0
vn -0.8566957 -0.3548547 -0.3743672
vn -0.9272806 1.00556E-07 -0.3743671
vn -0.6556866 -0.6556861 -0.3743671
vn -0.354855 -0.8566956 -0.3743671
vn 0 -0.9272806 -0.3743671
vn 0.354855 -0.8566955 -0.3743671
vn 0.6556866 -0.6556862 -0.3743671
vn 0.7071069 -0.7071066 0
vn 0.9238797 -0.382683 0
vn 1 7.221022E-07 0
vn 0.8566958 -0.3548545 -0.3743671
vn 0.9272806 6.53614E-07 -0.3743671
vn -0.2750952 -0.6641383 -0.6951567
vn 0 -0.7188582 -0.6951567
vn 0.2750953 -0.6641383 -0.6951567
vn 0.5083096 -0.5083094 -0.6951567
vn 0.6641384 -0.2750948 -0.6951568
vn 0.7188582 5.119597E-07 -0.6951567
vn 0 -0.4030927 -0.9151592
vn -0.154257 -0.3724091 -0.9151592
vn -0.5083097 -0.5083093 -0.6951567
vn -0.6641385 -0.275095 -0.6951567
vn -0.7188582 0 -0.6951567
vn -0.3724092 -0.1542568 -0.9151592
vn -0.4030927 0 -0.9151592
vn -0.2850297 -0.2850295 -0.9151592
vn 0.3724092 -0.1542567 -0.9151592
vn 0.2850297 -0.2850295 -0.9151592
vn 0.4030928 2.933307E-07 -0.9151592
vn 0 0 -1
vn 0 0 -1
vn 0 0 -1
vn 0 0 -1
vn 0 0 -1
vn 0.154257 -0.3724091 -0.9151592
vn 0 0 -1
vn 0 0 -1
vn 0 0 -1
g Shield_0
f 3/3/3 2/2/2 1/1/1
f 4/4/4 2/2/2 3/3/3
f 5/5/5 4/4/4 3/3/3
f 4/4/4 6/6/6 2/2/2
f 6/6/6 7/7/7 2/2/2
f 2/2/2 7/7/7 8/8/8
f 6/6/6 9/9/9 7/7/7
f 9/9/9 10/10/10 7/7/7
f 7/7/7 10/10/10 11/11/11
f 9/9/9 12/12/12 10/10/10
f 12/12/12 13/13/13 10/10/10
f 10/10/10 13/13/13 14/14/14
f 5/5/5 3/3/3 15/15/15
f 15/15/15 3/3/3 16/16/16
f 17/17/17 5/5/5 15/15/15
f 17/17/17 15/15/15 18/18/18
f 18/18/18 15/15/15 19/19/19
f 20/20/20 17/17/17 18/18/18
f 20/20/20 18/18/18 21/21/21
f 21/21/21 18/18/18 22/22/22
f 23/23/23 20/20/20 21/21/21
f 23/23/23 21/21/21 24/24/24
f 24/24/24 21/21/21 25/25/25
f 26/26/26 23/23/23 24/24/24
f 27/27/27 23/23/23 26/26/26
f 28/28/28 27/27/27 26/26/26
f 27/27/27 29/29/29 23/23/23
f 29/29/29 20/20/20 23/23/23
f 29/29/29 30/30/30 20/20/20
f 30/30/30 17/17/17 20/20/20
f 30/30/30 31/31/31 17/17/17
f 31/31/31 5/5/5 17/17/17
f 31/31/31 32/32/32 5/5/5
f 32/32/32 4/4/4 5/5/5
f 32/32/32 33/33/33 4/4/4
f 33/33/33 6/6/6 4/4/4
f 33/33/33 34/34/34 6/6/6
f 34/34/34 9/9/9 6/6/6
f 34/34/34 35/35/35 9/9/9
f 35/35/35 12/12/12 9/9/9
f 36/36/36 32/32/32 31/31/31
f 37/37/37 36/36/36 31/31/31
f 37/37/37 31/31/31 30/30/30
f 36/36/36 38/38/38 32/32/32
f 38/38/38 33/33/33 32/32/32
f 38/38/38 39/39/39 33/33/33
f 39/39/39 34/34/34 33/33/33
f 39/39/39 40/40/40 34/34/34
f 40/40/40 35/35/35 34/34/34
f 41/41/41 37/37/37 30/30/30
f 42/42/42 36/36/36 37/37/37
f 43/43/43 42/42/42 37/37/37
f 43/43/43 37/37/37 41/41/41
f 42/42/42 44/44/44 36/36/36
f 44/44/44 38/38/38 36/36/36
f 44/44/44 45/45/45 38/38/38
f 45/45/45 39/39/39 38/38/38
f 45/45/45 46/46/46 39/39/39
f 46/46/46 40/40/40 39/39/39
f 47/47/47 43/43/43 41/41/41
f 47/47/47 41/41/41 48/48/48
f 48/48/48 41/41/41 29/29/29
f 48/48/48 29/29/29 27/27/27
f 49/49/49 48/48/48 27/27/27
f 49/49/49 27/27/27 28/28/28
f 50/50/50 49/49/49 28/28/28
f 41/41/41 30/30/30 29/29/29
f 51/51/51 49/49/49 50/50/50
f 52/52/52 51/51/51 50/50/50
f 51/51/51 53/53/53 49/49/49
f 53/53/53 48/48/48 49/49/49
f 53/53/53 47/47/47 48/48/48
f 54/54/54 42/42/42 43/43/43
f 55/55/55 54/54/54 43/43/43
f 56/56/56 45/45/45 44/44/44
f 56/56/56 57/57/57 45/45/45
f 57/57/57 46/46/46 45/45/45
f 58/58/58 51/51/51 52/52/52
f 59/59/59 58/58/58 52/52/52
f 58/58/58 60/60/60 51/51/51
f 60/60/60 53/53/53 51/51/51
f 60/60/60 61/61/61 53/53/53
f 61/61/61 47/47/47 53/53/53
f 61/61/61 55/55/55 47/47/47
f 55/55/55 43/43/43 47/47/47
f 62/62/62 54/54/54 55/55/55
f 63/63/63 62/62/62 55/55/55
f 63/63/63 55/55/55 61/61/61
f 62/62/62 64/64/64 54/54/54
f 64/64/64 65/65/65 54/54/54
f 54/54/54 65/65/65 42/42/42
f 65/65/65 44/44/44 42/42/42
f 65/65/65 56/56/56 44/44/44
f 64/64/64 66/66/66 65/65/65
f 66/66/66 56/56/56 65/65/65
f 66/66/66 67/67/67 56/56/56
f 67/67/67 57/57/57 56/56/56
f 68/68/68 61/61/61 60/60/60
f 68/68/68 63/63/63 61/61/61
f 69/69/69 68/68/68 60/60/60
f 62/62/62 63/63/63 70/70/70
f 64/64/64 62/62/62 71/71/71
f 66/66/66 64/64/64 72/72/72
f 67/67/67 66/66/66 73/73/73
f 68/68/68 69/69/69 74/74/74
f 75/75/75 69/69/69 58/58/58
f 75/75/75 58/58/58 59/59/59
f 76/76/76 75/75/75 59/59/59
f 69/69/69 60/60/60 58/58/58
f 75/75/75 76/76/76 77/77/77
f 69/69/69 75/75/75 78/78/78
f 63/63/63 68/68/68 79/79/79
f 82/82/82 81/81/81 80/80/80
f 83/83/83 81/81/81 82/82/82
f 84/84/84 83/83/83 82/82/82
f 83/83/83 85/85/85 81/81/81
f 85/85/85 86/86/86 81/81/81
f 81/81/81 86/86/86 87/87/87
f 85/85/85 88/88/88 86/86/86
f 88/88/88 89/89/89 86/86/86
f 86/86/86 89/89/89 90/90/90
f 88/88/88 91/91/91 89/89/89
f 91/91/91 92/92/92 89/89/89
f 89/89/89 92/92/92 93/93/93
f 91/91/91 94/94/94 92/92/92
f 94/94/94 95/95/95 92/92/92
f 92/92/92 95/95/95 96/96/96
f 94/94/94 97/97/97 95/95/95
f 97/97/97 98/98/98 95/95/95
f 95/95/95 98/98/98 99/99/99
f 97/97/97 100/100/100 98/98/98
f 100/100/100 101/101/101 98/98/98
f 98/98/98 101/101/101 102/102/102
f 100/100/100 103/103/103 101/101/101
f 103/103/103 104/104/104 101/101/101
f 101/101/101 104/104/104 105/105/105
f 106/106/106 94/94/94 91/91/91
f 107/107/107 106/106/106 91/91/91
f 106/106/106 108/108/108 94/94/94
f 108/108/108 97/97/97 94/94/94
f 108/108/108 109/109/109 97/97/97
f 109/109/109 100/100/100 97/97/97
f 109/109/109 110/110/110 100/100/100
f 110/110/110 103/103/103 100/100/100
f 111/111/111 106/106/106 107/107/107
f 112/112/112 111/111/111 107/107/107
f 112/112/112 107/107/107 113/113/113
f 113/113/113 107/107/107 88/88/88
f 113/113/113 88/88/88 85/85/85
f 114/114/114 113/113/113 85/85/85
f 114/114/114 85/85/85 83/83/83
f 115/115/115 114/114/114 83/83/83
f 115/115/115 83/83/83 84/84/84
f 116/116/116 115/115/115 84/84/84
f 107/107/107 91/91/91 88/88/88
f 117/117/117 115/115/115 116/116/116
f 118/118/118 117/117/117 116/116/116
f 117/117/117 119/119/119 115/115/115
f 119/119/119 114/114/114 115/115/115
f 119/119/119 120/120/120 114/114/114
f 120/120/120 113/113/113 114/114/114
f 120/120/120 112/112/112 113/113/113
f 121/121/121 117/117/117 118/118/118
f 122/122/122 121/121/121 118/118/118
f 121/121/121 123/123/123 117/117/117
f 123/123/123 119/119/119 117/117/117
f 123/123/123 124/124/124 119/119/119
f 124/124/124 120/120/120 119/119/119
f 124/124/124 125/125/125 120/120/120
f 125/125/125 112/112/112 120/120/120
f 125/125/125 126/126/126 112/112/112
f 126/126/126 111/111/111 112/112/112
f 126/126/126 127/127/127 111/111/111
f 127/127/127 128/128/128 111/111/111
f 111/111/111 128/128/128 106/106/106
f 128/128/128 108/108/108 106/106/106
f 128/128/128 129/129/129 108/108/108
f 129/129/129 109/109/109 108/108/108
f 129/129/129 130/130/130 109/109/109
f 130/130/130 110/110/110 109/109/109
f 127/127/127 131/131/131 128/128/128
f 131/131/131 129/129/129 128/128/128
f 131/131/131 132/132/132 129/129/129
f 132/132/132 130/130/130 129/129/129
f 133/133/133 124/124/124 123/123/123
f 133/133/133 134/134/134 124/124/124
f 134/134/134 125/125/125 124/124/124
f 134/134/134 135/135/135 125/125/125
f 135/135/135 126/126/126 125/125/125
f 135/135/135 136/136/136 126/126/126
f 136/136/136 127/127/127 126/126/126
f 136/136/136 137/137/137 127/127/127
f 137/137/137 131/131/131 127/127/127
f 137/137/137 138/138/138 131/131/131
f 138/138/138 132/132/132 131/131/131
f 139/139/139 134/134/134 133/133/133
f 140/140/140 139/139/139 133/133/133
f 140/140/140 133/133/133 141/141/141
f 141/141/141 133/133/133 123/123/123
f 141/141/141 123/123/123 121/121/121
f 142/142/142 141/141/141 121/121/121
f 142/142/142 121/121/121 122/122/122
f 143/143/143 142/142/142 122/122/122
f 144/144/144 142/142/142 143/143/143
f 145/145/145 144/144/144 143/143/143
f 144/144/144 146/146/146 142/142/142
f 146/146/146 141/141/141 142/142/142
f 146/146/146 140/140/140 141/141/141
f 147/147/147 137/137/137 136/136/136
f 148/148/148 147/147/147 136/136/136
f 147/147/147 149/149/149 137/137/137
f 149/149/149 138/138/138 137/137/137
f 144/144/144 145/145/145 150/150/150
f 146/146/146 144/144/144 151/151/151
f 140/140/140 146/146/146 152/152/152
f 147/147/147 148/148/148 153/153/153
f 149/149/149 147/147/147 154/154/154
f 155/155/155 148/148/148 135/135/135
f 155/155/155 135/135/135 134/134/134
f 139/139/139 155/155/155 134/134/134
f 148/148/148 136/136/136 135/135/135
f 155/155/155 139/139/139 156/156/156
f 148/148/148 155/155/155 157/157/157
f 139/139/139 140/140/140 158/158/158
