g shield
v 0.4382931 0.2379296 -0.02548111
v 0.3794642 -0.06839609 -0.0254811
v -7.895734E-09 0.02606689 0.111538
v -2.231607E-08 0.4929848 -0.02548113
v 0.2119898 -0.3510677 -0.02548108
v 2.078203E-08 -0.4929848 -0.0254811
v -0.4382931 0.2379295 -0.02548115
v -0.3794642 -0.06839612 -0.02548113
v -0.2119898 -0.3510677 -0.0254811
v 0.4382931 0.2379296 -0.02548111
v 0.3794642 -0.06839609 -0.1115379
v 0.3794642 -0.06839609 -0.0254811
v 0.4382931 0.2379296 -0.1115379
v -2.231607E-08 0.4929848 -0.02548113
v 0.4382931 0.2379296 -0.1115379
v 0.4382931 0.2379296 -0.02548111
v -1.85544E-08 0.4929848 -0.111538
v 0.2119898 -0.3510677 -0.02548108
v 2.45437E-08 -0.4929848 -0.1115379
v 2.078203E-08 -0.4929848 -0.0254811
v 0.2119898 -0.3510677 -0.1115379
v 0.3794642 -0.06839609 -0.0254811
v 0.2119898 -0.3510677 -0.1115379
v 0.2119898 -0.3510677 -0.02548108
v 0.3794642 -0.06839609 -0.1115379
v 0.3794642 -0.06839609 -0.1115379
v 0.4382931 0.2379296 -0.1115379
v -1.85544E-08 0.4929848 -0.111538
v 2.45437E-08 -0.4929848 -0.1115379
v 0.2119898 -0.3510677 -0.1115379
v -0.4382931 0.2379295 -0.02548115
v -0.3794642 -0.06839612 -0.1115379
v -0.4382931 0.2379295 -0.111538
v -0.3794642 -0.06839612 -0.02548113
v -2.231607E-08 0.4929848 -0.02548113
v -0.4382931 0.2379295 -0.111538
v -1.85544E-08 0.4929848 -0.111538
v -0.4382931 0.2379295 -0.02548115
v -0.2119898 -0.3510677 -0.0254811
v 2.45437E-08 -0.4929848 -0.1115379
v -0.2119898 -0.3510677 -0.1115379
v 2.078203E-08 -0.4929848 -0.0254811
v -0.3794642 -0.06839612 -0.02548113
v -0.2119898 -0.3510677 -0.1115379
v -0.3794642 -0.06839612 -0.1115379
v -0.2119898 -0.3510677 -0.0254811
v -0.3794642 -0.06839612 -0.1115379
v -1.85544E-08 0.4929848 -0.111538
v -0.4382931 0.2379295 -0.111538
v 2.45437E-08 -0.4929848 -0.1115379
v -0.2119898 -0.3510677 -0.1115379
vt 0.711567 0.5960916
vt 0.682892 0.3582853
vt 0.3859021 0.4267474
vt 0.3860135 0.7289801
vt 0.5710647 0.1716069
vt 0.3860135 0.07787271
vt 0.06046009 0.5960349
vt 0.08913505 0.3582336
vt 0.2009624 0.1715747
vt 0.900377 0.6238675
vt 0.949809 0.4176283
vt 0.8934497 0.4191813
vt 0.9567039 0.6214329
vt 0.9178334 0.9559106
vt 0.9567039 0.6214329
vt 0.900377 0.6238675
vt 0.9741377 0.9529511
vt 0.888904 0.203762
vt 0.9420606 0.03553814
vt 0.8856892 0.03662642
vt 0.9452744 0.2026195
vt 0.8934497 0.4191813
vt 0.9452744 0.2026195
vt 0.888904 0.203762
vt 0.949809 0.4176283
vt 0.5579127 0.9723104
vt 0.7590094 0.9254232
vt 0.7706718 0.6225175
vt 0.2432229 0.8144932
vt 0.3737166 0.9367624
vt 0.8093976 0.627739
vt 0.8588295 0.4214998
vt 0.8657244 0.6253044
vt 0.8024702 0.4230528
vt 0.826854 0.9597821
vt 0.8657244 0.6253044
vt 0.8831582 0.9568226
vt 0.8093976 0.627739
vt 0.7979246 0.2076335
vt 0.8510811 0.03940961
vt 0.854295 0.206491
vt 0.7947097 0.04049788
vt 0.8024702 0.4230528
vt 0.854295 0.206491
vt 0.8588295 0.4214998
vt 0.7979246 0.2076335
vt 0.5579127 0.9723104
vt 0.7706718 0.6225175
vt 0.7590094 0.9254232
vt 0.2432229 0.8144932
vt 0.3737166 0.9367624
vn 0.2460267 0.1135688 0.9625866
vn 0.3120497 -0.1145055 0.9431402
vn 0 -0.0009754474 0.9999995
vn 0 0.2815805 0.9595376
vn 0.2192059 -0.2219675 0.9500943
vn 0 -0.2552363 0.9668787
vn -0.2460267 0.1135687 0.9625866
vn -0.3120497 -0.1145055 0.9431402
vn -0.219206 -0.2219675 0.9500943
vn 0.9820539 -0.1886003 0
vn 0.9820539 -0.1886003 0
vn 0.9820539 -0.1886003 0
vn 0.9820539 -0.1886003 0
vn 0.5029649 0.8643069 0
vn 0.5029649 0.8643069 0
vn 0.5029649 0.8643069 0
vn 0.5029649 0.8643069 0
vn 0.5563018 -0.8309804 0
vn 0.5563018 -0.8309804 0
vn 0.5563018 -0.8309804 0
vn 0.5563018 -0.8309804 0
vn 0.8603379 -0.5097241 0
vn 0.8603379 -0.5097241 0
vn 0.8603379 -0.5097241 0
vn 0.8603379 -0.5097241 0
vn 0 0 -1
vn 0 0 -1
vn 0 0 -1
vn 0 0 -1
vn 0 0 -1
vn -0.9820539 -0.1886004 0
vn -0.9820539 -0.1886004 0
vn -0.9820539 -0.1886004 0
vn -0.9820539 -0.1886004 0
vn -0.502965 0.8643069 0
vn -0.502965 0.8643069 0
vn -0.5029649 0.8643069 0
vn -0.502965 0.8643069 0
vn -0.5563017 -0.8309804 0
vn -0.5563017 -0.8309804 0
vn -0.5563017 -0.8309804 0
vn -0.5563017 -0.8309804 0
vn -0.8603379 -0.5097242 0
vn -0.8603379 -0.5097242 0
vn -0.8603379 -0.5097243 0
vn -0.8603379 -0.5097243 0
vn 0 0 -1
vn 0 0 -1
vn 0 0 -1
vn 0 0 -1
vn 0 0 -1
g shield_0
f 3/3/3 2/2/2 1/1/1
f 1/1/1 4/4/4 3/3/3
f 3/3/3 5/5/5 2/2/2
f 3/3/3 6/6/6 5/5/5
f 3/3/3 4/4/4 7/7/7
f 3/3/3 7/7/7 8/8/8
f 3/3/3 9/9/9 6/6/6
f 3/3/3 8/8/8 9/9/9
f 12/12/12 11/11/11 10/10/10
f 11/11/11 13/13/13 10/10/10
f 16/16/16 15/15/15 14/14/14
f 15/15/15 17/17/17 14/14/14
f 20/20/20 19/19/19 18/18/18
f 19/19/19 21/21/21 18/18/18
f 24/24/24 23/23/23 22/22/22
f 23/23/23 25/25/25 22/22/22
f 28/28/28 27/27/27 26/26/26
f 29/29/29 28/28/28 26/26/26
f 30/30/30 29/29/29 26/26/26
f 33/33/33 32/32/32 31/31/31
f 32/32/32 34/34/34 31/31/31
f 37/37/37 36/36/36 35/35/35
f 36/36/36 38/38/38 35/35/35
f 41/41/41 40/40/40 39/39/39
f 40/40/40 42/42/42 39/39/39
f 45/45/45 44/44/44 43/43/43
f 44/44/44 46/46/46 43/43/43
f 49/49/49 48/48/48 47/47/47
f 48/48/48 50/50/50 47/47/47
f 50/50/50 51/51/51 47/47/47
