g sora_2_03
v 0.4249573 -0.4110244 0.5973829
v 0.3702134 -0.6352102 0.5842326
v 0.1783908 -0.4098256 0.7078617
v -0.02924509 -0.4406836 0.737232
v -0.01890329 -0.3154733 0.699015
v 0.209056 -0.1000085 0.630613
v 0.4050385 -0.284116 0.60707
v -0.1601685 -0.2894922 0.6554181
v 0.1169229 -0.08101428 0.5646653
v 0.4431407 -0.04819215 0.3145525
v 0.5615114 -0.1182856 0.3039825
v 0.4894977 -0.2292053 0.518613
v 0.7175222 -0.402672 0.1925918
v 0.5858313 -0.3663911 0.4959682
v 0.6615218 -0.5532164 0.3388501
v 0.5919669 -0.2970462 0.6483496
v 0.5568544 -0.2500507 0.6506795
v 0.4620287 -0.1233158 -0.4205625
v 0.6445124 -0.414409 -0.2758043
v 0.5369564 -0.1231927 -0.1456884
v 0.6746048 -0.1667287 0.05912505
v 0.5615114 -0.1182856 0.3039825
v 0.7175222 -0.402672 0.1925918
v 0.4431407 -0.04819215 0.3145525
v -0.280719 0.2952807 -0.3367252
v -0.3616691 0.20712 -0.4137958
v -0.08043812 0.2631647 -0.5349445
v -0.104114 -0.0186081 -0.6025068
v 0.2096805 0.197418 -0.5490227
v 0.2695205 -0.1545871 -0.5508363
v 0.4775975 0.02912809 -0.4556342
v 0.3730052 0.1937459 -0.422296
v 0.564687 0.1694385 -0.01708209
v 0.01213485 -0.1423202 -0.5560936
v 0.4620287 -0.1233158 -0.4205625
v 0.6445124 -0.414409 -0.2758043
v 0.4647225 -0.4326731 -0.4418996
v 0.5750826 -0.006353649 -0.2349165
v 0.5369564 -0.1231927 -0.1456884
v 0.5682383 0.04777412 0.08072647
v 0.4431407 -0.04819215 0.3145525
v 0.4868095 0.1767713 0.2856259
v 0.3763913 0.2943754 -0.4337633
v 0.2074696 0.3385893 -0.5584853
v -0.1576617 0.4221284 -0.5379217
v -0.05629717 0.5614489 -0.5101597
v 0.1585167 0.2774422 0.3282678
v 0.1082562 0.04208536 0.5632574
v -0.01051417 0.1901794 0.4665007
v 0.4868095 0.1767713 0.2856259
v 0.1169229 -0.08101428 0.5646653
v 0.4431407 -0.04819215 0.3145525
v -0.1576617 0.4221284 -0.5379217
v -0.280719 0.2952807 -0.3367252
v -0.08043812 0.2631647 -0.5349445
v -0.1578499 -0.2812213 0.7841563
v -0.1703835 -0.4813144 0.7085727
v -0.1601685 -0.2894922 0.6554181
v -0.1634808 -0.3626095 0.8269491
v -0.0899473 -0.2931517 0.8136008
v -0.1601685 -0.2894922 0.6554181
v -0.01890329 -0.3154733 0.699015
v -0.1578499 -0.2812213 0.7841563
v -0.1009796 -0.3467645 0.8379164
v -0.1703835 -0.4813144 0.7085727
v -0.1634808 -0.3626095 0.8269491
v -0.02924509 -0.4406836 0.737232
v -0.1009796 -0.3467645 0.8379164
v -0.01890329 -0.3154733 0.699015
v -0.02924509 -0.4406836 0.737232
v -0.0899473 -0.2931517 0.8136008
v 0.5395022 -0.3106034 0.6837302
v 0.5858313 -0.3663911 0.4959682
v 0.4249573 -0.4110244 0.5973829
v 0.5919669 -0.2970462 0.6483496
v 0.5233492 -0.2702729 0.6808774
v 0.4894977 -0.2292053 0.518613
v 0.5568544 -0.2500507 0.6506795
v 0.4050385 -0.284116 0.60707
v 0.5233492 -0.2702729 0.6808774
v 0.4249573 -0.4110244 0.5973829
v 0.4050385 -0.284116 0.60707
v 0.5395022 -0.3106034 0.6837302
v -0.0899473 -0.2931517 0.8136008
v -0.1634808 -0.3626095 0.8269491
v -0.1578499 -0.2812213 0.7841563
v -0.1009796 -0.3467645 0.8379164
v 0.5233492 -0.2702729 0.6808774
v 0.5919669 -0.2970462 0.6483496
v 0.5395022 -0.3106034 0.6837302
v 0.5568544 -0.2500507 0.6506795
v 0.2074696 0.3385893 -0.5584853
v 0.3763913 0.2943754 -0.4337633
v -0.05629717 0.5614489 -0.5101597
v 0.1585167 0.2774422 0.3282678
v -0.01051417 0.1901794 0.4665007
v 0.2349651 0.05462749 -0.01423723
v 0.1714207 -0.2990352 0.06067891
v 0.2695205 -0.1545871 -0.5508363
v 0.3730052 0.1937459 -0.422296
v 0.4647225 -0.4326731 -0.4418996
v -0.1601685 -0.2894922 0.6554181
v -0.02924509 -0.4406836 0.737232
v 0.1169229 -0.08101428 0.5646653
v -0.1703835 -0.4813144 0.7085727
v 0.6615218 -0.5532164 0.3388501
v 0.7175222 -0.402672 0.1925918
v 0.3527059 -0.3712 0.3516555
v 0.3702134 -0.6352102 0.5842326
v 0.1169229 -0.08101428 0.5646653
v -0.02924509 -0.4406836 0.737232
v 0.1714207 -0.2990352 0.06067891
v 0.6445124 -0.414409 -0.2758043
v 0.4647225 -0.4326731 -0.4418996
v -0.280719 0.2952807 -0.3367252
v 0.3730052 0.1937459 -0.422296
v -0.104114 -0.0186081 -0.6025068
v -0.3616691 0.20712 -0.4137958
v -0.280719 0.2952807 -0.3367252
v 0.3763913 0.2943754 -0.4337633
v 0.3730052 0.1937459 -0.422296
v -0.05629717 0.5614489 -0.5101597
v 0.3763913 0.2943754 -0.4337633
v -0.1576617 0.4221284 -0.5379217
v 0.4868095 0.1767713 0.2856259
v 0.2349651 0.05462749 -0.01423723
v 0.564687 0.1694385 -0.01708209
v 0.1585167 0.2774422 0.3282678
v 0.3730052 0.1937459 -0.422296
v 0.01213485 -0.1423202 -0.5560936
v 0.3730052 0.1937459 -0.422296
v 0.2695205 -0.1545871 -0.5508363
v -0.104114 -0.0186081 -0.6025068
v -0.1576617 0.4221284 -0.5379217
v 0.3763913 0.2943754 -0.4337633
v -0.280719 0.2952807 -0.3367252
v 0.1714207 -0.2990352 0.06067891
v -0.01051417 0.1901794 0.4665007
v 0.1082562 0.04208536 0.5632574
v 0.3527059 -0.3712 0.3516555
v 0.1169229 -0.08101428 0.5646653
vt 0.4819872 0.6903787
vt 0.4707127 0.6367397
vt 0.4172223 0.671751
vt 0.3818793 0.6501597
vt 0.3736662 0.6777983
vt 0.3900622 0.7381474
vt 0.4583115 0.7229362
vt 0.3239276 0.6628733
vt 0.3551487 0.7366375
vt 0.4214476 0.8234975
vt 0.4877532 0.8100286
vt 0.4825788 0.7550044
vt 0.5867797 0.7601675
vt 0.5303141 0.7203362
vt 0.5877575 0.6744334
vt 0.5053787 0.7247251
vt 0.4890571 0.7371072
vt 0.7637092 0.3614992
vt 0.7229184 0.444398
vt 0.802923 0.4312998
vt 0.8031251 0.5016236
vt 0.8609959 0.5326333
vt 0.7709706 0.5634453
vt 0.8963715 0.5085118
vt 0.7605338 0.1047794
vt 0.7253752 0.1127495
vt 0.7788942 0.1761878
vt 0.7143724 0.2069298
vt 0.8012509 0.2524321
vt 0.7306767 0.3044195
vt 0.7923951 0.335484
vt 0.8290492 0.3026857
vt 0.8819866 0.4037375
vt 0.6945038 0.241264
vt 0.7637092 0.3614992
vt 0.7229184 0.444398
vt 0.7014652 0.3772693
vt 0.8156068 0.3916878
vt 0.802923 0.4312998
vt 0.875464 0.4415015
vt 0.8963715 0.5085118
vt 0.93852 0.455039
vt 0.8470931 0.2837553
vt 0.8302178 0.2350599
vt 0.810479 0.1465829
vt 0.852951 0.1517269
vt 0.282588 0.812394
vt 0.3290182 0.7534759
vt 0.27696 0.7630582
vt 0.3611445 0.8693284
vt 0.3551487 0.7366375
vt 0.4214476 0.8234975
vt 0.810479 0.1465829
vt 0.7605338 0.1047794
vt 0.7788942 0.1761878
vt 0.3363773 0.6581311
vt 0.3524234 0.6234936
vt 0.3239276 0.6628733
vt 0.3510314 0.6402155
vt 0.3614465 0.6649855
vt 0.3239276 0.6628733
vt 0.3736662 0.6777983
vt 0.3363773 0.6581311
vt 0.3640936 0.6517166
vt 0.3524234 0.6234936
vt 0.3510314 0.6402155
vt 0.3818793 0.6501597
vt 0.3640936 0.6517166
vt 0.3736662 0.6777983
vt 0.3818793 0.6501597
vt 0.3614465 0.6649855
vt 0.4892226 0.7150028
vt 0.5303141 0.7203362
vt 0.4819872 0.6903787
vt 0.5053787 0.7247251
vt 0.4797412 0.7254354
vt 0.4825788 0.7550044
vt 0.4890571 0.7371072
vt 0.4583115 0.7229362
vt 0.4797412 0.7254354
vt 0.4819872 0.6903787
vt 0.4583115 0.7229362
vt 0.4892226 0.7150028
vt 0.3614465 0.6649855
vt 0.3510314 0.6402155
vt 0.3363773 0.6581311
vt 0.3640936 0.6517166
vt 0.4797412 0.7254354
vt 0.5053787 0.7247251
vt 0.4892226 0.7150028
vt 0.4890571 0.7371072
vt 0.8302178 0.2350599
vt 0.8470931 0.2837553
vt 0.852951 0.1517269
vt 0.4180074 0.3909602
vt 0.3944353 0.4257508
vt 0.5033129 0.3928148
vt 0.5157664 0.4703064
vt 0.6214837 0.4036619
vt 0.5820187 0.3430386
vt 0.6349278 0.4729189
vt 0.3459718 0.5126041
vt 0.3652264 0.5504259
vt 0.4089837 0.480029
vt 0.3355266 0.5507713
vt 0.5153726 0.5976285
vt 0.5482296 0.5777472
vt 0.4785411 0.533645
vt 0.442374 0.5955722
vt 0.4089837 0.480029
vt 0.3652264 0.5504259
vt 0.5157664 0.4703064
vt 0.6229745 0.520279
vt 0.6349278 0.4729189
vt 0.6458473 0.2044667
vt 0.4908626 0.2789153
vt 0.6276774 0.3183976
vt 0.673471 0.2286161
vt 0.6458473 0.2044667
vt 0.4820594 0.2543215
vt 0.4908626 0.2789153
vt 0.5516108 0.1415068
vt 0.4820594 0.2543215
vt 0.5920241 0.1612563
vt 0.4440964 0.3329205
vt 0.5033129 0.3928148
vt 0.4999722 0.3207314
vt 0.4180074 0.3909602
vt 0.5820187 0.3430386
vt 0.5992417 0.3537377
vt 0.4908626 0.2789153
vt 0.534408 0.3682126
vt 0.6276774 0.3183976
vt 0.5920241 0.1612563
vt 0.4820594 0.2543215
vt 0.6458473 0.2044667
vt 0.5157664 0.4703064
vt 0.3944353 0.4257508
vt 0.3955776 0.4650096
vt 0.4785411 0.533645
vt 0.4089837 0.480029
vn 0.4734682 -0.123014 0.8721786
vn 0.4816432 -0.2344943 0.8444124
vn 0.2239183 -0.03699186 0.9739057
vn 0.1270273 0.08580582 0.9881809
vn -0.04073153 0.3604251 0.9318984
vn 0.1368476 0.6941162 0.7067358
vn 0.42644 0.2449139 0.8707274
vn -0.2187081 0.5331567 0.8172581
vn -0.1762699 0.8526554 0.4918411
vn 0.474268 0.8312737 0.2899207
vn 0.6907082 0.6591942 0.2972967
vn 0.7225015 0.5885907 0.3627018
vn 0.9463729 0.2229475 0.2338216
vn 0.8849806 0.2413023 0.3982242
vn 0.8403032 -0.1065768 0.5315373
vn 0.7583649 0.5812351 -0.2950398
vn 0.7583649 0.5812352 -0.2950397
vn 0.8718005 0.4282503 -0.2378353
vn 0.8948632 0.3506445 -0.2761673
vn 0.7577243 0.5891992 -0.2805315
vn 0.8038018 0.5931797 -0.0451725
vn 0.6907082 0.6591942 0.2972967
vn 0.9463729 0.2229475 0.2338216
vn 0.474268 0.8312737 0.2899207
vn -0.3719399 0.7806207 -0.5022867
vn -0.4160812 0.5874115 -0.6941355
vn -0.1747581 0.1758184 -0.9687866
vn -0.07847942 0.09406148 -0.9924684
vn 0.2808878 0.06349564 -0.9576378
vn 0.3831972 -0.02833726 -0.9232318
vn 0.7385004 0.1625075 -0.6543765
vn 0.6742062 0.3430453 -0.6540382
vn 0.9765689 0.2150648 -0.007768824
vn 0.002496865 -0.3492053 -0.937043
vn 0.6966136 -0.187614 -0.6924813
vn 0.6270306 0.08533671 -0.7743064
vn 0.6583836 0.1754169 -0.7319562
vn 0.9741268 -0.02622965 -0.2244747
vn 0.9264694 -0.37637 0.0003103659
vn 0.9639541 -0.1360811 0.2286359
vn 0.7688492 -0.1307 0.6259301
vn 0.7617132 0.1411311 0.6323568
vn 0.600186 -0.0867364 -0.7951437
vn 0.1904403 -0.02256408 -0.9814394
vn -0.03470511 0.09324569 -0.9950381
vn -0.009007419 0.2017159 -0.9794026
vn 0.2754121 0.6491395 0.7090601
vn 0.4619886 0.3500278 0.8148909
vn 0.2419394 0.6592034 0.7119805
vn 0.7617132 0.1411311 0.6323568
vn 0.5877963 0.03163408 0.8083903
vn 0.7688492 -0.1307 0.6259301
vn -0.687451 -0.3459185 -0.6385542
vn -0.687451 -0.3459185 -0.6385542
vn -0.687451 -0.3459185 -0.6385542
vn -0.9981505 0.06056938 0.005172441
vn -0.9981591 0.06038367 0.005665455
vn -0.9982645 0.05712505 0.01430954
vn -0.9978437 0.06523554 -0.007231228
vn 0.2003622 0.9774738 -0.0663324
vn 0.200329 0.9774815 -0.06631747
vn 0.2002331 0.9775041 -0.06627438
vn 0.2005313 0.977434 -0.0664084
vn 0.05800243 -0.7072432 0.704587
vn 0.05943624 -0.707561 0.7041482
vn 0.05537052 -0.7066554 0.7053879
vn 0.0608919 -0.707882 0.7037011
vn 0.8512654 0.07348627 0.5195641
vn 0.8498855 0.08169104 0.520597
vn 0.8485901 0.08908302 0.5214968
vn 0.8535315 0.05914882 0.5176732
vn 0.4508191 -0.8191491 0.3546221
vn 0.4508193 -0.8191491 0.3546221
vn 0.4508193 -0.8191491 0.3546221
vn 0.450819 -0.8191493 0.3546221
vn -0.2882924 0.9122459 0.2910242
vn -0.2882924 0.9122459 0.2910241
vn -0.2882923 0.9122459 0.2910242
vn -0.2882924 0.9122459 0.2910241
vn -0.5114434 -0.1449261 0.8470078
vn -0.5114431 -0.1449264 0.8470079
vn -0.5114429 -0.1449266 0.847008
vn -0.5114437 -0.1449258 0.8470076
vn -0.2755376 0.4544929 0.8470626
vn -0.2745792 0.4536273 0.8478376
vn -0.2834106 0.4615869 0.8406045
vn -0.2626941 0.4428531 0.8572474
vn 0.500991 0.295893 0.8132991
vn 0.5019638 0.301723 0.8105527
vn 0.4939408 0.2565966 0.8307711
vn 0.5079015 0.3402426 0.7913729
vn 0.5244745 0.7194711 -0.4552887
vn 0.5244744 0.7194711 -0.4552887
vn 0.5244745 0.719471 -0.4552887
vn -0.683302 0.5328562 -0.499162
vn -0.7974306 0.335237 -0.5017176
vn -0.9307262 0.1928751 -0.3107218
vn -0.9523982 -0.05375689 -0.3000798
vn -0.9621 -0.1381012 -0.2351416
vn -0.91872 0.3443082 -0.1934052
vn -0.737308 -0.6213859 -0.2650592
vn 0.1138868 -0.3947329 -0.9117104
vn 0.1611839 -0.3580841 -0.9196714
vn 0.04308837 -0.4463577 -0.8938166
vn 0.2657753 -0.2705546 -0.9252911
vn -0.3792037 -0.5934227 -0.7099677
vn -0.2766458 -0.9085146 -0.3131586
vn -0.5107621 -0.729525 -0.4548794
vn -0.5710259 -0.4593729 -0.6803719
vn -0.6352004 -0.3152084 -0.7050986
vn -0.4450027 -0.2339061 -0.8644423
vn -0.1596941 -0.987123 0.009265532
vn -0.1398602 -0.9802976 0.1394839
vn -0.09119743 -0.9743237 0.2058549
vn -0.007455379 -0.6486238 0.7610728
vn -0.0005149517 -0.6463706 0.7630235
vn -0.002929548 -0.6471587 0.7623497
vn -0.01408137 -0.6507404 0.7591696
vn 0.1453925 0.1071886 0.9835505
vn 0.1453925 0.1071887 0.9835505
vn 0.1453925 0.1071886 0.9835505
vn -0.2022108 -0.04779657 0.978175
vn -0.2022108 -0.04779657 0.978175
vn -0.2022108 -0.04779657 0.978175
vn -0.04845907 0.9385887 -0.3416182
vn -0.181198 0.9775352 -0.1076676
vn -0.3282472 0.9436991 0.04106053
vn 0.192553 0.8416397 -0.5045452
vn -0.3201329 0.9245054 0.2068929
vn -0.2571696 -0.1062545 0.960507
vn -0.1647439 -0.207037 0.9643626
vn -0.03526834 -0.3367423 0.9409362
vn -0.3584966 0.01332898 0.9334359
vn 0.08501849 0.8185697 0.5680805
vn 0.08501849 0.8185697 0.5680805
vn 0.08501849 0.8185697 0.5680805
vn -0.7618614 -0.576416 0.2954856
vn -0.8278116 -0.5070297 0.2401016
vn -0.875474 -0.479821 0.05759472
vn -0.7841809 -0.5786155 0.2241969
vn -0.7075158 -0.05786735 -0.7043243
g sora_2_03_0
f 3/3/3 2/2/2 1/1/1
f 4/4/4 2/2/2 3/3/3
f 5/5/5 4/4/4 3/3/3
f 5/5/5 3/3/3 6/6/6
f 6/6/6 3/3/3 7/7/7
f 3/3/3 1/1/1 7/7/7
f 8/8/8 5/5/5 6/6/6
f 8/8/8 6/6/6 9/9/9
f 9/9/9 6/6/6 10/10/10
f 6/6/6 11/11/11 10/10/10
f 6/6/6 12/12/12 11/11/11
f 6/6/6 7/7/7 12/12/12
f 12/12/12 13/13/13 11/11/11
f 12/12/12 14/14/14 13/13/13
f 1/1/1 2/2/2 14/14/14
f 14/14/14 15/15/15 13/13/13
f 2/2/2 15/15/15 14/14/14
f 14/14/14 12/12/12 16/16/16
f 17/17/17 16/16/16 12/12/12
f 20/20/20 19/19/19 18/18/18
f 21/21/21 19/19/19 20/20/20
f 22/22/22 21/21/21 20/20/20
f 22/22/22 23/23/23 21/21/21
f 23/23/23 19/19/19 21/21/21
f 24/24/24 22/22/22 20/20/20
f 27/27/27 26/26/26 25/25/25
f 27/27/27 28/28/28 26/26/26
f 29/29/29 28/28/28 27/27/27
f 29/29/29 30/30/30 28/28/28
f 31/31/31 30/30/30 29/29/29
f 31/31/31 29/29/29 32/32/32
f 32/32/32 33/33/33 31/31/31
f 28/28/28 30/30/30 34/34/34
f 35/35/35 30/30/30 31/31/31
f 35/35/35 36/36/36 30/30/30
f 36/36/36 37/37/37 30/30/30
f 38/38/38 35/35/35 31/31/31
f 33/33/33 38/38/38 31/31/31
f 38/38/38 39/39/39 35/35/35
f 40/40/40 39/39/39 38/38/38
f 40/40/40 38/38/38 33/33/33
f 41/41/41 39/39/39 40/40/40
f 41/41/41 40/40/40 42/42/42
f 42/42/42 40/40/40 33/33/33
f 32/32/32 29/29/29 43/43/43
f 43/43/43 29/29/29 44/44/44
f 29/29/29 27/27/27 44/44/44
f 44/44/44 27/27/27 45/45/45
f 44/44/44 45/45/45 46/46/46
f 49/49/49 48/48/48 47/47/47
f 47/47/47 48/48/48 50/50/50
f 48/48/48 51/51/51 50/50/50
f 51/51/51 52/52/52 50/50/50
f 55/55/55 54/54/54 53/53/53
f 58/58/58 57/57/57 56/56/56
f 59/59/59 56/56/56 57/57/57
f 62/62/62 61/61/61 60/60/60
f 63/63/63 60/60/60 61/61/61
f 66/66/66 65/65/65 64/64/64
f 67/67/67 64/64/64 65/65/65
f 70/70/70 69/69/69 68/68/68
f 71/71/71 68/68/68 69/69/69
f 74/74/74 73/73/73 72/72/72
f 75/75/75 72/72/72 73/73/73
f 78/78/78 77/77/77 76/76/76
f 79/79/79 76/76/76 77/77/77
f 82/82/82 81/81/81 80/80/80
f 83/83/83 80/80/80 81/81/81
f 86/86/86 85/85/85 84/84/84
f 87/87/87 84/84/84 85/85/85
f 90/90/90 89/89/89 88/88/88
f 91/91/91 88/88/88 89/89/89
f 94/94/94 93/93/93 92/92/92
f 97/97/97 96/96/96 95/95/95
f 98/98/98 96/96/96 97/97/97
f 98/98/98 97/97/97 99/99/99
f 99/99/99 97/97/97 100/100/100
f 101/101/101 98/98/98 99/99/99
f 104/104/104 103/103/103 102/102/102
f 105/105/105 102/102/102 103/103/103
f 108/108/108 107/107/107 106/106/106
f 109/109/109 108/108/108 106/106/106
f 108/108/108 109/109/109 110/110/110
f 111/111/111 110/110/110 109/109/109
f 112/112/112 107/107/107 108/108/108
f 107/107/107 112/112/112 113/113/113
f 113/113/113 112/112/112 114/114/114
f 117/117/117 116/116/116 115/115/115
f 118/118/118 117/117/117 115/115/115
f 121/121/121 120/120/120 119/119/119
f 124/124/124 123/123/123 122/122/122
f 127/127/127 126/126/126 125/125/125
f 125/125/125 126/126/126 128/128/128
f 129/129/129 126/126/126 127/127/127
f 132/132/132 131/131/131 130/130/130
f 130/130/130 131/131/131 133/133/133
f 136/136/136 135/135/135 134/134/134
f 139/139/139 138/138/138 137/137/137
f 137/137/137 140/140/140 139/139/139
f 141/141/141 139/139/139 140/140/140
