g SorceryBox_up
v 0.009397934 0.4361857 -0.3720526
v 0.4700891 0.7120177 -0.2102612
v 0.008975069 0.7113622 -0.2103515
v 0.5632658 0.4370225 -0.3719435
v 0.4087221 0.9639425 -0.1242291
v 0.008599943 0.9633738 -0.1243074
v 0.008524543 1.00038 -0.007825451
v 0.3933947 1.000927 -0.007750192
v 0.008554386 0.9633593 0.1086519
v 0.4086764 0.9639282 0.1087302
v 0.47001 0.7119929 0.1947553
v 0.008895877 0.7113373 0.1946651
v 0.009255512 0.4361409 0.3563283
v 0.5631233 0.4369778 0.3564362
v 0.5632658 0.4370225 -0.3719435
v 0.47001 0.7119929 0.1947553
v 0.4700891 0.7120177 -0.2102612
v 0.5631233 0.4369778 0.3564362
v 0.4086764 0.9639282 0.1087302
v 0.4087221 0.9639425 -0.1242291
v 0.3933947 1.000927 -0.007750192
v 0.009484708 0.3678649 -0.3190896
v 0.5622422 0.3780576 -0.3719099
v 0.009481463 0.3774316 -0.3720244
v 0.504747 0.368569 -0.3189927
v 0.5046253 0.3685307 0.303458
v 0.009339051 0.3773868 0.3563006
v 0.5620998 0.3780128 0.3564039
v 0.009362999 0.3678266 0.3033612
v 0.504747 0.368569 -0.3189927
v 0.5620998 0.3780128 0.3564039
v 0.5622422 0.3780576 -0.3719099
v 0.5046253 0.3685307 0.303458
v 0.009481463 0.3774316 -0.3720244
v 0.5632658 0.4370225 -0.3719435
v 0.009397934 0.4361857 -0.3720526
v 0.5622422 0.3780576 -0.3719099
v 0.5620998 0.3780128 0.3564039
v 0.009255512 0.4361409 0.3563283
v 0.5631233 0.4369778 0.3564362
v 0.009339051 0.3773868 0.3563006
v 0.5622422 0.3780576 -0.3719099
v 0.5631233 0.4369778 0.3564362
v 0.5632658 0.4370225 -0.3719435
v 0.5620998 0.3780128 0.3564039
v 0.009484708 0.3678649 -0.3190896
v 0.4646969 0.3961211 -0.2707425
v 0.504747 0.368569 -0.3189927
v 0.009436014 0.3954737 -0.2708316
v 0.5046253 0.3685307 0.303458
v 0.009333177 0.3954414 0.2551066
v 0.009362999 0.3678266 0.3033612
v 0.4645939 0.3960887 0.2551956
v 0.504747 0.368569 -0.3189927
v 0.4645939 0.3960887 0.2551956
v 0.5046253 0.3685307 0.303458
v 0.4646969 0.3961211 -0.2707425
v 0.008903462 0.7444552 -0.08482147
v 0.3259092 0.7448965 0.06920135
v 0.3259394 0.7449061 -0.08475944
v 0.008873357 0.7444457 0.06913929
v 0.4646969 0.3961211 -0.2707425
v 0.008903462 0.7444552 -0.08482147
v 0.3259394 0.7449061 -0.08475944
v 0.009436014 0.3954737 -0.2708316
v 0.009333177 0.3954414 0.2551066
v 0.3259092 0.7448965 0.06920135
v 0.008873357 0.7444457 0.06913929
v 0.4645939 0.3960887 0.2551956
v 0.4645939 0.3960887 0.2551956
v 0.3259394 0.7449061 -0.08475944
v 0.3259092 0.7448965 0.06920135
v 0.4646969 0.3961211 -0.2707425
v 0.009397934 0.4361857 -0.3720526
v -0.452139 0.7107065 -0.2104416
v -0.5444701 0.4354476 -0.3721603
v 0.008975069 0.7113622 -0.2103515
v -0.3915223 0.9628048 -0.1243856
v 0.008599943 0.9633738 -0.1243074
v 0.008524543 1.00038 -0.007825451
v -0.3763458 0.9998323 -0.007900729
v 0.008554386 0.9633593 0.1086519
v -0.3915678 0.9627904 0.1085735
v -0.4522183 0.7106817 0.194575
v 0.008895877 0.7113373 0.1946651
v 0.009255512 0.4361409 0.3563283
v -0.5446125 0.4354028 0.3562196
v -0.5444701 0.4354476 -0.3721603
v -0.4522183 0.7106817 0.194575
v -0.5446125 0.4354028 0.3562196
v -0.452139 0.7107065 -0.2104416
v -0.3915678 0.9627904 0.1085735
v -0.3915223 0.9628048 -0.1243856
v -0.3763458 0.9998323 -0.007900729
v 0.009484708 0.3678649 -0.3190896
v -0.5432788 0.3764858 -0.3721262
v -0.4857777 0.3671607 -0.3191865
v 0.009481463 0.3774316 -0.3720244
v -0.4858992 0.3671225 0.3032643
v 0.009339051 0.3773868 0.3563006
v 0.009362999 0.3678266 0.3033612
v -0.5434213 0.3764411 0.3561875
v -0.4857777 0.3671607 -0.3191865
v -0.5434213 0.3764411 0.3561875
v -0.4858992 0.3671225 0.3032643
v -0.5432788 0.3764858 -0.3721262
v 0.009481463 0.3774316 -0.3720244
v -0.5444701 0.4354476 -0.3721603
v -0.5432788 0.3764858 -0.3721262
v 0.009397934 0.4361857 -0.3720526
v -0.5434213 0.3764411 0.3561875
v 0.009255512 0.4361409 0.3563283
v 0.009339051 0.3773868 0.3563006
v -0.5446125 0.4354028 0.3562196
v -0.5432788 0.3764858 -0.3721262
v -0.5446125 0.4354028 0.3562196
v -0.5434213 0.3764411 0.3561875
v -0.5444701 0.4354476 -0.3721603
v 0.009484708 0.3678649 -0.3190896
v -0.4458249 0.3948264 -0.2709207
v 0.009436014 0.3954737 -0.2708316
v -0.4857777 0.3671607 -0.3191865
v -0.4858992 0.3671225 0.3032643
v 0.009333177 0.3954414 0.2551066
v -0.4459277 0.3947941 0.2550175
v 0.009362999 0.3678266 0.3033612
v -0.4857777 0.3671607 -0.3191865
v -0.4459277 0.3947941 0.2550175
v -0.4458249 0.3948264 -0.2709207
v -0.4858992 0.3671225 0.3032643
v 0.008903462 0.7444552 -0.08482147
v -0.3081624 0.7439951 0.06907723
v 0.008873357 0.7444457 0.06913929
v -0.3081324 0.7440045 -0.0848835
v -0.4458249 0.3948264 -0.2709207
v 0.008903462 0.7444552 -0.08482147
v 0.009436014 0.3954737 -0.2708316
v -0.3081324 0.7440045 -0.0848835
v 0.009333177 0.3954414 0.2551066
v -0.3081624 0.7439951 0.06907723
v -0.4459277 0.3947941 0.2550175
v 0.008873357 0.7444457 0.06913929
v -0.4459277 0.3947941 0.2550175
v -0.3081324 0.7440045 -0.0848835
v -0.4458249 0.3948264 -0.2709207
v -0.3081624 0.7439951 0.06907723
vt 0.02365534 0.6758122
vt 0.2165279 0.544135
vt 0.02365382 0.5441364
vt 0.2553264 0.6757913
vt 0.1910166 0.4364943
vt 0.02365411 0.4364943
vt 0.02365423 0.3853754
vt 0.1846372 0.3853754
vt 0.02365409 0.3342558
vt 0.1910166 0.3342558
vt 0.216528 0.2266134
vt 0.02365383 0.2266119
vt 0.02365538 0.09493351
vt 0.2553264 0.09495448
vt 0.7437052 0.1082008
vt 0.5066674 0.2276416
vt 0.6760763 0.2276422
vt 0.4390405 0.1082004
vt 0.5426508 0.3322512
vt 0.640092 0.3322519
vt 0.5913712 0.348996
vt 0.02365117 0.7247115
vt 0.2548628 0.7004513
vt 0.02365504 0.7003848
vt 0.2308087 0.7247437
vt 0.2308086 0.04599563
vt 0.0236551 0.0703584
vt 0.2548628 0.07029159
vt 0.02365114 0.04602898
vt 0.7215503 0.05748192
vt 0.4390525 0.08353329
vt 0.7436894 0.08353344
vt 0.4611934 0.05748186
vt 0.02365504 0.7003848
vt 0.2553264 0.6757913
vt 0.02365534 0.6758122
vt 0.2548628 0.7004513
vt 0.2548628 0.07029159
vt 0.02365538 0.09493351
vt 0.2553264 0.09495448
vt 0.0236551 0.0703584
vt 0.7436894 0.08353344
vt 0.4390405 0.1082004
vt 0.7437052 0.1082008
vt 0.4390525 0.08353329
vt 0.02365117 0.7247115
vt 0.2140735 0.7479957
vt 0.2308087 0.7247437
vt 0.02364762 0.7479662
vt 0.2308086 0.04599563
vt 0.02364744 0.02277377
vt 0.02365114 0.04602898
vt 0.2140733 0.02274316
vt 0.7215503 0.05748192
vt 0.481378 0.03715106
vt 0.4611934 0.05748186
vt 0.7013658 0.03715114
vt 0.2372514 0.3375386
vt 0.3442739 0.3895152
vt 0.3442746 0.3375425
vt 0.2372499 0.3895121
vt 0.4739671 0.2747563
vt 0.2689579 0.2615068
vt 0.3442746 0.3375425
vt 0.3658132 0.1655684
vt 0.3658128 0.5614889
vt 0.3442739 0.3895152
vt 0.2689575 0.4655507
vt 0.473967 0.4523014
vt 0.473967 0.4523014
vt 0.3442746 0.3375425
vt 0.3442739 0.3895152
vt 0.4739671 0.2747563
vt 0.02365534 0.6758122
vt 0.2165279 0.544135
vt 0.2553264 0.6757913
vt 0.02365382 0.5441364
vt 0.1910166 0.4364943
vt 0.02365411 0.4364943
vt 0.02365423 0.3853754
vt 0.1846372 0.3853754
vt 0.02365409 0.3342558
vt 0.1910166 0.3342558
vt 0.216528 0.2266134
vt 0.02365383 0.2266119
vt 0.02365538 0.09493351
vt 0.2553264 0.09495448
vt 0.7437052 0.1082008
vt 0.5066674 0.2276416
vt 0.4390405 0.1082004
vt 0.6760763 0.2276422
vt 0.5426508 0.3322512
vt 0.640092 0.3322519
vt 0.5913712 0.348996
vt 0.02365117 0.7247115
vt 0.2548628 0.7004513
vt 0.2308087 0.7247437
vt 0.02365504 0.7003848
vt 0.2308086 0.04599563
vt 0.0236551 0.0703584
vt 0.02365114 0.04602898
vt 0.2548628 0.07029159
vt 0.7215503 0.05748192
vt 0.4390525 0.08353329
vt 0.4611934 0.05748186
vt 0.7436894 0.08353344
vt 0.02365504 0.7003848
vt 0.2553264 0.6757913
vt 0.2548628 0.7004513
vt 0.02365534 0.6758122
vt 0.2548628 0.07029159
vt 0.02365538 0.09493351
vt 0.0236551 0.0703584
vt 0.2553264 0.09495448
vt 0.7436894 0.08353344
vt 0.4390405 0.1082004
vt 0.4390525 0.08353329
vt 0.7437052 0.1082008
vt 0.02365117 0.7247115
vt 0.2140735 0.7479957
vt 0.02364762 0.7479662
vt 0.2308087 0.7247437
vt 0.2308086 0.04599563
vt 0.02364744 0.02277377
vt 0.2140733 0.02274316
vt 0.02365114 0.04602898
vt 0.7215503 0.05748192
vt 0.481378 0.03715106
vt 0.7013658 0.03715114
vt 0.4611934 0.05748186
vt 0.2372514 0.3375386
vt 0.3442739 0.3895152
vt 0.2372499 0.3895121
vt 0.3442746 0.3375425
vt 0.4739671 0.2747563
vt 0.2689579 0.2615068
vt 0.3658132 0.1655684
vt 0.3442746 0.3375425
vt 0.3658128 0.5614889
vt 0.3442739 0.3895152
vt 0.473967 0.4523014
vt 0.2689575 0.4655507
vt 0.473967 0.4523014
vt 0.3442746 0.3375425
vt 0.4739671 0.2747563
vt 0.3442739 0.3895152
vn -0.0005516432 0.5066597 -0.862146
vn -0.0004511282 0.4316095 -0.9020604
vn -0.0004150794 0.4170184 -0.9088981
vn -0.0005757361 0.5066596 -0.862146
vn -0.0008161698 0.6756372 -0.7372338
vn -0.0008791973 0.7146341 -0.6994979
vn -0.001421797 0.999999 6.167376E-05
vn -0.001421639 0.999999 6.141814E-05
vn -0.001152819 0.7145478 0.6995857
vn -0.001104685 0.6755465 0.7373165
vn -0.0008040551 0.4314928 0.902116
vn -0.0007705394 0.4169016 0.9089513
vn -0.0008888196 0.5065441 0.8622137
vn -0.0009130893 0.506544 0.8622136
vn 0.9471465 0.3208012 0.0002049243
vn 0.9571961 0.28944 0.0002049897
vn 0.9571961 0.28944 0.0002049897
vn 0.9471465 0.3208012 0.0002049243
vn 0.9659587 0.2586966 0.0002048988
vn 0.9659587 0.2586966 0.0002048988
vn 0.9240366 0.3823041 0.0002045198
vn 0.001433917 -0.9843006 -0.1764946
vn 0.08681738 -0.9926485 -0.08433092
vn 0.001433917 -0.9843006 -0.1764946
vn 0.0812263 -0.9925838 -0.09044238
vn 0.08119247 -0.9925955 0.09034324
vn 0.001364917 -0.9843247 0.1763607
vn 0.08677964 -0.9926594 0.08424128
vn 0.001364917 -0.9843247 0.1763607
vn 0.0812263 -0.9925838 -0.09044238
vn 0.08677964 -0.9926594 0.08424128
vn 0.08681738 -0.9926485 -0.08433092
vn 0.08119247 -0.9925955 0.09034324
vn 0.0001964644 -0.0005270176 -0.9999999
vn 0.0002027199 -0.0005269057 -0.9999999
vn 0.0001964645 -0.0005270176 -0.9999999
vn 0.0002027199 -0.0005269057 -0.9999999
vn -0.0001902169 -0.0005085372 0.9999999
vn -0.0001949563 -0.0005094128 0.9999999
vn -0.0001902169 -0.0005085372 0.9999999
vn -0.0001949563 -0.0005094128 0.9999999
vn 0.9998493 -0.01735683 0.0001944058
vn 0.9998493 -0.01735683 0.0001944058
vn 0.9998493 -0.01735683 0.0001944058
vn 0.9998493 -0.01735683 0.0001944058
vn 0.00113687 -0.8679872 0.4965852
vn 0.00113687 -0.8679872 0.4965852
vn 0.00113687 -0.8679872 0.4965852
vn 0.00113687 -0.8679872 0.4965852
vn 0.001331136 -0.867926 -0.4966919
vn 0.001331136 -0.867926 -0.4966918
vn 0.001331136 -0.867926 -0.4966918
vn 0.001331136 -0.867926 -0.4966919
vn -0.5669068 -0.823782 -0.0001615661
vn -0.5669067 -0.823782 -0.0001615661
vn -0.5669067 -0.823782 -0.0001615661
vn -0.5669068 -0.823782 -0.0001615661
vn 0.00142203 -0.999999 -6.154041E-05
vn 0.00142203 -0.999999 -6.154041E-05
vn 0.00142203 -0.999999 -6.154041E-05
vn 0.00142203 -0.999999 -6.154041E-05
vn 0.0004961538 -0.4703645 0.8824722
vn 0.0004961538 -0.4703644 0.8824722
vn 0.0004961538 -0.4703645 0.8824722
vn 0.0004961538 -0.4703645 0.8824722
vn 0.0008413684 -0.4702557 -0.8825299
vn 0.0008413684 -0.4702557 -0.8825299
vn 0.0008413683 -0.4702556 -0.8825299
vn 0.0008413683 -0.4702557 -0.8825299
vn -0.9292074 -0.3695585 -0.0002046522
vn -0.9292074 -0.3695585 -0.0002046522
vn -0.9292074 -0.3695585 -0.0002046522
vn -0.9292074 -0.3695585 -0.0002046522
vn -0.0005516432 0.5066597 -0.862146
vn -0.0004231865 0.4316096 -0.9020604
vn -0.0005275502 0.5066598 -0.8621459
vn -0.0004150794 0.4170184 -0.9088981
vn -0.000816576 0.6756374 -0.7372336
vn -0.0008791973 0.7146341 -0.6994979
vn -0.001421797 0.999999 6.167376E-05
vn -0.001421954 0.999999 6.182402E-05
vn -0.001152819 0.7145478 0.6995857
vn -0.001104809 0.6755465 0.7373165
vn -0.0007758315 0.431493 0.9021159
vn -0.0007705394 0.4169016 0.9089513
vn -0.0008888196 0.5065441 0.8622137
vn -0.0008645497 0.5065441 0.8622136
vn -0.9480548 0.3181069 -0.0001658722
vn -0.9580153 0.286717 -0.0001697504
vn -0.9480548 0.3181069 -0.0001658723
vn -0.9580153 0.2867171 -0.0001697504
vn -0.9666903 0.2559486 -0.0001732808
vn -0.9666903 0.2559485 -0.0001732808
vn -0.9251194 0.3796762 -0.0001572121
vn 0.001433917 -0.9843006 -0.1764946
vn -0.08396079 -0.9928913 -0.0843642
vn -0.0783679 -0.9928107 -0.09047309
vn 0.001433917 -0.9843006 -0.1764946
vn -0.07840458 -0.9928225 0.09031209
vn 0.001364917 -0.9843247 0.1763607
vn 0.001364917 -0.9843247 0.1763607
vn -0.08398954 -0.9929022 0.08420752
vn -0.0783679 -0.9928107 -0.09047309
vn -0.08398954 -0.9929022 0.08420752
vn -0.07840458 -0.9928225 0.09031209
vn -0.08396079 -0.9928913 -0.0843642
vn 0.0001964644 -0.0005270176 -0.9999999
vn 0.000190209 -0.0005271293 -0.9999999
vn 0.000190209 -0.0005271293 -0.9999999
vn 0.0001964645 -0.0005270176 -0.9999999
vn -0.0001996958 -0.0005102883 0.9999999
vn -0.0001949563 -0.0005094128 0.9999999
vn -0.0001949563 -0.0005094128 0.9999999
vn -0.0001996958 -0.0005102884 0.9999999
vn -0.999796 -0.02020033 -0.0001967562
vn -0.999796 -0.02020032 -0.0001967562
vn -0.999796 -0.02020033 -0.0001967562
vn -0.999796 -0.02020032 -0.0001967562
vn 0.001136974 -0.8679876 0.4965846
vn 0.001136975 -0.8679876 0.4965846
vn 0.001136974 -0.8679876 0.4965846
vn 0.001136974 -0.8679876 0.4965846
vn 0.001331075 -0.8679266 -0.4966906
vn 0.001331075 -0.8679266 -0.4966906
vn 0.001331075 -0.8679266 -0.4966906
vn 0.001331075 -0.8679266 -0.4966906
vn 0.5692456 -0.8221676 6.061587E-05
vn 0.5692456 -0.8221676 6.061586E-05
vn 0.5692455 -0.8221676 6.061586E-05
vn 0.5692456 -0.8221676 6.061587E-05
vn 0.001421428 -0.999999 -6.129351E-05
vn 0.001421428 -0.999999 -6.129351E-05
vn 0.001421428 -0.999999 -6.129351E-05
vn 0.001421428 -0.999999 -6.129351E-05
vn 0.0004960737 -0.4703645 0.8824722
vn 0.0004960737 -0.4703644 0.8824722
vn 0.0004960737 -0.4703645 0.8824722
vn 0.0004960737 -0.4703645 0.8824722
vn 0.0008412084 -0.4702557 -0.8825299
vn 0.0008412085 -0.4702557 -0.8825299
vn 0.0008412084 -0.4702557 -0.8825299
vn 0.0008412083 -0.4702557 -0.8825299
vn 0.9302545 -0.3669151 0.0001591294
vn 0.9302545 -0.3669151 0.0001591294
vn 0.9302545 -0.366915 0.0001591293
vn 0.9302545 -0.3669151 0.0001591294
g SorceryBox_up_0
f 3/3/3 2/2/2 1/1/1
f 2/2/2 4/4/4 1/1/1
f 5/5/5 2/2/2 3/3/3
f 6/6/6 5/5/5 3/3/3
f 6/6/6 7/7/7 5/5/5
f 7/7/7 8/8/8 5/5/5
f 7/7/7 9/9/9 8/8/8
f 9/9/9 10/10/10 8/8/8
f 10/10/10 9/9/9 11/11/11
f 9/9/9 12/12/12 11/11/11
f 11/11/11 12/12/12 13/13/13
f 14/14/14 11/11/11 13/13/13
f 17/17/17 16/16/16 15/15/15
f 16/16/16 18/18/18 15/15/15
f 19/19/19 16/16/16 17/17/17
f 20/20/20 19/19/19 17/17/17
f 21/21/21 19/19/19 20/20/20
f 24/24/24 23/23/23 22/22/22
f 23/23/23 25/25/25 22/22/22
f 28/28/28 27/27/27 26/26/26
f 27/27/27 29/29/29 26/26/26
f 32/32/32 31/31/31 30/30/30
f 31/31/31 33/33/33 30/30/30
f 36/36/36 35/35/35 34/34/34
f 35/35/35 37/37/37 34/34/34
f 40/40/40 39/39/39 38/38/38
f 39/39/39 41/41/41 38/38/38
f 44/44/44 43/43/43 42/42/42
f 43/43/43 45/45/45 42/42/42
f 48/48/48 47/47/47 46/46/46
f 47/47/47 49/49/49 46/46/46
f 52/52/52 51/51/51 50/50/50
f 51/51/51 53/53/53 50/50/50
f 56/56/56 55/55/55 54/54/54
f 55/55/55 57/57/57 54/54/54
f 60/60/60 59/59/59 58/58/58
f 59/59/59 61/61/61 58/58/58
f 64/64/64 63/63/63 62/62/62
f 63/63/63 65/65/65 62/62/62
f 68/68/68 67/67/67 66/66/66
f 67/67/67 69/69/69 66/66/66
f 72/72/72 71/71/71 70/70/70
f 71/71/71 73/73/73 70/70/70
f 76/76/76 75/75/75 74/74/74
f 75/75/75 77/77/77 74/74/74
f 75/75/75 78/78/78 77/77/77
f 78/78/78 79/79/79 77/77/77
f 80/80/80 79/79/79 78/78/78
f 81/81/81 80/80/80 78/78/78
f 82/82/82 80/80/80 81/81/81
f 83/83/83 82/82/82 81/81/81
f 82/82/82 83/83/83 84/84/84
f 85/85/85 82/82/82 84/84/84
f 85/85/85 84/84/84 86/86/86
f 84/84/84 87/87/87 86/86/86
f 90/90/90 89/89/89 88/88/88
f 89/89/89 91/91/91 88/88/88
f 89/89/89 92/92/92 91/91/91
f 92/92/92 93/93/93 91/91/91
f 92/92/92 94/94/94 93/93/93
f 97/97/97 96/96/96 95/95/95
f 96/96/96 98/98/98 95/95/95
f 101/101/101 100/100/100 99/99/99
f 100/100/100 102/102/102 99/99/99
f 105/105/105 104/104/104 103/103/103
f 104/104/104 106/106/106 103/103/103
f 109/109/109 108/108/108 107/107/107
f 108/108/108 110/110/110 107/107/107
f 113/113/113 112/112/112 111/111/111
f 112/112/112 114/114/114 111/111/111
f 117/117/117 116/116/116 115/115/115
f 116/116/116 118/118/118 115/115/115
f 121/121/121 120/120/120 119/119/119
f 120/120/120 122/122/122 119/119/119
f 125/125/125 124/124/124 123/123/123
f 124/124/124 126/126/126 123/123/123
f 129/129/129 128/128/128 127/127/127
f 128/128/128 130/130/130 127/127/127
f 133/133/133 132/132/132 131/131/131
f 132/132/132 134/134/134 131/131/131
f 137/137/137 136/136/136 135/135/135
f 136/136/136 138/138/138 135/135/135
f 141/141/141 140/140/140 139/139/139
f 140/140/140 142/142/142 139/139/139
f 145/145/145 144/144/144 143/143/143
f 144/144/144 146/146/146 143/143/143
