g WEAPON_FLASHMAN_YELLOW_00
v -2.933364E-10 -0.2781985 -1.574825E-09
v 0.0209503 -0.2684233 -0.01331906
v -3.074155E-10 -0.2684117 -0.0239756
v 0.0209503 -0.2684233 0.01331906
v -3.074155E-10 -0.2684117 0.02397559
v 0.03207097 -0.2412782 -0.0204081
v 0.03207097 -0.2412782 0.0204081
v 0.0222495 -0.2143214 -0.01417887
v -3.074154E-10 -0.2144317 -0.02555174
v -3.074158E-10 -0.2412775 -0.03665583
v -3.074155E-10 -0.2684117 -0.0239756
v 0.0222495 -0.2143214 0.01417887
v -2.792888E-10 -0.2144317 0.02555174
v -3.721939E-10 -0.2412775 0.03665583
v -3.074155E-10 -0.2684117 0.02397559
v 0.01563592 -0.2072031 -1.214387E-09
v -2.01334E-10 -0.2071761 -0.01596679
v -3.074155E-10 -0.2071761 0.01596679
v -2.01334E-10 -0.2071761 -0.01596679
v -3.074155E-10 -0.2071761 0.01596679
v -3.074155E-10 0.2781985 1.561165E-09
v -3.074154E-10 0.2684117 -0.02397559
v 0.0209503 0.2684233 -0.01331906
v 0.0209503 0.2684233 0.01331906
v -3.074153E-10 0.2684117 0.0239756
v 0.03207097 0.2412782 -0.0204081
v 0.03207097 0.2412782 0.0204081
v 0.0222495 0.2143214 -0.01417887
v -3.355422E-10 0.2144317 -0.02555174
v -3.721939E-10 0.2412775 -0.03665583
v -3.074154E-10 0.2684117 -0.02397559
v 0.0222495 0.2143214 0.01417887
v -3.074155E-10 0.2144317 0.02555174
v -3.074152E-10 0.2412775 0.03665583
v -3.074153E-10 0.2684117 0.0239756
v 0.01563592 0.2072031 1.200725E-09
v -3.074155E-10 0.2071761 -0.01596679
v -4.134969E-10 0.2071761 0.01596679
v -3.074155E-10 0.2071761 -0.01596679
v -4.134969E-10 0.2071761 0.01596679
v 0.01563592 0.2072031 1.200725E-09
v -2.01334E-10 -0.2071761 -0.01596679
v 0.01563592 -0.2072031 -1.214387E-09
v -3.074155E-10 0.2071761 -0.01596679
v -4.134969E-10 0.2071761 0.01596679
v -3.074155E-10 -0.2071761 0.01596679
v -0.01563592 0.2072031 1.200725E-09
v -0.01563592 -0.2072031 -1.214387E-09
v -2.933364E-10 -0.2781985 -1.574825E-09
v -3.074155E-10 -0.2684117 -0.0239756
v -0.0209503 -0.2684233 -0.01331906
v -0.0209503 -0.2684233 0.01331906
v -3.074155E-10 -0.2684117 0.02397559
v -0.03207097 -0.2412782 -0.0204081
v -0.03207097 -0.2412782 0.0204081
v -0.0222495 -0.2143214 -0.01417887
v -3.074154E-10 -0.2144317 -0.02555174
v -3.074158E-10 -0.2412775 -0.03665583
v -3.074155E-10 -0.2684117 -0.0239756
v -0.0222495 -0.2143214 0.01417887
v -2.792888E-10 -0.2144317 0.02555174
v -3.721939E-10 -0.2412775 0.03665583
v -3.074155E-10 -0.2684117 0.02397559
v -0.01563592 -0.2072031 -1.214387E-09
v -2.01334E-10 -0.2071761 -0.01596679
v -3.074155E-10 -0.2071761 0.01596679
v -2.01334E-10 -0.2071761 -0.01596679
v -3.074155E-10 -0.2071761 0.01596679
v -3.074155E-10 0.2781985 1.561165E-09
v -0.0209503 0.2684233 -0.01331906
v -3.074154E-10 0.2684117 -0.02397559
v -0.0209503 0.2684233 0.01331906
v -3.074153E-10 0.2684117 0.0239756
v -0.03207097 0.2412782 -0.0204081
v -0.03207097 0.2412782 0.0204081
v -0.0222495 0.2143214 -0.01417887
v -3.355422E-10 0.2144317 -0.02555174
v -3.721939E-10 0.2412775 -0.03665583
v -3.074154E-10 0.2684117 -0.02397559
v -0.0222495 0.2143214 0.01417887
v -3.074155E-10 0.2144317 0.02555174
v -3.074152E-10 0.2412775 0.03665583
v -3.074153E-10 0.2684117 0.0239756
v -0.01563592 0.2072031 1.200725E-09
v -3.074155E-10 0.2071761 -0.01596679
v -4.134969E-10 0.2071761 0.01596679
v -3.074155E-10 0.2071761 -0.01596679
v -4.134969E-10 0.2071761 0.01596679
vt 0.2739066 0.8304138
vt 0.2079781 0.7158391
vt 0.1138979 0.7752593
vt 0.3386968 0.7158391
vt 0.4333656 0.7752593
vt 0.1829812 0.6050485
vt 0.3625028 0.6050485
vt 0.1991386 0.4776618
vt 0.07480464 0.4454705
vt 0.01986406 0.6050485
vt 0.1138979 0.7752593
vt 0.3451684 0.4776618
vt 0.4691831 0.4454705
vt 0.5257994 0.6050485
vt 0.4333656 0.7752593
vt 0.2718308 0.4125014
vt 0.1446616 0.3821163
vt 0.3986878 0.3808544
vt 0.1446616 0.3821163
vt 0.3986878 0.3808544
vt 0.7128023 0.04226327
vt 0.5530654 0.09742112
vt 0.6474403 0.1568416
vt 0.7781599 0.1568416
vt 0.8725346 0.09742112
vt 0.6230379 0.2676356
vt 0.80256 0.2676356
vt 0.6397825 0.3950278
vt 0.5156023 0.427219
vt 0.4598289 0.2676356
vt 0.5530654 0.09742112
vt 0.7858133 0.3950278
vt 0.9099891 0.427219
vt 0.9657689 0.2676356
vt 0.8725346 0.09742112
vt 0.7127979 0.4601916
vt 0.5857795 0.4912048
vt 0.8398139 0.4912048
vt 0.5857795 0.4912048
vt 0.8398139 0.4912048
vt 0.9792116 0.9351395
vt 0.0252723 0.8909095
vt 0.0252723 0.935136
vt 0.9792116 0.890913
vt 0.9792116 0.9793665
vt 0.0252723 0.979363
vt 0.9792116 0.9351395
vt 0.0252723 0.935136
vt 0.2739066 0.8304138
vt 0.1138979 0.7752593
vt 0.2079781 0.7158391
vt 0.3386968 0.7158391
vt 0.4333656 0.7752593
vt 0.1829812 0.6050485
vt 0.3625028 0.6050485
vt 0.1991386 0.4776618
vt 0.07480464 0.4454705
vt 0.01986406 0.6050485
vt 0.1138979 0.7752593
vt 0.3451684 0.4776618
vt 0.4691831 0.4454705
vt 0.5257994 0.6050485
vt 0.4333656 0.7752593
vt 0.2718308 0.4125014
vt 0.1446616 0.3821163
vt 0.3986878 0.3808544
vt 0.1446616 0.3821163
vt 0.3986878 0.3808544
vt 0.7128023 0.04226327
vt 0.6474403 0.1568416
vt 0.5530654 0.09742112
vt 0.7781599 0.1568416
vt 0.8725346 0.09742112
vt 0.6230379 0.2676356
vt 0.80256 0.2676356
vt 0.6397825 0.3950278
vt 0.5156023 0.427219
vt 0.4598289 0.2676356
vt 0.5530654 0.09742112
vt 0.7858133 0.3950278
vt 0.9099891 0.427219
vt 0.9657689 0.2676356
vt 0.8725346 0.09742112
vt 0.7127979 0.4601916
vt 0.5857795 0.4912048
vt 0.8398139 0.4912048
vt 0.5857795 0.4912048
vt 0.8398139 0.4912048
vn 0 -1 0
vn 0.6280257 -0.6767885 -0.3841108
vn 0 -0.6748648 -0.7379414
vn 0.6280257 -0.6767885 0.3841108
vn 0 -0.6748649 0.7379413
vn 0.8510711 -0.01994759 -0.5246714
vn 0.8510711 -0.01994763 0.5246714
vn 0.6738711 0.6060238 -0.4226498
vn 0 0.5764514 -0.8171314
vn 0 -0.0200907 -0.9997982
vn 0 -0.6748648 -0.7379414
vn 0.6738711 0.6060238 0.4226498
vn 0 0.5764514 0.8171314
vn 0 -0.02009072 0.9997982
vn 0 -0.6748649 0.7379413
vn 0.5259536 0.8505133 0
vn 0 0.8588997 -0.5121437
vn 0 0.8588997 0.5121437
vn 0 0.8588997 -0.5121437
vn 0 0.8588997 0.5121437
vn 0 1 0
vn 0 0.6748649 -0.7379413
vn 0.6280257 0.6767885 -0.3841108
vn 0.6280257 0.6767886 0.3841108
vn 0 0.6748648 0.7379414
vn 0.8510711 0.01994762 -0.5246714
vn 0.8510711 0.01994759 0.5246714
vn 0.6738711 -0.6060238 -0.4226498
vn 0 -0.5764514 -0.8171314
vn 0 0.02009072 -0.9997982
vn 0 0.6748649 -0.7379413
vn 0.6738711 -0.6060238 0.4226498
vn 0 -0.5764514 0.8171314
vn 0 0.0200907 0.9997982
vn 0 0.6748648 0.7379414
vn 0.5259536 -0.8505133 0
vn 0 -0.8588997 -0.5121439
vn 0 -0.8588997 0.5121437
vn 0 -0.8588997 -0.5121439
vn 0 -0.8588997 0.5121437
vn 1 0 0
vn 0 0 -1
vn 1 0 0
vn 0 0 -1
vn 0 0 1
vn 0 0 1
vn -1 0 0
vn -1 0 0
vn 0 -1 0
vn 0 -0.6748648 -0.7379414
vn -0.6280257 -0.6767886 -0.3841108
vn -0.6280257 -0.6767885 0.3841108
vn 0 -0.6748649 0.7379413
vn -0.8510711 -0.01994759 -0.5246714
vn -0.8510711 -0.01994763 0.5246714
vn -0.6738711 0.6060238 -0.4226498
vn 0 0.5764514 -0.8171314
vn 0 -0.0200907 -0.9997982
vn 0 -0.6748648 -0.7379414
vn -0.6738711 0.6060238 0.4226498
vn 0 0.5764514 0.8171314
vn 0 -0.02009072 0.9997982
vn 0 -0.6748649 0.7379413
vn -0.5259536 0.8505133 0
vn 0 0.8588997 -0.5121437
vn 0 0.8588997 0.5121437
vn 0 0.8588997 -0.5121437
vn 0 0.8588997 0.5121437
vn 0 1 0
vn -0.6280257 0.6767885 -0.3841108
vn 0 0.6748649 -0.7379413
vn -0.6280257 0.6767886 0.3841108
vn 0 0.6748648 0.7379414
vn -0.8510711 0.01994762 -0.5246714
vn -0.8510711 0.0199476 0.5246714
vn -0.6738711 -0.6060238 -0.4226498
vn 0 -0.5764514 -0.8171314
vn 0 0.02009072 -0.9997982
vn 0 0.6748649 -0.7379413
vn -0.6738711 -0.6060238 0.4226498
vn 0 -0.5764514 0.8171314
vn 0 0.0200907 0.9997982
vn 0 0.6748648 0.7379414
vn -0.5259536 -0.8505133 0
vn 0 -0.8588997 -0.5121439
vn 0 -0.8588997 0.5121437
vn 0 -0.8588997 -0.5121439
vn 0 -0.8588997 0.5121437
g WEAPON_FLASHMAN_YELLOW_00_0
f 3/3/3 2/2/2 1/1/1
f 2/2/2 4/4/4 1/1/1
f 4/4/4 5/5/5 1/1/1
f 2/2/2 3/3/3 6/6/6
f 4/4/4 2/2/2 7/7/7
f 2/2/2 6/6/6 7/7/7
f 5/5/5 4/4/4 7/7/7
f 6/6/6 8/8/8 7/7/7
f 9/9/9 8/8/8 6/6/6
f 10/10/10 9/9/9 6/6/6
f 11/11/11 10/10/10 6/6/6
f 8/8/8 12/12/12 7/7/7
f 12/12/12 13/13/13 7/7/7
f 13/13/13 14/14/14 7/7/7
f 14/14/14 15/15/15 7/7/7
f 8/8/8 16/16/16 12/12/12
f 8/8/8 17/17/17 16/16/16
f 12/12/12 16/16/16 18/18/18
f 9/9/9 19/19/19 8/8/8
f 13/13/13 12/12/12 20/20/20
f 23/23/23 22/22/22 21/21/21
f 24/24/24 23/23/23 21/21/21
f 25/25/25 24/24/24 21/21/21
f 22/22/22 23/23/23 26/26/26
f 26/26/26 23/23/23 27/27/27
f 23/23/23 24/24/24 27/27/27
f 24/24/24 25/25/25 27/27/27
f 28/28/28 26/26/26 27/27/27
f 28/28/28 29/29/29 26/26/26
f 29/29/29 30/30/30 26/26/26
f 30/30/30 31/31/31 26/26/26
f 32/32/32 28/28/28 27/27/27
f 33/33/33 32/32/32 27/27/27
f 34/34/34 33/33/33 27/27/27
f 35/35/35 34/34/34 27/27/27
f 36/36/36 28/28/28 32/32/32
f 37/37/37 28/28/28 36/36/36
f 36/36/36 32/32/32 38/38/38
f 39/39/39 29/29/29 28/28/28
f 32/32/32 33/33/33 40/40/40
f 43/43/43 42/42/42 41/41/41
f 42/42/42 44/44/44 41/41/41
f 43/43/43 41/41/41 45/45/45
f 46/46/46 43/43/43 45/45/45
f 44/44/44 42/42/42 47/47/47
f 42/42/42 48/48/48 47/47/47
f 47/47/47 48/48/48 45/45/45
f 48/48/48 46/46/46 45/45/45
f 51/51/51 50/50/50 49/49/49
f 52/52/52 51/51/51 49/49/49
f 53/53/53 52/52/52 49/49/49
f 50/50/50 51/51/51 54/54/54
f 54/54/54 51/51/51 55/55/55
f 51/51/51 52/52/52 55/55/55
f 52/52/52 53/53/53 55/55/55
f 56/56/56 54/54/54 55/55/55
f 56/56/56 57/57/57 54/54/54
f 57/57/57 58/58/58 54/54/54
f 58/58/58 59/59/59 54/54/54
f 60/60/60 56/56/56 55/55/55
f 61/61/61 60/60/60 55/55/55
f 62/62/62 61/61/61 55/55/55
f 63/63/63 62/62/62 55/55/55
f 64/64/64 56/56/56 60/60/60
f 65/65/65 56/56/56 64/64/64
f 64/64/64 60/60/60 66/66/66
f 67/67/67 57/57/57 56/56/56
f 60/60/60 61/61/61 68/68/68
f 71/71/71 70/70/70 69/69/69
f 70/70/70 72/72/72 69/69/69
f 72/72/72 73/73/73 69/69/69
f 70/70/70 71/71/71 74/74/74
f 72/72/72 70/70/70 75/75/75
f 70/70/70 74/74/74 75/75/75
f 73/73/73 72/72/72 75/75/75
f 74/74/74 76/76/76 75/75/75
f 77/77/77 76/76/76 74/74/74
f 78/78/78 77/77/77 74/74/74
f 79/79/79 78/78/78 74/74/74
f 76/76/76 80/80/80 75/75/75
f 80/80/80 81/81/81 75/75/75
f 81/81/81 82/82/82 75/75/75
f 82/82/82 83/83/83 75/75/75
f 76/76/76 84/84/84 80/80/80
f 76/76/76 85/85/85 84/84/84
f 80/80/80 84/84/84 86/86/86
f 77/77/77 87/87/87 76/76/76
f 81/81/81 80/80/80 88/88/88
