g WEAPON_FLASHMAN_BLUE_00
v 0.02288127 0.006550014 -0.0395747
v -0.04576255 0.006550012 -3.987478E-09
v -0.02288128 0.006550014 -0.0395747
v 0.04576255 0.006550012 1.321116E-11
v -0.06844692 0.006550014 -0.0395747
v 6.313162E-11 0.006550016 -0.0790357
v 0.06844692 0.006550014 -0.0395747
v 0.02288127 0.00655001 0.03957468
v 0.06844692 0.00655001 0.03957468
v -0.02288128 0.00655001 0.03957468
v -2.083832E-09 0.006550008 0.0790357
v -0.06844692 0.00655001 0.03957468
v 0.04576255 -0.006550012 -5.594091E-10
v -0.02288128 -0.006550011 -0.0395747
v -0.04576255 -0.006550012 -4.560099E-09
v 0.02288127 -0.006550011 -0.0395747
v -0.06844692 -0.006550011 -0.0395747
v 6.313162E-11 -0.006550008 -0.0790357
v 0.06844692 -0.006550011 -0.0395747
v -0.02288128 -0.006550013 0.03957468
v -0.06844692 -0.006550013 0.03957468
v 0.02288127 -0.006550013 0.03957468
v 0.06844692 -0.006550013 0.03957468
v -2.083832E-09 -0.006550016 0.0790357
v 0.02288127 0.00655001 0.03957468
v 0.06844692 -0.006550013 0.03957468
v 0.02288127 -0.006550013 0.03957468
v 0.06844692 0.00655001 0.03957468
v 0.04576255 -0.006550012 -5.594091E-10
v 0.06844692 0.00655001 0.03957468
v 0.04576255 0.006550012 1.321116E-11
v 0.06844692 -0.006550013 0.03957468
v -0.02288128 0.00655001 0.03957468
v -2.083832E-09 -0.006550016 0.0790357
v -0.02288128 -0.006550013 0.03957468
v -2.083832E-09 0.006550008 0.0790357
v 0.02288127 -0.006550013 0.03957468
v -2.083832E-09 0.006550008 0.0790357
v 0.02288127 0.00655001 0.03957468
v -2.083832E-09 -0.006550016 0.0790357
v -0.04576255 0.006550012 -3.987478E-09
v -0.06844692 -0.006550013 0.03957468
v -0.04576255 -0.006550012 -4.560099E-09
v -0.06844692 0.00655001 0.03957468
v -0.02288128 -0.006550013 0.03957468
v -0.06844692 0.00655001 0.03957468
v -0.02288128 0.00655001 0.03957468
v -0.06844692 -0.006550013 0.03957468
v -0.02288128 0.006550014 -0.0395747
v -0.06844692 -0.006550011 -0.0395747
v -0.02288128 -0.006550011 -0.0395747
v -0.06844692 0.006550014 -0.0395747
v -0.04576255 -0.006550012 -4.560099E-09
v -0.06844692 0.006550014 -0.0395747
v -0.04576255 0.006550012 -3.987478E-09
v -0.06844692 -0.006550011 -0.0395747
v 0.02288127 0.006550014 -0.0395747
v 6.313162E-11 -0.006550008 -0.0790357
v 0.02288127 -0.006550011 -0.0395747
v 6.313162E-11 0.006550016 -0.0790357
v -0.02288128 -0.006550011 -0.0395747
v 6.313162E-11 0.006550016 -0.0790357
v -0.02288128 0.006550014 -0.0395747
v 6.313162E-11 -0.006550008 -0.0790357
v 0.04576255 0.006550012 1.321116E-11
v 0.06844692 -0.006550011 -0.0395747
v 0.04576255 -0.006550012 -5.594091E-10
v 0.06844692 0.006550014 -0.0395747
v 0.02288127 -0.006550011 -0.0395747
v 0.06844692 0.006550014 -0.0395747
v 0.02288127 0.006550014 -0.0395747
v 0.06844692 -0.006550011 -0.0395747
vt 0.5457866 0.2991839
vt 0.1582835 0.5144041
vt 0.2874512 0.2991839
vt 0.6749543 0.5144041
vt 0.03022738 0.2991839
vt 0.4166189 0.08458212
vt 0.8030105 0.2991839
vt 0.5457866 0.7296241
vt 0.8030105 0.7296241
vt 0.2874512 0.7296241
vt 0.4166189 0.944226
vt 0.03022738 0.7296241
vt 0.6749542 0.5144041
vt 0.2874512 0.2991839
vt 0.1582834 0.5144041
vt 0.5457865 0.2991839
vt 0.03022734 0.2991839
vt 0.4166189 0.08458212
vt 0.8030103 0.2991839
vt 0.2874512 0.7296241
vt 0.03022734 0.7296241
vt 0.5457865 0.7296241
vt 0.8030103 0.7296241
vt 0.4166188 0.944226
vt 0.8999393 0.7938018
vt 0.8422235 0.6403586
vt 0.8422236 0.7938018
vt 0.8999392 0.6403586
vt 0.8422235 0.5028214
vt 0.8999392 0.6403586
vt 0.8999392 0.5028214
vt 0.8422235 0.6403586
vt 0.9822968 0.2099969
vt 0.9245812 0.03559031
vt 0.9245811 0.2099969
vt 0.9822969 0.03559031
vt 0.8422236 0.7938018
vt 0.8999395 0.9682084
vt 0.8999393 0.7938018
vt 0.8422238 0.9682084
vt 0.9822968 0.5009774
vt 0.9245813 0.3634398
vt 0.9245811 0.5009774
vt 0.9822968 0.3634398
vt 0.9245811 0.2099969
vt 0.9822968 0.3634398
vt 0.9822968 0.2099969
vt 0.9245813 0.3634398
vt 0.9822968 0.7919579
vt 0.9245813 0.638515
vt 0.9245812 0.7919579
vt 0.9822968 0.638515
vt 0.9245811 0.5009774
vt 0.9822968 0.638515
vt 0.9822968 0.5009774
vt 0.9245813 0.638515
vt 0.8999392 0.2118409
vt 0.8422235 0.03743427
vt 0.8422235 0.2118409
vt 0.8999392 0.03743427
vt 0.9245812 0.7919579
vt 0.9822968 0.9663642
vt 0.9822968 0.7919579
vt 0.9245811 0.9663642
vt 0.8999392 0.5028214
vt 0.8422235 0.3652841
vt 0.8422235 0.5028214
vt 0.8999392 0.3652841
vt 0.8422235 0.2118409
vt 0.8999392 0.3652841
vt 0.8999392 0.2118409
vt 0.8422235 0.3652841
vn 0 1 0
vn 0 1 0
vn 0 1 0
vn 0 1 0
vn 0 1 0
vn 0 1 0
vn 0 1 0
vn 0 1 0
vn 0 1 0
vn 0 1 0
vn 0 1 0
vn 0 1 0
vn 0 -1 0
vn 0 -1 0
vn 0 -1 0
vn 0 -1 0
vn 0 -1 0
vn 0 -1 0
vn 0 -1 0
vn 0 -1 0
vn 0 -1 0
vn 0 -1 0
vn 0 -1 0
vn 0 -1 0
vn 0 0 1
vn 0 0 1
vn 0 0 1
vn 0 0 1
vn 0.8675788 0 -0.4972997
vn 0.8675788 0 -0.4972997
vn 0.8675788 0 -0.4972997
vn 0.8675788 0 -0.4972997
vn -0.8650895 0 0.5016178
vn -0.8650895 0 0.5016178
vn -0.8650895 0 0.5016178
vn -0.8650895 0 0.5016178
vn 0.8650894 0 0.5016178
vn 0.8650894 0 0.5016178
vn 0.8650894 0 0.5016178
vn 0.8650894 0 0.5016178
vn -0.8675789 0 -0.4972997
vn -0.8675789 0 -0.4972997
vn -0.8675789 0 -0.4972997
vn -0.8675789 0 -0.4972997
vn 0 0 1
vn 0 0 1
vn 0 0 1
vn 0 0 1
vn 0 0 -1
vn 0 0 -1
vn 0 0 -1
vn 0 0 -1
vn -0.8675789 0 0.4972996
vn -0.8675789 0 0.4972996
vn -0.8675789 0 0.4972996
vn -0.8675789 0 0.4972996
vn 0.8650894 0 -0.5016178
vn 0.8650894 0 -0.5016178
vn 0.8650894 0 -0.5016178
vn 0.8650894 0 -0.5016178
vn -0.8650893 0 -0.5016179
vn -0.8650893 0 -0.5016179
vn -0.8650893 0 -0.5016179
vn -0.8650893 0 -0.5016179
vn 0.8675789 0 0.4972995
vn 0.8675789 0 0.4972995
vn 0.8675789 0 0.4972995
vn 0.8675789 0 0.4972996
vn 0 0 -1
vn 0 0 -1
vn 0 0 -1
vn 0 0 -1
g WEAPON_FLASHMAN_BLUE_00_0
f 3/3/3 2/2/2 1/1/1
f 2/2/2 4/4/4 1/1/1
f 3/3/3 5/5/5 2/2/2
f 1/1/1 6/6/6 3/3/3
f 4/4/4 7/7/7 1/1/1
f 8/8/8 4/4/4 2/2/2
f 8/8/8 9/9/9 4/4/4
f 10/10/10 8/8/8 2/2/2
f 10/10/10 11/11/11 8/8/8
f 2/2/2 12/12/12 10/10/10
f 15/15/15 14/14/14 13/13/13
f 14/14/14 16/16/16 13/13/13
f 15/15/15 17/17/17 14/14/14
f 14/14/14 18/18/18 16/16/16
f 16/16/16 19/19/19 13/13/13
f 20/20/20 15/15/15 13/13/13
f 20/20/20 21/21/21 15/15/15
f 22/22/22 20/20/20 13/13/13
f 13/13/13 23/23/23 22/22/22
f 22/22/22 24/24/24 20/20/20
f 27/27/27 26/26/26 25/25/25
f 26/26/26 28/28/28 25/25/25
f 31/31/31 30/30/30 29/29/29
f 30/30/30 32/32/32 29/29/29
f 35/35/35 34/34/34 33/33/33
f 34/34/34 36/36/36 33/33/33
f 39/39/39 38/38/38 37/37/37
f 38/38/38 40/40/40 37/37/37
f 43/43/43 42/42/42 41/41/41
f 42/42/42 44/44/44 41/41/41
f 47/47/47 46/46/46 45/45/45
f 46/46/46 48/48/48 45/45/45
f 51/51/51 50/50/50 49/49/49
f 50/50/50 52/52/52 49/49/49
f 55/55/55 54/54/54 53/53/53
f 54/54/54 56/56/56 53/53/53
f 59/59/59 58/58/58 57/57/57
f 58/58/58 60/60/60 57/57/57
f 63/63/63 62/62/62 61/61/61
f 62/62/62 64/64/64 61/61/61
f 67/67/67 66/66/66 65/65/65
f 66/66/66 68/68/68 65/65/65
f 71/71/71 70/70/70 69/69/69
f 70/70/70 72/72/72 69/69/69
