g WEAPON_FLASHMAN_PINK_00
v 0.1965462 0.100406 0.26762
v 0.184739 0.041893 0.09901951
v 0.181025 0.028931 0.262351
v 0.1986132 0.107401 0.1030185
v 0.047888 0.078489 0.25308
v 0.115782 0.029658 0.09715551
v 0.08371 0.089486 0.09622599
v 0.08976499 0.013664 0.253156
v 0.115782 0.029658 0.09715551
v 0.135395 0.008118 0.256798
v 0.15026 0.025047 0.098561
v 0.08976499 0.013664 0.253156
v 0.192131 -0.089153 -0.002163
v 0.225195 -0.017661 0.04743454
v 0.23232 -0.017463 -0.002163
v 0.188767 -0.082661 0.044508
v 0.087095 -0.029787 0.04743454
v 0.08371 0.089486 0.09622599
v 0.115782 0.029658 0.09715551
v 0.07788 0.124091 0.05388988
v 0.129837 -0.086839 0.044508
v 0.129837 -0.086839 0.044508
v 0.115782 0.029658 0.09715551
v 0.15026 0.025047 0.098561
v 0.188767 -0.082661 0.044508
v 0.134178 -0.093328 -0.002163
v 0.188767 -0.082661 0.044508
v 0.192131 -0.089153 -0.002163
v 0.129837 -0.086839 0.044508
v 0.081994 0.12528 -0.002163
v 0.23232 -0.017463 -0.002163
v 0.210092 0.136817 -0.002163
v 0.084178 -0.029707 -0.002163
v 0.192131 -0.089153 -0.002163
v 0.134178 -0.093328 -0.002163
v 0.179597 0.181347 -0.002163
v 0.10017 0.175578 -0.002163
v 0.140707 0.190044 -0.002163
v 0.176157 0.181324 0.05868996
v 0.140707 0.190044 -0.002163
v 0.179597 0.181347 -0.002163
v 0.137404 0.191305 0.05921796
v 0.101309 0.175614 0.05868996
v 0.133221 0.17445 0.105402
v 0.103211 0.155049 0.101848
v 0.137404 0.191305 0.05921796
v 0.184739 0.041893 0.09901951
v 0.208909 0.135511 0.05388988
v 0.225195 -0.017661 0.04743454
v 0.1986132 0.107401 0.1030185
v 0.134178 -0.093328 -0.002163
v 0.087095 -0.029787 0.04743454
v 0.129837 -0.086839 0.044508
v 0.084178 -0.029707 -0.002163
v 0.07788 0.124091 0.05388988
v 0.081994 0.12528 -0.002163
v 0.101309 0.175614 0.05868996
v 0.10017 0.175578 -0.002163
v 0.101309 0.175614 0.05868996
v 0.140707 0.190044 -0.002163
v 0.137404 0.191305 0.05921796
v 0.10017 0.175578 -0.002163
v 0.210092 0.136817 -0.002163
v 0.225195 -0.017661 0.04743454
v 0.208909 0.135511 0.05388988
v 0.23232 -0.017463 -0.002163
v 0.179597 0.181347 -0.002163
v 0.176157 0.181324 0.05868996
v 0.1986132 0.107401 0.1030185
v 0.176157 0.181324 0.05868996
v 0.208909 0.135511 0.05388988
v 0.1691009 0.164007 0.104823
v 0.071536 0.149552 0.258323
v 0.08371 0.089486 0.09622599
v 0.103211 0.155049 0.101848
v 0.047888 0.078489 0.25308
v 0.1563929 0.160511 0.265593
v 0.133221 0.17445 0.105402
v 0.1691009 0.164007 0.104823
v 0.112674 0.171111 0.263566
v 0.184739 0.041893 0.09901951
v 0.135395 0.008118 0.256798
v 0.181025 0.028931 0.262351
v 0.15026 0.025047 0.098561
v 0.112674 0.171111 0.263566
v 0.1563929 0.160511 0.265593
v 0.071536 0.149552 0.258323
v 0.1965462 0.100406 0.26762
v 0.047888 0.078489 0.25308
v 0.08976499 0.013664 0.253156
v 0.181025 0.028931 0.262351
v 0.135395 0.008118 0.256798
v 0.188767 -0.082661 0.044508
v 0.15026 0.025047 0.098561
v 0.184739 0.041893 0.09901951
v 0.225195 -0.017661 0.04743454
v 0.103211 0.155049 0.101848
v 0.112674 0.171111 0.263566
v 0.071536 0.149552 0.258323
v 0.133221 0.17445 0.105402
v 0.1986132 0.107401 0.1030185
v 0.1563929 0.160511 0.265593
v 0.1691009 0.164007 0.104823
v 0.1965462 0.100406 0.26762
v 0.1691009 0.164007 0.104823
v 0.137404 0.191305 0.05921796
v 0.176157 0.181324 0.05868996
v 0.133221 0.17445 0.105402
v 0.103211 0.155049 0.101848
v 0.07788 0.124091 0.05388988
v 0.101309 0.175614 0.05868996
v 0.08371 0.089486 0.09622599
v -0.1965462 0.100406 0.26762
v -0.184739 0.041893 0.09901951
v -0.1986132 0.107401 0.1030185
v -0.181025 0.028931 0.262351
v -0.047888 0.078489 0.25308
v -0.115782 0.029658 0.09715551
v -0.08976499 0.013664 0.253156
v -0.08371 0.089486 0.09622599
v -0.115782 0.029658 0.09715551
v -0.135395 0.008118 0.256798
v -0.08976499 0.013664 0.253156
v -0.15026 0.025047 0.098561
v -0.192131 -0.089153 -0.002163
v -0.225195 -0.017661 0.04743454
v -0.188767 -0.082661 0.044508
v -0.23232 -0.017463 -0.002163
v -0.087095 -0.029787 0.04743454
v -0.08371 0.089486 0.09622599
v -0.07788 0.124091 0.05388988
v -0.115782 0.029658 0.09715551
v -0.129837 -0.086839 0.044508
v -0.129837 -0.086839 0.044508
v -0.15026 0.025047 0.098561
v -0.115782 0.029658 0.09715551
v -0.188767 -0.082661 0.044508
v -0.134178 -0.093328 -0.002163
v -0.188767 -0.082661 0.044508
v -0.129837 -0.086839 0.044508
v -0.192131 -0.089153 -0.002163
v -0.081994 0.12528 -0.002163
v -0.23232 -0.017463 -0.002163
v -0.084178 -0.029707 -0.002163
v -0.210092 0.136817 -0.002163
v -0.192131 -0.089153 -0.002163
v -0.134178 -0.093328 -0.002163
v -0.179597 0.181347 -0.002163
v -0.10017 0.175578 -0.002163
v -0.140707 0.190044 -0.002163
v -0.176157 0.181324 0.05868996
v -0.140707 0.190044 -0.002163
v -0.137404 0.191305 0.05921796
v -0.179597 0.181347 -0.002163
v -0.101309 0.175614 0.05868996
v -0.133221 0.17445 0.105402
v -0.137404 0.191305 0.05921796
v -0.103211 0.155049 0.101848
v -0.184739 0.041893 0.09901951
v -0.225195 -0.017661 0.04743454
v -0.208909 0.135511 0.05388988
v -0.1986132 0.107401 0.1030185
v -0.134178 -0.093328 -0.002163
v -0.087095 -0.029787 0.04743454
v -0.084178 -0.029707 -0.002163
v -0.129837 -0.086839 0.044508
v -0.07788 0.124091 0.05388988
v -0.081994 0.12528 -0.002163
v -0.101309 0.175614 0.05868996
v -0.10017 0.175578 -0.002163
v -0.101309 0.175614 0.05868996
v -0.140707 0.190044 -0.002163
v -0.10017 0.175578 -0.002163
v -0.137404 0.191305 0.05921796
v -0.210092 0.136817 -0.002163
v -0.225195 -0.017661 0.04743454
v -0.23232 -0.017463 -0.002163
v -0.208909 0.135511 0.05388988
v -0.179597 0.181347 -0.002163
v -0.176157 0.181324 0.05868996
v -0.1986132 0.107401 0.1030185
v -0.176157 0.181324 0.05868996
v -0.1691009 0.164007 0.104823
v -0.208909 0.135511 0.05388988
v -0.071536 0.149552 0.258323
v -0.08371 0.089486 0.09622599
v -0.047888 0.078489 0.25308
v -0.103211 0.155049 0.101848
v -0.1563929 0.160511 0.265593
v -0.133221 0.17445 0.105402
v -0.112674 0.171111 0.263566
v -0.1691009 0.164007 0.104823
v -0.184739 0.041893 0.09901951
v -0.135395 0.008118 0.256798
v -0.15026 0.025047 0.098561
v -0.181025 0.028931 0.262351
v -0.112674 0.171111 0.263566
v -0.071536 0.149552 0.258323
v -0.1563929 0.160511 0.265593
v -0.1965462 0.100406 0.26762
v -0.047888 0.078489 0.25308
v -0.08976499 0.013664 0.253156
v -0.181025 0.028931 0.262351
v -0.135395 0.008118 0.256798
v -0.188767 -0.082661 0.044508
v -0.184739 0.041893 0.09901951
v -0.15026 0.025047 0.098561
v -0.225195 -0.017661 0.04743454
v -0.103211 0.155049 0.101848
v -0.112674 0.171111 0.263566
v -0.133221 0.17445 0.105402
v -0.071536 0.149552 0.258323
v -0.1986132 0.107401 0.1030185
v -0.1563929 0.160511 0.265593
v -0.1965462 0.100406 0.26762
v -0.1691009 0.164007 0.104823
v -0.1691009 0.164007 0.104823
v -0.137404 0.191305 0.05921796
v -0.133221 0.17445 0.105402
v -0.176157 0.181324 0.05868996
v -0.103211 0.155049 0.101848
v -0.07788 0.124091 0.05388988
v -0.08371 0.089486 0.09622599
v -0.101309 0.175614 0.05868996
vt 0.6204 0.9627
vt 0.4839 0.6892
vt 0.5008 0.9701
vt 0.5953 0.6856
vt 0.2143 0.9629
vt 0.3606 0.698
vt 0.2466 0.6964
vt 0.3419 0.9705
vt 0.3606 0.698
vt 0.4179 0.9706
vt 0.4202 0.7045
vt 0.3419 0.9705
vt 0.6607 0.1767
vt 0.7435 0.3099
vt 0.7884 0.2475
vt 0.6546 0.2529
vt 0.5228 0.3144
vt 0.4832 0.5246
vt 0.5618 0.4399
vt 0.3897 0.5154
vt 0.5902 0.2574
vt 0.5902 0.2574
vt 0.5618 0.4399
vt 0.6402 0.4385
vt 0.6546 0.2529
vt 0.5852 0.1869
vt 0.6546 0.2529
vt 0.6607 0.1767
vt 0.5902 0.2574
vt 0.038 0.1462
vt 0.2645 0.4017
vt 0.2498 0.1454
vt 0.0197 0.4009
vt 0.1885 0.5137
vt 0.0928 0.5124
vt 0.2061 0.068
vt 0.0749 0.0662
vt 0.1435 0.0482
vt 0.867 0.6259
vt 0.9775 0.6587
vt 0.9648 0.5901
vt 0.8765 0.6886
vt 0.3356 0.5809
vt 0.3732 0.6574
vt 0.4054 0.6078
vt 0.3013 0.6303
vt 0.7091 0.4469
vt 0.847 0.5389
vt 0.7435 0.3099
vt 0.7573 0.5456
vt 0.5852 0.1869
vt 0.5228 0.3144
vt 0.5902 0.2574
vt 0.4716 0.2694
vt 0.3897 0.5154
vt 0.3123 0.4525
vt 0.3356 0.5809
vt 0.2553 0.5168
vt 0.3356 0.5809
vt 0.2133 0.5733
vt 0.3013 0.6303
vt 0.2553 0.5168
vt 0.9373 0.4947
vt 0.7435 0.3099
vt 0.847 0.5389
vt 0.7884 0.2475
vt 0.9648 0.5901
vt 0.867 0.6259
vt 0.7573 0.5456
vt 0.867 0.6259
vt 0.847 0.5389
vt 0.7925 0.6466
vt 0.0918 0.9401
vt 0.2466 0.6964
vt 0.1334 0.6775
vt 0.2143 0.9629
vt 0.7382 0.9458
vt 0.757 0.677
vt 0.7015 0.6797
vt 0.8056 0.9381
vt 0.4839 0.6892
vt 0.4179 0.9706
vt 0.5008 0.9701
vt 0.4202 0.7045
vt 0.8706 0.0223
vt 0.8233 0.0436
vt 0.9269 0.0411
vt 0.7862 0.1267
vt 0.9712 0.1255
vt 0.9319 0.2152
vt 0.8139 0.2143
vt 0.8756 0.2313
vt 0.6546 0.2529
vt 0.6402 0.4385
vt 0.7091 0.4469
vt 0.7435 0.3099
vt 0.1334 0.6775
vt 0.0163 0.9221
vt 0.0918 0.9401
vt 0.0752 0.6631
vt 0.5953 0.6856
vt 0.7382 0.9458
vt 0.7015 0.6797
vt 0.6204 0.9627
vt 0.7925 0.6466
vt 0.8765 0.6886
vt 0.867 0.6259
vt 0.8012 0.7028
vt 0.4054 0.6078
vt 0.3897 0.5154
vt 0.3356 0.5809
vt 0.4832 0.5246
vt 0.6204 0.9627
vt 0.4839 0.6892
vt 0.5953 0.6856
vt 0.5008 0.9701
vt 0.2143 0.9629
vt 0.3606 0.698
vt 0.3419 0.9705
vt 0.2466 0.6964
vt 0.3606 0.698
vt 0.4179 0.9706
vt 0.3419 0.9705
vt 0.4202 0.7045
vt 0.6607 0.1767
vt 0.7435 0.3099
vt 0.6546 0.2529
vt 0.7884 0.2475
vt 0.5228 0.3144
vt 0.4832 0.5246
vt 0.3897 0.5154
vt 0.5618 0.4399
vt 0.5902 0.2574
vt 0.5902 0.2574
vt 0.6402 0.4385
vt 0.5618 0.4399
vt 0.6546 0.2529
vt 0.5852 0.1869
vt 0.6546 0.2529
vt 0.5902 0.2574
vt 0.6607 0.1767
vt 0.038 0.1462
vt 0.2645 0.4017
vt 0.0197 0.4009
vt 0.2498 0.1454
vt 0.1885 0.5137
vt 0.0928 0.5124
vt 0.2061 0.068
vt 0.0749 0.0662
vt 0.1435 0.0482
vt 0.867 0.6259
vt 0.9775 0.6587
vt 0.8765 0.6886
vt 0.9648 0.5901
vt 0.3356 0.5809
vt 0.3732 0.6574
vt 0.3013 0.6303
vt 0.4054 0.6078
vt 0.7091 0.4469
vt 0.7435 0.3099
vt 0.847 0.5389
vt 0.7573 0.5456
vt 0.5852 0.1869
vt 0.5228 0.3144
vt 0.4716 0.2694
vt 0.5902 0.2574
vt 0.3897 0.5154
vt 0.3123 0.4525
vt 0.3356 0.5809
vt 0.2553 0.5168
vt 0.3356 0.5809
vt 0.2133 0.5733
vt 0.2553 0.5168
vt 0.3013 0.6303
vt 0.9373 0.4947
vt 0.7435 0.3099
vt 0.7884 0.2475
vt 0.847 0.5389
vt 0.9648 0.5901
vt 0.867 0.6259
vt 0.7573 0.5456
vt 0.867 0.6259
vt 0.7925 0.6466
vt 0.847 0.5389
vt 0.0918 0.9401
vt 0.2466 0.6964
vt 0.2143 0.9629
vt 0.1334 0.6775
vt 0.7382 0.9458
vt 0.757 0.677
vt 0.8056 0.9381
vt 0.7015 0.6797
vt 0.4839 0.6892
vt 0.4179 0.9706
vt 0.4202 0.7045
vt 0.5008 0.9701
vt 0.8706 0.0223
vt 0.9269 0.0411
vt 0.8233 0.0436
vt 0.7862 0.1267
vt 0.9712 0.1255
vt 0.9319 0.2152
vt 0.8139 0.2143
vt 0.8756 0.2313
vt 0.6546 0.2529
vt 0.7091 0.4469
vt 0.6402 0.4385
vt 0.7435 0.3099
vt 0.1334 0.6775
vt 0.0163 0.9221
vt 0.0752 0.6631
vt 0.0918 0.9401
vt 0.5953 0.6856
vt 0.7382 0.9458
vt 0.6204 0.9627
vt 0.7015 0.6797
vt 0.7925 0.6466
vt 0.8765 0.6886
vt 0.8012 0.7028
vt 0.867 0.6259
vt 0.4054 0.6078
vt 0.3897 0.5154
vt 0.4832 0.5246
vt 0.3356 0.5809
vn 0.9776697 -0.2101005 0.004448825
vn 0.9776697 -0.2101005 0.004448825
vn 0.9776697 -0.2101005 0.004448825
vn 0.9776697 -0.2101005 0.004448825
vn -0.8402685 -0.5001677 -0.2092392
vn -0.8402685 -0.5001677 -0.2092392
vn -0.8402685 -0.5001677 -0.2092392
vn -0.8402685 -0.5001677 -0.2092392
vn -0.1175391 -0.9859617 -0.118592
vn -0.1175391 -0.9859617 -0.118592
vn -0.1175391 -0.9859617 -0.118592
vn -0.1175391 -0.9859617 -0.118592
vn 0.8642079 -0.4871006 0.1260068
vn 0.8642079 -0.4871006 0.1260068
vn 0.8642079 -0.4871007 0.1260068
vn 0.8642079 -0.4871007 0.1260068
vn -0.6294752 -0.3585021 0.6893744
vn -0.9028755 -0.1844719 0.3883117
vn -0.8432308 -0.2378546 0.4820656
vn -0.9028755 -0.184472 0.3883117
vn -0.4909 -0.4072765 0.7701579
vn 0.01018622 -0.4364884 0.8996523
vn -0.09289297 -0.4193247 0.9030712
vn -0.06343101 -0.424717 0.9031013
vn 0.03115226 -0.4393976 0.8977523
vn 0.07054904 -0.9871889 0.1431112
vn 0.07054904 -0.9871889 0.1431112
vn 0.07054904 -0.9871889 0.1431112
vn 0.07054903 -0.9871889 0.1431112
vn 0 0 -1
vn 0 0 -1
vn 0 0 -1
vn 0 0 -1
vn 0 0 -1
vn 0 0 -1
vn 0 0 -1
vn 0 0 -1
vn 0 0 -1
vn 0.2339086 0.9722537 0.003056364
vn 0.2339087 0.9722537 0.003056364
vn 0.2339086 0.9722537 0.003056364
vn 0.2339086 0.9722537 0.003056364
vn -0.4580287 0.8240302 0.3334425
vn -0.4580287 0.8240302 0.3334425
vn -0.4580287 0.8240302 0.3334425
vn -0.4580287 0.8240302 0.3334425
vn 0.8779815 0.004077371 0.4786772
vn 0.9367884 -0.07735966 0.3412374
vn 0.8193884 0.06310951 0.5697542
vn 0.9738683 -0.2113365 0.0831713
vn -0.7922201 -0.6095526 0.02886204
vn -0.942041 -0.3353848 0.008702287
vn -0.7922201 -0.6095526 0.02886205
vn -0.9420311 -0.3354127 0.008704259
vn -0.9836866 0.1791577 -0.01622592
vn -0.9836287 0.1794746 -0.01623204
vn -0.9251943 0.3789767 -0.01980639
vn -0.9251943 0.3789767 -0.0198064
vn -0.3660484 0.9304521 -0.01635323
vn -0.3660484 0.9304521 -0.01635323
vn -0.3660484 0.9304521 -0.01635323
vn -0.3660484 0.9304521 -0.01635323
vn 0.9311458 0.359536 0.06083851
vn 0.9893063 0.1222589 0.07953613
vn 0.929171 0.364687 0.06037031
vn 0.9893063 0.1222588 0.07953612
vn 0.8195523 0.5716819 0.03890783
vn 0.8195524 0.5716818 0.03890782
vn 0.8047031 0.4654438 0.3685309
vn 0.804703 0.4654438 0.3685309
vn 0.804703 0.4654438 0.3685309
vn 0.8047031 0.4654438 0.3685309
vn -0.9328606 0.3093005 -0.1846739
vn -0.9328606 0.3093005 -0.1846739
vn -0.9328606 0.3093005 -0.1846739
vn -0.9328606 0.3093005 -0.1846739
vn 0.2544945 0.9659199 0.04723635
vn 0.2544945 0.9659199 0.04723635
vn 0.2544945 0.9659199 0.04723635
vn 0.2544946 0.9659199 0.04723635
vn 0.4283171 -0.9016957 -0.05906949
vn 0.4283171 -0.9016957 -0.05906949
vn 0.4283171 -0.9016957 -0.05906949
vn 0.4283171 -0.9016957 -0.05906949
vn -0.07142964 -0.1049268 0.9919114
vn -0.08547466 -0.04613424 0.9952717
vn -0.08554839 -0.04582159 0.9952798
vn -0.08893342 -0.04570056 0.9949885
vn -0.08892165 -0.04557329 0.9949955
vn -0.08959277 -0.05737723 0.9943244
vn -0.08960808 -0.05723065 0.9943315
vn -0.08805237 -0.07202798 0.9935083
vn 0.4226826 -0.3518537 0.8351877
vn 0.1783679 -0.3896609 0.9035205
vn 0.2889711 -0.3759739 0.8804199
vn 0.5216961 -0.3278365 0.787627
vn -0.4927649 0.868267 -0.0574028
vn -0.4927649 0.868267 -0.0574028
vn -0.4927649 0.8682671 -0.05740281
vn -0.4927649 0.8682671 -0.05740281
vn 0.8572956 0.5118315 0.05543248
vn 0.8572956 0.5118315 0.05543248
vn 0.8572956 0.5118315 0.05543248
vn 0.8572956 0.5118314 0.05543248
vn 0.2509769 0.8974516 0.3627551
vn 0.2509769 0.8974516 0.3627551
vn 0.2509769 0.8974516 0.3627551
vn 0.2509769 0.8974516 0.3627551
vn -0.9088439 0.3082107 0.2810855
vn -0.9088439 0.3082108 0.2810855
vn -0.9088438 0.3082108 0.2810855
vn -0.9088438 0.3082107 0.2810855
vn -0.9776697 -0.2101005 0.004448824
vn -0.9776697 -0.2101005 0.004448824
vn -0.9776697 -0.2101005 0.004448824
vn -0.9776697 -0.2101005 0.004448824
vn 0.8402685 -0.5001677 -0.2092391
vn 0.8402685 -0.5001677 -0.2092391
vn 0.8402685 -0.5001677 -0.2092391
vn 0.8402685 -0.5001677 -0.2092391
vn 0.1175391 -0.9859617 -0.118592
vn 0.1175391 -0.9859617 -0.118592
vn 0.1175391 -0.9859617 -0.118592
vn 0.1175391 -0.9859617 -0.118592
vn -0.8642079 -0.4871007 0.1260068
vn -0.8642079 -0.4871007 0.1260069
vn -0.8642079 -0.4871007 0.1260069
vn -0.8642079 -0.4871007 0.1260069
vn 0.6294752 -0.3585021 0.6893744
vn 0.9028755 -0.1844719 0.3883117
vn 0.9028755 -0.184472 0.3883117
vn 0.8432308 -0.2378546 0.4820656
vn 0.4909 -0.4072765 0.7701579
vn -0.01018622 -0.4364884 0.8996523
vn 0.06343101 -0.424717 0.9031013
vn 0.09289297 -0.4193247 0.9030712
vn -0.03115226 -0.4393976 0.8977523
vn -0.07054903 -0.9871889 0.1431112
vn -0.07054903 -0.9871889 0.1431112
vn -0.07054903 -0.9871889 0.1431112
vn -0.07054903 -0.9871889 0.1431112
vn 0 0 -1
vn 0 0 -1
vn 0 0 -1
vn 0 0 -1
vn 0 0 -1
vn 0 0 -1
vn 0 0 -1
vn 0 0 -1
vn 0 0 -1
vn -0.2339086 0.9722537 0.003056364
vn -0.2339087 0.9722537 0.003056365
vn -0.2339087 0.9722537 0.003056365
vn -0.2339086 0.9722537 0.003056364
vn 0.4580287 0.8240302 0.3334425
vn 0.4580287 0.8240302 0.3334425
vn 0.4580287 0.8240302 0.3334425
vn 0.4580287 0.8240302 0.3334425
vn -0.8779815 0.004077371 0.4786772
vn -0.8193884 0.06310951 0.5697542
vn -0.9367884 -0.07735966 0.3412374
vn -0.9738683 -0.2113365 0.0831713
vn 0.7922201 -0.6095526 0.02886205
vn 0.942041 -0.3353849 0.008702287
vn 0.9420311 -0.3354127 0.008704259
vn 0.7922201 -0.6095525 0.02886205
vn 0.9836866 0.1791577 -0.01622593
vn 0.9836287 0.1794746 -0.01623204
vn 0.9251943 0.3789767 -0.01980639
vn 0.9251943 0.3789767 -0.0198064
vn 0.3660484 0.9304521 -0.01635323
vn 0.3660484 0.9304521 -0.01635323
vn 0.3660485 0.9304521 -0.01635323
vn 0.3660485 0.9304521 -0.01635323
vn -0.9311458 0.359536 0.06083852
vn -0.9893062 0.1222589 0.07953612
vn -0.9893062 0.1222589 0.07953612
vn -0.929171 0.364687 0.06037031
vn -0.8195524 0.5716818 0.03890782
vn -0.8195524 0.5716818 0.03890782
vn -0.804703 0.4654438 0.3685309
vn -0.804703 0.4654438 0.3685309
vn -0.804703 0.4654438 0.3685309
vn -0.804703 0.4654439 0.3685309
vn 0.9328606 0.3093005 -0.1846739
vn 0.9328606 0.3093005 -0.1846739
vn 0.9328605 0.3093005 -0.1846739
vn 0.9328606 0.3093005 -0.1846739
vn -0.2544945 0.9659199 0.04723635
vn -0.2544945 0.9659199 0.04723635
vn -0.2544946 0.9659199 0.04723635
vn -0.2544945 0.9659199 0.04723635
vn -0.4283171 -0.9016957 -0.05906949
vn -0.4283171 -0.9016957 -0.0590695
vn -0.4283171 -0.9016957 -0.0590695
vn -0.4283171 -0.9016957 -0.05906949
vn 0.07142964 -0.1049268 0.9919114
vn 0.08554841 -0.04582159 0.9952798
vn 0.08547469 -0.04613425 0.9952717
vn 0.08893345 -0.04570056 0.9949885
vn 0.08892166 -0.04557329 0.9949955
vn 0.08959278 -0.05737723 0.9943244
vn 0.08960809 -0.05723065 0.9943315
vn 0.08805237 -0.07202798 0.9935083
vn -0.4226826 -0.3518537 0.8351877
vn -0.2889711 -0.3759739 0.8804199
vn -0.1783679 -0.3896609 0.9035205
vn -0.5216961 -0.3278365 0.787627
vn 0.4927649 0.868267 -0.0574028
vn 0.4927649 0.868267 -0.05740279
vn 0.4927649 0.868267 -0.05740279
vn 0.4927649 0.868267 -0.0574028
vn -0.8572956 0.5118315 0.05543248
vn -0.8572956 0.5118315 0.05543248
vn -0.8572956 0.5118314 0.05543248
vn -0.8572956 0.5118315 0.05543248
vn -0.2509768 0.8974516 0.3627551
vn -0.2509769 0.8974516 0.3627551
vn -0.2509769 0.8974516 0.3627551
vn -0.2509769 0.8974516 0.3627551
vn 0.9088438 0.3082107 0.2810855
vn 0.9088439 0.3082108 0.2810855
vn 0.9088438 0.3082107 0.2810855
vn 0.9088438 0.3082108 0.2810855
g WEAPON_FLASHMAN_PINK_00_0
f 3/3/3 2/2/2 1/1/1
f 2/2/2 4/4/4 1/1/1
f 7/7/7 6/6/6 5/5/5
f 6/6/6 8/8/8 5/5/5
f 11/11/11 10/10/10 9/9/9
f 10/10/10 12/12/12 9/9/9
f 15/15/15 14/14/14 13/13/13
f 14/14/14 16/16/16 13/13/13
f 19/19/19 18/18/18 17/17/17
f 18/18/18 20/20/20 17/17/17
f 21/21/21 19/19/19 17/17/17
f 24/24/24 23/23/23 22/22/22
f 25/25/25 24/24/24 22/22/22
f 28/28/28 27/27/27 26/26/26
f 27/27/27 29/29/29 26/26/26
f 32/32/32 31/31/31 30/30/30
f 31/31/31 33/33/33 30/30/30
f 33/33/33 31/31/31 34/34/34
f 35/35/35 33/33/33 34/34/34
f 32/32/32 30/30/30 36/36/36
f 30/30/30 37/37/37 36/36/36
f 38/38/38 36/36/36 37/37/37
f 41/41/41 40/40/40 39/39/39
f 40/40/40 42/42/42 39/39/39
f 45/45/45 44/44/44 43/43/43
f 44/44/44 46/46/46 43/43/43
f 49/49/49 48/48/48 47/47/47
f 48/48/48 50/50/50 47/47/47
f 53/53/53 52/52/52 51/51/51
f 52/52/52 54/54/54 51/51/51
f 54/54/54 52/52/52 55/55/55
f 56/56/56 54/54/54 55/55/55
f 56/56/56 55/55/55 57/57/57
f 58/58/58 56/56/56 57/57/57
f 61/61/61 60/60/60 59/59/59
f 60/60/60 62/62/62 59/59/59
f 65/65/65 64/64/64 63/63/63
f 64/64/64 66/66/66 63/63/63
f 65/65/65 63/63/63 67/67/67
f 68/68/68 65/65/65 67/67/67
f 71/71/71 70/70/70 69/69/69
f 70/70/70 72/72/72 69/69/69
f 75/75/75 74/74/74 73/73/73
f 74/74/74 76/76/76 73/73/73
f 79/79/79 78/78/78 77/77/77
f 78/78/78 80/80/80 77/77/77
f 83/83/83 82/82/82 81/81/81
f 82/82/82 84/84/84 81/81/81
f 87/87/87 86/86/86 85/85/85
f 88/88/88 86/86/86 87/87/87
f 89/89/89 88/88/88 87/87/87
f 89/89/89 90/90/90 88/88/88
f 90/90/90 91/91/91 88/88/88
f 92/92/92 91/91/91 90/90/90
f 95/95/95 94/94/94 93/93/93
f 93/93/93 96/96/96 95/95/95
f 99/99/99 98/98/98 97/97/97
f 98/98/98 100/100/100 97/97/97
f 103/103/103 102/102/102 101/101/101
f 102/102/102 104/104/104 101/101/101
f 107/107/107 106/106/106 105/105/105
f 106/106/106 108/108/108 105/105/105
f 111/111/111 110/110/110 109/109/109
f 110/110/110 112/112/112 109/109/109
f 115/115/115 114/114/114 113/113/113
f 114/114/114 116/116/116 113/113/113
f 119/119/119 118/118/118 117/117/117
f 118/118/118 120/120/120 117/117/117
f 123/123/123 122/122/122 121/121/121
f 122/122/122 124/124/124 121/121/121
f 127/127/127 126/126/126 125/125/125
f 126/126/126 128/128/128 125/125/125
f 131/131/131 130/130/130 129/129/129
f 130/130/130 132/132/132 129/129/129
f 132/132/132 133/133/133 129/129/129
f 136/136/136 135/135/135 134/134/134
f 135/135/135 137/137/137 134/134/134
f 140/140/140 139/139/139 138/138/138
f 139/139/139 141/141/141 138/138/138
f 144/144/144 143/143/143 142/142/142
f 143/143/143 145/145/145 142/142/142
f 143/143/143 144/144/144 146/146/146
f 144/144/144 147/147/147 146/146/146
f 142/142/142 145/145/145 148/148/148
f 149/149/149 142/142/142 148/148/148
f 148/148/148 150/150/150 149/149/149
f 153/153/153 152/152/152 151/151/151
f 152/152/152 154/154/154 151/151/151
f 157/157/157 156/156/156 155/155/155
f 156/156/156 158/158/158 155/155/155
f 161/161/161 160/160/160 159/159/159
f 162/162/162 161/161/161 159/159/159
f 165/165/165 164/164/164 163/163/163
f 164/164/164 166/166/166 163/163/163
f 164/164/164 165/165/165 167/167/167
f 165/165/165 168/168/168 167/167/167
f 167/167/167 168/168/168 169/169/169
f 168/168/168 170/170/170 169/169/169
f 173/173/173 172/172/172 171/171/171
f 172/172/172 174/174/174 171/171/171
f 177/177/177 176/176/176 175/175/175
f 176/176/176 178/178/178 175/175/175
f 175/175/175 178/178/178 179/179/179
f 178/178/178 180/180/180 179/179/179
f 183/183/183 182/182/182 181/181/181
f 182/182/182 184/184/184 181/181/181
f 187/187/187 186/186/186 185/185/185
f 186/186/186 188/188/188 185/185/185
f 191/191/191 190/190/190 189/189/189
f 190/190/190 192/192/192 189/189/189
f 195/195/195 194/194/194 193/193/193
f 194/194/194 196/196/196 193/193/193
f 199/199/199 198/198/198 197/197/197
f 199/199/199 200/200/200 198/198/198
f 200/200/200 201/201/201 198/198/198
f 202/202/202 201/201/201 200/200/200
f 203/203/203 202/202/202 200/200/200
f 203/203/203 204/204/204 202/202/202
f 207/207/207 206/206/206 205/205/205
f 208/208/208 205/205/205 206/206/206
f 211/211/211 210/210/210 209/209/209
f 210/210/210 212/212/212 209/209/209
f 215/215/215 214/214/214 213/213/213
f 214/214/214 216/216/216 213/213/213
f 219/219/219 218/218/218 217/217/217
f 218/218/218 220/220/220 217/217/217
f 223/223/223 222/222/222 221/221/221
f 222/222/222 224/224/224 221/221/221
