g WEAPON_SPD_PINK_00
v 0.0208025 0.1357378 0.01288879
v 1.062639E-08 0.1357729 0.01885991
v 0.01635049 0.1357287 1.31011E-05
v 0.02084513 0.1357066 -0.01291241
v 1.062639E-08 0.1357814 0.02579637
v 1.062639E-08 0.1357729 0.01885991
v 1.061708E-08 0.135719 -0.0258054
v 1.061708E-08 0.1357275 -0.01887059
v 0.01635049 0.1357287 1.31011E-05
v 0.01635049 0.1357287 1.31011E-05
v 1.062639E-08 0.1790649 0.006890495
v 0.006677439 0.1790459 -4.806995E-05
v 1.062639E-08 0.1357729 0.01885991
v 1.061708E-08 0.1357275 -0.01887059
v 1.062639E-08 0.1790488 -0.006989746
v 1.061708E-08 0.1853745 -5.602837E-05
v -0.006677417 0.1790459 -4.806995E-05
v -0.01635047 0.1357287 1.31011E-05
v 1.062639E-08 0.1357729 0.01885991
v 1.061708E-08 0.1853745 -5.602837E-05
v 1.062639E-08 0.1790488 -0.006989746
v 1.062639E-08 -0.2512763 0.01368364
v 0.005663016 -0.4294991 0.0008003497
v 1.062639E-08 -0.4294851 0.005526437
v 0.01370712 -0.2513119 0.0004255796
v 1.062639E-08 -0.4294959 -0.003924851
v 0.005663016 -0.4294991 0.0008003497
v 1.062639E-08 -0.2513083 -0.01286793
v 1.062639E-08 -0.4336333 0.005530088
v 0.005650761 -0.4336469 0.0008039784
v 1.062639E-08 -0.4336441 -0.003921225
v 0.005650761 -0.4336469 0.0008039784
v 1.062639E-08 -0.6589414 0.005530076
v 0.005643256 -0.6589549 0.0008039665
v -0.005650739 -0.4336469 0.0008039784
v -0.005643235 -0.6589549 0.0008039665
v 0.01370712 -0.2513119 0.0004255796
v 0.01629355 -0.2088885 0.006427045
v 0.016314 -0.2089034 -0.005657458
v 0.02044744 -0.1206196 0.01321051
v 0.02049026 -0.1206514 -0.01258986
v 1.062639E-08 -0.2089022 -0.01925893
v 1.062639E-08 -0.2513083 -0.01286793
v 1.062639E-08 -0.1206448 -0.02553485
v 1.062639E-08 -0.2088538 0.01998702
v 1.062639E-08 -0.2512763 0.01368364
v 0.01370712 -0.2513119 0.0004255796
v 1.061708E-08 -0.1205813 0.02606701
v 1.062639E-08 -0.2513083 -0.01286793
v 0.01370712 -0.2513119 0.0004255796
v 0.02044744 -0.1206196 0.01321051
v 1.062639E-08 0.1357814 0.02579637
v 0.0208025 0.1357378 0.01288879
v 1.061708E-08 -0.1205813 0.02606701
v 0.02049026 -0.1206514 -0.01258986
v 0.02084513 0.1357066 -0.01291241
v 1.062639E-08 -0.1206448 -0.02553485
v 1.061708E-08 0.135719 -0.0258054
v 0.006527567 -0.6713163 0.0008182955
v 1.062639E-08 -0.6589414 0.005530076
v 0.005643256 -0.6589549 0.0008039665
v 1.062639E-08 -0.6713012 0.006320417
v 1.062639E-08 -0.6713149 -0.004684467
v 0.005643256 -0.6589549 0.0008039665
v 1.062639E-08 -0.6589522 -0.003921241
v 0.006527567 -0.6713163 0.0008182955
v 1.062639E-08 -0.6713012 0.006320417
v 0.006527567 -0.6713163 0.0008182955
v 1.062639E-08 -0.6713149 -0.004684467
v 1.062639E-08 -0.4336441 -0.003921225
v 0.005643256 -0.6589549 0.0008039665
v 0.005650761 -0.4336469 0.0008039784
v 1.062639E-08 -0.6589522 -0.003921241
v -0.005643235 -0.6589549 0.0008039665
v -0.005650739 -0.4336469 0.0008039784
v 1.062639E-08 -0.4294959 -0.003924851
v -0.005650739 -0.4336469 0.0008039784
v -0.005662994 -0.4294991 0.0008003497
v 1.062639E-08 -0.2512763 0.01368364
v -0.01370709 -0.2513119 0.0004255796
v 1.062639E-08 -0.4294851 0.005526437
v 1.062639E-08 -0.2513083 -0.01286793
v -0.005662994 -0.4294991 0.0008003497
v 1.062639E-08 -0.4336333 0.005530088
v -0.02080248 0.1357378 0.01288879
v 1.062639E-08 0.1357729 0.01885991
v 1.062639E-08 0.1357814 0.02579637
v -0.01635047 0.1357287 1.31011E-05
v 1.062639E-08 0.1357729 0.01885991
v -0.02084511 0.1357066 -0.01291241
v 1.061708E-08 0.135719 -0.0258054
v -0.01635047 0.1357287 1.31011E-05
v 1.061708E-08 0.1357275 -0.01887059
v -0.01370709 -0.2513119 0.0004255796
v -0.01631398 -0.2089034 -0.005657458
v -0.01629353 -0.2088885 0.006427045
v -0.02044742 -0.1206196 0.01321051
v -0.02049024 -0.1206514 -0.01258986
v 1.062639E-08 -0.2089022 -0.01925893
v 1.062639E-08 -0.2513083 -0.01286793
v 1.062639E-08 -0.1206448 -0.02553485
v 1.062639E-08 -0.2088538 0.01998702
v 1.062639E-08 -0.2512763 0.01368364
v -0.01370709 -0.2513119 0.0004255796
v 1.061708E-08 -0.1205813 0.02606701
v 1.062639E-08 -0.2513083 -0.01286793
v -0.01370709 -0.2513119 0.0004255796
v -0.02044742 -0.1206196 0.01321051
v 1.062639E-08 0.1357814 0.02579637
v 1.061708E-08 -0.1205813 0.02606701
v -0.02080248 0.1357378 0.01288879
v -0.02049024 -0.1206514 -0.01258986
v -0.02084511 0.1357066 -0.01291241
v 1.062639E-08 -0.1206448 -0.02553485
v 1.061708E-08 0.135719 -0.0258054
v -0.006527544 -0.6713163 0.0008182955
v 1.062639E-08 -0.6589414 0.005530076
v 1.062639E-08 -0.6713012 0.006320417
v -0.005643235 -0.6589549 0.0008039665
v 1.062639E-08 -0.6713149 -0.004684467
v -0.005643235 -0.6589549 0.0008039665
v -0.006527544 -0.6713163 0.0008182955
v 1.062639E-08 -0.6589522 -0.003921241
v 1.062639E-08 -0.6713012 0.006320417
v 1.062639E-08 -0.6713149 -0.004684467
v -0.006527544 -0.6713163 0.0008182955
v 0.01345922 -0.1722097 0.05466221
v 0.01365824 -0.1198645 -0.0002959752
v 0.01088154 -0.1634135 -0.0002404666
v 0.0135893 -0.1198012 0.05110501
v 0.01344546 -0.1581251 0.09067038
v -0.01424918 -0.1580223 0.09061697
v -0.01410646 -0.1197706 0.05105006
v -0.01423658 -0.1721063 0.05460725
v -0.01403755 -0.119834 -0.00035074
v -0.01149657 -0.163389 -0.0003186559
v 0.008997577 -0.2066277 0.07932436
v -0.010029 -0.2065573 0.07928681
v 0.009100068 -0.183255 0.05116802
v 0.01345922 -0.1722097 0.05466221
v -0.009927658 -0.1831846 0.0511319
v -0.01423658 -0.1721063 0.05460725
v -0.00314282 -0.2801881 0.07846957
v 0.002354322 -0.2801881 0.0784829
v 0.00174945 -0.2735769 0.06690908
v -0.003115459 -0.273559 0.06689921
v 0.0135893 -0.1198012 0.05110501
v -0.01403755 -0.119834 -0.00035074
v 0.01365824 -0.1198645 -0.0002959752
v -0.01410646 -0.1197706 0.05105006
v 0.01088154 -0.1634135 -0.0002404666
v -0.01423658 -0.1721063 0.05460725
v 0.01345922 -0.1722097 0.05466221
v -0.01149657 -0.163389 -0.0003186559
v -0.009927658 -0.1831846 0.0511319
v 0.009100068 -0.183255 0.05116802
v 0.00174945 -0.2735769 0.06690908
v -0.003115459 -0.273559 0.06689921
v -0.00314282 -0.2801881 0.07846957
v 0.002354322 -0.2801881 0.0784829
vt 0.9513538 0.8072252
vt 0.9767671 0.8164548
vt 0.9371555 0.8185186
vt 0.9154893 0.8072252
vt 0.9860317 0.8072252
vt 0.9767671 0.8164548
vt 0.886374 0.8072252
vt 0.8952699 0.8180195
vt 0.9371555 0.8185186
vt 0.9371555 0.8185186
vt 0.9662784 0.8832355
vt 0.9528244 0.8821352
vt 0.9767671 0.8164548
vt 0.9028126 0.8328938
vt 0.9411639 0.8888613
vt 0.9556236 0.8943948
vt 0.9528244 0.8821352
vt 0.9371555 0.8185186
vt 0.9767671 0.8164548
vt 0.9556236 0.8943948
vt 0.9411639 0.8888613
vt 0.8621052 0.8940707
vt 0.8208742 0.2943384
vt 0.8312885 0.2943384
vt 0.8322397 0.8976943
vt 0.810473 0.2943384
vt 0.8208742 0.2943384
vt 0.8021095 0.8984538
vt 0.8310248 0.2881184
vt 0.8205336 0.2881184
vt 0.810083 0.2881184
vt 0.8205336 0.2881184
vt 0.8310248 0.2881184
vt 0.8205336 0.2881184
vt 0.8205336 0.2881184
vt 0.8205336 0.2881184
vt 0.9334581 0.2133662
vt 0.9396565 0.2768914
vt 0.9217989 0.2762987
vt 0.9513538 0.4070149
vt 0.9154893 0.4070149
vt 0.8902081 0.2732262
vt 0.9048933 0.2095773
vt 0.886374 0.4070149
vt 0.9713234 0.2755043
vt 0.9622012 0.2144113
vt 0.9334581 0.2133662
vt 0.9860317 0.4070149
vt 0.9048933 0.2095773
vt 0.9334581 0.2133662
vt 0.9513538 0.4070149
vt 0.9860317 0.8072252
vt 0.9513538 0.8072252
vt 0.9860317 0.4070149
vt 0.9154893 0.4070149
vt 0.9154893 0.8072252
vt 0.886374 0.4070149
vt 0.886374 0.8072252
vt 0.8195596 0.2689707
vt 0.8310248 0.2881184
vt 0.8205336 0.2881184
vt 0.8318089 0.2689707
vt 0.8073794 0.2689707
vt 0.8205336 0.2881184
vt 0.810083 0.2881184
vt 0.8195596 0.2689707
vt 0.5247461 0.5016733
vt 0.488516 0.5455617
vt 0.533281 0.5806291
vt 0.810083 0.2881184
vt 0.8205336 0.2881184
vt 0.8205336 0.2881184
vt 0.810083 0.2881184
vt 0.8205336 0.2881184
vt 0.8205336 0.2881184
vt 0.810473 0.2943384
vt 0.8205336 0.2881184
vt 0.8208742 0.2943384
vt 0.8621052 0.8940707
vt 0.8322397 0.8976943
vt 0.8312885 0.2943384
vt 0.8021095 0.8984538
vt 0.8208742 0.2943384
vt 0.8310248 0.2881184
vt 0.9513538 0.8072252
vt 0.9767671 0.8164548
vt 0.9860317 0.8072252
vt 0.9371555 0.8185186
vt 0.9767671 0.8164548
vt 0.9154893 0.8072252
vt 0.886374 0.8072252
vt 0.9371555 0.8185186
vt 0.8952699 0.8180195
vt 0.9334581 0.2133662
vt 0.9217989 0.2762987
vt 0.9396565 0.2768914
vt 0.9513538 0.4070149
vt 0.9154893 0.4070149
vt 0.8902081 0.2732262
vt 0.9048933 0.2095773
vt 0.886374 0.4070149
vt 0.9713234 0.2755043
vt 0.9622012 0.2144113
vt 0.9334581 0.2133662
vt 0.9860317 0.4070149
vt 0.9048933 0.2095773
vt 0.9334581 0.2133662
vt 0.9513538 0.4070149
vt 0.9860317 0.8072252
vt 0.9860317 0.4070149
vt 0.9513538 0.8072252
vt 0.9154893 0.4070149
vt 0.9154893 0.8072252
vt 0.886374 0.4070149
vt 0.886374 0.8072252
vt 0.8195596 0.2689707
vt 0.8310248 0.2881184
vt 0.8318089 0.2689707
vt 0.8205336 0.2881184
vt 0.8073794 0.2689707
vt 0.8205336 0.2881184
vt 0.8195596 0.2689707
vt 0.810083 0.2881184
vt 0.5247461 0.5016733
vt 0.533281 0.5806291
vt 0.488516 0.5455617
vt 0.0805307 0.3788648
vt 0.01260964 0.4174996
vt 0.03281774 0.3615474
vt 0.05654412 0.42434
vt 0.1072959 0.4190495
vt 0.1073148 0.4650212
vt 0.05694455 0.4613235
vt 0.08249251 0.5059601
vt 0.01338944 0.4696926
vt 0.03554346 0.5249497
vt 0.1714042 0.4270131
vt 0.1709977 0.4591548
vt 0.149868 0.3916144
vt 0.1355531 0.3902586
vt 0.1482214 0.4937651
vt 0.1340234 0.4946346
vt 0.2633441 0.4488759
vt 0.2633708 0.4410654
vt 0.2581649 0.4326624
vt 0.2579313 0.4570834
vt 0.05654412 0.42434
vt 0.01338944 0.4696926
vt 0.01260964 0.4174996
vt 0.05694455 0.4613235
vt 0.4923734 0.4818485
vt 0.5419899 0.4339471
vt 0.4926283 0.4286373
vt 0.5323132 0.4856237
vt 0.5362176 0.4172384
vt 0.502413 0.4126948
vt 0.5341157 0.2856362
vt 0.5427343 0.2869692
vt 0.5445294 0.2759427
vt 0.5359191 0.2745551
vn 0.001362275 0.9999983 -0.001192979
vn 0 0.9999993 -0.00119036
vn 0.001400325 0.9999983 -0.001208582
vn 0.001366882 0.9999983 -0.001226792
vn 0 0.9999993 -0.00119036
vn 0 0.9999993 -0.00119036
vn 0 0.9999993 -0.00123047
vn 0 0.9999993 -0.00123047
vn 0.001400325 0.9999983 -0.001208582
vn 0.9735946 0.228284 0.0001422099
vn 0 0.4723578 0.8814069
vn 0.8952404 0.4455835 -0.0003107695
vn 0 0.2552976 0.9668624
vn 0 0.2531184 -0.9674352
vn 0 0.4704428 -0.8824304
vn 0 0.9999994 -0.00112736
vn -0.8952404 0.4455835 -0.0003107982
vn -0.9735946 0.228284 0.0001421823
vn 0 0.2552976 0.9668624
vn 0 0.9999994 -0.00112736
vn 0 0.4704428 -0.8824304
vn 0 -0.04275059 0.9990858
vn 0.998831 -0.04832992 0.000970479
vn 0 -0.0427506 0.9990858
vn 0.9988313 -0.04833177 0.0001096499
vn 0 -0.04709077 -0.9988907
vn 0.998831 -0.04832992 0.000970479
vn 0 -0.04709077 -0.9988907
vn 0 -0.0003567682 1
vn 0.9999989 -0.001475674 -0.0001785546
vn 0 -0.002108468 -0.9999979
vn 0.6418082 -1.072875E-05 0.7668653
vn 0 -1.39904E-05 1
vn 0.6418081 -1.072875E-05 0.7668653
vn -0.6418082 -1.072875E-05 0.7668653
vn -0.641808 -1.072875E-05 0.7668653
vn 0.9846104 -0.174762 0.000715867
vn 0.8955453 -0.08588644 0.436603
vn 0.896543 -0.08682017 -0.4343648
vn 0.8814058 -0.06765251 0.46749
vn 0.8826134 -0.06861319 -0.4650655
vn 0 -0.1284242 -0.9917192
vn 0 -0.1720066 -0.9850958
vn 0 -0.09151052 -0.9958041
vn 0 -0.1262541 0.9919979
vn 0 -0.1697631 0.9854849
vn 0.9846104 -0.174762 0.000715867
vn 0 -0.08941715 0.9959942
vn 0 -0.1720066 -0.9850958
vn 0.9846104 -0.174762 0.000715867
vn 0.8741441 -0.0004396509 0.4856663
vn 0 0.000722772 0.9999998
vn 0.874177 -0.0004397905 0.4856072
vn 0 0.000722772 0.9999998
vn 0.8750399 -0.001561517 -0.4840483
vn 0.8750533 -0.001561519 -0.4840241
vn 0 -0.001589407 -0.9999988
vn 0 -0.001589407 -0.9999988
vn 0.8397291 -0.5430052 0.0006385393
vn 0 0.06249468 0.9980453
vn 0.9973349 0.07295842 -9.939707E-05
vn 0 -0.5623659 0.8268884
vn 0 -0.5643202 -0.825556
vn 0.9973349 0.07295842 -9.939707E-05
vn 0 0.06023902 -0.9981839
vn 0.8397291 -0.5430052 0.0006385393
vn 0 -0.5623659 0.8268884
vn 0.8397291 -0.5430052 0.0006385393
vn 0 -0.5643202 -0.825556
vn 0 -1.387152E-05 -1
vn 0.641736 -1.063843E-05 -0.7669256
vn 0.641736 -1.063843E-05 -0.7669256
vn 0 -1.387152E-05 -1
vn -0.641736 -1.063843E-05 -0.7669256
vn -0.641736 -1.063843E-05 -0.7669256
vn 0 -0.04709077 -0.9988907
vn -0.9999989 -0.001475674 -0.0001785546
vn -0.998831 -0.04832992 0.000970479
vn 0 -0.04275059 0.9990858
vn -0.9988313 -0.04833177 0.0001096499
vn 0 -0.0427506 0.9990858
vn 0 -0.04709077 -0.9988907
vn -0.998831 -0.04832992 0.000970479
vn 0 -0.0003567682 1
vn -0.001362275 0.9999983 -0.001192979
vn 0 0.9999993 -0.00119036
vn 0 0.9999993 -0.00119036
vn -0.001400324 0.9999983 -0.001208582
vn 0 0.9999993 -0.00119036
vn -0.001366881 0.9999983 -0.001226792
vn 0 0.9999993 -0.00123047
vn -0.001400324 0.9999983 -0.001208582
vn 0 0.9999993 -0.00123047
vn -0.9846104 -0.1747621 0.0007158159
vn -0.896543 -0.0868202 -0.4343648
vn -0.8955453 -0.08588645 0.436603
vn -0.8814058 -0.06765251 0.46749
vn -0.8826134 -0.06861319 -0.4650654
vn 0 -0.1284242 -0.9917192
vn 0 -0.1720066 -0.9850958
vn 0 -0.09151052 -0.9958041
vn 0 -0.1262541 0.9919979
vn 0 -0.1697631 0.9854849
vn -0.9846104 -0.1747621 0.0007158159
vn 0 -0.08941715 0.9959942
vn 0 -0.1720066 -0.9850958
vn -0.9846104 -0.1747621 0.0007158159
vn -0.8741441 -0.000439651 0.4856665
vn 0 0.000722772 0.9999998
vn 0 0.000722772 0.9999998
vn -0.8741769 -0.0004397906 0.4856072
vn -0.8750399 -0.001561518 -0.4840483
vn -0.8750533 -0.001561519 -0.4840241
vn 0 -0.001589407 -0.9999988
vn 0 -0.001589407 -0.9999988
vn -0.8397291 -0.5430052 0.0006384364
vn 0 0.06249468 0.9980453
vn 0 -0.5623659 0.8268884
vn -0.9973349 0.07295838 -9.939708E-05
vn 0 -0.5643202 -0.825556
vn -0.9973349 0.07295838 -9.939708E-05
vn -0.8397291 -0.5430052 0.0006384364
vn 0 0.06023902 -0.9981839
vn 0 -0.5623659 0.8268884
vn 0 -0.5643202 -0.825556
vn -0.8397291 -0.5430052 0.0006384364
vn 0.9158676 -0.2860642 -0.281698
vn 0.9991695 -0.03125164 -0.02614742
vn 0.7155821 -0.6872923 -0.1247859
vn 0.844467 0.383226 0.3741834
vn 0.6278502 0.1942411 0.7537072
vn -0.6293755 0.1979741 0.7514604
vn -0.8436134 0.3872601 0.3719491
vn -0.9164354 -0.2819229 -0.2840169
vn -0.9992498 -0.02619078 -0.02852969
vn -0.7191514 -0.6832514 -0.1264467
vn 0.7433342 -0.1696619 0.6470463
vn -0.7439909 -0.1662327 0.6471818
vn 0.61027 -0.00389891 -0.792184
vn 0.9158676 -0.2860642 -0.281698
vn -0.608843 -0.0008843454 -0.7932901
vn -0.9164354 -0.2819229 -0.2840169
vn -0.5331671 -0.7421347 0.4061636
vn 0.5387606 -0.7328327 0.4155637
vn 0.569851 -0.4828622 -0.6649164
vn -0.5791765 -0.476635 -0.6613424
vn 0.001104323 0.9999987 -0.001231222
vn 0.001104323 0.9999987 -0.001231222
vn 0.001104323 0.9999987 -0.001231222
vn 0.001104323 0.9999987 -0.001231222
vn 0.7155821 -0.6872923 -0.1247859
vn -0.9164354 -0.2819229 -0.2840169
vn 0.9158676 -0.2860642 -0.281698
vn -0.7191514 -0.6832514 -0.1264467
vn -0.608843 -0.0008843454 -0.7932901
vn 0.61027 -0.00389891 -0.792184
vn 0.569851 -0.4828622 -0.6649164
vn -0.5791765 -0.476635 -0.6613424
vn -0.5331671 -0.7421347 0.4061636
vn 0.5387606 -0.7328327 0.4155637
g WEAPON_SPD_PINK_00_0
f 3/3/3 2/2/2 1/1/1
f 3/3/3 1/1/1 4/4/4
f 6/6/6 5/5/5 1/1/1
f 8/8/8 3/3/3 7/7/7
f 9/9/9 4/4/4 7/7/7
f 12/12/12 11/11/11 10/10/10
f 11/11/11 13/13/13 10/10/10
f 12/12/12 10/10/10 14/14/14
f 15/15/15 12/12/12 14/14/14
f 16/16/16 11/11/11 12/12/12
f 16/16/16 12/12/12 15/15/15
f 17/17/17 15/15/15 14/14/14
f 11/11/11 17/17/17 18/18/18
f 18/18/18 17/17/17 14/14/14
f 19/19/19 11/11/11 18/18/18
f 11/11/11 20/20/20 17/17/17
f 17/17/17 20/20/20 21/21/21
f 24/24/24 23/23/23 22/22/22
f 23/23/23 25/25/25 22/22/22
f 27/27/27 26/26/26 25/25/25
f 26/26/26 28/28/28 25/25/25
f 24/24/24 29/29/29 27/27/27
f 29/29/29 30/30/30 27/27/27
f 23/23/23 30/30/30 26/26/26
f 30/30/30 31/31/31 26/26/26
f 29/29/29 33/33/33 32/32/32
f 33/33/33 34/34/34 32/32/32
f 33/33/33 29/29/29 35/35/35
f 36/36/36 33/33/33 35/35/35
f 39/39/39 38/38/38 37/37/37
f 38/38/38 39/39/39 40/40/40
f 39/39/39 41/41/41 40/40/40
f 39/39/39 42/42/42 41/41/41
f 42/42/42 39/39/39 43/43/43
f 42/42/42 44/44/44 41/41/41
f 38/38/38 40/40/40 45/45/45
f 38/38/38 45/45/45 46/46/46
f 47/47/47 38/38/38 46/46/46
f 40/40/40 48/48/48 45/45/45
f 39/39/39 50/50/50 49/49/49
f 53/53/53 52/52/52 51/51/51
f 52/52/52 54/54/54 51/51/51
f 53/53/53 51/51/51 55/55/55
f 56/56/56 53/53/53 55/55/55
f 56/56/56 55/55/55 57/57/57
f 58/58/58 56/56/56 57/57/57
f 61/61/61 60/60/60 59/59/59
f 60/60/60 62/62/62 59/59/59
f 65/65/65 64/64/64 63/63/63
f 64/64/64 66/66/66 63/63/63
f 69/69/69 68/68/68 67/67/67
f 72/72/72 71/71/71 70/70/70
f 71/71/71 73/73/73 70/70/70
f 73/73/73 74/74/74 70/70/70
f 74/74/74 75/75/75 70/70/70
f 70/70/70 77/77/77 76/76/76
f 77/77/77 78/78/78 76/76/76
f 80/80/80 78/78/78 79/79/79
f 78/78/78 81/81/81 79/79/79
f 82/82/82 76/76/76 80/80/80
f 76/76/76 83/83/83 80/80/80
f 77/77/77 84/84/84 83/83/83
f 84/84/84 81/81/81 83/83/83
f 87/87/87 86/86/86 85/85/85
f 89/89/89 88/88/88 85/85/85
f 85/85/85 88/88/88 90/90/90
f 90/90/90 92/92/92 91/91/91
f 88/88/88 93/93/93 91/91/91
f 96/96/96 95/95/95 94/94/94
f 95/95/95 96/96/96 97/97/97
f 98/98/98 95/95/95 97/97/97
f 99/99/99 95/95/95 98/98/98
f 95/95/95 99/99/99 100/100/100
f 101/101/101 99/99/99 98/98/98
f 97/97/97 96/96/96 102/102/102
f 102/102/102 96/96/96 103/103/103
f 96/96/96 104/104/104 103/103/103
f 105/105/105 97/97/97 102/102/102
f 107/107/107 95/95/95 106/106/106
f 110/110/110 109/109/109 108/108/108
f 109/109/109 111/111/111 108/108/108
f 108/108/108 111/111/111 112/112/112
f 111/111/111 113/113/113 112/112/112
f 112/112/112 113/113/113 114/114/114
f 113/113/113 115/115/115 114/114/114
f 118/118/118 117/117/117 116/116/116
f 117/117/117 119/119/119 116/116/116
f 122/122/122 121/121/121 120/120/120
f 121/121/121 123/123/123 120/120/120
f 126/126/126 125/125/125 124/124/124
f 129/129/129 128/128/128 127/127/127
f 128/128/128 130/130/130 127/127/127
f 130/130/130 131/131/131 127/127/127
f 132/132/132 131/131/131 130/130/130
f 133/133/133 132/132/132 130/130/130
f 134/134/134 132/132/132 133/133/133
f 133/133/133 135/135/135 134/134/134
f 135/135/135 136/136/136 134/134/134
f 137/137/137 131/131/131 132/132/132
f 138/138/138 137/137/137 132/132/132
f 137/137/137 139/139/139 131/131/131
f 139/139/139 140/140/140 131/131/131
f 141/141/141 138/138/138 132/132/132
f 142/142/142 141/141/141 132/132/132
f 137/137/137 138/138/138 143/143/143
f 144/144/144 137/137/137 143/143/143
f 144/144/144 145/145/145 137/137/137
f 145/145/145 139/139/139 137/137/137
f 143/143/143 138/138/138 146/146/146
f 138/138/138 141/141/141 146/146/146
f 149/149/149 148/148/148 147/147/147
f 148/148/148 150/150/150 147/147/147
f 153/153/153 152/152/152 151/151/151
f 152/152/152 154/154/154 151/151/151
f 155/155/155 152/152/152 153/153/153
f 156/156/156 155/155/155 153/153/153
f 155/155/155 156/156/156 157/157/157
f 158/158/158 155/155/155 157/157/157
f 159/159/159 158/158/158 157/157/157
f 160/160/160 159/159/159 157/157/157
