g WEAPON_SAMURAI_GOLD_00
v -0.02067398 -0.01407454 0
v -0.009538993 -0.2857804 -0.03505901
v -0.009538993 -0.01407454 -0.03505901
v -0.02067398 -0.2857804 0
v -0.02067398 0.1025985 0
v -0.009538993 0.1025985 -0.02918503
v -0.009538993 0.1801854 -0.019459
v -0.01621197 0.1803895 0
v -0.009538993 0.2099805 -0.006836014
v -0.009538993 0.2192704 0
v -0.009538993 -0.2857804 0.03505898
v -0.009538993 -0.01407454 0.03505898
v -0.009538993 0.1025985 0.02918499
v -0.009538993 0.1801854 0.019459
v -0.009538993 0.2099805 0.006837005
v 0.00953804 0.2192704 0
v -0.009538993 0.2099805 -0.006836014
v 0.00953804 0.2099805 -0.006836014
v -0.009538993 0.2192704 0
v -0.009538993 0.1801854 -0.019459
v 0.00953804 0.1801854 -0.019459
v 0.00953804 0.1025985 -0.02918503
v -0.009538993 0.1025985 -0.02918503
v 0.00953804 -0.01407454 -0.03505901
v -0.009538993 -0.01407454 -0.03505901
v 0.00953804 -0.2857804 -0.03505901
v -0.009538993 -0.2857804 -0.03505901
v 0.02067398 -0.01407454 0
v 0.00953804 -0.2857804 -0.03505901
v 0.02067398 -0.2857804 0
v 0.00953804 -0.01407454 -0.03505901
v 0.02067398 0.1025985 0
v 0.00953804 0.1025985 -0.02918503
v 0.00953804 0.1801854 -0.019459
v 0.01621197 0.1803895 0
v 0.00953804 0.2099805 -0.006836014
v 0.00953804 0.2192704 0
v 0.00953804 -0.2857804 0.03505898
v 0.00953804 -0.01407454 0.03505898
v 0.00953804 0.1025985 0.02918499
v 0.00953804 0.1801854 0.019459
v 0.00953804 0.2099805 0.006837005
v 0.00953804 0.2192704 0
v -0.009538993 0.2099805 0.006837005
v -0.009538993 0.2192704 0
v 0.00953804 0.2099805 0.006837005
v -0.009538993 0.1801854 0.019459
v 0.00953804 0.1801854 0.019459
v 0.00953804 0.1025985 0.02918499
v -0.009538993 0.1025985 0.02918499
v 0.00953804 -0.01407454 0.03505898
v -0.009538993 -0.01407454 0.03505898
v 0.00953804 -0.2857804 0.03505898
v -0.009538993 -0.2857804 0.03505898
v 0.004955024 -0.2825924 -0.05011501
v -0.004955024 -0.2680975 -0.05011501
v -0.004955024 -0.2825924 -0.05011501
v 0.004955024 -0.2680975 -0.05011501
v 0.00953804 -0.2825924 -0.03505901
v -0.009538993 -0.2825924 -0.03505901
v -0.009538993 -0.2628934 -0.03505901
v 0.00953804 -0.2628934 -0.03505901
v 0.00953804 -0.2628934 -0.03505901
v 0.004955024 -0.2825924 -0.05011501
v 0.00953804 -0.2825924 -0.03505901
v 0.004955024 -0.2680975 -0.05011501
v -0.009538993 -0.2825924 -0.03505901
v -0.004955024 -0.2680975 -0.05011501
v -0.009538993 -0.2628934 -0.03505901
v -0.004955024 -0.2825924 -0.05011501
v -0.004945984 0.2099805 -0.006836014
v -0.004945984 0.2325895 -0.041316
v -0.004945984 0.2463985 -0.03188202
v -0.004945984 0.1801854 -0.019459
v -0.004945984 0.1025985 -0.02918503
v -0.004945984 0.05092546 -0.04475002
v -0.004945984 0.2857804 -0.05491901
v -0.004945984 0.2666065 -0.02967602
v -0.004945984 0.2611745 0
v -0.004945984 0.2363375 0
v -0.004945984 0.2463985 0.03188198
v -0.004945984 0.2666065 0.02967598
v -0.004945984 0.02830948 -0.03792
v -0.004945984 -0.01407454 -0.03505901
v -0.004945984 0.004487457 -0.04477302
v -0.004945984 0.2857804 0.05491897
v -0.004945984 0.2325895 0.04131595
v -0.004945984 0.2099805 0.006837005
v -0.004945984 0.1801854 0.019459
v -0.004945984 0.1025985 0.02918499
v -0.004945984 0.05092546 0.04474998
v -0.004945984 0.02830948 0.03792
v -0.004945984 -0.01407454 0.03505898
v -0.004945984 0.004487457 0.04477295
v 0.00494503 0.2325895 -0.041316
v -0.004945984 0.2857804 -0.05491901
v -0.004945984 0.2325895 -0.041316
v 0.00494503 0.2857804 -0.05491901
v -0.004945984 0.05092546 -0.04475002
v 0.00494503 0.05092546 -0.04475002
v -0.004945984 0.02830948 -0.03792
v 0.00494503 0.02830948 -0.03792
v -0.004945984 0.004487457 -0.04477302
v 0.00494503 0.004487457 -0.04477302
v -0.004945984 -0.01407454 -0.03505901
v 0.00494503 -0.01407454 -0.03505901
v 0.00494503 0.2099805 -0.006836014
v -0.004945984 0.2463985 -0.03188202
v 0.00494503 0.2463985 -0.03188202
v -0.004945984 0.2099805 -0.006836014
v 0.00494503 0.2666065 -0.02967602
v -0.004945984 0.2611745 0
v -0.004945984 0.2666065 -0.02967602
v 0.00494503 0.2611745 0
v -0.004945984 0.2857804 -0.05491901
v 0.00494503 0.2857804 -0.05491901
v 0.00494503 0.2666065 0.02967598
v -0.004945984 0.2666065 0.02967598
v -0.004945984 0.2857804 0.05491897
v 0.00494503 0.2857804 0.05491897
v 0.00494503 0.2099805 -0.006836014
v 0.00494503 0.2325895 -0.041316
v 0.00494503 0.1801854 -0.019459
v 0.00494503 0.2463985 -0.03188202
v 0.00494503 0.1025985 -0.02918503
v 0.00494503 0.05092546 -0.04475002
v 0.00494503 0.2857804 -0.05491901
v 0.00494503 0.2666065 -0.02967602
v 0.00494503 0.2611745 0
v 0.00494503 0.2363375 0
v 0.00494503 0.2463985 0.03188198
v 0.00494503 0.2666065 0.02967598
v 0.00494503 0.02830948 -0.03792
v 0.00494503 -0.01407454 -0.03505901
v 0.00494503 0.004487457 -0.04477302
v 0.00494503 0.2857804 0.05491897
v 0.00494503 0.2325895 0.04131595
v 0.00494503 0.2099805 0.006837005
v 0.00494503 0.1801854 0.019459
v 0.00494503 0.1025985 0.02918499
v 0.00494503 0.05092546 0.04474998
v 0.00494503 0.02830948 0.03792
v 0.00494503 -0.01407454 0.03505898
v 0.00494503 0.004487457 0.04477295
v 0.00494503 0.2363375 0
v -0.004945984 0.2463985 -0.03188202
v -0.004945984 0.2363375 0
v 0.00494503 0.2463985 -0.03188202
v -0.004945984 0.2463985 0.03188198
v 0.00494503 0.2463985 0.03188198
v 0.004955024 -0.2825924 0.05011497
v -0.004955024 -0.2680975 0.05011497
v 0.004955024 -0.2680975 0.05011497
v -0.004955024 -0.2825924 0.05011497
v 0.00953804 -0.2825924 0.03505898
v -0.009538993 -0.2825924 0.03505898
v -0.009538993 -0.2628934 0.03505898
v 0.00953804 -0.2628934 0.03505898
v 0.00953804 -0.2628934 0.03505898
v 0.004955024 -0.2825924 0.05011497
v 0.004955024 -0.2680975 0.05011497
v 0.00953804 -0.2825924 0.03505898
v -0.009538993 -0.2825924 0.03505898
v -0.004955024 -0.2680975 0.05011497
v -0.004955024 -0.2825924 0.05011497
v -0.009538993 -0.2628934 0.03505898
v 0.00494503 0.2325895 0.04131595
v -0.004945984 0.2857804 0.05491897
v 0.00494503 0.2857804 0.05491897
v -0.004945984 0.2325895 0.04131595
v -0.004945984 0.05092546 0.04474998
v 0.00494503 0.05092546 0.04474998
v -0.004945984 0.02830948 0.03792
v 0.00494503 0.02830948 0.03792
v -0.004945984 0.004487457 0.04477295
v 0.00494503 0.004487457 0.04477295
v -0.004945984 -0.01407454 0.03505898
v 0.00494503 -0.01407454 0.03505898
v 0.00494503 0.2099805 0.006837005
v -0.004945984 0.2463985 0.03188198
v -0.004945984 0.2099805 0.006837005
v 0.00494503 0.2463985 0.03188198
v 0.00953804 -0.2857804 -0.03505901
v -0.02067398 -0.2857804 0
v 0.02067398 -0.2857804 0
v -0.009538993 -0.2857804 -0.03505901
v 0.00953804 -0.2857804 0.03505898
v -0.009538993 -0.2857804 0.03505898
vt 0.1664819 0.3704813
vt 0.2490419 0.5751213
vt 0.2490419 0.3704813
vt 0.1664819 0.5751213
vt 0.1664819 0.2422412
vt 0.2344819 0.2422412
vt 0.2103219 0.1568812
vt 0.1664819 0.1568812
vt 0.1804819 0.1241612
vt 0.1664819 0.1140812
vt 0.0873619 0.5751213
vt 0.0873619 0.3704813
vt 0.0974419 0.2422412
vt 0.1201619 0.1568812
vt 0.1495219 0.1241612
vt 0.9806879 0.5018787
vt 0.9374878 0.5145987
vt 0.9806879 0.5145987
vt 0.9374878 0.5025987
vt 0.9374878 0.5512387
vt 0.9806879 0.5512387
vt 0.9806879 0.6397187
vt 0.9374878 0.6397187
vt 0.9806879 0.7719587
vt 0.9374878 0.7719587
vt 0.9806879 0.9827587
vt 0.9374878 0.9827587
vt 0.1664819 0.3704813
vt 0.2490419 0.5751213
vt 0.1664819 0.5751213
vt 0.2490419 0.3704813
vt 0.1664819 0.2422412
vt 0.2344819 0.2422412
vt 0.2103219 0.1568812
vt 0.1664819 0.1568812
vt 0.1804819 0.1241612
vt 0.1664819 0.1140812
vt 0.0873619 0.5751213
vt 0.0873619 0.3704813
vt 0.0974419 0.2422412
vt 0.1201619 0.1568812
vt 0.1495219 0.1241612
vt 0.5096077 0.06438357
vt 0.5527276 0.07814357
vt 0.5527276 0.06438357
vt 0.5096077 0.07814357
vt 0.5527276 0.1147836
vt 0.5096077 0.1147836
vt 0.5096077 0.2032636
vt 0.5527276 0.2032636
vt 0.5096077 0.3355036
vt 0.5527276 0.3355036
vt 0.5096077 0.5463036
vt 0.5527276 0.5463036
vt 0.4036072 0.9009066
vt 0.3643072 0.8731066
vt 0.3655072 0.9009066
vt 0.4023072 0.8731066
vt 0.4225071 0.9298066
vt 0.3492072 0.9298066
vt 0.3454072 0.8425066
vt 0.4186071 0.8425066
vt 0.1286 0.9467
vt 0.1891 0.9845
vt 0.1286 0.9845
vt 0.1891 0.9567
vt 0.1286 0.9845
vt 0.1891 0.9567
vt 0.1286 0.9467
vt 0.1891 0.9845
vt 0.1857619 0.1065612
vt 0.2788019 0.08008125
vt 0.2533619 0.06392124
vt 0.2198419 0.1415212
vt 0.2460819 0.2324012
vt 0.2880819 0.2929612
vt 0.3155219 0.01776125
vt 0.2473619 0.04024124
vt 0.1672819 0.04664125
vt 0.1672819 0.07568124
vt 0.0812019 0.06392124
vt 0.08720191 0.04024124
vt 0.2696019 0.3194413
vt 0.2619219 0.3691213
vt 0.2881619 0.3473612
vt 0.0190419 0.01776125
vt 0.0557619 0.08008125
vt 0.1488019 0.1065612
vt 0.1148019 0.1415212
vt 0.08848189 0.2324012
vt 0.04648189 0.2929612
vt 0.0649619 0.3194413
vt 0.07264189 0.3691213
vt 0.04648189 0.3473612
vt 0.767966 0.6237931
vt 0.8921261 0.612593
vt 0.767966 0.612593
vt 0.8921261 0.6237931
vt 0.3569261 0.6125929
vt 0.3569261 0.623793
vt 0.3034861 0.6125929
vt 0.3034861 0.623793
vt 0.2473261 0.6125929
vt 0.2473261 0.623793
vt 0.1999661 0.6125929
vt 0.1999661 0.623793
vt 0.2034962 0.6909685
vt 0.2693362 0.7204885
vt 0.2693362 0.6909685
vt 0.2035762 0.7204885
vt 0.1472562 0.6906486
vt 0.1023762 0.7200885
vt 0.1472562 0.7200885
vt 0.1022162 0.6906486
vt 0.1944562 0.7200885
vt 0.1944562 0.6906486
vt 0.05741615 0.6906486
vt 0.05741615 0.7200885
vt 0.01021616 0.7200885
vt 0.01021616 0.6906486
vt 0.1857619 0.1065612
vt 0.2788019 0.08008125
vt 0.2198419 0.1415212
vt 0.2533619 0.06392124
vt 0.2460819 0.2324012
vt 0.2880819 0.2929612
vt 0.3155219 0.01776125
vt 0.2473619 0.04024124
vt 0.1672819 0.04664125
vt 0.1672819 0.07568124
vt 0.0812019 0.06392124
vt 0.08720191 0.04024124
vt 0.2696019 0.3194413
vt 0.2619219 0.3691213
vt 0.2881619 0.3473612
vt 0.0190419 0.01776125
vt 0.0557619 0.08008125
vt 0.1488019 0.1065612
vt 0.1148019 0.1415212
vt 0.08848189 0.2324012
vt 0.04648189 0.2929612
vt 0.0649619 0.3194413
vt 0.07264189 0.3691213
vt 0.04648189 0.3473612
vt 0.3190961 0.6909685
vt 0.2693362 0.7204885
vt 0.3190961 0.7204885
vt 0.2693362 0.6909685
vt 0.3689361 0.7204885
vt 0.3689361 0.6909685
vt 0.2687072 0.9009066
vt 0.3065071 0.8731066
vt 0.2684072 0.8731066
vt 0.3068072 0.9009066
vt 0.2515072 0.9298066
vt 0.3247072 0.9298066
vt 0.3237072 0.8425066
vt 0.2505072 0.8425066
vt 0.1014 0.9467
vt 0.041 0.9845
vt 0.041 0.9567
vt 0.1014 0.9845
vt 0.1014 0.9845
vt 0.041 0.9567
vt 0.041 0.9845
vt 0.1014 0.9467
vt 0.767966 0.5927131
vt 0.8921261 0.603913
vt 0.8921261 0.5927131
vt 0.767966 0.603913
vt 0.3569261 0.6039129
vt 0.3569261 0.592713
vt 0.3034861 0.6039129
vt 0.3034861 0.592713
vt 0.2473261 0.6039129
vt 0.2473261 0.592713
vt 0.1999661 0.6039129
vt 0.1999661 0.592713
vt 0.4346961 0.6909685
vt 0.3689361 0.7204885
vt 0.4346961 0.7204885
vt 0.3689361 0.6909685
vt 0.0644 0.7612
vt 0.2242 0.8304
vt 0.2242 0.7362
vt 0.0644 0.8047
vt 0.384 0.762
vt 0.384 0.8054
vn -0.9999906 0.00434398 1.599463E-07
vn -0.474453 -0.5952691 -0.6484976
vn -0.5808078 0.01810886 -0.8138393
vn -0.7642697 -0.6448969 1.064986E-07
vn -0.9995512 0.02995342 1.419399E-07
vn -0.56974 0.07054473 -0.8187916
vn -0.5538951 0.2170931 -0.8037853
vn -0.9948233 0.1016198 -3.078028E-06
vn -0.5597377 0.4006129 -0.7253985
vn -0.5158262 0.8566933 -2.20931E-05
vn -0.4744528 -0.595269 0.6484977
vn -0.5808077 0.01810886 0.8138393
vn -0.5697399 0.07054456 0.8187917
vn -0.5538994 0.2170832 0.803785
vn -0.559735 0.4006257 0.7253935
vn 0.5158188 0.8566977 -2.210538E-05
vn -0.5597377 0.4006129 -0.7253985
vn 0.5597204 0.4006176 -0.7254093
vn -0.5158262 0.8566933 -2.20931E-05
vn -0.5538951 0.2170931 -0.8037853
vn 0.5538806 0.2170953 -0.8037947
vn 0.5697278 0.07054466 -0.8188001
vn -0.56974 0.07054473 -0.8187916
vn 0.5807976 0.01810889 -0.8138466
vn -0.5808078 0.01810886 -0.8138393
vn 0.4744442 -0.5952706 -0.6485025
vn -0.474453 -0.5952691 -0.6484976
vn 0.9999906 0.004344351 1.799411E-07
vn 0.4744442 -0.5952706 -0.6485025
vn 0.7642733 -0.6448924 1.217142E-07
vn 0.5807976 0.01810889 -0.8138466
vn 0.9995512 0.02995497 1.520802E-07
vn 0.5697278 0.07054466 -0.8188001
vn 0.5538806 0.2170953 -0.8037947
vn 0.9948221 0.1016314 -3.07808E-06
vn 0.5597204 0.4006176 -0.7254093
vn 0.5158188 0.8566977 -2.210538E-05
vn 0.4744442 -0.5952706 0.6485026
vn 0.5807974 0.01810889 0.8138466
vn 0.5697278 0.0705445 0.8188002
vn 0.553885 0.2170855 0.8037944
vn 0.5597178 0.4006304 0.7254043
vn 0.5158188 0.8566977 -2.210538E-05
vn -0.559735 0.4006257 0.7253935
vn -0.5158262 0.8566933 -2.20931E-05
vn 0.5597178 0.4006304 0.7254043
vn -0.5538994 0.2170832 0.803785
vn 0.553885 0.2170855 0.8037944
vn 0.5697278 0.0705445 0.8188002
vn -0.5697399 0.07054456 0.8187917
vn 0.5807974 0.01810889 0.8138466
vn -0.5808077 0.01810886 0.8138393
vn 0.4744442 -0.5952706 0.6485026
vn -0.4744528 -0.595269 0.6484977
vn 0.478688 -0.5945007 -0.6460856
vn -0.487435 0.4715955 -0.7348502
vn -0.4786677 -0.5945044 -0.6460974
vn 0.4874575 0.4715936 -0.7348365
vn 0.7427003 -0.6303061 -0.2260764
vn -0.7427006 -0.6302888 -0.2261236
vn -0.6363776 0.6483922 -0.417865
vn 0.6363787 0.6484123 -0.417832
vn 0.6363787 0.6484123 -0.417832
vn 0.478688 -0.5945007 -0.6460856
vn 0.7427003 -0.6303061 -0.2260764
vn 0.4874575 0.4715936 -0.7348365
vn -0.7427006 -0.6302888 -0.2261236
vn -0.487435 0.4715955 -0.7348502
vn -0.6363776 0.6483922 -0.417865
vn -0.4786677 -0.5945044 -0.6460974
vn -0.8059321 0.3354681 0.4877854
vn -0.7386049 -0.07784808 -0.6696286
vn -0.983868 -0.106407 0.1438102
vn -1 0 0
vn -1 0 0
vn -0.6737323 -0.1010658 -0.7320318
vn -0.5442301 0.6990677 -0.4638081
vn -0.7632797 0.5911441 0.2606774
vn -0.7499678 0.6614745 0
vn -0.6452275 -0.7639905 1.291967E-07
vn -0.9838669 -0.1064116 -0.1438134
vn -0.7632797 0.5911441 -0.2606774
vn -0.776633 -0.004150732 -0.6299397
vn -0.3210202 -0.4391311 -0.8391125
vn -0.6321841 -0.07813249 -0.7708687
vn -0.5442301 0.6990676 0.4638081
vn -0.7386049 -0.07784808 0.6696286
vn -0.8059383 0.3354539 -0.4877848
vn -1 0 0
vn -1 0 0
vn -0.6737324 -0.1010653 0.7320318
vn -0.7766324 -0.004151182 0.6299403
vn -0.3210203 -0.4391297 0.8391132
vn -0.6321846 -0.07813296 0.7708683
vn 0.7386049 -0.07784808 -0.6696286
vn -0.5442301 0.6990677 -0.4638081
vn -0.7386049 -0.07784808 -0.6696286
vn 0.5442301 0.6990677 -0.4638081
vn -0.6737323 -0.1010658 -0.7320318
vn 0.6737323 -0.1010658 -0.7320318
vn -0.776633 -0.004150732 -0.6299397
vn 0.776633 -0.004150732 -0.6299397
vn -0.6321841 -0.07813249 -0.7708687
vn 0.6321841 -0.07813249 -0.7708687
vn -0.3210202 -0.4391311 -0.8391125
vn 0.3210202 -0.4391311 -0.8391125
vn 0.8059321 0.3354681 0.4877854
vn -0.983868 -0.106407 0.1438102
vn 0.983868 -0.106407 0.1438102
vn -0.8059321 0.3354681 0.4877854
vn 0.7632797 0.5911441 0.2606774
vn -0.7499678 0.6614745 0
vn -0.7632797 0.5911441 0.2606774
vn 0.7499678 0.6614745 0
vn -0.5442301 0.6990677 -0.4638081
vn 0.5442301 0.6990677 -0.4638081
vn 0.7632797 0.5911441 -0.2606774
vn -0.7632797 0.5911441 -0.2606774
vn -0.5442301 0.6990676 0.4638081
vn 0.5442301 0.6990676 0.4638081
vn 0.8059321 0.3354681 0.4877854
vn 0.7386049 -0.07784808 -0.6696286
vn 1 0 0
vn 0.983868 -0.106407 0.1438102
vn 1 0 0
vn 0.6737323 -0.1010658 -0.7320318
vn 0.5442301 0.6990677 -0.4638081
vn 0.7632797 0.5911441 0.2606774
vn 0.7499678 0.6614745 0
vn 0.6452275 -0.7639905 1.291967E-07
vn 0.9838669 -0.1064116 -0.1438134
vn 0.7632797 0.5911441 -0.2606774
vn 0.776633 -0.004150732 -0.6299397
vn 0.3210202 -0.4391311 -0.8391125
vn 0.6321841 -0.07813249 -0.7708687
vn 0.5442301 0.6990676 0.4638081
vn 0.7386049 -0.07784808 0.6696286
vn 0.8059383 0.3354539 -0.4877848
vn 1 0 0
vn 1 0 0
vn 0.6737324 -0.1010653 0.7320318
vn 0.7766324 -0.004151182 0.6299403
vn 0.3210203 -0.4391297 0.8391132
vn 0.6321846 -0.07813296 0.7708683
vn 0.6452275 -0.7639905 1.291967E-07
vn -0.983868 -0.106407 0.1438102
vn -0.6452275 -0.7639905 1.291967E-07
vn 0.983868 -0.106407 0.1438102
vn -0.9838669 -0.1064116 -0.1438134
vn 0.9838669 -0.1064116 -0.1438134
vn 0.478688 -0.5945007 0.6460856
vn -0.487435 0.4715955 0.7348502
vn 0.4874575 0.4715936 0.7348365
vn -0.4786677 -0.5945044 0.6460974
vn 0.7427003 -0.6303061 0.2260765
vn -0.7427006 -0.6302888 0.2261236
vn -0.6363776 0.6483922 0.417865
vn 0.6363787 0.6484123 0.417832
vn 0.6363787 0.6484123 0.417832
vn 0.478688 -0.5945007 0.6460856
vn 0.4874575 0.4715936 0.7348365
vn 0.7427003 -0.6303061 0.2260765
vn -0.7427006 -0.6302888 0.2261236
vn -0.487435 0.4715955 0.7348502
vn -0.4786677 -0.5945044 0.6460974
vn -0.6363776 0.6483922 0.417865
vn 0.7386049 -0.07784808 0.6696286
vn -0.5442301 0.6990676 0.4638081
vn 0.5442301 0.6990676 0.4638081
vn -0.7386049 -0.07784808 0.6696286
vn -0.6737324 -0.1010653 0.7320318
vn 0.6737324 -0.1010653 0.7320318
vn -0.7766324 -0.004151182 0.6299403
vn 0.7766324 -0.004151182 0.6299403
vn -0.6321846 -0.07813296 0.7708683
vn 0.6321846 -0.07813296 0.7708683
vn -0.3210203 -0.4391297 0.8391132
vn 0.3210203 -0.4391297 0.8391132
vn 0.8059383 0.3354539 -0.4877848
vn -0.9838669 -0.1064116 -0.1438134
vn -0.8059383 0.3354539 -0.4877848
vn 0.9838669 -0.1064116 -0.1438134
vn 0.4744442 -0.5952706 -0.6485025
vn -0.7642697 -0.6448969 1.064986E-07
vn 0.7642733 -0.6448924 1.217142E-07
vn -0.474453 -0.5952691 -0.6484976
vn 0.4744442 -0.5952706 0.6485026
vn -0.4744528 -0.595269 0.6484977
g WEAPON_SAMURAI_GOLD_00_0
f 3/3/3 2/2/2 1/1/1
f 2/2/2 4/4/4 1/1/1
f 3/3/3 1/1/1 5/5/5
f 6/6/6 3/3/3 5/5/5
f 7/7/7 6/6/6 5/5/5
f 8/8/8 7/7/7 5/5/5
f 9/9/9 7/7/7 8/8/8
f 10/10/10 9/9/9 8/8/8
f 4/4/4 11/11/11 1/1/1
f 11/11/11 12/12/12 1/1/1
f 1/1/1 12/12/12 5/5/5
f 12/12/12 13/13/13 5/5/5
f 13/13/13 14/14/14 5/5/5
f 14/14/14 8/8/8 5/5/5
f 14/14/14 15/15/15 8/8/8
f 15/15/15 10/10/10 8/8/8
f 18/18/18 17/17/17 16/16/16
f 17/17/17 19/19/19 16/16/16
f 20/20/20 17/17/17 18/18/18
f 21/21/21 20/20/20 18/18/18
f 20/20/20 21/21/21 22/22/22
f 23/23/23 20/20/20 22/22/22
f 23/23/23 22/22/22 24/24/24
f 25/25/25 23/23/23 24/24/24
f 25/25/25 24/24/24 26/26/26
f 27/27/27 25/25/25 26/26/26
f 30/30/30 29/29/29 28/28/28
f 29/29/29 31/31/31 28/28/28
f 28/28/28 31/31/31 32/32/32
f 31/31/31 33/33/33 32/32/32
f 33/33/33 34/34/34 32/32/32
f 34/34/34 35/35/35 32/32/32
f 34/34/34 36/36/36 35/35/35
f 36/36/36 37/37/37 35/35/35
f 38/38/38 30/30/30 28/28/28
f 39/39/39 38/38/38 28/28/28
f 39/39/39 28/28/28 32/32/32
f 40/40/40 39/39/39 32/32/32
f 35/35/35 41/41/41 32/32/32
f 41/41/41 40/40/40 32/32/32
f 37/37/37 42/42/42 35/35/35
f 42/42/42 41/41/41 35/35/35
f 45/45/45 44/44/44 43/43/43
f 44/44/44 46/46/46 43/43/43
f 44/44/44 47/47/47 46/46/46
f 47/47/47 48/48/48 46/46/46
f 48/48/48 47/47/47 49/49/49
f 47/47/47 50/50/50 49/49/49
f 49/49/49 50/50/50 51/51/51
f 50/50/50 52/52/52 51/51/51
f 51/51/51 52/52/52 53/53/53
f 52/52/52 54/54/54 53/53/53
f 57/57/57 56/56/56 55/55/55
f 56/56/56 58/58/58 55/55/55
f 57/57/57 55/55/55 59/59/59
f 60/60/60 57/57/57 59/59/59
f 58/58/58 56/56/56 61/61/61
f 62/62/62 58/58/58 61/61/61
f 65/65/65 64/64/64 63/63/63
f 64/64/64 66/66/66 63/63/63
f 69/69/69 68/68/68 67/67/67
f 68/68/68 70/70/70 67/67/67
f 73/73/73 72/72/72 71/71/71
f 72/72/72 74/74/74 71/71/71
f 74/74/74 72/72/72 75/75/75
f 72/72/72 76/76/76 75/75/75
f 72/72/72 73/73/73 77/77/77
f 73/73/73 78/78/78 77/77/77
f 79/79/79 78/78/78 73/73/73
f 80/80/80 79/79/79 73/73/73
f 79/79/79 80/80/80 81/81/81
f 82/82/82 79/79/79 81/81/81
f 76/76/76 83/83/83 75/75/75
f 75/75/75 83/83/83 84/84/84
f 83/83/83 85/85/85 84/84/84
f 82/82/82 81/81/81 86/86/86
f 81/81/81 87/87/87 86/86/86
f 87/87/87 81/81/81 88/88/88
f 89/89/89 87/87/87 88/88/88
f 87/87/87 89/89/89 90/90/90
f 91/91/91 87/87/87 90/90/90
f 92/92/92 91/91/91 90/90/90
f 92/92/92 90/90/90 93/93/93
f 94/94/94 92/92/92 93/93/93
f 97/97/97 96/96/96 95/95/95
f 96/96/96 98/98/98 95/95/95
f 99/99/99 97/97/97 95/95/95
f 100/100/100 99/99/99 95/95/95
f 101/101/101 99/99/99 100/100/100
f 102/102/102 101/101/101 100/100/100
f 103/103/103 101/101/101 102/102/102
f 104/104/104 103/103/103 102/102/102
f 105/105/105 103/103/103 104/104/104
f 106/106/106 105/105/105 104/104/104
f 109/109/109 108/108/108 107/107/107
f 108/108/108 110/110/110 107/107/107
f 113/113/113 112/112/112 111/111/111
f 112/112/112 114/114/114 111/111/111
f 115/115/115 113/113/113 111/111/111
f 116/116/116 115/115/115 111/111/111
f 114/114/114 112/112/112 117/117/117
f 112/112/112 118/118/118 117/117/117
f 118/118/118 119/119/119 117/117/117
f 119/119/119 120/120/120 117/117/117
f 123/123/123 122/122/122 121/121/121
f 122/122/122 124/124/124 121/121/121
f 122/122/122 123/123/123 125/125/125
f 126/126/126 122/122/122 125/125/125
f 124/124/124 122/122/122 127/127/127
f 128/128/128 124/124/124 127/127/127
f 128/128/128 129/129/129 124/124/124
f 129/129/129 130/130/130 124/124/124
f 130/130/130 129/129/129 131/131/131
f 129/129/129 132/132/132 131/131/131
f 133/133/133 126/126/126 125/125/125
f 133/133/133 125/125/125 134/134/134
f 135/135/135 133/133/133 134/134/134
f 131/131/131 132/132/132 136/136/136
f 137/137/137 131/131/131 136/136/136
f 131/131/131 137/137/137 138/138/138
f 137/137/137 139/139/139 138/138/138
f 139/139/139 137/137/137 140/140/140
f 137/137/137 141/141/141 140/140/140
f 141/141/141 142/142/142 140/140/140
f 140/140/140 142/142/142 143/143/143
f 142/142/142 144/144/144 143/143/143
f 147/147/147 146/146/146 145/145/145
f 146/146/146 148/148/148 145/145/145
f 149/149/149 147/147/147 145/145/145
f 150/150/150 149/149/149 145/145/145
f 153/153/153 152/152/152 151/151/151
f 152/152/152 154/154/154 151/151/151
f 151/151/151 154/154/154 155/155/155
f 154/154/154 156/156/156 155/155/155
f 152/152/152 153/153/153 157/157/157
f 153/153/153 158/158/158 157/157/157
f 161/161/161 160/160/160 159/159/159
f 160/160/160 162/162/162 159/159/159
f 165/165/165 164/164/164 163/163/163
f 164/164/164 166/166/166 163/163/163
f 169/169/169 168/168/168 167/167/167
f 168/168/168 170/170/170 167/167/167
f 170/170/170 171/171/171 167/167/167
f 171/171/171 172/172/172 167/167/167
f 171/171/171 173/173/173 172/172/172
f 173/173/173 174/174/174 172/172/172
f 173/173/173 175/175/175 174/174/174
f 175/175/175 176/176/176 174/174/174
f 175/175/175 177/177/177 176/176/176
f 177/177/177 178/178/178 176/176/176
f 181/181/181 180/180/180 179/179/179
f 180/180/180 182/182/182 179/179/179
f 185/185/185 184/184/184 183/183/183
f 184/184/184 186/186/186 183/183/183
f 184/184/184 185/185/185 187/187/187
f 188/188/188 184/184/184 187/187/187
